<?xml version="1.0" encoding="UTF-8"?>
<svg version="1.1" xmlns="http://www.w3.org/2000/svg" width="200" height="200">
<path d="M0 0 C66 0 132 0 200 0 C200 66 200 132 200 200 C134 200 68 200 0 200 C0 134 0 68 0 0 Z " fill="#FEFEFE" transform="translate(0,0)"/>
<path d="M0 0 C2.31 0 4.62 0 7 0 C5.125 4.875 5.125 4.875 4 6 C5.175625 7.0828125 5.175625 7.0828125 6.375 8.1875 C9.62349307 11.66802829 10.91391535 14.06309534 11.125 18.8125 C11.08375 19.534375 11.0425 20.25625 11 21 C13.18736102 20.18262144 13.18736102 20.18262144 13.81640625 17.96875 C14.06261719 17.1540625 14.30882813 16.339375 14.5625 15.5 C15.90888383 11.09111617 15.90888383 11.09111617 17 10 C19.33297433 9.95907063 21.66705225 9.95758277 24 10 C24.33 9.01 24.66 8.02 25 7 C28.375 6.875 28.375 6.875 32 7 C34 9 34 9 34.25 12.4375 C34 16 34 16 32 19 C32.66 19 33.32 19 34 19 C34.28875 18.236875 34.5775 17.47375 34.875 16.6875 C36 14 36 14 38 11 C38.66515625 10.85691406 39.3303125 10.71382812 40.015625 10.56640625 C42.17079478 10.20209713 42.17079478 10.20209713 43.046875 8.15234375 C43.27890625 7.42144531 43.5109375 6.69054687 43.75 5.9375 C44.11351562 4.83728516 44.11351562 4.83728516 44.484375 3.71484375 C44.65453125 3.14894531 44.8246875 2.58304688 45 2 C47.31 2 49.62 2 52 2 C51.29445932 5.66881155 49.72264494 8.70450534 48 12 C49.175625 12.1546875 49.175625 12.1546875 50.375 12.3125 C53 13 53 13 55 16 C55.350625 15.34 55.70125 14.68 56.0625 14 C58 12 58 12 61.6875 11.75 C62.780625 11.8325 63.87375 11.915 65 12 C65 11.34 65 10.68 65 10 C66.47906892 9.97310784 67.95827483 9.95365379 69.4375 9.9375 C70.26121094 9.92589844 71.08492187 9.91429688 71.93359375 9.90234375 C74 10 74 10 75 11 C75.33492217 14.40687922 75.325022 17.82877845 75.375 21.25 C75.43107422 22.68279297 75.43107422 22.68279297 75.48828125 24.14453125 C75.54332687 28.54206492 75.55707903 31.16944581 73.06640625 34.8828125 C69.0829698 37.6331597 64.974723 39.65495432 60.5625 41.625 C58.89693334 42.38757963 57.23156421 43.15059086 55.56640625 43.9140625 C54.78064209 44.27177734 53.99487793 44.62949219 53.18530273 44.99804688 C46.53483684 48.0472606 41.79662209 50.53983895 38.3125 57.25 C37.274158 60.21669143 36.66020752 62.75346988 36.125 65.8125 C35.28590909 69.79818182 35.28590909 69.79818182 32.875 71.5 C25.91662084 72.7101529 19.17786991 73.19286697 12.125 73.1875 C11.24384521 73.18814453 10.36269043 73.18878906 9.45483398 73.18945312 C4.13326719 73.1461203 -0.8614585 72.82794388 -6.02734375 71.4375 C-8.38894857 70.91373814 -10.58880154 70.93290578 -13 71 C-10.36111727 74.24421784 -7.32218811 75.20221953 -3.4375 76.5625 C-2.28121094 76.97628906 -1.12492187 77.39007813 0.06640625 77.81640625 C8.30560008 80.4327341 16.25271906 81.33774319 24.875 81.25 C25.84171631 81.24323242 26.80843262 81.23646484 27.80444336 81.22949219 C38.36299895 81.07673993 47.53090799 79.28758206 57.55078125 76 C62.52789625 74.55703121 67.56831612 73.77937584 72.6875 73.00390625 C76.63875016 71.80641652 78.27363002 70.03037229 81 67 C83.3125 66.1875 83.3125 66.1875 85 66 C85.36471467 70.49814763 85.36471467 70.49814763 83.85595703 72.57421875 C81.36743532 74.48594813 79.18700031 74.87173315 76.1171875 75.5 C74.36535156 75.87125 74.36535156 75.87125 72.578125 76.25 C71.35609375 76.4975 70.1340625 76.745 68.875 77 C61.7836825 78.46401393 54.83666151 79.91351749 47.99755859 82.31103516 C31.3156601 88.06467944 12.08026704 88.27336263 -5.375 88.3125 C-6.55030273 88.31781738 -7.72560547 88.32313477 -8.93652344 88.32861328 C-14.31443086 88.28375804 -18.99385947 88.22003759 -24 86 C-23.125 81.125 -23.125 81.125 -22 80 C-22.69875244 80.07001221 -23.39750488 80.14002441 -24.11743164 80.2121582 C-32.23557329 80.96431829 -40.2872872 81.18316709 -48.4375 81.1875 C-49.67693359 81.19974609 -50.91636719 81.21199219 -52.19335938 81.22460938 C-53.38638672 81.22654297 -54.57941406 81.22847656 -55.80859375 81.23046875 C-56.87907959 81.23457764 -57.94956543 81.23868652 -59.05249023 81.24291992 C-62.07616898 80.99372251 -64.26436469 80.27599766 -67 79 C-67 78.34 -67 77.68 -67 77 C-64.525 76.01 -64.525 76.01 -62 75 C-62 74.34 -62 73.68 -62 73 C-63.5778125 73.0928125 -63.5778125 73.0928125 -65.1875 73.1875 C-69.21225709 72.98956113 -71.02723853 72.70251043 -74 70 C-74.89740037 65.06429795 -73.32850575 61.3358383 -71 57 C-66.17417095 52.39733067 -60.12836943 50.13080522 -54.125 47.44335938 C-45.9037609 43.67855385 -39.66756448 39.05652819 -33.5 32.375 C-30.90587249 29.99704978 -28.19903197 28.26645155 -24.75 27.5 C-23.88375 27.2525 -23.88375 27.2525 -23 27 C-22.505 25.515 -22.505 25.515 -22 24 C-20.58203125 22.67578125 -20.58203125 22.67578125 -18.8125 21.3125 C-15.35653053 18.47519173 -12.83635273 15.37413153 -10.26171875 11.734375 C-9 10 -9 10 -7 8 C-6.360625 7.938125 -5.72125 7.87625 -5.0625 7.8125 C-2.54741335 7.08914845 -2.54741335 7.08914845 -1.25 3.4375 C-0.8375 2.303125 -0.425 1.16875 0 0 Z " fill="#414135" transform="translate(94,58)"/>
<path d="M0 0 C0.33 0 0.66 0 1 0 C1.17015625 1.11117187 1.3403125 2.22234375 1.515625 3.3671875 C2.7218052 10.89205904 3.97187247 17.90500632 7.078125 24.91796875 C10.47219984 32.58340048 10.47219984 32.58340048 9 37 C7.00854609 38.01691264 5.00812926 39.01642648 3 40 C2.34 40.99 1.68 41.98 1 43 C-1.08789062 43.75195312 -1.08789062 43.75195312 -3.65625 44.28125 C-4.59726563 44.48363281 -5.53828125 44.68601563 -6.5078125 44.89453125 C-7.98894531 45.19423828 -7.98894531 45.19423828 -9.5 45.5 C-15.14410663 46.67902497 -20.71584702 47.85776529 -26.21875 49.59375 C-44.9552177 55.3692217 -66.57239468 52.92688329 -84.30078125 45.125 C-86.40848857 43.72955239 -87.59207106 42.07940275 -89 40 C-87.45808846 40.14322103 -85.91648108 40.28971789 -84.375 40.4375 C-83.51648438 40.51871094 -82.65796875 40.59992188 -81.7734375 40.68359375 C-79 41 -79 41 -76.265625 41.5234375 C-71.95441694 42.15258509 -67.72648713 42.19077796 -63.375 42.1875 C-62.05290527 42.1884668 -62.05290527 42.1884668 -60.70410156 42.18945312 C-53.95290975 42.13502798 -47.59824747 41.50204007 -41 40 C-40.82984375 39.21496094 -40.6596875 38.42992187 -40.484375 37.62109375 C-38.44281298 28.77070522 -36.81467365 22.64536764 -29.04199219 17.26000977 C-25.53258027 15.09452975 -21.79678721 13.52692686 -18 11.9375 C-8.13631342 8.34129384 -8.13631342 8.34129384 -0.5625 1.75 C-0.2840625 0.88375 -0.2840625 0.88375 0 0 Z " fill="#CDCCC9" transform="translate(169,88)"/>
<path d="M0 0 C0.4021875 0.928125 0.4021875 0.928125 0.8125 1.875 C1.95556848 4.2995233 1.95556848 4.2995233 5 6 C8.43988753 6.02317638 8.43988753 6.02317638 12.1875 5.625 C13.45980469 5.51414062 14.73210937 5.40328125 16.04296875 5.2890625 C17.50669922 5.14597656 17.50669922 5.14597656 19 5 C15.99559979 7.00293347 14.29006055 7.49271626 10.8125 8.125 C9.91144531 8.29257813 9.01039062 8.46015625 8.08203125 8.6328125 C7.39496094 8.75398438 6.70789063 8.87515625 6 9 C6.495 10.485 6.495 10.485 7 12 C5.02 13.32 3.04 14.64 1 16 C5.68738665 15.09276387 10.34193744 14.0452733 15 13 C9.59310527 18.94758421 2.95181336 23.43654953 -4.0625 27.3125 C-7.07064634 28.6806304 -7.07064634 28.6806304 -8 31 C-11.28324906 33.28003407 -14.04628701 34.43518386 -18 35 C-17.67 34.01 -17.34 33.02 -17 32 C-17.99 32.33 -18.98 32.66 -20 33 C-21.21869929 35.50447516 -21.21869929 35.50447516 -22 38 C-24.64 37.67 -27.28 37.34 -30 37 C-27.83909114 39.16090886 -22.7994153 38.72400131 -20 39 C-20.66 41.97 -21.32 44.94 -22 48 C-32.32507232 48.53270479 -43.17712734 43.61935379 -51 37 C-51.33 36.34 -51.66 35.68 -52 35 C-48.535 34.505 -48.535 34.505 -45 34 C-48.17569923 32.17247497 -50.86327487 31.58969411 -54.5 31.25 C-55.4384375 31.15203125 -56.376875 31.0540625 -57.34375 30.953125 C-60.15857407 31.00279837 -61.62602971 31.5442635 -64 33 C-60.72358545 25.4292557 -50.90573223 22.36415853 -43.81201172 18.94238281 C-37.3177461 15.7797655 -32.06441583 12.20509405 -27 7 C-26.34 6.67 -25.68 6.34 -25 6 C-25.33 7.65 -25.66 9.3 -26 11 C-23.36 11.33 -20.72 11.66 -18 12 C-18.495 10.515 -18.495 10.515 -19 9 C-16.64561267 7.57055055 -15.51967567 6.91338739 -12.75 7.375 C-12.1725 7.58125 -11.595 7.7875 -11 8 C-11.495 6.02 -11.495 6.02 -12 4 C-7.74938644 2.58312881 -5.28148375 3.80679961 -1 5 C-2.25541557 2.48916886 -3.50063488 2.12874554 -6 1 C-3.92446352 0.4465236 -2.15634036 0 0 0 Z " fill="#444436" transform="translate(86,85)"/>
<path d="M0 0 C3.1875 1.5 3.1875 1.5 5 3 C5 3.33 5 3.66 5 4 C2.69 4.33 0.38 4.66 -2 5 C6.53684397 11.5720148 16.32882546 15.49405276 27 17 C26.95875 16.071875 26.9175 15.14375 26.875 14.1875 C27 11 27 11 29 8 C28.06027344 8.03480469 28.06027344 8.03480469 27.1015625 8.0703125 C25.87566406 8.09738281 25.87566406 8.09738281 24.625 8.125 C23.81289063 8.14820312 23.00078125 8.17140625 22.1640625 8.1953125 C20 8 20 8 18 6 C20.91482778 5.19032562 22.46113217 4.78154007 25.3125 5.9375 C25.869375 6.288125 26.42625 6.63875 27 7 C27.2475 6.030625 27.495 5.06125 27.75 4.0625 C28.36875 2.5465625 28.36875 2.5465625 29 1 C31.125 0.125 31.125 0.125 33 0 C32.34 1.32 31.68 2.64 31 4 C32.11117187 4.09796875 33.22234375 4.1959375 34.3671875 4.296875 C42.80556872 5.1182348 50.3240812 6.11489122 58 10 C57.67 10.99 57.34 11.98 57 13 C52.71 13 48.42 13 44 13 C47.24300056 16.24300056 49.29053009 17.06660713 53.5625 18.5625 C54.71878906 18.97628906 55.87507813 19.39007813 57.06640625 19.81640625 C65.30560008 22.4327341 73.25271906 23.33774319 81.875 23.25 C82.84171631 23.24323242 83.80843262 23.23646484 84.80444336 23.22949219 C95.36299895 23.07673993 104.53090799 21.28758206 114.55078125 18 C119.52789625 16.55703121 124.56831612 15.77937584 129.6875 15.00390625 C133.63875016 13.80641652 135.27363002 12.03037229 138 9 C140.3125 8.1875 140.3125 8.1875 142 8 C142.36471467 12.49814763 142.36471467 12.49814763 140.85595703 14.57421875 C138.36743532 16.48594813 136.18700031 16.87173315 133.1171875 17.5 C131.94929687 17.7475 130.78140625 17.995 129.578125 18.25 C128.35609375 18.4975 127.1340625 18.745 125.875 19 C118.7836825 20.46401393 111.83666151 21.91351749 104.99755859 24.31103516 C88.3156601 30.06467944 69.08026704 30.27336263 51.625 30.3125 C50.44969727 30.31781738 49.27439453 30.32313477 48.06347656 30.32861328 C42.68556914 30.28375804 38.00614053 30.22003759 33 28 C33.875 23.125 33.875 23.125 35 22 C33.95187134 22.10501831 33.95187134 22.10501831 32.88256836 22.2121582 C24.76442671 22.96431829 16.7127128 23.18316709 8.5625 23.1875 C7.32306641 23.19974609 6.08363281 23.21199219 4.80664062 23.22460938 C3.61361328 23.22654297 2.42058594 23.22847656 1.19140625 23.23046875 C0.12092041 23.23457764 -0.94956543 23.23868652 -2.05249023 23.24291992 C-5.07616898 22.99372251 -7.26436469 22.27599766 -10 21 C-10 20.34 -10 19.68 -10 19 C-8.35 18.34 -6.7 17.68 -5 17 C-5 16.34 -5 15.68 -5 15 C-6.5778125 15.0928125 -6.5778125 15.0928125 -8.1875 15.1875 C-12.21225709 14.98956113 -14.02723853 14.70251043 -17 12 C-17.8054826 7.972587 -17.15250073 6.26941795 -15.125 2.6875 C-10.99881999 -2.53090414 -6.08484648 -1.01706368 0 0 Z " fill="#21201F" transform="translate(37,116)"/>
<path d="M0 0 C2.31 0 4.62 0 7 0 C5.125 4.875 5.125 4.875 4 6 C4.78375 6.721875 5.5675 7.44375 6.375 8.1875 C9.62349307 11.66802829 10.91391535 14.06309534 11.125 18.8125 C11.08375 19.534375 11.0425 20.25625 11 21 C13.18736102 20.18262144 13.18736102 20.18262144 13.81640625 17.96875 C14.06261719 17.1540625 14.30882812 16.339375 14.5625 15.5 C15.90888383 11.09111617 15.90888383 11.09111617 17 10 C19.33297433 9.95907063 21.66705225 9.95758277 24 10 C24.33 9.01 24.66 8.02 25 7 C28.375 6.875 28.375 6.875 32 7 C34 9 34 9 34.375 12.25 C33.93880708 16.61192917 32.5577817 18.51211587 30 22 C29.23060319 24.22602615 29.23060319 24.22602615 29 26 C28.34 26 27.68 26 27 26 C26.34 27.98 25.68 29.96 25 32 C31.93 33.485 31.93 33.485 39 35 C39 35.66 39 36.32 39 37 C35.7 36.67 32.4 36.34 29 36 C29.99 38.475 29.99 38.475 31 41 C28.36 41 25.72 41 23 41 C23 42.32 23 43.64 23 45 C17.99109914 44.38487182 12.99367864 43.7282448 8 43 C8 42.01 8 41.02 8 40 C10.475 39.505 10.475 39.505 13 39 C13 38.34 13 37.68 13 37 C11.81921875 37.51691406 10.6384375 38.03382812 9.421875 38.56640625 C7.86483847 39.23236766 6.30753256 39.89769952 4.75 40.5625 C3.58404297 41.07586914 3.58404297 41.07586914 2.39453125 41.59960938 C1.64042969 41.91865234 0.88632813 42.23769531 0.109375 42.56640625 C-0.92751465 43.01415405 -0.92751465 43.01415405 -1.98535156 43.47094727 C-4.35070424 44.09209599 -5.71013447 43.77451334 -8 43 C-6.06745228 40.9754262 -4.36841312 39.57894208 -2 38 C-2 37.34 -2 36.68 -2 36 C1.3 35.01 4.6 34.02 8 33 C7.26394531 33.11859375 6.52789062 33.2371875 5.76953125 33.359375 C-2.23973228 34.41740189 -2.23973228 34.41740189 -6.1875 32.25 C-8 30 -8 30 -8 27 C-8.66 27.66 -9.32 28.32 -10 29 C-9.67 29.99 -9.34 30.98 -9 32 C-12.3 31.67 -15.6 31.34 -19 31 C-19 32.32 -19 33.64 -19 35 C-22.465 35.495 -22.465 35.495 -26 36 C-26 36.99 -26 37.98 -26 39 C-31.75 39.125 -31.75 39.125 -34 38 C-33.875 35.25 -33.875 35.25 -33 32 C-30.28961783 29.77146355 -28.11127332 28.27030973 -24.6875 27.4375 C-24.130625 27.293125 -23.57375 27.14875 -23 27 C-22.67 26.01 -22.34 25.02 -22 24 C-20.58203125 22.67578125 -20.58203125 22.67578125 -18.8125 21.3125 C-15.35653053 18.47519173 -12.83635273 15.37413153 -10.26171875 11.734375 C-9 10 -9 10 -7 8 C-6.0409375 7.9071875 -6.0409375 7.9071875 -5.0625 7.8125 C-2.54741335 7.08914845 -2.54741335 7.08914845 -1.25 3.4375 C-0.63125 1.7359375 -0.63125 1.7359375 0 0 Z " fill="#2A261E" transform="translate(94,58)"/>
<path d="M0 0 C0.33 0 0.66 0 1 0 C3.01788639 7.81930976 4.00647975 15.94816199 3 24 C-0.4414528 26.29430187 -1.17726848 26.08741295 -5.125 25.75 C-10.74762635 25.62389888 -13.54060407 27.13477688 -17.94140625 30.4765625 C-20.80597587 32.59645273 -23.69117193 33.68895492 -27 35 C-28.051875 35.556875 -29.10375 36.11375 -30.1875 36.6875 C-33 38 -33 38 -37 38 C-37 38.66 -37 39.32 -37 40 C-38.98 40.495 -38.98 40.495 -41 41 C-37.44536583 23.09218391 -37.44536583 23.09218391 -29.04199219 17.26220703 C-25.53375368 15.09367605 -21.79726109 13.52712524 -18 11.9375 C-8.13631342 8.34129384 -8.13631342 8.34129384 -0.5625 1.75 C-0.2840625 0.88375 -0.2840625 0.88375 0 0 Z " fill="#D3D1C7" transform="translate(169,88)"/>
<path d="M0 0 C2 0.3125 2 0.3125 4 1 C4.33 1.66 4.66 2.32 5 3 C5.33 2.34 5.66 1.68 6 1 C8.29199177 1.14063135 10.58359186 1.28765943 12.875 1.4375 C14.15117187 1.51871094 15.42734375 1.59992188 16.7421875 1.68359375 C20 2 20 2 22 3 C21.34 7.29 20.68 11.58 20 16 C13.375 15.25 13.375 15.25 10 13 C10.66 14.65 11.32 16.3 12 18 C8.53348802 22.37081945 4.30766082 23.85856757 -1 25 C-4.46321355 24.7691191 -6.98119822 23.6771121 -10 22 C-10 21.01 -10 20.02 -10 19 C-13.63 19 -17.26 19 -21 19 C-20 15 -20 15 -18 13 C-14.875 12.875 -14.875 12.875 -12 13 C-12 11.68 -12 10.36 -12 9 C-11.401875 8.855625 -10.80375 8.71125 -10.1875 8.5625 C-5.00174848 7.22902104 -3.82662356 5.52259769 -1 1 C-0.67 0.67 -0.34 0.34 0 0 Z " fill="#2A2A24" transform="translate(144,71)"/>
<path d="M0 0 C2.31 0 4.62 0 7 0 C5.125 4.875 5.125 4.875 4 6 C4.78375 6.721875 5.5675 7.44375 6.375 8.1875 C9.62349307 11.66802829 10.91391535 14.06309534 11.125 18.8125 C11.08375 19.534375 11.0425 20.25625 11 21 C11.99 20.67 12.98 20.34 14 20 C13.505 21.485 13.505 21.485 13 23 C9 23 9 23 7 22.4375 C4.67354625 21.92858824 3.24285752 22.27908151 1 23 C1.99 23 2.98 23 4 23 C5.33981486 23.3062434 6.67511887 23.63451555 8 24 C7.34 24 6.68 24 6 24 C6 24.66 6 25.32 6 26 C7.65 25.67 9.3 25.34 11 25 C8.57863896 28.12759134 6.71421818 29.30958787 2.875 29.875 C0.956875 29.936875 0.956875 29.936875 -1 30 C-1.66 29.34 -2.32 28.68 -3 28 C-4.85483454 27.39286197 -6.73421385 26.85868948 -8.625 26.375 C-9.62789062 26.11460938 -10.63078125 25.85421875 -11.6640625 25.5859375 C-12.43492188 25.39257812 -13.20578125 25.19921875 -14 25 C-14 24.34 -14 23.68 -14 23 C-15.70840281 24.63412443 -16.93453047 25.86906094 -18 28 C-20.64 28 -23.28 28 -26 28 C-25.01 27.67 -24.02 27.34 -23 27 C-22.67 26.01 -22.34 25.02 -22 24 C-20.58203125 22.67578125 -20.58203125 22.67578125 -18.8125 21.3125 C-15.35653053 18.47519173 -12.83635273 15.37413153 -10.26171875 11.734375 C-9 10 -9 10 -7 8 C-6.0409375 7.9071875 -6.0409375 7.9071875 -5.0625 7.8125 C-2.54741335 7.08914845 -2.54741335 7.08914845 -1.25 3.4375 C-0.8375 2.303125 -0.425 1.16875 0 0 Z " fill="#3E3E36" transform="translate(94,58)"/>
<path d="M0 0 C2.31 0 4.62 0 7 0 C6.29445932 3.66881155 4.72264494 6.70450534 3 10 C4.32 10.33 5.64 10.66 7 11 C6.236875 11.7425 5.47375 12.485 4.6875 13.25 C2.04644178 15.80014041 2.04644178 15.80014041 0.4375 18.25 C-1.30732256 20.37413181 -2.39099628 20.41087013 -5 21 C-5.66 21.99 -6.32 22.98 -7 24 C-8.7325 24.4640625 -8.7325 24.4640625 -10.5 24.9375 C-12.2325 25.4634375 -12.2325 25.4634375 -14 26 C-14.66 27.32 -15.32 28.64 -16 30 C-12.37 30 -8.74 30 -5 30 C-4.01 31.98 -3.02 33.96 -2 36 C-5.6441774 38.4294516 -7.71241272 38.16179575 -12 38 C-12 37.34 -12 36.68 -12 36 C-13.98 36.495 -13.98 36.495 -16 37 C-16 36.01 -16 35.02 -16 34 C-12.7 34.33 -9.4 34.66 -6 35 C-6 34.34 -6 33.68 -6 33 C-6.59167969 32.95101562 -7.18335938 32.90203125 -7.79296875 32.8515625 C-12.19104472 32.43543133 -15.96928897 31.95034405 -20 30 C-19.34 28.02 -18.68 26.04 -18 24 C-17.34 24 -16.68 24 -16 24 C-15.67 22.02 -15.34 20.04 -15 18 C-14.38125 17.938125 -13.7625 17.87625 -13.125 17.8125 C-10.75320779 17.18624774 -10.75320779 17.18624774 -9.875 14.625 C-9.58625 13.75875 -9.2975 12.8925 -9 12 C-7 9 -7 9 -4.984375 8.56640625 C-2.82920522 8.20209713 -2.82920522 8.20209713 -1.953125 6.15234375 C-1.72109375 5.42144531 -1.4890625 4.69054687 -1.25 3.9375 C-1.00765625 3.20402344 -0.7653125 2.47054687 -0.515625 1.71484375 C-0.34546875 1.14894531 -0.1753125 0.58304688 0 0 Z " fill="#4F4F43" transform="translate(139,60)"/>
<path d="M0 0 C2.22825644 2.22825644 2.69239369 3.65761628 3.625 6.625 C4.01558594 7.85089844 4.01558594 7.85089844 4.4140625 9.1015625 C4.60742188 9.72804688 4.80078125 10.35453125 5 11 C4.34 11 3.68 11 3 11 C2.731875 11.7425 2.46375 12.485 2.1875 13.25 C1.01041523 15.97588052 0.05205411 17.86013276 -2 20 C-4.33984375 20.13671875 -4.33984375 20.13671875 -6.9375 19.6875 C-10.32413792 19.13072242 -12.71030377 18.93905389 -16 20 C-15.67 17.69 -15.34 15.38 -15 13 C-15.928125 13.61875 -16.85625 14.2375 -17.8125 14.875 C-24 19 -24 19 -26.875 19.9375 C-29.91941371 20.97260066 -32.26320345 22.34351788 -35 24 C-36.33333333 24.33333333 -37.66666667 24.66666667 -39 25 C-39.33 25.66 -39.66 26.32 -40 27 C-41.65 27 -43.3 27 -45 27 C-45 26.01 -45 25.02 -45 24 C-43.35 23.67 -41.7 23.34 -40 23 C-40 22.34 -40 21.68 -40 21 C-39.05640625 20.63648438 -39.05640625 20.63648438 -38.09375 20.265625 C-28.72268867 16.69602952 -28.72268867 16.69602952 -20.11328125 11.63671875 C-15.09438244 8.0227044 -11.4831304 7.54420928 -5.3203125 7.921875 C-2.97362084 8.18558486 -2.97362084 8.18558486 -1 7 C-0.59270772 4.67843403 -0.25561323 2.3431213 0 0 Z " fill="#CDCECB" transform="translate(172,105)"/>
<path d="M0 0 C0.66 0.33 1.32 0.66 2 1 C3.15788776 5.01549539 3.19741729 9.02908363 3.25 13.1875 C3.27578125 14.41855469 3.3015625 15.64960937 3.328125 16.91796875 C3.21984375 17.93503906 3.1115625 18.95210937 3 20 C-0.43107552 22.28738368 -1.23776856 22.10775496 -5.1875 21.8125 C-10.43664767 21.68022705 -13.27833322 22.79043651 -17.44140625 25.90625 C-19 27 -19 27 -21 27 C-19.82209509 20.2691148 -15.08994789 17.02178713 -10 13 C-8.52377686 11.97491466 -7.04483555 10.95372638 -5.5625 9.9375 C-2.74686761 7.90554263 -1.46207549 6.48217251 -0.5 3.125 C-0.335 2.09375 -0.17 1.0625 0 0 Z " fill="#3C3B31" transform="translate(169,92)"/>
<path d="M0 0 C2.31 0 4.62 0 7 0 C5.125 4.875 5.125 4.875 4 6 C4.66 6.66 5.32 7.32 6 8 C5.21625 8.2475 4.4325 8.495 3.625 8.75 C-0.00284871 10.477547 -0.43217937 12.43849326 -1.75 16.0625 C-3.55681893 18.86306934 -6.03494875 19.61210367 -9 21 C-9.33 21.66 -9.66 22.32 -10 23 C-10.969375 23.12375 -11.93875 23.2475 -12.9375 23.375 C-16.11582828 23.6491645 -16.11582828 23.6491645 -17.375 26.0625 C-17.58125 26.701875 -17.7875 27.34125 -18 28 C-20.64 28 -23.28 28 -26 28 C-25.01 27.67 -24.02 27.34 -23 27 C-22.67 26.01 -22.34 25.02 -22 24 C-20.58203125 22.67578125 -20.58203125 22.67578125 -18.8125 21.3125 C-15.35653053 18.47519173 -12.83635273 15.37413153 -10.26171875 11.734375 C-9 10 -9 10 -7 8 C-6.0409375 7.9071875 -6.0409375 7.9071875 -5.0625 7.8125 C-2.54741335 7.08914845 -2.54741335 7.08914845 -1.25 3.4375 C-0.8375 2.303125 -0.425 1.16875 0 0 Z " fill="#5F5E54" transform="translate(94,58)"/>
<path d="M0 0 C3.1875 1.5 3.1875 1.5 5 3 C5 3.33 5 3.66 5 4 C2.69 4.33 0.38 4.66 -2 5 C-0.68 6.32 0.64 7.64 2 9 C-1.6441774 11.4294516 -3.71241272 11.16179575 -8 11 C-9.1490712 12.9254644 -9.1490712 12.9254644 -9 15 C-14.75 14.25 -14.75 14.25 -17 12 C-17.54596846 7.99623126 -17.13740284 6.24274502 -15.125 2.6875 C-10.99881999 -2.53090414 -6.08484648 -1.01706368 0 0 Z " fill="#323330" transform="translate(37,116)"/>
<path d="M0 0 C2 0.3125 2 0.3125 4 1 C4.33 1.66 4.66 2.32 5 3 C5.66 2.34 6.32 1.68 7 1 C8.231394 4.69418201 7.64432764 7.2056261 7 11 C6.01 11.33 5.02 11.66 4 12 C-0.63983448 13.59019185 -0.63983448 13.59019185 -4.30078125 16.62109375 C-6 18 -6 18 -9.13671875 18.07421875 C-10.89435547 17.88279297 -10.89435547 17.88279297 -12.6875 17.6875 C-13.86699219 17.56761719 -15.04648438 17.44773437 -16.26171875 17.32421875 C-17.16535156 17.21722656 -18.06898437 17.11023438 -19 17 C-18.67 15.68 -18.34 14.36 -18 13 C-16.02 13 -14.04 13 -12 13 C-12 11.68 -12 10.36 -12 9 C-11.401875 8.855625 -10.80375 8.71125 -10.1875 8.5625 C-5.00174848 7.22902104 -3.82662356 5.52259769 -1 1 C-0.67 0.67 -0.34 0.34 0 0 Z " fill="#414138" transform="translate(144,71)"/>
<path d="M0 0 C6.89367276 0.45717202 13.59320567 1.20256477 20.375 2.5234375 C24.23461702 3.22414178 28.09720636 3.61611866 32 4 C31.34 6.97 30.68 9.94 30 13 C19.67492768 13.53270479 8.82287266 8.61935379 1 2 C0.67 1.34 0.34 0.68 0 0 Z " fill="#C6C5C5" transform="translate(34,120)"/>
<path d="M0 0 C1.6875 2.25 1.6875 2.25 3 5 C2.67 6.32 2.34 7.64 2 9 C-0.97 9 -3.94 9 -7 9 C-7 9.99 -7 10.98 -7 12 C-8.7015625 12.4640625 -8.7015625 12.4640625 -10.4375 12.9375 C-13.78775099 13.62924531 -13.78775099 13.62924531 -15 15 C-21.38030379 15.43041732 -27.67763143 14.81578949 -34 14 C-28.85714286 7.42857143 -28.85714286 7.42857143 -25 6 C-25.33 7.65 -25.66 9.3 -26 11 C-23.36 11.33 -20.72 11.66 -18 12 C-18.33 11.01 -18.66 10.02 -19 9 C-16.64561267 7.57055055 -15.51967567 6.91338739 -12.75 7.375 C-12.1725 7.58125 -11.595 7.7875 -11 8 C-11.33 6.68 -11.66 5.36 -12 4 C-7.74938644 2.58312881 -5.28148375 3.80679961 -1 5 C-2.25541557 2.48916886 -3.50063488 2.12874554 -6 1 C-3.92446352 0.4465236 -2.15634036 0 0 0 Z " fill="#514F41" transform="translate(86,85)"/>
<path d="M0 0 C0.99 0.33 1.98 0.66 3 1 C3.56674779 6.55412833 2.60677654 9.30443742 -0.61328125 13.6171875 C-2 15 -2 15 -5 16 C-5.45375 16.53625 -5.9075 17.0725 -6.375 17.625 C-7.179375 18.305625 -7.179375 18.305625 -8 19 C-10.6015625 18.5859375 -10.6015625 18.5859375 -13 18 C-12.74863281 16.73542969 -12.74863281 16.73542969 -12.4921875 15.4453125 C-12.28851563 14.34960938 -12.08484375 13.25390625 -11.875 12.125 C-11.66617188 11.03445312 -11.45734375 9.94390625 -11.2421875 8.8203125 C-11.16226563 7.88960938 -11.08234375 6.95890625 -11 6 C-11.66 5.34 -12.32 4.68 -13 4 C-5.57142857 3.71428571 -5.57142857 3.71428571 -2 6 C-2.33 4.68 -2.66 3.36 -3 2 C-2.01 1.34 -1.02 0.68 0 0 Z " fill="#34322B" transform="translate(125,66)"/>
<path d="M0 0 C-0.639375 0.2475 -1.27875 0.495 -1.9375 0.75 C-4.18741541 1.81562433 -4.18741541 1.81562433 -4.75 4.125 C-4.8325 4.74375 -4.915 5.3625 -5 6 C-0.88697074 6.77381046 3.00056364 7.12830249 7.18359375 7.1328125 C8.35245117 7.13474609 9.52130859 7.13667969 10.72558594 7.13867188 C11.95051758 7.13416016 13.17544922 7.12964844 14.4375 7.125 C16.31163574 7.12209961 16.31163574 7.12209961 18.22363281 7.11914062 C26.85372025 7.0787607 35.40744229 6.81833883 44 6 C41.18024468 8.3433583 38.96718807 9.52454182 35.375 10.25 C34.21097656 10.50523437 34.21097656 10.50523437 33.0234375 10.765625 C30.34646071 10.97314258 28.17521731 10.84557424 25.52734375 10.53515625 C21.41676009 10.06627129 17.4297525 9.9663183 13.29296875 10.04296875 C12.12958984 10.06423828 10.96621094 10.08550781 9.76757812 10.10742188 C7.36104948 10.16125039 4.9547525 10.22654031 2.54882812 10.30273438 C1.39189453 10.32013672 0.23496094 10.33753906 -0.95703125 10.35546875 C-2.51901245 10.39643677 -2.51901245 10.39643677 -4.11254883 10.43823242 C-7.79732392 9.87898906 -9.44621146 8.68069947 -12 6 C-12 4.68 -12 3.36 -12 2 C-12.99 1.34 -13.98 0.68 -15 0 C-13.06325815 -0.19517554 -11.12555991 -0.38087873 -9.1875 -0.5625 C-8.10855469 -0.66691406 -7.02960938 -0.77132812 -5.91796875 -0.87890625 C-3 -1 -3 -1 0 0 Z " fill="#DFDFDF" transform="translate(75,138)"/>
<path d="M0 0 C0.99 0 1.98 0 3 0 C3.33 2.64 3.66 5.28 4 8 C2.2421875 8.94401042 0.484375 9.88802083 -1.2734375 10.83203125 C-3.30502365 12.04763493 -3.30502365 12.04763493 -5 15 C-7.06298828 15.70776367 -7.06298828 15.70776367 -9.5703125 16.16796875 C-10.46621094 16.33876953 -11.36210937 16.50957031 -12.28515625 16.68554688 C-13.22230469 16.85119141 -14.15945312 17.01683594 -15.125 17.1875 C-16.54232422 17.45336914 -16.54232422 17.45336914 -17.98828125 17.72460938 C-20.32367771 18.16102185 -22.66061086 18.58562106 -25 19 C-23.625 17 -23.625 17 -22 15 C-21.34 15 -20.68 15 -20 15 C-19.731875 14.38125 -19.46375 13.7625 -19.1875 13.125 C-18 11 -18 11 -15 9 C-12.94921875 9.12109375 -12.94921875 9.12109375 -10.6875 9.4375 C-8.28497008 9.63204598 -8.28497008 9.63204598 -6 9 C-3.9947526 6.79638404 -2.67770799 4.59986777 -1.2890625 1.96875 C-0.86367187 1.3190625 -0.43828125 0.669375 0 0 Z " fill="#D46A32" transform="translate(175,116)"/>
<path d="M0 0 C0.36471467 4.49814763 0.36471467 4.49814763 -1.14404297 6.57421875 C-3.63256468 8.48594813 -5.81299969 8.87173315 -8.8828125 9.5 C-10.05070312 9.7475 -11.21859375 9.995 -12.421875 10.25 C-13.64390625 10.4975 -14.8659375 10.745 -16.125 11 C-26.74430542 13.16943675 -26.74430542 13.16943675 -37.09790039 16.32714844 C-41.87677919 18.01763618 -46.0109343 19.40461202 -51 18 C-53.75317974 17.77609683 -56.49305329 17.58606338 -59.25 17.4375 C-60.36761719 17.37272461 -60.36761719 17.37272461 -61.5078125 17.30664062 C-63.338349 17.20103275 -65.16915176 17.10005799 -67 17 C-67 16.67 -67 16.34 -67 16 C-65.95211304 15.94839722 -65.95211304 15.94839722 -64.88305664 15.89575195 C-52.07350775 15.21724665 -40.03143257 14.35776529 -27.84765625 10.22265625 C-22.74324095 8.50117229 -17.48733047 7.75794426 -12.171875 6.96875 C-8.31004642 5.78927526 -6.69626435 3.9379984 -4 1 C-1 0 -1 0 0 0 Z " fill="#4A342C" transform="translate(179,124)"/>
<path d="M0 0 C0.33 0 0.66 0 1 0 C0.67 2.97 0.34 5.94 0 9 C-5.86923947 11.63516874 -11.38747842 13.78931278 -17.875 14.3125 C-23.39623633 14.8075074 -28.55169652 16.55730101 -33.79638672 18.27270508 C-38.38836816 19.72272089 -42.18286828 20.24654611 -47 20 C-47 19.34 -47 18.68 -47 18 C-36.06793668 14.53892667 -25.31393056 11.42233254 -13.9921875 9.54296875 C-11.08664374 9.1601264 -11.08664374 9.1601264 -9 8 C-7.00039988 7.960008 -4.99952758 7.95653201 -3 8 C-2.67 7.01 -2.34 6.02 -2 5 C-1.34 5 -0.68 5 0 5 C0 3.35 0 1.7 0 0 Z " fill="#D4D5D3" transform="translate(179,124)"/>
<path d="M0 0 C2.64 0.33 5.28 0.66 8 1 C8.33 2.65 8.66 4.3 9 6 C5.7 5.67 2.4 5.34 -1 5 C-1 6.32 -1 7.64 -1 9 C-3.31 9.33 -5.62 9.66 -8 10 C-8 10.99 -8 11.98 -8 13 C-13.75 13.125 -13.75 13.125 -16 12 C-15.81830834 8.00278343 -15.44830323 6.42588807 -12.5 3.625 C-8.13150158 1.59676859 -4.7269532 1.62184374 0 2 C0 1.34 0 0.68 0 0 Z " fill="#433E2F" transform="translate(76,84)"/>
<path d="M0 0 C2.00720923 0.28674418 4.0085944 0.61866701 6 1 C6 1.66 6 2.32 6 3 C3.69 3.66 1.38 4.32 -1 5 C-0.79375 5.5775 -0.5875 6.155 -0.375 6.75 C0 9 0 9 -2 13 C1.63 13 5.26 13 9 13 C9.99 14.98 10.98 16.96 12 19 C8.3558226 21.4294516 6.28758728 21.16179575 2 21 C2 20.34 2 19.68 2 19 C0.68 19.33 -0.64 19.66 -2 20 C-2 19.01 -2 18.02 -2 17 C1.3 17.33 4.6 17.66 8 18 C8 17.34 8 16.68 8 16 C7.40832031 15.95101562 6.81664062 15.90203125 6.20703125 15.8515625 C1.80895528 15.43543133 -1.96928897 14.95034405 -6 13 C-5.34 11.02 -4.68 9.04 -4 7 C-3.34 7 -2.68 7 -2 7 C-1.855625 6.030625 -1.71125 5.06125 -1.5625 4.0625 C-1 1 -1 1 0 0 Z " fill="#675846" transform="translate(125,77)"/>
<path d="M0 0 C1.875 0 1.875 0 4 1 C7.15759312 6.77077364 7.15759312 6.77077364 6.6875 10.4375 C6.460625 10.953125 6.23375 11.46875 6 12 C5.34 11.67 4.68 11.34 4 11 C-0.22146566 10.71856896 -3.17291493 11.19901879 -7 13 C-6.74126898 8.60157266 -6.43893111 6.50477078 -3.5 3.125 C-2.2625 2.073125 -2.2625 2.073125 -1 1 C-0.67 0.67 -0.34 0.34 0 0 Z " fill="#38362B" transform="translate(98,66)"/>
<path d="M0 0 C0.99 0.33 1.98 0.66 3 1 C3 1.99 3 2.98 3 4 C6.60484534 5.20161511 9.97289857 5.23017136 13.73046875 5.31640625 C14.48088943 5.33718735 15.23131012 5.35796844 16.00447083 5.37937927 C18.39872184 5.44469926 20.79308139 5.50367792 23.1875 5.5625 C24.81186013 5.60570193 26.43620933 5.64931676 28.06054688 5.69335938 C32.04025371 5.80036263 36.02006958 5.90167937 40 6 C40 6.33 40 6.66 40 7 C31.17539718 7.88419 22.42868067 8.18278645 13.5625 8.1875 C12.32306641 8.19974609 11.08363281 8.21199219 9.80664062 8.22460938 C8.61361328 8.22654297 7.42058594 8.22847656 6.19140625 8.23046875 C5.12092041 8.23457764 4.05043457 8.23868652 2.94750977 8.24291992 C-0.07616898 7.99372251 -2.26436469 7.27599766 -5 6 C-5 5.34 -5 4.68 -5 4 C-3.35 3.34 -1.7 2.68 0 2 C0 1.34 0 0.68 0 0 Z " fill="#2F2F2F" transform="translate(32,131)"/>
<path d="M0 0 C-6.90353783 5.88022581 -14.05675679 10.63258105 -22 15 C-22.33 14.34 -22.66 13.68 -23 13 C-18.5535621 5.75395305 -9.31403837 -3.10467946 0 0 Z " fill="#ABAB9F" transform="translate(101,99)"/>
<path d="M0 0 C0.66 0 1.32 0 2 0 C2 0.66 2 1.32 2 2 C3.19625 2.12375 4.3925 2.2475 5.625 2.375 C14.47540568 3.47540568 14.47540568 3.47540568 17 6 C18.03125 5.67 19.0625 5.34 20.125 5 C23.48426709 4.0284808 26.49106202 3.82883229 30 4 C30.33 4.99 30.66 5.98 31 7 C30.67 7.33 30.34 7.66 30 8 C27.21609408 7.9909319 24.44504959 7.86692835 21.6640625 7.7421875 C18.56888571 8.04172074 17.95827941 8.71031946 16 11 C12.6687041 10.78507768 10.41098241 9.23876938 8 7 C8 6.01 8 5.02 8 4 C5.03 3.67 2.06 3.34 -1 3 C-0.67 2.01 -0.34 1.02 0 0 Z " fill="#27281D" transform="translate(78,81)"/>
<path d="M0 0 C1.4540625 0.0309375 1.4540625 0.0309375 2.9375 0.0625 C5.22321429 8.49107143 5.22321429 8.49107143 4.9375 13.0625 C0.09583214 12.61211229 -2.55918287 11.46277839 -6.0625 8.0625 C-6.0625 7.4025 -6.0625 6.7425 -6.0625 6.0625 C-5.4025 6.0625 -4.7425 6.0625 -4.0625 6.0625 C-4.0934375 4.8559375 -4.0934375 4.8559375 -4.125 3.625 C-4.03366838 -0.11959638 -3.80090148 0.07756942 0 0 Z " fill="#13120B" transform="translate(158.0625,73.9375)"/>
<path d="M0 0 C1.32 0.66 2.64 1.32 4 2 C-5 8 -5 8 -7.875 8.9375 C-10.91941371 9.97260066 -13.26320345 11.34351788 -16 13 C-17.33333333 13.33333333 -18.66666667 13.66666667 -20 14 C-20.33 14.66 -20.66 15.32 -21 16 C-22.65 16 -24.3 16 -26 16 C-26 15.01 -26 14.02 -26 13 C-24.35 12.67 -22.7 12.34 -21 12 C-21 11.34 -21 10.68 -21 10 C-20.05640625 9.63648437 -20.05640625 9.63648437 -19.09375 9.265625 C-12.43863308 6.65970572 -5.96212708 3.97475138 0 0 Z " fill="#DEDEDA" transform="translate(153,116)"/>
<path d="M0 0 C2.31 0 4.62 0 7 0 C5.125 4.875 5.125 4.875 4 6 C4.66 6.66 5.32 7.32 6 8 C5.21625 8.2475 4.4325 8.495 3.625 8.75 C0.58531937 10.19746697 0.17032569 10.93914819 -1 14 C-1.66666667 15.33333333 -2.33333333 16.66666667 -3 18 C-3.66 18 -4.32 18 -5 18 C-4.814375 16.906875 -4.62875 15.81375 -4.4375 14.6875 C-3.7421932 11.06375867 -3.7421932 11.06375867 -5 8 C-4.34 7.67 -3.68 7.34 -3 7 C-1.94647157 4.69034152 -0.94280904 2.3570226 0 0 Z " fill="#625A44" transform="translate(94,58)"/>
<path d="M0 0 C0 0.66 0 1.32 0 2 C-1.65 2.33 -3.3 2.66 -5 3 C-5 3.99 -5 4.98 -5 6 C-4.01 5.95875 -3.02 5.9175 -2 5.875 C2.23835866 5.8576652 5.93193985 6.85808838 10 8 C9.67 6.68 9.34 5.36 9 4 C12.28976808 2.90341064 13.71303767 3.20046862 17 4 C12.97634213 9.73066424 12.97634213 9.73066424 8.375 11 C5 11 5 11 2 9 C-0.50896686 8.54398739 -0.50896686 8.54398739 -3.1875 8.375 C-4.08855469 8.30023438 -4.98960938 8.22546875 -5.91796875 8.1484375 C-6.60503906 8.09945312 -7.29210937 8.05046875 -8 8 C-8 5 -8 5 -7 2 C-4.56723614 0.81480735 -2.71982714 0 0 0 Z " fill="#565143" transform="translate(107,95)"/>
<path d="M0 0 C0 0.66 0 1.32 0 2 C-1.65 2.66 -3.3 3.32 -5 4 C-4.21279105 6.15995657 -4.21279105 6.15995657 -2.22167969 6.60522461 C0.05339219 7.00948738 2.23906771 7.2072532 4.546875 7.31640625 C5.39121094 7.35830078 6.23554687 7.40019531 7.10546875 7.44335938 C8.41451172 7.50233398 8.41451172 7.50233398 9.75 7.5625 C10.63816406 7.60568359 11.52632812 7.64886719 12.44140625 7.69335938 C14.62745963 7.79913615 16.81362089 7.90122546 19 8 C19 8.33 19 8.66 19 9 C14.90658501 9.02469575 10.81319879 9.04285793 6.71972656 9.05493164 C5.32681523 9.0599643 3.9339092 9.06679098 2.54101562 9.07543945 C0.54038754 9.08755152 -1.46027888 9.09270412 -3.4609375 9.09765625 C-4.66540527 9.10289307 -5.86987305 9.10812988 -7.11083984 9.11352539 C-10 9 -10 9 -12 8 C-11.67 6.35 -11.34 4.7 -11 3 C-9.68 3 -8.36 3 -7 3 C-7 2.34 -7 1.68 -7 1 C-4.53721199 -0.231394 -2.7204945 -0.07159196 0 0 Z " fill="#D1D1D1" transform="translate(32,131)"/>
<path d="M0 0 C2.12534659 0.14069196 4.25027529 0.28770921 6.375 0.4375 C8.15003906 0.55931641 8.15003906 0.55931641 9.9609375 0.68359375 C13 1 13 1 15 2 C14.34 6.29 13.68 10.58 13 15 C12.67 15 12.34 15 12 15 C11.34 10.71 10.68 6.42 10 2 C8.02 2.33 6.04 2.66 4 3 C3.67 4.65 3.34 6.3 3 8 C2.34 8 1.68 8 1 8 C0.67 8.66 0.34 9.32 0 10 C-1.6415049 6.7169902 -0.51888624 3.57454967 0 0 Z " fill="#292922" transform="translate(151,72)"/>
<path d="M0 0 C5.28 0.33 10.56 0.66 16 1 C16 1.33 16 1.66 16 2 C13.36 2.33 10.72 2.66 8 3 C10.31 3.66 12.62 4.32 15 5 C11.53901145 7.3073257 10.06874411 7.03861971 6.07421875 6.42578125 C3.29005034 5.85426645 0.65862602 4.99698476 -2 4 C-1.34 2.68 -0.68 1.36 0 0 Z " fill="#C1C1C1" transform="translate(94,132)"/>
<path d="M0 0 C3.63 0 7.26 0 11 0 C11 0.66 11 1.32 11 2 C11.99 1.7215625 11.99 1.7215625 13 1.4375 C16.89330114 0.86972692 20.11375479 1.40718293 24 2 C24 2.33 24 2.66 24 3 C20.64908229 3.75363052 17.56890188 4.11979937 14.13671875 4.09765625 C12.80737305 4.09282227 12.80737305 4.09282227 11.45117188 4.08789062 C10.53916016 4.07951172 9.62714844 4.07113281 8.6875 4.0625 C7.75615234 4.05798828 6.82480469 4.05347656 5.86523438 4.04882812 C3.57675627 4.03709234 1.28841192 4.02067363 -1 4 C-0.67 2.68 -0.34 1.36 0 0 Z " fill="#34352F" transform="translate(97,127)"/>
<path d="M0 0 C1.06287862 3.20299909 0.96603992 4.98952451 -0.25 8.125 C-0.50265625 8.80820313 -0.7553125 9.49140625 -1.015625 10.1953125 C-2 12 -2 12 -5 14 C-5.99 14 -6.98 14 -8 14 C-8 13.34 -8 12.68 -8 12 C-9.65 11.67 -11.3 11.34 -13 11 C-10.56815904 9.05452723 -8.11864143 7.51164673 -5.375 6.0625 C-2.21606917 4.13204227 -1.09986325 3.42179677 0 0 Z " fill="#C4C3B6" transform="translate(169,88)"/>
<path d="M0 0 C0.515625 0.37125 1.03125 0.7425 1.5625 1.125 C-14.20233071 6.59889955 -14.20233071 6.59889955 -19.4375 5.125 C-22.19067974 4.90109683 -24.93055329 4.71106338 -27.6875 4.5625 C-28.80511719 4.49772461 -28.80511719 4.49772461 -29.9453125 4.43164062 C-31.775849 4.32603275 -33.60665176 4.22505799 -35.4375 4.125 C-35.4375 3.795 -35.4375 3.465 -35.4375 3.125 C-34.31106079 3.04983154 -34.31106079 3.04983154 -33.16186523 2.97314453 C-29.73233042 2.73987163 -26.30371341 2.49503872 -22.875 2.25 C-21.69357422 2.17136719 -20.51214844 2.09273437 -19.29492188 2.01171875 C-12.21592516 1.55698519 -12.21592516 1.55698519 -5.34765625 -0.0703125 C-2.4375 -0.875 -2.4375 -0.875 0 0 Z " fill="#595957" transform="translate(147.4375,136.875)"/>
<path d="M0 0 C0.33 0 0.66 0 1 0 C0.67 2.97 0.34 5.94 0 9 C-11.8671875 14.328125 -11.8671875 14.328125 -16.4375 13.625 C-16.953125 13.41875 -17.46875 13.2125 -18 13 C-17.67 12.01 -17.34 11.02 -17 10 C-12.18912503 8.45073518 -8.08003559 7.74599822 -3 8 C-2.67 7.01 -2.34 6.02 -2 5 C-1.34 5 -0.68 5 0 5 C0 3.35 0 1.7 0 0 Z " fill="#E3E1DF" transform="translate(179,124)"/>
<path d="M0 0 C3.96 0 7.92 0 12 0 C11.34 2.97 10.68 5.94 10 9 C4.46153846 9.36923077 4.46153846 9.36923077 2.125 7.5 C1.75375 7.005 1.3825 6.51 1 6 C4.28976808 4.90341064 5.71303767 5.20046862 9 6 C9 5.34 9 4.68 9 4 C4.545 3.01 4.545 3.01 0 2 C0 1.34 0 0.68 0 0 Z " fill="#C0BDC0" transform="translate(54,124)"/>
<path d="M0 0 C0 0.99 0 1.98 0 3 C-3.3 3 -6.6 3 -10 3 C-10 4.32 -10 5.64 -10 7 C-8.35 7 -6.7 7 -5 7 C-8.2811302 9.18742014 -10.33084356 9.54442806 -14.1875 10.125 C-15.27417969 10.29257813 -16.36085937 10.46015625 -17.48046875 10.6328125 C-18.31191406 10.75398437 -19.14335937 10.87515625 -20 11 C-18.625 9 -18.625 9 -17 7 C-16.34 7 -15.68 7 -15 7 C-14.731875 6.38125 -14.46375 5.7625 -14.1875 5.125 C-13 3 -13 3 -10 1 C-7.7734375 0.83984375 -7.7734375 0.83984375 -5.375 0.9375 C-3.91752688 0.99174253 -2.45834036 1.02033542 -1 1 C-0.67 0.67 -0.34 0.34 0 0 Z " fill="#CD7840" transform="translate(170,124)"/>
<path d="M0 0 C-0.54349036 3.80443255 -2.03084153 5.6081779 -5 8 C-8.89296171 9.33180269 -12.01861821 8.83331247 -16 8 C-13.52093943 5.13437405 -10.87838941 3.8382206 -7.4375 2.3125 C-5.98150391 1.65701172 -5.98150391 1.65701172 -4.49609375 0.98828125 C-2 0 -2 0 0 0 Z " fill="#5C5D51" transform="translate(41,106)"/>
<path d="M0 0 C2.31 0 4.62 0 7 0 C6.01 1.485 6.01 1.485 5 3 C4.34 3 3.68 3 3 3 C3.33 4.32 3.66 5.64 4 7 C3.484375 6.835 2.96875 6.67 2.4375 6.5 C-0.73363876 5.84951 -3.77218334 5.9379266 -7 6 C-7.33 7.65 -7.66 9.3 -8 11 C-8.99 11 -9.98 11 -11 11 C-9.125 4.125 -9.125 4.125 -8 3 C-5.66702567 2.95907063 -3.33294775 2.95758277 -1 3 C-0.67 2.01 -0.34 1.02 0 0 Z " fill="#464743" transform="translate(119,65)"/>
<path d="M0 0 C2.31 0 4.62 0 7 0 C6.34967443 3.51175807 5.25057517 6.20618254 3 9 C-0.1875 9.3125 -0.1875 9.3125 -3 9 C-2.01 6.03 -1.02 3.06 0 0 Z " fill="#CC733A" transform="translate(139,60)"/>
<path d="M0 0 C0 0.66 0 1.32 0 2 C-0.9590625 2.433125 -0.9590625 2.433125 -1.9375 2.875 C-4.15206079 3.82823451 -4.15206079 3.82823451 -5 6 C5.23 6.33 15.46 6.66 26 7 C26 7.33 26 7.66 26 8 C21.4583875 8.05823729 16.9168716 8.09367675 12.375 8.125 C10.44720703 8.15013672 10.44720703 8.15013672 8.48046875 8.17578125 C7.23652344 8.18222656 5.99257812 8.18867188 4.7109375 8.1953125 C3.56931152 8.20578613 2.42768555 8.21625977 1.25146484 8.22705078 C-2.13566817 7.99052625 -4.84005042 7.2095701 -8 6 C-7.75 3.625 -7.75 3.625 -7 1 C-4.12732844 -1.10662581 -3.46720491 -1.15573497 0 0 Z " fill="#595959" transform="translate(78,138)"/>
<path d="M0 0 C0.99 0 1.98 0 3 0 C4.29243536 4.1196377 5.26252625 7.66831683 5 12 C0.25 13.125 0.25 13.125 -2 12 C-1.34 8.04 -0.68 4.08 0 0 Z " fill="#11110A" transform="translate(114,72)"/>
<path d="M0 0 C-0.639375 0.2475 -1.27875 0.495 -1.9375 0.75 C-4.18741541 1.81562433 -4.18741541 1.81562433 -4.75 4.125 C-4.8325 4.74375 -4.915 5.3625 -5 6 C-4.34 6.33 -3.68 6.66 -3 7 C-5.64 7 -8.28 7 -11 7 C-11.103125 6.21625 -11.20625 5.4325 -11.3125 4.625 C-11.77595022 1.66954819 -11.77595022 1.66954819 -15 0 C-13.06325815 -0.19517554 -11.12555991 -0.38087873 -9.1875 -0.5625 C-8.10855469 -0.66691406 -7.02960938 -0.77132812 -5.91796875 -0.87890625 C-3 -1 -3 -1 0 0 Z " fill="#C7C7C7" transform="translate(75,138)"/>
<path d="M0 0 C0.33 0.66 0.66 1.32 1 2 C4.02934491 2.65772428 4.02934491 2.65772428 7 3 C4.07175348 3.97608217 2.04386724 4.08226668 -1 4 C-1.33 4.66 -1.66 5.32 -2 6 C-2.99 6 -3.98 6 -5 6 C-5.20625 6.61875 -5.4125 7.2375 -5.625 7.875 C-7.56307869 10.87021253 -9.63160418 11.05684917 -13 12 C-14.34721283 12.63815344 -15.68747118 13.29325371 -17 14 C-17 13.01 -17 12.02 -17 11 C-14.56518065 9.33828023 -12.1886781 7.871382 -9.625 6.4375 C-8.24074829 5.6470463 -6.85787324 4.85417561 -5.4765625 4.05859375 C-4.85861816 3.71111084 -4.24067383 3.36362793 -3.60400391 3.00561523 C-1.82371067 1.97271113 -1.82371067 1.97271113 0 0 Z " fill="#5D5C4E" transform="translate(96,102)"/>
<path d="M0 0 C0.99 0.33 1.98 0.66 3 1 C2.67 1.99 2.34 2.98 2 4 C3.32 4 4.64 4 6 4 C6 4.66 6 5.32 6 6 C9.3 6 12.6 6 16 6 C16 6.33 16 6.66 16 7 C13.24993392 7.0270203 10.50013454 7.04684883 7.75 7.0625 C6.97269531 7.07087891 6.19539063 7.07925781 5.39453125 7.08789062 C4.26337891 7.09272461 4.26337891 7.09272461 3.109375 7.09765625 C2.07248535 7.10551147 2.07248535 7.10551147 1.01464844 7.11352539 C-1.09973898 6.99437971 -2.96641515 6.57618237 -5 6 C-4.67 5.01 -4.34 4.02 -4 3 C-1.9375 2.3125 -1.9375 2.3125 0 2 C0 1.34 0 0.68 0 0 Z " fill="#272727" transform="translate(78,138)"/>
<path d="M0 0 C0.99 0 1.98 0 3 0 C3 0.66 3 1.32 3 2 C3.77085938 1.90460938 4.54171875 1.80921875 5.3359375 1.7109375 C6.33882813 1.60007812 7.34171875 1.48921875 8.375 1.375 C9.37273437 1.25898437 10.37046875 1.14296875 11.3984375 1.0234375 C12.25695312 1.01570313 13.11546875 1.00796875 14 1 C14.66 1.66 15.32 2.32 16 3 C15.34 3 14.68 3 14 3 C13.67 3.99 13.34 4.98 13 6 C12.67 5.67 12.34 5.34 12 5 C10.14712498 4.92773498 8.29166122 4.9161878 6.4375 4.9375 C5.42558594 4.94652344 4.41367188 4.95554687 3.37109375 4.96484375 C2.58863281 4.97644531 1.80617188 4.98804687 1 5 C0.34 3.68 -0.32 2.36 -1 1 C-0.67 0.67 -0.34 0.34 0 0 Z " fill="#4C372E" transform="translate(109,91)"/>
<path d="M0 0 C0.66 0.33 1.32 0.66 2 1 C0.515 3.475 0.515 3.475 -1 6 C1.97 6.495 1.97 6.495 5 7 C5 7.66 5 8.32 5 9 C3.948125 9.0825 2.89625 9.165 1.8125 9.25 C-2.27047209 10.05320762 -4.0122727 11.19334709 -7 14 C-7.66 13.67 -8.32 13.34 -9 13 C-7.8782037 11.2063257 -6.75245517 9.4151227 -5.625 7.625 C-4.99851563 6.62726563 -4.37203125 5.62953125 -3.7265625 4.6015625 C-2 2 -2 2 0 0 Z " fill="#26271C" transform="translate(144,71)"/>
<path d="M0 0 C9.9 0.33 19.8 0.66 30 1 C30 1.33 30 1.66 30 2 C13.96777265 3.05252606 13.96777265 3.05252606 6.5625 3.25 C5.29599609 3.28867188 5.29599609 3.28867188 4.00390625 3.328125 C3.34261719 3.21984375 2.68132812 3.1115625 2 3 C1.34 2.01 0.68 1.02 0 0 Z " fill="#D7D7D7" transform="translate(66,145)"/>
<path d="M0 0 C0.33 0.66 0.66 1.32 1 2 C0.67 2.99 0.34 3.98 0 5 C1.65 5.33 3.3 5.66 5 6 C5 6.99 5 7.98 5 9 C0.71 8.67 -3.58 8.34 -8 8 C-3.375 2.25 -3.375 2.25 0 0 Z " fill="#585348" transform="translate(60,91)"/>
<path d="M0 0 C1.67542976 0.28604898 3.34385343 0.61781233 5 1 C4.9375 2.75 4.9375 2.75 4 5 C0.32761653 7.86059344 -2.29553866 9 -7 9 C-7.33 8.01 -7.66 7.02 -8 6 C-5.64561267 4.57055055 -4.51967567 3.91338739 -1.75 4.375 C-1.1725 4.58125 -0.595 4.7875 0 5 C-0.2784375 4.0409375 -0.2784375 4.0409375 -0.5625 3.0625 C-0.706875 2.381875 -0.85125 1.70125 -1 1 C-0.67 0.67 -0.34 0.34 0 0 Z " fill="#8D614A" transform="translate(75,88)"/>
<path d="M0 0 C1.58294782 -0.05437607 3.16644256 -0.09296271 4.75 -0.125 C5.63171875 -0.14820312 6.5134375 -0.17140625 7.421875 -0.1953125 C10.1135858 0.00860498 11.69904974 0.63448279 14 2 C12.59308393 2.72750788 11.17393978 3.43140353 9.75 4.125 C8.96109375 4.51945312 8.1721875 4.91390625 7.359375 5.3203125 C5 6 5 6 2.765625 5.3671875 C0.62070851 3.70630084 0.35213175 2.64098815 0 0 Z " fill="#6C6357" transform="translate(132,69)"/>
<path d="M0 0 C5.1321316 -0.25903503 9.46944626 0.68712124 14.375 2 C15.47908203 2.28617188 15.47908203 2.28617188 16.60546875 2.578125 C18.40533622 3.04562304 20.20291548 3.52191576 22 4 C22 4.33 22 4.66 22 5 C14.25 6.125 14.25 6.125 12 5 C10.906875 4.87625 9.81375 4.7525 8.6875 4.625 C5.04124017 4.00698986 2.9620444 3.15421411 0 1 C0 0.67 0 0.34 0 0 Z " fill="#313131" transform="translate(86,135)"/>
<path d="M0 0 C0.33 1.32 0.66 2.64 1 4 C0.34 4 -0.32 4 -1 4 C-1 4.99 -1 5.98 -1 7 C-0.01 7 0.98 7 2 7 C2 7.66 2 8.32 2 9 C-1.63 8.34 -5.26 7.68 -9 7 C-9 6.01 -9 5.02 -9 4 C-7.68 4.33 -6.36 4.66 -5 5 C-4.67 4.01 -4.34 3.02 -4 2 C-1.9375 0.8125 -1.9375 0.8125 0 0 Z " fill="#4D4B3F" transform="translate(89,76)"/>
<path d="M0 0 C0.66 0.33 1.32 0.66 2 1 C1.67 1.99 1.34 2.98 1 4 C10.57 4.33 20.14 4.66 30 5 C30 5.33 30 5.66 30 6 C25.43755363 6.05813173 20.87520276 6.09364122 16.3125 6.125 C15.01892578 6.14175781 13.72535156 6.15851563 12.39257812 6.17578125 C11.14541016 6.18222656 9.89824219 6.18867188 8.61328125 6.1953125 C7.46641846 6.20578613 6.31955566 6.21625977 5.13793945 6.22705078 C2.00808345 6.00058489 -0.18079905 5.33456032 -3 4 C-3 3.34 -3 2.68 -3 2 C-2.01 1.34 -1.02 0.68 0 0 Z " fill="#5B5B5B" transform="translate(30,133)"/>
<path d="M0 0 C0.66 0.66 1.32 1.32 2 2 C-0.67478244 3.6627026 -2.9995144 4.99983813 -6 6 C-7.38576923 7.62332967 -8.72641268 9.28724465 -10 11 C-11.32 10.67 -12.64 10.34 -14 10 C-9.58572712 5.46310843 -5.98706611 2.1619961 0 0 Z " fill="#C3C0B6" transform="translate(147,102)"/>
<path d="M0 0 C2.31 0 4.62 0 7 0 C5.92598892 2.91517292 5.22189824 4.77810176 3 7 C0.375 7.125 0.375 7.125 -2 7 C-1.125 2.25 -1.125 2.25 0 0 Z " fill="#D98D52" transform="translate(94,58)"/>
<path d="M0 0 C0.9796875 0.0515625 1.959375 0.103125 2.96875 0.15625 C4.49242188 0.25292969 4.49242188 0.25292969 6.046875 0.3515625 C7.59375 0.43664062 7.59375 0.43664062 9.171875 0.5234375 C11.71426705 0.6646815 14.25563738 0.81606996 16.796875 0.9765625 C14.30181538 3.47162212 13.12358612 3.33604626 9.671875 3.6015625 C8.76179688 3.67632812 7.85171875 3.75109375 6.9140625 3.828125 C5.86605469 3.90160156 5.86605469 3.90160156 4.796875 3.9765625 C4.796875 3.3165625 4.796875 2.6565625 4.796875 1.9765625 C0.176875 1.9765625 -4.443125 1.9765625 -9.203125 1.9765625 C-5.24305031 -0.00347485 -4.17119756 -0.24251149 0 0 Z " fill="#262625" transform="translate(113.203125,140.0234375)"/>
<path d="M0 0 C2.97 0.495 2.97 0.495 6 1 C5.34 2.65 4.68 4.3 4 6 C4.66 6.66 5.32 7.32 6 8 C3.18185434 9.40907283 1.82722796 8.50872691 -1.125 7.5625 C-2.03507813 7.27503906 -2.94515625 6.98757812 -3.8828125 6.69140625 C-4.58148438 6.46324219 -5.28015625 6.23507813 -6 6 C-6 5.67 -6 5.34 -6 5 C-4.02 5 -2.04 5 0 5 C0 3.68 0 2.36 0 1 C0 0.67 0 0.34 0 0 Z " fill="#424333" transform="translate(132,79)"/>
<path d="M0 0 C2.00720923 0.28674418 4.0085944 0.61866701 6 1 C6 1.66 6 2.32 6 3 C3.69 3.66 1.38 4.32 -1 5 C-0.6596875 5.86625 -0.6596875 5.86625 -0.3125 6.75 C0 9 0 9 -1.25 11.25 C-1.8275 11.8275 -2.405 12.405 -3 13 C-3.99 13 -4.98 13 -6 13 C-5.34 11.02 -4.68 9.04 -4 7 C-3.34 7 -2.68 7 -2 7 C-1.855625 6.030625 -1.71125 5.06125 -1.5625 4.0625 C-1 1 -1 1 0 0 Z " fill="#5B574B" transform="translate(125,77)"/>
<path d="M0 0 C0 0.66 0 1.32 0 2 C-1.65 2.66 -3.3 3.32 -5 4 C-3.74458443 6.51083114 -2.49936512 6.87125446 0 8 C-2.64 8 -5.28 8 -8 8 C-8.75 6.25 -8.75 6.25 -9 4 C-6.34633802 0.3256988 -4.47218731 -0.4969097 0 0 Z " fill="#A5A5A5" transform="translate(32,131)"/>
<path d="M0 0 C1.98 0 3.96 0 6 0 C5.01 0.33 4.02 0.66 3 1 C3.0928125 2.85625 3.0928125 2.85625 3.1875 4.75 C3.20362826 7.78211302 3.10651023 8.82248296 1.5 11.5 C1.005 11.995 0.51 12.49 0 13 C-2.21474076 7.95531271 -1.85072153 5.14089313 0 0 Z " fill="#20211B" transform="translate(111,71)"/>
<path d="M0 0 C0.99 0 1.98 0 3 0 C3.33 2.64 3.66 5.28 4 8 C2.02 8.99 0.04 9.98 -2 11 C-2 9.68 -2 8.36 -2 7 C-2.66 6.67 -3.32 6.34 -4 6 C-2.1875 3 -2.1875 3 0 0 Z " fill="#CC7B51" transform="translate(175,116)"/>
<path d="M0 0 C2.64 0.33 5.28 0.66 8 1 C7.67 2.65 7.34 4.3 7 6 C1.25 6.125 1.25 6.125 -1 5 C-0.67 3.35 -0.34 1.7 0 0 Z " fill="#2E291F" transform="translate(61,91)"/>
<path d="M0 0 C0.33 0.99 0.66 1.98 1 3 C2.98 3 4.96 3 7 3 C7.33 4.32 7.66 5.64 8 7 C2.72 6.01 -2.56 5.02 -8 4 C-7.67 3.34 -7.34 2.68 -7 2 C-4.69 2 -2.38 2 0 2 C0 1.34 0 0.68 0 0 Z " fill="#585754" transform="translate(159,68)"/>
<path d="M0 0 C2.61973266 2.61973266 2.70813314 4.35166422 3 8 C2.0625 10.375 2.0625 10.375 1 12 C-1.64 11.67 -4.28 11.34 -7 11 C-5.03617993 9.49440461 -3.21736634 8.10868317 -1 7 C-0.59270772 4.67843403 -0.25561323 2.3431213 0 0 Z " fill="#D8D8D4" transform="translate(172,105)"/>
<path d="M0 0 C0.66 0 1.32 0 2 0 C2.33 1.65 2.66 3.3 3 5 C2.38125 5.45375 1.7625 5.9075 1.125 6.375 C-1.05919833 7.97108919 -1.05919833 7.97108919 -3 10 C-5.625 10.125 -5.625 10.125 -8 10 C-7.236875 9.278125 -6.47375 8.55625 -5.6875 7.8125 C-2.955914 5.16073022 -2.955914 5.16073022 -1.3125 2.1875 C-0.879375 1.465625 -0.44625 0.74375 0 0 Z " fill="#4F4838" transform="translate(125,96)"/>
<path d="M0 0 C0.66 0 1.32 0 2 0 C2.33 0.99 2.66 1.98 3 3 C2.34 3 1.68 3 1 3 C0.7525 3.7425 0.505 4.485 0.25 5.25 C-1.09147301 8.20124062 -2.60905526 9.84814974 -5 12 C-5 8.72724974 -4.70074844 6.153368 -4 3 C-3.01 3 -2.02 3 -1 3 C-0.67 2.01 -0.34 1.02 0 0 Z " fill="#D3C2B5" transform="translate(174,113)"/>
<path d="M0 0 C0.33 0.66 0.66 1.32 1 2 C1.99 2.33 2.98 2.66 4 3 C4 3.33 4 3.66 4 4 C2.06257659 4.02703381 0.12504521 4.04641125 -1.8125 4.0625 C-2.89144531 4.07410156 -3.97039062 4.08570312 -5.08203125 4.09765625 C-8 4 -8 4 -11 3 C-11 2.34 -11 1.68 -11 1 C-5.555 0.505 -5.555 0.505 0 0 Z " fill="#201D1B" transform="translate(121,95)"/>
<path d="M0 0 C0.66 0 1.32 0 2 0 C2.66 2.64 3.32 5.28 4 8 C3.01 8.495 3.01 8.495 2 9 C2 8.34 2 7.68 2 7 C0.02 7 -1.96 7 -4 7 C-4 6.01 -4 5.02 -4 4 C-2.68 3.67 -1.36 3.34 0 3 C0 2.01 0 1.02 0 0 Z " fill="#48473C" transform="translate(164,84)"/>
<path d="M0 0 C0.99 0 1.98 0 3 0 C3 0.99 3 1.98 3 3 C2.34 3 1.68 3 1 3 C1 3.66 1 4.32 1 5 C-1.97 5 -4.94 5 -8 5 C-8 5.66 -8 6.32 -8 7 C-9.32 7.33 -10.64 7.66 -12 8 C-11 5.5 -11 5.5 -9 3 C-6.20625708 2.53162101 -3.85778964 2.76575495 -1 3 C-0.67 2.01 -0.34 1.02 0 0 Z " fill="#3B3A30" transform="translate(120,81)"/>
<path d="M0 0 C-3.58375776 3.58375776 -9.13500141 3.92387761 -14.0625 4.125 C-14.701875 4.08375 -15.34125 4.0425 -16 4 C-16 3.34 -16 2.68 -16 2 C-10.42932723 0.40837921 -5.78898419 -0.20674944 0 0 Z " fill="#E4E4E2" transform="translate(148,140)"/>
<path d="M0 0 C-2.51066469 3.05906926 -4.90059933 3.75191278 -8.6875 4.6875 C-9.68136719 4.93886719 -10.67523438 5.19023438 -11.69921875 5.44921875 C-12.45847656 5.63097656 -13.21773438 5.81273438 -14 6 C-14 5.01 -14 4.02 -14 3 C-12.23358317 2.3012307 -10.46167336 1.61633417 -8.6875 0.9375 C-7.20830078 0.36322266 -7.20830078 0.36322266 -5.69921875 -0.22265625 C-3 -1 -3 -1 0 0 Z " fill="#908E83" transform="translate(101,99)"/>
<path d="M0 0 C0.66 0.33 1.32 0.66 2 1 C2.4140625 3.50390625 2.4140625 3.50390625 2.625 6.5625 C2.69976562 7.57441406 2.77453125 8.58632812 2.8515625 9.62890625 C2.92503906 10.80259766 2.92503906 10.80259766 3 12 C1.68 12 0.36 12 -1 12 C-1.02698189 10.37509046 -1.04638757 8.75005367 -1.0625 7.125 C-1.07410156 6.22007813 -1.08570313 5.31515625 -1.09765625 4.3828125 C-1 2 -1 2 0 0 Z " fill="#5B5B50" transform="translate(169,92)"/>
<path d="M0 0 C0.33 0.99 0.66 1.98 1 3 C0 4 0 4 -3.16015625 4.09765625 C-5.09181641 4.08025391 -5.09181641 4.08025391 -7.0625 4.0625 C-8.35285156 4.05347656 -9.64320312 4.04445313 -10.97265625 4.03515625 C-11.97167969 4.02355469 -12.97070312 4.01195313 -14 4 C-13 2 -13 2 -9.8125 0.875 C-6.36250398 0.08319763 -3.515707 -0.1714979 0 0 Z " fill="#181C15" transform="translate(108,85)"/>
<path d="M0 0 C2.76390737 2.40339772 3.04065919 3.16263678 4 7 C1.03 7 -1.94 7 -5 7 C-4.67 6.01 -4.34 5.02 -4 4 C-3.34 4 -2.68 4 -2 4 C-1.34 2.68 -0.68 1.36 0 0 Z " fill="#4C473F" transform="translate(100,66)"/>
<path d="M0 0 C0.33 0.66 0.66 1.32 1 2 C4.63 2 8.26 2 12 2 C12.33 3.32 12.66 4.64 13 6 C12.01 6.495 12.01 6.495 11 7 C11 6.34 11 5.68 11 5 C10.38511719 4.95101562 9.77023438 4.90203125 9.13671875 4.8515625 C7.92435547 4.73941406 7.92435547 4.73941406 6.6875 4.625 C5.88699219 4.55539063 5.08648437 4.48578125 4.26171875 4.4140625 C2 4 2 4 -1 2 C-0.67 1.34 -0.34 0.68 0 0 Z " fill="#4D4C40" transform="translate(122,88)"/>
<path d="M0 0 C-1.375 1.5 -1.375 1.5 -3 3 C-3.66 3 -4.32 3 -5 3 C-5 4.32 -5 5.64 -5 7 C-5.66 7 -6.32 7 -7 7 C-7 6.34 -7 5.68 -7 5 C-8.65 5 -10.3 5 -12 5 C-5.64705882 -1.88235294 -5.64705882 -1.88235294 0 0 Z " fill="#383834" transform="translate(148,85)"/>
<path d="M0 0 C0.57363281 0.37511719 1.14726563 0.75023438 1.73828125 1.13671875 C0.41828125 1.46671875 -0.90171875 1.79671875 -2.26171875 2.13671875 C-2.26171875 2.79671875 -2.26171875 3.45671875 -2.26171875 4.13671875 C-2.88046875 4.23984375 -3.49921875 4.34296875 -4.13671875 4.44921875 C-6.62698359 5.01197248 -6.62698359 5.01197248 -8.26171875 8.13671875 C-9.25171875 7.80671875 -10.24171875 7.47671875 -11.26171875 7.13671875 C-10.1180182 3.70561711 -9.39668566 3.22175311 -6.44921875 1.32421875 C-5.41861328 0.63392578 -5.41861328 0.63392578 -4.3671875 -0.0703125 C-2.26171875 -0.86328125 -2.26171875 -0.86328125 0 0 Z " fill="#6E6B5D" transform="translate(53.26171875,99.86328125)"/>
<path d="M0 0 C5.13503344 0.64187918 9.9943454 1.68272247 15 3 C15 3.66 15 4.32 15 5 C9.99109914 4.38487182 4.99367864 3.7282448 0 3 C0 2.01 0 1.02 0 0 Z " fill="#292515" transform="translate(102,98)"/>
<path d="M0 0 C7.92 0 15.84 0 24 0 C22.68 0.99 21.36 1.98 20 3 C17.99316406 2.70727539 17.99316406 2.70727539 16 2 C13.24682026 1.77609683 10.50694671 1.58606338 7.75 1.4375 C7.00492187 1.39431641 6.25984375 1.35113281 5.4921875 1.30664062 C3.661651 1.20103275 1.83084824 1.10005799 0 1 C0 0.67 0 0.34 0 0 Z " fill="#454544" transform="translate(112,140)"/>
<path d="M0 0 C3 1.6875 3 1.6875 6 4 C6.375 6.75 6.375 6.75 6 9 C3.36 8.34 0.72 7.68 -2 7 C-1.34 6.67 -0.68 6.34 0 6 C0 4.02 0 2.04 0 0 Z " fill="#454445" transform="translate(64,127)"/>
<path d="M0 0 C2.00720923 0.28674418 4.0085944 0.61866701 6 1 C3.39791402 3.60208598 1.45560962 4.24088781 -2.125 4.3125 C-6 4 -6 4 -8 2 C-6.865625 1.855625 -5.73125 1.71125 -4.5625 1.5625 C-1.19222799 1.38828522 -1.19222799 1.38828522 0 0 Z " fill="#222222" transform="translate(37,125)"/>
<path d="M0 0 C2.31 0 4.62 0 7 0 C5 3 5 3 3.171875 3.68359375 C0.82978241 4.02479789 -1.38392907 4.09729516 -3.75 4.0625 C-4.54921875 4.05347656 -5.3484375 4.04445313 -6.171875 4.03515625 C-6.77515625 4.02355469 -7.3784375 4.01195313 -8 4 C-8 3.67 -8 3.34 -8 3 C-5.69 3 -3.38 3 -1 3 C-0.67 2.01 -0.34 1.02 0 0 Z " fill="#5A5A58" transform="translate(119,65)"/>
<path d="M0 0 C0.36923077 4.55384615 0.36923077 4.55384615 -1.5 6.8125 C-1.995 7.204375 -2.49 7.59625 -3 8 C-3.66 7.67 -4.32 7.34 -5 7 C-5 6.01 -5 5.02 -5 4 C-5.66 3.67 -6.32 3.34 -7 3 C-1.125 0 -1.125 0 0 0 Z " fill="#534036" transform="translate(179,124)"/>
<path d="M0 0 C2.64 0 5.28 0 8 0 C8 1.98 8 3.96 8 6 C7.34 5.34 6.68 4.68 6 4 C4.01178687 3.60235737 2.01055661 3.26224651 0 3 C0 2.01 0 1.02 0 0 Z " fill="#2C2D2B" transform="translate(160,68)"/>
<path d="M0 0 C1.07894531 0.04640625 2.15789062 0.0928125 3.26953125 0.140625 C4.35621094 0.17671875 5.44289062 0.2128125 6.5625 0.25 C7.39394531 0.29640625 8.22539062 0.3428125 9.08203125 0.390625 C5.80090105 2.57804514 3.75118769 2.93505306 -0.10546875 3.515625 C-1.19214844 3.68320313 -2.27882812 3.85078125 -3.3984375 4.0234375 C-4.22988281 4.14460937 -5.06132812 4.26578125 -5.91796875 4.390625 C-4.20732299 1.34147397 -3.55091093 0.47535622 0 0 Z " fill="#BB6C4E" transform="translate(155.91796875,130.609375)"/>
<path d="M0 0 C0.66 0.33 1.32 0.66 2 1 C1.67 2.65 1.34 4.3 1 6 C-1.64 5.67 -4.28 5.34 -7 5 C-4.88437775 2.67281553 -2.94982021 1.14186589 0 0 Z " fill="#6B6C63" transform="translate(32,109)"/>
<path d="M0 0 C2.33944736 0.28730055 4.6739143 0.61936779 7 1 C5.37660195 2.70884005 3.70680947 4.37446717 2 6 C1.34 6 0.68 6 0 6 C-0.38218767 4.34385343 -0.71395102 2.67542976 -1 1 C-0.67 0.67 -0.34 0.34 0 0 Z " fill="#846040" transform="translate(117,98)"/>
<path d="M0 0 C0 0.99 0 1.98 0 3 C-0.66 2.67 -1.32 2.34 -2 2 C-6.22146566 1.71856896 -9.17291493 2.19901879 -13 4 C-13 2 -13 2 -11.5625 0.3125 C-7.67500366 -1.67865666 -4.19190338 -0.74343586 0 0 Z " fill="#323026" transform="translate(104,75)"/>
<path d="M0 0 C0.66 0.33 1.32 0.66 2 1 C1.67 2.32 1.34 3.64 1 5 C1.66 5.33 2.32 5.66 3 6 C1.02 6 -0.96 6 -3 6 C-3 5.34 -3 4.68 -3 4 C-3.66 4 -4.32 4 -5 4 C-5 3.34 -5 2.68 -5 2 C-2.625 0.9375 -2.625 0.9375 0 0 Z " fill="#949494" transform="translate(69,139)"/>
<path d="M0 0 C4.455 0.99 4.455 0.99 9 2 C8.67 3.32 8.34 4.64 8 6 C5.69 5.34 3.38 4.68 1 4 C0.67 2.68 0.34 1.36 0 0 Z " fill="#B6B5B3" transform="translate(83,129)"/>
<path d="M0 0 C2.97 0 5.94 0 9 0 C9 1.32 9 2.64 9 4 C3.48 4.368 3.48 4.368 1.125 2.5625 C0 1 0 1 0 0 Z " fill="#B4B4B5" transform="translate(55,129)"/>
<path d="M0 0 C0.99 0.66 1.98 1.32 3 2 C-1.455 4.97 -1.455 4.97 -6 8 C-6.33 7.01 -6.66 6.02 -7 5 C-5.68 4.67 -4.36 4.34 -3 4 C-3 3.34 -3 2.68 -3 2 C-2.01 1.34 -1.02 0.68 0 0 Z " fill="#F2F1EB" transform="translate(51,96)"/>
<path d="M0 0 C2.31 0 4.62 0 7 0 C6.67 0.99 6.34 1.98 6 3 C3.69 3.33 1.38 3.66 -1 4 C-0.67 2.68 -0.34 1.36 0 0 Z " fill="#EBAB6F" transform="translate(139,60)"/>
<path d="M0 0 C0.33 0 0.66 0 1 0 C0.67 2.97 0.34 5.94 0 9 C-3.47823115 10.15941038 -5.45895578 9.70820884 -9 9 C-9 8.67 -9 8.34 -9 8 C-7.02 8 -5.04 8 -3 8 C-2.67 7.01 -2.34 6.02 -2 5 C-1.34 5 -0.68 5 0 5 C0 3.35 0 1.7 0 0 Z " fill="#BBB9B6" transform="translate(179,124)"/>
<path d="M0 0 C0.33 0.99 0.66 1.98 1 3 C-2.3340947 5.19097652 -5.04179141 6.43454163 -9 7 C-8.67 6.01 -8.34 5.02 -8 4 C-5.10441559 2.5522078 -3.25811062 2 0 2 C0 1.34 0 0.68 0 0 Z " fill="#58584B" transform="translate(77,113)"/>
<path d="M0 0 C1.32 0.33 2.64 0.66 4 1 C3.34 1 2.68 1 2 1 C2 1.66 2 2.32 2 3 C3.65 2.67 5.3 2.34 7 2 C3.67692308 5.93846154 3.67692308 5.93846154 0.25 6.25 C-0.4925 6.1675 -1.235 6.085 -2 6 C-1.34 5.67 -0.68 5.34 0 5 C0 3.35 0 1.7 0 0 Z " fill="#333530" transform="translate(98,81)"/>
<path d="M0 0 C2.97 0 5.94 0 9 0 C8.01 1.485 8.01 1.485 7 3 C3.375 3.1875 3.375 3.1875 0 3 C0 2.01 0 1.02 0 0 Z " fill="#DEDEDE" transform="translate(122,143)"/>
<path d="M0 0 C-1 3 -1 3 -2.84765625 4.16796875 C-3.57855469 4.50441406 -4.30945313 4.84085937 -5.0625 5.1875 C-5.79597656 5.53167969 -6.52945313 5.87585938 -7.28515625 6.23046875 C-8.13400391 6.61138672 -8.13400391 6.61138672 -9 7 C-8.3125 4.625 -8.3125 4.625 -7 2 C-4.52858057 0.7025048 -2.79207427 0 0 0 Z " fill="#B6B7A9" transform="translate(87,107)"/>
<path d="M0 0 C-0.99 0.33 -1.98 0.66 -3 1 C-3.73323796 3.01508358 -3.73323796 3.01508358 -4 5 C-5.32 5.33 -6.64 5.66 -8 6 C-7.625 3.5625 -7.625 3.5625 -7 1 C-4.53721199 -0.231394 -2.7204945 -0.07159196 0 0 Z " fill="#4A493F" transform="translate(101,76)"/>
<path d="M0 0 C1.65 0.33 3.3 0.66 5 1 C3.68 3.31 2.36 5.62 1 8 C0.34 8 -0.32 8 -1 8 C-0.67 5.36 -0.34 2.72 0 0 Z " fill="#575A4E" transform="translate(90,68)"/>
<path d="M0 0 C0.99 0.33 1.98 0.66 3 1 C3.33 2.98 3.66 4.96 4 7 C2.35 6.67 0.7 6.34 -1 6 C-0.67 4.02 -0.34 2.04 0 0 Z " fill="#3A3A3A" transform="translate(32,131)"/>
<path d="M0 0 C0.33 0.66 0.66 1.32 1 2 C-3.455 2.495 -3.455 2.495 -8 3 C-8 2.34 -8 1.68 -8 1 C-5.29120665 -0.35439668 -2.99066732 -0.06501451 0 0 Z " fill="#C9C9C3" transform="translate(148,118)"/>
<path d="M0 0 C3.96 0 7.92 0 12 0 C8 3 8 3 5.859375 2.85546875 C3.90625 2.23697917 1.953125 1.61848958 0 1 C0 0.67 0 0.34 0 0 Z " fill="#37392C" transform="translate(110,106)"/>
<path d="M0 0 C0.99 0.33 1.98 0.66 3 1 C2.67 2.65 2.34 4.3 2 6 C1.34 6 0.68 6 0 6 C-0.33 6.66 -0.66 7.32 -1 8 C-2 6 -2 6 -1.0625 2.875 C-0.5365625 1.451875 -0.5365625 1.451875 0 0 Z " fill="#24221D" transform="translate(152,74)"/>
<path d="M0 0 C0.99 0 1.98 0 3 0 C3.33 0.99 3.66 1.98 4 3 C-0.43076923 5.09230769 -0.43076923 5.09230769 -3.3125 4.625 C-3.869375 4.41875 -4.42625 4.2125 -5 4 C-4.360625 3.71125 -3.72125 3.4225 -3.0625 3.125 C-0.84793921 2.17176549 -0.84793921 2.17176549 0 0 Z " fill="#39311D" transform="translate(171,128)"/>
<path d="M0 0 C7.42857143 -0.28571429 7.42857143 -0.28571429 11 2 C11 2.33 11 2.66 11 3 C6.78121808 3.19622241 3.82989106 2.80230168 0 1 C0 0.67 0 0.34 0 0 Z " fill="#463F33" transform="translate(106,98)"/>
<path d="M0 0 C0.99 0.33 1.98 0.66 3 1 C3.6875 3.0625 3.6875 3.0625 4 5 C3.01 5.495 3.01 5.495 2 6 C2 5.34 2 4.68 2 4 C0.35 4 -1.3 4 -3 4 C-2.01 2.68 -1.02 1.36 0 0 Z " fill="#868881" transform="translate(87,66)"/>
<path d="M0 0 C0.33 1.98 0.66 3.96 1 6 C0.01 6.33 -0.98 6.66 -2 7 C-2 5.68 -2 4.36 -2 3 C-3.32 2.34 -4.64 1.68 -6 1 C-3.92446352 0.4465236 -2.15634036 0 0 0 Z " fill="#656356" transform="translate(86,85)"/>
<path d="M0 0 C1.32 0.66 2.64 1.32 4 2 C2.6875 4 2.6875 4 1 6 C0.01 6 -0.98 6 -2 6 C-1.34 4.02 -0.68 2.04 0 0 Z " fill="#616054" transform="translate(121,84)"/>
<path d="M0 0 C1.98 0 3.96 0 6 0 C5.67 0.99 5.34 1.98 5 3 C2.36 3 -0.28 3 -3 3 C-2.01 2.67 -1.02 2.34 0 2 C0 1.34 0 0.68 0 0 Z " fill="#52514A" transform="translate(71,83)"/>
<path d="M0 0 C0.99 0 1.98 0 3 0 C3 3.3 3 6.6 3 10 C0.70366176 6.55549263 0.45983515 4.06187717 0 0 Z " fill="#23221D" transform="translate(117,72)"/>
<path d="M0 0 C0.66 0 1.32 0 2 0 C2 2.31 2 4.62 2 7 C1.34 7 0.68 7 0 7 C-0.66 5.35 -1.32 3.7 -2 2 C-1.34 1.34 -0.68 0.68 0 0 Z " fill="#141310" transform="translate(125,66)"/>
<path d="M0 0 C4.455 0.99 4.455 0.99 9 2 C5.1496895 4.56687367 3.41430237 3.83288724 -1 3 C-0.67 2.01 -0.34 1.02 0 0 Z " fill="#202020" transform="translate(57,132)"/>
<path d="M0 0 C0.99 0 1.98 0 3 0 C4 3 4 3 3 6 C2.01 6 1.02 6 0 6 C0 4.02 0 2.04 0 0 Z " fill="#49483D" transform="translate(128,113)"/>
<path d="M0 0 C0.33 0.66 0.66 1.32 1 2 C1.99 2.33 2.98 2.66 4 3 C4 3.33 4 3.66 4 4 C1.125 4.1875 1.125 4.1875 -2 4 C-2.66 3.01 -3.32 2.02 -4 1 C-2.68 0.67 -1.36 0.34 0 0 Z " fill="#291805" transform="translate(121,95)"/>
<path d="M0 0 C2.97 0.33 5.94 0.66 9 1 C5 3 5 3 2.8125 2.75 C1 2 1 2 0 0 Z " fill="#D3D4CF" transform="translate(34,120)"/>
<path d="M0 0 C0.99 0.33 1.98 0.66 3 1 C1.515 4.465 1.515 4.465 0 8 C-0.33 8 -0.66 8 -1 8 C-1.625 5.125 -1.625 5.125 -2 2 C-1.34 1.34 -0.68 0.68 0 0 Z " fill="#39382D" transform="translate(67,116)"/>
<path d="M0 0 C0.66 0 1.32 0 2 0 C2.33 1.32 2.66 2.64 3 4 C1.35 4.66 -0.3 5.32 -2 6 C-1.34 4.02 -0.68 2.04 0 0 Z " fill="#4D4C45" transform="translate(150,113)"/>
<path d="M0 0 C1.0326802 2.78823655 1.04509293 3.8677274 0.0625 6.75 C-0.288125 7.4925 -0.63875 8.235 -1 9 C-1.99 8.01 -2.98 7.02 -4 6 C-2.68 4.02 -1.36 2.04 0 0 Z " fill="#B5B5A9" transform="translate(169,88)"/>
<path d="M0 0 C0.66 0 1.32 0 2 0 C1.79375 0.61875 1.5875 1.2375 1.375 1.875 C1.25125 2.57625 1.1275 3.2775 1 4 C1.66 4.66 2.32 5.32 3 6 C2.01 6.495 2.01 6.495 1 7 C-1.125 6.0625 -1.125 6.0625 -3 5 C-2.34 4.67 -1.68 4.34 -1 4 C-0.34786708 1.97536745 -0.34786708 1.97536745 0 0 Z " fill="#353728" transform="translate(135,81)"/>
</svg>
