<?xml version="1.0" encoding="UTF-8"?>
<svg version="1.1" xmlns="http://www.w3.org/2000/svg" width="200" height="200">
<path d="M0 0 C66 0 132 0 200 0 C200 66 200 132 200 200 C134 200 68 200 0 200 C0 134 0 68 0 0 Z " fill="#FEFEFE" transform="translate(0,0)"/>
<path d="M0 0 C2.64 0 5.28 0 8 0 C7.67 0.7425 7.34 1.485 7 2.25 C5.77217129 5.13883312 5.77217129 5.13883312 6 9 C7.61594832 11.04119788 9.2856382 13.04072937 11 15 C11.70029151 16.31598405 12.37567499 17.64632334 13 19 C13.20496094 18.28972656 13.40992187 17.57945313 13.62109375 16.84765625 C13.89050781 15.92855469 14.15992187 15.00945312 14.4375 14.0625 C14.70433594 13.14597656 14.97117187 12.22945312 15.24609375 11.28515625 C16 9 16 9 17 8 C18.51928038 7.92820036 20.04167482 7.91607993 21.5625 7.9375 C22.38878906 7.94652344 23.21507813 7.95554687 24.06640625 7.96484375 C24.70449219 7.97644531 25.34257813 7.98804687 26 8 C26.33 7.01 26.66 6.02 27 5 C28.98 5 30.96 5 33 5 C34.28571429 12.42857143 34.28571429 12.42857143 33 16 C35.475 15.505 35.475 15.505 38 15 C38 14.34 38 13.68 38 13 C40.475 12.505 40.475 12.505 43 12 C43.33 9.69 43.66 7.38 44 5 C46.64 5 49.28 5 52 5 C52.04254356 6.99954746 52.04080783 9.00041636 52 11 C51.67 11.33 51.34 11.66 51 12 C52.32 12.99 53.64 13.98 55 15 C55.99 12.69 56.98 10.38 58 8 C60.64 8 63.28 8 66 8 C66.33 7.01 66.66 6.02 67 5 C69.64 5 72.28 5 75 5 C75.05534912 5.60473145 75.11069824 6.20946289 75.16772461 6.83251953 C75.42203865 9.59689466 75.67974082 12.36094407 75.9375 15.125 C76.02451172 16.07632813 76.11152344 17.02765625 76.20117188 18.0078125 C76.55800131 21.81399311 76.92807494 25.57244546 77.5625 29.34375 C78.01186089 32.07201258 78.0998216 34.61320147 78.0625 37.375 C78.05347656 38.24898437 78.04445312 39.12296875 78.03515625 40.0234375 C78.01775391 41.00183594 78.01775391 41.00183594 78 42 C78.62648437 42.25265625 79.25296875 42.5053125 79.8984375 42.765625 C82.39443988 44.23167844 82.75468053 45.0446696 83.625 47.75 C83.97884766 48.82314453 83.97884766 48.82314453 84.33984375 49.91796875 C84.55769531 50.60503906 84.77554688 51.29210937 85 52 C85.391875 53.010625 85.78375 54.02125 86.1875 55.0625 C87.20776982 58.75116781 87.69100313 61.1994828 87 65 C81.68152726 69.86583676 75.50466316 71.0133175 68.62744141 72.47900391 C63.88933555 73.4992193 59.47597967 74.82092991 54.9375 76.5625 C47.41520976 79.38227431 39.92594955 80.79067986 32 82 C30.20949219 82.28230469 30.20949219 82.28230469 28.3828125 82.5703125 C22.36463894 83.29465467 16.30167505 83.14427285 10.25 83.125 C8.45175781 83.13080078 8.45175781 83.13080078 6.6171875 83.13671875 C-15.67301109 83.11254283 -15.67301109 83.11254283 -20 79 C-20 78.34 -20 77.68 -20 77 C-17.03 76.01 -17.03 76.01 -14 75 C-15.21429688 75.2165625 -16.42859375 75.433125 -17.6796875 75.65625 C-28.1458106 77.40025884 -38.38245545 78.30054162 -49 78.3125 C-50.67231689 78.32023437 -50.67231689 78.32023437 -52.37841797 78.328125 C-57.46701 78.284426 -61.3095052 78.13054912 -66 76 C-66 75.01 -66 74.02 -66 73 C-64.02 72.01 -64.02 72.01 -62 71 C-65.3 69.68 -68.6 68.36 -72 67 C-71.56214095 61.22026059 -70.99862039 57.08461719 -68 52 C-67.34 52 -66.68 52 -66 52 C-66 51.34 -66 50.68 -66 50 C-60.25 47 -60.25 47 -58 47 C-58 46.34 -58 45.68 -58 45 C-54.7 44.01 -51.4 43.02 -48 42 C-48 41.34 -48 40.68 -48 40 C-47.071875 39.731875 -46.14375 39.46375 -45.1875 39.1875 C-42.1688359 38.06289965 -41.0844857 37.29293427 -39 35 C-38.34 35 -37.68 35 -37 35 C-37 34.01 -37 33.02 -37 32 C-35.35 31.67 -33.7 31.34 -32 31 C-32 30.01 -32 29.02 -32 28 C-30.02 27.67 -28.04 27.34 -26 27 C-26 26.34 -26 25.68 -26 25 C-23.69064913 22.37211797 -22.36016893 21.12005631 -19 20 C-18.67 19.34 -18.34 18.68 -18 18 C-17.236875 17.7525 -16.47375 17.505 -15.6875 17.25 C-12.09934353 15.58109002 -11.06111018 13.32437126 -9 10 C-7.00063849 7.7507183 -5.54995912 6.25140988 -2.8125 5 C-0.78597843 4.14390805 -0.78597843 4.14390805 -0.25 1.875 C-0.1675 1.25625 -0.085 0.6375 0 0 Z " fill="#D5D6DA" transform="translate(92,60)"/>
<path d="M0 0 C2.64 0 5.28 0 8 0 C8.05534912 0.60473145 8.11069824 1.20946289 8.16772461 1.83251953 C8.42203865 4.59689466 8.67974082 7.36094407 8.9375 10.125 C9.02451172 11.07632813 9.11152344 12.02765625 9.20117188 13.0078125 C9.55800131 16.81399311 9.92807494 20.57244546 10.5625 24.34375 C11.01186089 27.07201258 11.0998216 29.61320147 11.0625 32.375 C11.05347656 33.24898437 11.04445312 34.12296875 11.03515625 35.0234375 C11.01775391 36.00183594 11.01775391 36.00183594 11 37 C11.62648437 37.25265625 12.25296875 37.5053125 12.8984375 37.765625 C15.39443988 39.23167844 15.75468053 40.0446696 16.625 42.75 C16.97884766 43.82314453 16.97884766 43.82314453 17.33984375 44.91796875 C17.55769531 45.60503906 17.77554688 46.29210937 18 47 C18.391875 48.010625 18.78375 49.02125 19.1875 50.0625 C20.20776982 53.75116781 20.69100313 56.1994828 20 60 C14.68152726 64.86583676 8.50466316 66.0133175 1.62744141 67.47900391 C-3.11066445 68.4992193 -7.52402033 69.82092991 -12.0625 71.5625 C-19.58479024 74.38227431 -27.07405045 75.79067986 -35 77 C-36.79050781 77.28230469 -36.79050781 77.28230469 -38.6171875 77.5703125 C-44.63536106 78.29465467 -50.69832495 78.14427285 -56.75 78.125 C-58.54824219 78.13080078 -58.54824219 78.13080078 -60.3828125 78.13671875 C-82.67301109 78.11254283 -82.67301109 78.11254283 -87 74 C-87 73.34 -87 72.68 -87 72 C-84.03 71.01 -84.03 71.01 -81 70 C-82.21429688 70.2165625 -83.42859375 70.433125 -84.6796875 70.65625 C-95.1458106 72.40025884 -105.38245545 73.30054162 -116 73.3125 C-117.67231689 73.32023437 -117.67231689 73.32023437 -119.37841797 73.328125 C-124.46701 73.284426 -128.3095052 73.13054912 -133 71 C-133 70.01 -133 69.02 -133 68 C-131.02 67.01 -131.02 67.01 -129 66 C-132.3 64.68 -135.6 63.36 -139 62 C-138.19354839 51.19354839 -138.19354839 51.19354839 -135 48 C-132.20407827 47.58005919 -129.85338956 47.76611561 -127 48 C-126.814375 49.175625 -126.62875 50.35125 -126.4375 51.5625 C-124.96098565 55.52799568 -122.76877827 57.03567104 -119.03173828 58.91552734 C-109.40389938 63.30093276 -99.69507882 66.61702378 -89 66 C-89.99 65.01 -89.99 65.01 -91 64 C-90.85223292 60.08417226 -90.24535113 57.45295594 -88.375 54 C-86 52 -86 52 -82.375 52.0625 C-79 53 -79 53 -77 55 C-76.28072705 57.31765729 -75.6090107 59.65095874 -75 62 C-72.69 62.33 -70.38 62.66 -68 63 C-68 63.66 -68 64.32 -68 65 C-57.11 65 -46.22 65 -35 65 C-34.67 63.68 -34.34 62.36 -34 61 C-31.69 61.33 -29.38 61.66 -27 62 C-27.66 61.67 -28.32 61.34 -29 61 C-28.45687701 51.69199559 -26.78705749 45.02665455 -19.8515625 38.4453125 C-17.40638312 36.53662817 -15.01318107 35.66142999 -12 35 C-12.99 32.525 -12.99 32.525 -14 30 C-13.34 29.34 -12.68 28.68 -12 28 C-12.61488281 28.02320312 -13.22976562 28.04640625 -13.86328125 28.0703125 C-15.07564453 28.09738281 -15.07564453 28.09738281 -16.3125 28.125 C-17.51326172 28.15980469 -17.51326172 28.15980469 -18.73828125 28.1953125 C-21 28 -21 28 -24 26 C-24 25.01 -24 24.02 -24 23 C-22.02 23.33 -20.04 23.66 -18 24 C-18 23.34 -18 22.68 -18 22 C-19.65 21.67 -21.3 21.34 -23 21 C-22.01 19.515 -22.01 19.515 -21 18 C-21 17.01 -21 16.02 -21 15 C-18.6 10.2 -18.6 10.2 -15 9 C-16.20381448 11.49361571 -17.45428722 13.68143083 -19 16 C-16.07034299 14.98563129 -13.46764056 13.89778289 -11 12 C-10.00084195 9.20344351 -10.04956104 7.02322363 -10 4 C-9 3 -9 3 -7.15234375 2.90234375 C-5.1015625 2.93489583 -3.05078125 2.96744792 -1 3 C-0.67 2.01 -0.34 1.02 0 0 Z " fill="#CDCECE" transform="translate(159,65)"/>
<path d="M0 0 C2.64 0 5.28 0 8 0 C8.04254356 1.99954746 8.04080783 4.00041636 8 6 C7.67 6.33 7.34 6.66 7 7 C8.32 7.99 9.64 8.98 11 10 C11.66 9.34 12.32 8.68 13 8 C12.875 10.3125 12.875 10.3125 12 13 C7.13793103 16 7.13793103 16 4 16 C5 14 6 12 7 10 C4.9754262 11.93254772 3.57894208 13.63158688 2 16 C2 16.99 2 17.98 2 19 C2 19.66 2 20.32 2 21 C3.485 21.495 3.485 21.495 5 22 C5 22.66 5 23.32 5 24 C3.02 23.67 1.04 23.34 -1 23 C-0.505 24.485 -0.505 24.485 0 26 C2.52475462 27.26237731 4.31200466 27.09856404 7.125 27.0625 C8.49011719 27.04896484 8.49011719 27.04896484 9.8828125 27.03515625 C10.58148438 27.02355469 11.28015625 27.01195313 12 27 C11.649375 27.763125 11.29875 28.52625 10.9375 29.3125 C9.67639116 32.04759379 9.67639116 32.04759379 11 35 C10.49210937 35.27972656 9.98421875 35.55945313 9.4609375 35.84765625 C2.94422607 39.64296946 -1.86507128 43.09413212 -4.03515625 50.5625 C-4.78730326 54.03287133 -5.44550543 57.49306504 -6 61 C-5.01 61.33 -4.02 61.66 -3 62 C-6.62326739 63.2077558 -7.64146369 62.54311128 -11 61 C-11.33 62.32 -11.66 63.64 -12 65 C-22.951728 66.76912529 -34.01213207 66.27925281 -45 65 C-45 64.34 -45 63.68 -45 63 C-45.763125 63.20625 -46.52625 63.4125 -47.3125 63.625 C-50 64 -50 64 -53 62 C-53.73828125 60.16015625 -53.73828125 60.16015625 -54.3125 58.0625 C-55.50468698 54.53080632 -55.81000741 54.11921104 -59.1875 52 C-60.115625 51.67 -61.04375 51.34 -62 51 C-58.71175528 47.19034563 -54.93143399 45.35701854 -50.4375 43.3125 C-44.89947722 40.72850608 -40.68842598 38.08016563 -36.25 33.875 C-33.14769917 31.11267734 -31.85259931 30.03091296 -27.66015625 29.87890625 C-24.66061755 30.37941271 -21.87927302 31.03019251 -19 32 C-19 32.33 -19 32.66 -19 33 C-20.65 33 -22.3 33 -24 33 C-24 33.66 -24 34.32 -24 35 C-20.7 35 -17.4 35 -14 35 C-14 34.34 -14 33.68 -14 33 C-14.66 33 -15.32 33 -16 33 C-15.505 32.01 -15.505 32.01 -15 31 C-13.35 31.33 -11.7 31.66 -10 32 C-10 31.34 -10 30.68 -10 30 C-14.95 29.67 -19.9 29.34 -25 29 C-24.67 28.34 -24.34 27.68 -24 27 C-23.22914062 27.01160156 -22.45828125 27.02320312 -21.6640625 27.03515625 C-20.15972656 27.04869141 -20.15972656 27.04869141 -18.625 27.0625 C-17.12839844 27.07990234 -17.12839844 27.07990234 -15.6015625 27.09765625 C-13.01567547 27.18006602 -13.01567547 27.18006602 -11 26 C-8.8359375 26.33984375 -8.8359375 26.33984375 -6.375 26.9375 C-5.55773437 27.13214844 -4.74046875 27.32679687 -3.8984375 27.52734375 C-3.27195313 27.68332031 -2.64546875 27.83929688 -2 28 C-2 27.34 -2 26.68 -2 26 C-7.94 25.67 -13.88 25.34 -20 25 C-20 24.34 -20 23.68 -20 23 C-19.01 22.67 -18.02 22.34 -17 22 C-16.67 22.33 -16.34 22.66 -16 23 C-15.67 22.34 -15.34 21.68 -15 21 C-16.32 20.34 -17.64 19.68 -19 19 C-18.01 16.36 -17.02 13.72 -16 11 C-15.67 11 -15.34 11 -15 11 C-15.33 13.31 -15.66 15.62 -16 18 C-15.34 18 -14.68 18 -14 18 C-14 18.66 -14 19.32 -14 20 C-10.75150023 18.27773504 -10.75150023 18.27773504 -10 15 C-10.66 15 -11.32 15 -12 15 C-11.67 13.68 -11.34 12.36 -11 11 C-9.35 10.67 -7.7 10.34 -6 10 C-6 9.34 -6 8.68 -6 8 C-4.35 7.67 -2.7 7.34 -1 7 C-0.67 4.69 -0.34 2.38 0 0 Z " fill="#D5D6DB" transform="translate(136,65)"/>
<path d="M0 0 C1.8871875 0.1546875 1.8871875 0.1546875 3.8125 0.3125 C3.998125 1.488125 4.18375 2.66375 4.375 3.875 C5.85151435 7.84049568 8.04372173 9.34817104 11.78076172 11.22802734 C21.40860062 15.61343276 31.11742118 18.92952378 41.8125 18.3125 C41.1525 17.6525 40.4925 16.9925 39.8125 16.3125 C39.96026708 12.39667226 40.56714887 9.76545594 42.4375 6.3125 C44.8125 4.3125 44.8125 4.3125 48.4375 4.375 C51.8125 5.3125 51.8125 5.3125 53.8125 7.3125 C54.09808104 8.72626752 54.36677708 10.1434806 54.625 11.5625 C55.71033036 15.03667606 56.53383919 16.12814919 59.6171875 18.16796875 C70.11806279 23.07888618 79.08574314 24.65805518 90.5625 24.625 C91.6659375 24.64111328 92.769375 24.65722656 93.90625 24.67382812 C104.18678968 24.67986131 113.33827235 22.44649589 122.875 18.75 C127.20296638 17.13537236 131.17498688 15.98917984 135.75 15.375 C140.50271235 14.66104321 143.03697052 13.0654789 146.375 9.65234375 C147.8125 8.3125 147.8125 8.3125 150.8125 7.3125 C151.3125 9.5 151.3125 9.5 150.8125 12.3125 C145.37245195 17.05807383 139.3406328 18.32182649 132.43994141 19.79101562 C127.70207346 20.81220508 123.28849724 22.13342317 118.75 23.875 C111.22770976 26.69477431 103.73844955 28.10317986 95.8125 29.3125 C94.61882812 29.50070313 93.42515625 29.68890625 92.1953125 29.8828125 C86.17713894 30.60715467 80.11417505 30.45677285 74.0625 30.4375 C72.26425781 30.44330078 72.26425781 30.44330078 70.4296875 30.44921875 C48.13948891 30.42504283 48.13948891 30.42504283 43.8125 26.3125 C43.8125 25.6525 43.8125 24.9925 43.8125 24.3125 C45.7925 23.6525 47.7725 22.9925 49.8125 22.3125 C48.59820312 22.5290625 47.38390625 22.745625 46.1328125 22.96875 C35.6666894 24.71275884 25.43004455 25.61304162 14.8125 25.625 C13.14018311 25.63273437 13.14018311 25.63273437 11.43408203 25.640625 C6.34549 25.596926 2.5029948 25.44304912 -2.1875 23.3125 C-2.1875 22.3225 -2.1875 21.3325 -2.1875 20.3125 C-0.8675 19.6525 0.4525 18.9925 1.8125 18.3125 C-3.1375 16.3325 -3.1375 16.3325 -8.1875 14.3125 C-7.12315973 0.05034035 -7.12315973 0.05034035 0 0 Z " fill="#303133" transform="translate(28.1875,112.6875)"/>
<path d="M0 0 C2.64 0 5.28 0 8 0 C10.04679752 26.75456752 10.04679752 26.75456752 7 32 C4.70418852 33.94408549 2.20299976 35.54343909 -0.3125 37.1875 C-6.06569272 41.13348804 -9.23938773 44.16411242 -11.84375 50.76953125 C-14.30696032 55.52119711 -19.27271577 57.97290576 -24.13671875 59.8046875 C-25.73734467 60.27870654 -27.36720825 60.6525975 -29 61 C-28.45687701 51.69199559 -26.78705749 45.02665455 -19.8515625 38.4453125 C-17.40638312 36.53662817 -15.01318107 35.66142999 -12 35 C-12.66 33.35 -13.32 31.7 -14 30 C-13.34 29.34 -12.68 28.68 -12 28 C-12.61488281 28.02320312 -13.22976562 28.04640625 -13.86328125 28.0703125 C-15.07564453 28.09738281 -15.07564453 28.09738281 -16.3125 28.125 C-17.51326172 28.15980469 -17.51326172 28.15980469 -18.73828125 28.1953125 C-21 28 -21 28 -24 26 C-24 25.01 -24 24.02 -24 23 C-22.02 23.33 -20.04 23.66 -18 24 C-18 23.34 -18 22.68 -18 22 C-19.65 21.67 -21.3 21.34 -23 21 C-22.34 20.01 -21.68 19.02 -21 18 C-21 17.01 -21 16.02 -21 15 C-18.6 10.2 -18.6 10.2 -15 9 C-16.20381448 11.49361571 -17.45428722 13.68143083 -19 16 C-16.07034299 14.98563129 -13.46764056 13.89778289 -11 12 C-10.00084195 9.20344351 -10.04956104 7.02322363 -10 4 C-9 3 -9 3 -7.15234375 2.90234375 C-5.1015625 2.93489583 -3.05078125 2.96744792 -1 3 C-0.67 2.01 -0.34 1.02 0 0 Z " fill="#BABEC2" transform="translate(159,65)"/>
<path d="M0 0 C0.99 0.33 1.98 0.66 3 1 C3.042721 2.66611905 3.04063832 4.33382885 3 6 C2.67 6.33 2.34 6.66 2 7 C1.63239269 9.32817964 1.29758419 11.6618385 1 14 C1.66 14 2.32 14 3 14 C2.6875 15.9375 2.6875 15.9375 2 18 C1.01 18.33 0.02 18.66 -1 19 C-1 18.34 -1 17.68 -1 17 C-1.66 17 -2.32 17 -3 17 C-3 16.01 -3 15.02 -3 14 C-3.66 15.32 -4.32 16.64 -5 18 C-4.01 18.66 -3.02 19.32 -2 20 C-2.495 21.485 -2.495 21.485 -3 23 C-4.32 22.67 -5.64 22.34 -7 22 C-7 22.66 -7 23.32 -7 24 C-6.28714844 23.98839844 -5.57429688 23.97679688 -4.83984375 23.96484375 C0.56325366 23.91393974 5.67828475 24.05391729 11 25 C11 25.66 11 26.32 11 27 C7.7 26.67 4.4 26.34 1 26 C1 26.33 1 26.66 1 27 C0.14535156 26.98839844 -0.70929688 26.97679688 -1.58984375 26.96484375 C-3.24693359 26.95130859 -3.24693359 26.95130859 -4.9375 26.9375 C-6.03964844 26.92589844 -7.14179687 26.91429688 -8.27734375 26.90234375 C-10.91447634 26.68737429 -10.91447634 26.68737429 -12 28 C-11.25234375 27.98839844 -10.5046875 27.97679688 -9.734375 27.96484375 C-8.74953125 27.95582031 -7.7646875 27.94679688 -6.75 27.9375 C-5.28820312 27.92009766 -5.28820312 27.92009766 -3.796875 27.90234375 C-1.34241322 27.98804423 0.66168914 28.29293934 3 29 C3 29.66 3 30.32 3 31 C1.35 31 -0.3 31 -2 31 C-1.67 31.33 -1.34 31.66 -1 32 C-1 32.66 -1 33.32 -1 34 C-4.3 34 -7.6 34 -11 34 C-10.67 33.01 -10.34 32.02 -10 31 C-13.20951255 29.88901489 -14.70444539 29.46184567 -18 30 C-20.47582758 31.78541689 -22.67933154 33.73491721 -24.91601562 35.80761719 C-31.35975896 41.57158985 -39.1152248 44.65551004 -47 48 C-45.6806334 41.96130001 -41.34075342 37.5427693 -36.25 34.1875 C-35.13625 33.5996875 -35.13625 33.5996875 -34 33 C-33.443125 32.443125 -32.88625 31.88625 -32.3125 31.3125 C-31.879375 30.879375 -31.44625 30.44625 -31 30 C-30.34 30 -29.68 30 -29 30 C-29 28.68 -29 27.36 -29 26 C-29.928125 25.773125 -30.85625 25.54625 -31.8125 25.3125 C-35.6050374 23.75086695 -35.98609293 22.4148859 -38 19 C-40.59122743 18.11341534 -40.59122743 18.11341534 -43 18 C-43 17.67 -43 17.34 -43 17 C-41.56163249 17.11458693 -40.12429034 17.24209116 -38.6875 17.375 C-37.88699219 17.44460937 -37.08648437 17.51421875 -36.26171875 17.5859375 C-34 18 -34 18 -31 20 C-31.33 19.01 -31.66 18.02 -32 17 C-26.78787879 13 -26.78787879 13 -23.5 13 C-20.25677734 14.29728906 -17.71202106 15.792541 -15 18 C-15 19.32 -15 20.64 -15 22 C-13.68 21.34 -12.36 20.68 -11 20 C-11 19.01 -11 18.02 -11 17 C-12.32 16.34 -13.64 15.68 -15 15 C-14.525625 14.46375 -14.05125 13.9275 -13.5625 13.375 C-11.71813924 10.57157164 -11.37543153 8.30379742 -11 5 C-8.03 5 -5.06 5 -2 5 C-1.34 3.35 -0.68 1.7 0 0 Z " fill="#B4B9BA" transform="translate(123,66)"/>
<path d="M0 0 C1.8871875 0.1546875 1.8871875 0.1546875 3.8125 0.3125 C3.998125 1.488125 4.18375 2.66375 4.375 3.875 C5.85148118 7.8404066 8.0435412 9.34832899 11.78076172 11.2277832 C21.4346133 15.62623406 31.24301428 18.2962033 41.8125 19.3125 C40.8225 19.8075 40.8225 19.8075 39.8125 20.3125 C39.8125 20.9725 39.8125 21.6325 39.8125 22.3125 C33.05849396 23.33904374 26.4497141 23.46251422 19.625 23.4375 C18.55830078 23.44136719 17.49160156 23.44523437 16.39257812 23.44921875 C14.84666992 23.44728516 14.84666992 23.44728516 13.26953125 23.4453125 C12.34116455 23.44418457 11.41279785 23.44305664 10.45629883 23.44189453 C7.81587662 23.31266526 5.38671963 22.89878049 2.8125 22.3125 C2.8125 21.3225 2.8125 20.3325 2.8125 19.3125 C4.4625 19.3125 6.1125 19.3125 7.8125 19.3125 C7.8125 18.3225 7.8125 17.3325 7.8125 16.3125 C6.58273438 16.34730469 6.58273438 16.34730469 5.328125 16.3828125 C3.71164063 16.40988281 3.71164063 16.40988281 2.0625 16.4375 C0.99515625 16.46070313 -0.0721875 16.48390625 -1.171875 16.5078125 C-4.11220106 16.31737687 -5.71111878 15.83920104 -8.1875 14.3125 C-7.28647787 0.05149454 -7.28647787 0.05149454 0 0 Z " fill="#2E2E2E" transform="translate(28.1875,112.6875)"/>
<path d="M0 0 C0.33 0 0.66 0 1 0 C1.39332582 3.62313589 1.22802748 6.55096969 0 10 C-3.63216178 13.58233029 -7.74039847 16.22152895 -12 19 C-15.58516124 21.55795212 -17.42319784 23.17345983 -18.75 27.375 C-21.01166521 32.93301937 -24.72949376 35.39127628 -30 38 C-32.35342572 38.8889765 -34.53028718 39.47452919 -37 40 C-36.46868747 30.89440246 -34.88798867 24.31848528 -28.22900391 17.79467773 C-24.0462972 14.42698036 -19.14800597 12.49438875 -14.25 10.375 C-12.18660272 9.48009411 -10.12898156 8.57172092 -8.078125 7.6484375 C-7.17481445 7.25833496 -6.27150391 6.86823242 -5.34082031 6.46630859 C-2.53954281 4.71156593 -1.53658022 2.88093726 0 0 Z " fill="#2C2E2F" transform="translate(167,86)"/>
<path d="M0 0 C0.5 2.1875 0.5 2.1875 0 5 C-5.44004805 9.74557383 -11.4718672 11.00932649 -18.37255859 12.47851562 C-23.11042654 13.49970508 -27.52400276 14.82092317 -32.0625 16.5625 C-39.58479024 19.38227431 -47.07405045 20.79067986 -55 22 C-56.19367188 22.18820313 -57.38734375 22.37640625 -58.6171875 22.5703125 C-64.63536106 23.29465467 -70.69832495 23.14427285 -76.75 23.125 C-77.94882813 23.12886719 -79.14765625 23.13273437 -80.3828125 23.13671875 C-102.67301109 23.11254283 -102.67301109 23.11254283 -107 19 C-107 18.34 -107 17.68 -107 17 C-101.555 15.515 -101.555 15.515 -96 14 C-96 14.66 -96 15.32 -96 16 C-97.64821244 17.03013277 -99.31503702 18.03114628 -101 19 C-101 19.33 -101 19.66 -101 20 C-92.42 20 -83.84 20 -75 20 C-75 19.01 -75 18.02 -75 17 C-74.21463867 17.01571045 -73.42927734 17.0314209 -72.62011719 17.04760742 C-68.99682064 17.11069303 -65.37364027 17.14922211 -61.75 17.1875 C-60.51507813 17.21263672 -59.28015625 17.23777344 -58.0078125 17.26367188 C-47.23605186 17.34871209 -37.92897481 15.31025876 -27.9375 11.4375 C-23.60953362 9.82287236 -19.63751312 8.67667984 -15.0625 8.0625 C-10.29640485 7.34547684 -7.72385307 5.72385307 -4.33984375 2.33984375 C-3.02707859 1.02707859 -1.95265906 0 0 0 Z " fill="#404141" transform="translate(179,120)"/>
<path d="M0 0 C5.28 0.33 10.56 0.66 16 1 C16 1.33 16 1.66 16 2 C21.445 2.495 21.445 2.495 27 3 C27 3.66 27 4.32 27 5 C29.64 5.33 32.28 5.66 35 6 C35.28875 7.11375 35.5775 8.2275 35.875 9.375 C36.69241329 13.00291092 36.69241329 13.00291092 39 15 C27.73408228 15.67296411 18.36991308 12.92877338 8.3125 8.0625 C7.60464355 7.72669922 6.89678711 7.39089844 6.16748047 7.04492188 C4.17578125 6.03515625 4.17578125 6.03515625 1 4 C0.67 2.68 0.34 1.36 0 0 Z " fill="#D9D9DC" transform="translate(33,117)"/>
<path d="M0 0 C1.98 0 3.96 0 6 0 C5.34 0.66 4.68 1.32 4 2 C3.29289322 3.64991582 2.62056011 5.31562256 2 7 C-0.97 6.67 -3.94 6.34 -7 6 C-6.938125 6.9075 -6.87625 7.815 -6.8125 8.75 C-7.01672076 12.28982642 -7.64551835 13.44931155 -10 16 C-8.68 17.32 -7.36 18.64 -6 20 C-6.66 20.99 -7.32 21.98 -8 23 C-8.99 23 -9.98 23 -11 23 C-11.04125 22.4225 -11.0825 21.845 -11.125 21.25 C-12.50031033 17.71348771 -14.69114596 16.68564263 -18 15 C-21.37374254 15.06615181 -23.19321154 15.38146218 -25.875 17.4375 C-27.19476824 18.94961724 -27.19476824 18.94961724 -27 21 C-27.99 20.67 -28.98 20.34 -30 20 C-30 16 -30 16 -28.5 14.25 C-28.005 13.8375 -27.51 13.425 -27 13 C-28.32 12.34 -29.64 11.68 -31 11 C-30.01 10.67 -29.02 10.34 -28 10 C-27.195625 9.13375 -26.39125 8.2675 -25.5625 7.375 C-24.716875 6.59125 -23.87125 5.8075 -23 5 C-21.01171875 5.09765625 -21.01171875 5.09765625 -19 6 C-17.515625 7.84765625 -17.515625 7.84765625 -16.25 10.0625 C-15.60804687 11.16271484 -15.60804687 11.16271484 -14.953125 12.28515625 C-14.63859375 12.85105469 -14.3240625 13.41695312 -14 14 C-13.79503906 13.28972656 -13.59007813 12.57945313 -13.37890625 11.84765625 C-13.10949219 10.92855469 -12.84007813 10.00945312 -12.5625 9.0625 C-12.29566406 8.14597656 -12.02882813 7.22945313 -11.75390625 6.28515625 C-11 4 -11 4 -10 3 C-8.48071962 2.92820036 -6.95832518 2.91607993 -5.4375 2.9375 C-4.61121094 2.94652344 -3.78492187 2.95554687 -2.93359375 2.96484375 C-2.29550781 2.97644531 -1.65742187 2.98804687 -1 3 C-0.67 2.01 -0.34 1.02 0 0 Z " fill="#BCC0C6" transform="translate(119,65)"/>
<path d="M0 0 C0.33 0 0.66 0 1 0 C1 7.92 1 15.84 1 24 C0.34 24.33 -0.32 24.66 -1 25 C-1.66 24.67 -2.32 24.34 -3 24 C-9.84129462 23.29227987 -13.59677588 24.81440385 -19 29 C-19.66 29.66 -20.32 30.32 -21 31 C-20.62150163 25.70102283 -18.70452432 22.64740213 -15 19 C-12.81127083 17.52162485 -10.57984677 16.1047203 -8.3125 14.75 C-4.97281369 12.63078786 -2.41276472 10.89682517 -0.7109375 7.19921875 C-0.24658232 4.74922536 0.0259969 2.49050328 0 0 Z " fill="#BABCBE" transform="translate(168,86)"/>
<path d="M0 0 C0.99 0.33 1.98 0.66 3 1 C3.042721 2.66611905 3.04063832 4.33382885 3 6 C2.67 6.33 2.34 6.66 2 7 C1.63239269 9.32817964 1.29758419 11.6618385 1 14 C1.66 14 2.32 14 3 14 C2.6875 15.9375 2.6875 15.9375 2 18 C1.01 18.33 0.02 18.66 -1 19 C-1 18.34 -1 17.68 -1 17 C-1.66 17 -2.32 17 -3 17 C-3 16.01 -3 15.02 -3 14 C-3.20625 14.639375 -3.4125 15.27875 -3.625 15.9375 C-5 18 -5 18 -8.125 18.75 C-9.548125 18.87375 -9.548125 18.87375 -11 19 C-11 18.34 -11 17.68 -11 17 C-12.32 16.34 -13.64 15.68 -15 15 C-14.525625 14.46375 -14.05125 13.9275 -13.5625 13.375 C-11.71813924 10.57157164 -11.37543153 8.30379742 -11 5 C-8.03 5 -5.06 5 -2 5 C-1.34 3.35 -0.68 1.7 0 0 Z " fill="#BEC1C5" transform="translate(123,66)"/>
<path d="M0 0 C7.15168515 0.49895478 13.41291281 3.31563815 20 6 C20 6.66 20 7.32 20 8 C22.97 8.495 22.97 8.495 26 9 C26 9.33 26 9.66 26 10 C15.44 10 4.88 10 -6 10 C-6 9.01 -6 8.02 -6 7 C-4.7934375 6.6596875 -4.7934375 6.6596875 -3.5625 6.3125 C-2.716875 5.879375 -1.87125 5.44625 -1 5 C-0.10613836 2.45224694 -0.10613836 2.45224694 0 0 Z " fill="#2A2A2C" transform="translate(84,131)"/>
<path d="M0 0 C0 0.66 0 1.32 0 2 C0.99 1.67 1.98 1.34 3 1 C3 1.66 3 2.32 3 3 C6.19902639 3.08886184 8.92677456 2.91058531 12 2 C12.5625 3.9375 12.5625 3.9375 13 6 C12.67 6.33 12.34 6.66 12 7 C9.30917128 6.82364548 6.67148554 6.38164079 4 6 C3.34 7.32 2.68 8.64 2 10 C1.01 10 0.02 10 -1 10 C-1 10.99 -1 11.98 -1 13 C-5.08443115 14.53166168 -8.79455657 13.63081652 -13 13 C-13 10.66666667 -13 8.33333333 -13 6 C-11.02 5.67 -9.04 5.34 -7 5 C-7 4.34 -7 3.68 -7 3 C-4.62529233 -0.08711997 -4.19087419 0 0 0 Z " fill="#C2C5BB" transform="translate(73,82)"/>
<path d="M0 0 C0.99 0 1.98 0 3 0 C3.66 2.64 4.32 5.28 5 8 C4.36191406 8.49371094 3.72382813 8.98742187 3.06640625 9.49609375 C2.24011719 10.13675781 1.41382813 10.77742188 0.5625 11.4375 C-0.26121094 12.07558594 -1.08492187 12.71367188 -1.93359375 13.37109375 C-3.87501267 14.83582197 -3.87501267 14.83582197 -5 16 C-7.85227019 16.56344744 -10.69631608 17.08134945 -13.5625 17.5625 C-14.36880859 17.70107422 -15.17511719 17.83964844 -16.00585938 17.98242188 C-18.00329811 18.32517763 -20.00157472 18.66304388 -22 19 C-21.34 17.35 -20.68 15.7 -20 14 C-19.34 14 -18.68 14 -18 14 C-18 13.34 -18 12.68 -18 12 C-17.34 12 -16.68 12 -16 12 C-16 11.34 -16 10.68 -16 10 C-13.54670064 8.77335032 -11.85833124 8.96588771 -9.125 8.9375 C-6.43551481 8.81338438 -6.43551481 8.81338438 -4 8 C-1.95223 5.55922363 -0.92485159 3.02992425 0 0 Z " fill="#C7D17C" transform="translate(174,112)"/>
<path d="M0 0 C0.66 0.33 1.32 0.66 2 1 C1.67 3.97 1.34 6.94 1 10 C0.34 9.67 -0.32 9.34 -1 9 C-1.33 11.97 -1.66 14.94 -2 18 C-6 19 -6 19 -9.1875 17.125 C-14.1517549 13.37422963 -13.83507006 10.13529771 -15 4 C-10.38 4 -5.76 4 -1 4 C-0.67 2.68 -0.34 1.36 0 0 Z " fill="#B4B6BA" transform="translate(165,66)"/>
<path d="M0 0 C3.15840911 1.26336365 5.74745099 3.0156042 8.5 5 C8.17 6.32 7.84 7.64 7.5 9 C5.43918639 9.50690584 3.37626474 10.00524619 1.3125 10.5 C0.16394531 10.7784375 -0.98460938 11.056875 -2.16796875 11.34375 C-5.08803682 11.91886305 -7.54304764 12.23803731 -10.5 12 C-13.0048111 10.12139167 -13.48700625 9.03898126 -14.5 6 C-16.15 5.67 -17.8 5.34 -19.5 5 C-19.5 4.67 -19.5 4.34 -19.5 4 C-18.06163249 4.11458693 -16.62429034 4.24209116 -15.1875 4.375 C-13.98673828 4.47941406 -13.98673828 4.47941406 -12.76171875 4.5859375 C-10.5 5 -10.5 5 -7.5 7 C-7.83 6.01 -8.16 5.02 -8.5 4 C-3.28787879 0 -3.28787879 0 0 0 Z " fill="#64696F" transform="translate(99.5,79)"/>
<path d="M0 0 C1.10859375 0.08378906 2.2171875 0.16757813 3.359375 0.25390625 C4.82289328 0.35710305 6.28643631 0.45994926 7.75 0.5625 C8.84441406 0.64661133 8.84441406 0.64661133 9.9609375 0.73242188 C14.02306429 1.04848266 14.02306429 1.04848266 18.02734375 0.48632812 C21.18665045 -0.29255046 24.06417397 0.43602738 27.25 0.9375 C28.51328125 1.13214844 29.7765625 1.32679688 31.078125 1.52734375 C32.04234375 1.68332031 33.0065625 1.83929688 34 2 C33.34 2.33 32.68 2.66 32 3 C32 3.66 32 4.32 32 5 C25.24599396 6.02654374 18.6372141 6.15001422 11.8125 6.125 C10.74580078 6.12886719 9.67910156 6.13273438 8.58007812 6.13671875 C7.03416992 6.13478516 7.03416992 6.13478516 5.45703125 6.1328125 C4.52866455 6.13168457 3.60029785 6.13055664 2.64379883 6.12939453 C0.00337662 6.00016526 -2.42578037 5.58628049 -5 5 C-5 4.01 -5 3.02 -5 2 C-3.35 2 -1.7 2 0 2 C0 1.34 0 0.68 0 0 Z " fill="#0D0D0D" transform="translate(36,130)"/>
<path d="M0 0 C-8.8354192 8.3076774 -17.88727305 13.28630776 -29 18 C-27.74401702 12.6013046 -25.40311642 9.43099981 -21 6 C-5.77295181 -1.92431727 -5.77295181 -1.92431727 0 0 Z " fill="#25262A" transform="translate(105,96)"/>
<path d="M0 0 C3.3125 1.75 3.3125 1.75 6 4 C6 5.32 6 6.64 6 8 C-5.93999351 12.75900097 -5.93999351 12.75900097 -11 12 C-11.99 11.34 -12.98 10.68 -14 10 C-14 9.01 -14 8.02 -14 7 C-11.03 7.495 -11.03 7.495 -8 8 C-8 7.34 -8 6.68 -8 6 C-8.66 6 -9.32 6 -10 6 C-7.90135507 1.15697323 -5.34067393 -0.74521032 0 0 Z " fill="#61686C" transform="translate(149,81)"/>
<path d="M0 0 C2.64 0 5.28 0 8 0 C8.04254356 1.99954746 8.04080783 4.00041636 8 6 C7.67 6.33 7.34 6.66 7 7 C8.32 7.99 9.64 8.98 11 10 C11.66 9.34 12.32 8.68 13 8 C12.875 10.3125 12.875 10.3125 12 13 C7.13793103 16 7.13793103 16 4 16 C5.5 13 5.5 13 7 10 C6.5875 10.4125 6.175 10.825 5.75 11.25 C3.83333333 13.16666667 1.91666667 15.08333333 0 17 C0 16.34 0 15.68 0 15 C-0.99 14.67 -1.98 14.34 -3 14 C-2.01 14 -1.02 14 0 14 C0 13.01 0 12.02 0 11 C-1.98 10.34 -3.96 9.68 -6 9 C-5.360625 8.855625 -4.72125 8.71125 -4.0625 8.5625 C-2.02454854 8.18992819 -2.02454854 8.18992819 -1 7 C-0.63239269 4.67182036 -0.29758419 2.3381615 0 0 Z " fill="#E0E2DF" transform="translate(136,65)"/>
<path d="M0 0 C5.28 0 10.56 0 16 0 C16.66 1.98 17.32 3.96 18 6 C18.66 6.66 19.32 7.32 20 8 C12.46823637 8.44990623 2.1394393 8.59684895 -3.84765625 3.39453125 C-4.22792969 2.93433594 -4.60820313 2.47414063 -5 2 C-4.34 1.67 -3.68 1.34 -3 1 C-2.01 1.33 -1.02 1.66 0 2 C0 1.34 0 0.68 0 0 Z " fill="#D2D4D6" transform="translate(52,124)"/>
<path d="M0 0 C1.45880109 0.14107747 2.91703551 0.28802415 4.375 0.4375 C5.18710938 0.51871094 5.99921875 0.59992188 6.8359375 0.68359375 C9 1 9 1 11 2 C11 1.34 11 0.68 11 0 C11.99 0.33 12.98 0.66 14 1 C13.67 1.66 13.34 2.32 13 3 C12.34 3 11.68 3 11 3 C10.896875 3.61875 10.79375 4.2375 10.6875 4.875 C10 7 10 7 7 9 C4.95703125 9.1953125 4.95703125 9.1953125 2.8125 9.125 C0.9253125 9.063125 0.9253125 9.063125 -1 9 C-1 8.34 -1 7.68 -1 7 C-1.66 7 -2.32 7 -3 7 C-2.67 6.34 -2.34 5.68 -2 5 C-0.35 5.33 1.3 5.66 3 6 C3 5.34 3 4.68 3 4 C-1.95 3.67 -6.9 3.34 -12 3 C-11.67 2.34 -11.34 1.68 -11 1 C-7.37 1 -3.74 1 0 1 C0 0.67 0 0.34 0 0 Z M2 11 C1 12 1 12 -1.28515625 12.09765625 C-2.65994141 12.08025391 -2.65994141 12.08025391 -4.0625 12.0625 C-4.98160156 12.05347656 -5.90070313 12.04445313 -6.84765625 12.03515625 C-7.55792969 12.02355469 -8.26820312 12.01195313 -9 12 C-4.68398307 9.12265538 -2.56105874 8.23078577 2 11 Z " fill="#DDE0DE" transform="translate(123,91)"/>
<path d="M0 0 C2.64 0 5.28 0 8 0 C8 0.99 8 1.98 8 3 C6.35 3 4.7 3 3 3 C3 3.99 3 4.98 3 6 C16.53 6 30.06 6 44 6 C44 6.33 44 6.66 44 7 C34.45162998 8.76471525 25.07712894 9.21765508 15.375 9.25 C14.23691895 9.25902344 13.09883789 9.26804688 11.92626953 9.27734375 C10.30374268 9.27154297 10.30374268 9.27154297 8.6484375 9.265625 C7.68083496 9.26336914 6.71323242 9.26111328 5.71630859 9.25878906 C2.81831515 8.98269046 0.63540666 8.20712054 -2 7 C-2 6.01 -2 5.02 -2 4 C-0.68 3.34 0.64 2.68 2 2 C1.34 1.34 0.68 0.68 0 0 Z " fill="#5E5E5E" transform="translate(28,129)"/>
<path d="M0 0 C1.98 0 3.96 0 6 0 C5.34 0.66 4.68 1.32 4 2 C3.29289322 3.64991582 2.62056011 5.31562256 2 7 C-0.97 6.67 -3.94 6.34 -7 6 C-6.938125 6.9075 -6.87625 7.815 -6.8125 8.75 C-7.01672076 12.28982642 -7.64551835 13.44931155 -10 16 C-9.01 16.99 -8.02 17.98 -7 19 C-10.31726155 18.42805835 -11.72635823 17.42999536 -14 15 C-13.52494322 13.18641846 -13.04483958 11.37415821 -12.5625 9.5625 C-12.29566406 8.55316406 -12.02882813 7.54382813 -11.75390625 6.50390625 C-11 4 -11 4 -10 3 C-8.48071962 2.92820036 -6.95832518 2.91607993 -5.4375 2.9375 C-4.61121094 2.94652344 -3.78492187 2.95554687 -2.93359375 2.96484375 C-2.29550781 2.97644531 -1.65742187 2.98804687 -1 3 C-0.67 2.01 -0.34 1.02 0 0 Z " fill="#AFB1B5" transform="translate(119,65)"/>
<path d="M0 0 C0.5 2.1875 0.5 2.1875 0 5 C-7.40127973 11.45643551 -20.27727308 14.51777836 -30 14 C-27.63942977 10.45914466 -26.79988789 10.37597186 -22.8125 9.375 C-21.82378906 9.12105469 -20.83507812 8.86710938 -19.81640625 8.60546875 C-17 8 -17 8 -13.25 7.6875 C-9.24686681 6.84068336 -7.39286714 5.14744332 -4.48046875 2.375 C-1.92329545 0 -1.92329545 0 0 0 Z " fill="#3F412F" transform="translate(179,120)"/>
<path d="M0 0 C1.8203125 1.1328125 1.8203125 1.1328125 2.8203125 4.1328125 C-2.98169299 4.32175162 -8.40241637 3.59758755 -14.1171875 2.6328125 C-15.42913086 2.41818359 -15.42913086 2.41818359 -16.76757812 2.19921875 C-18.90576467 1.84869637 -21.04284599 1.49144324 -23.1796875 1.1328125 C-21.8596875 0.8028125 -20.5396875 0.4728125 -19.1796875 0.1328125 C-19.1796875 -0.5271875 -19.1796875 -1.1871875 -19.1796875 -1.8671875 C-12.37073179 -5.37483135 -6.56543947 -2.82647733 0 0 Z " fill="#242426" transform="translate(51.1796875,127.8671875)"/>
<path d="M0 0 C2.31 0 4.62 0 7 0 C7 0.66 7 1.32 7 2 C10.63 2 14.26 2 18 2 C18.33 2.66 18.66 3.32 19 4 C18.67 4.66 18.34 5.32 18 6 C19.423125 6.1546875 19.423125 6.1546875 20.875 6.3125 C24 7 24 7 26 10 C16.78273782 9.45780811 7.68987217 6.10755888 0 1 C0 0.67 0 0.34 0 0 Z " fill="#CDCCD1" transform="translate(84,128)"/>
<path d="M0 0 C0.99 1.485 0.99 1.485 2 3 C4.44877289 3.51028683 6.71041632 3.83712576 9.1875 4.0625 C10.63026174 4.21956223 12.07296882 4.37712734 13.515625 4.53515625 C14.25490234 4.61137207 14.99417969 4.68758789 15.75585938 4.76611328 C19.32157682 5.13773614 22.8798444 5.55849472 26.4375 6 C27.67371094 6.144375 28.90992188 6.28875 30.18359375 6.4375 C31.11300781 6.623125 32.04242188 6.80875 33 7 C33.495 7.99 33.495 7.99 34 9 C10.27648519 9.64897153 10.27648519 9.64897153 0 4 C0 2.68 0 1.36 0 0 Z " fill="#BDBFC2" transform="translate(82,120)"/>
<path d="M0 0 C3.61355948 0.50315385 7.06188645 1.54532919 10.55859375 2.56640625 C13.40368612 3.36952542 16.23122562 3.90497981 19.16015625 4.30078125 C19.16015625 4.63078125 19.16015625 4.96078125 19.16015625 5.30078125 C15.9727351 5.3594316 12.78545507 5.39459384 9.59765625 5.42578125 C8.25477539 5.45091797 8.25477539 5.45091797 6.88476562 5.4765625 C1.5592572 5.51557721 -2.80355064 5.05553907 -7.83984375 3.30078125 C-5.67442599 0.24372088 -3.66603147 -0.14788662 0 0 Z " fill="#0E0E0E" transform="translate(90.83984375,135.69921875)"/>
<path d="M0 0 C1.32 0 2.64 0 4 0 C4.33 4.29 4.66 8.58 5 13 C3.35 13.33 1.7 13.66 0 14 C0 13.34 0 12.68 0 12 C-1.32 11.34 -2.64 10.68 -4 10 C-3.525625 9.46375 -3.05125 8.9275 -2.5625 8.375 C-0.71813924 5.57157164 -0.37543153 3.30379742 0 0 Z " fill="#777B81" transform="translate(112,71)"/>
<path d="M0 0 C0.69738281 0.144375 1.39476563 0.28875 2.11328125 0.4375 C13.7005875 2.69537835 25.23204688 3.49299068 37 4 C33.29495495 6.47003003 31.41312877 6.23723813 27 6.1875 C26.33734131 6.18105469 25.67468262 6.17460937 24.99194336 6.16796875 C19.29565533 6.08015412 13.65636359 5.65853713 8 5 C8 4.34 8 3.68 8 3 C7.236875 3.20625 6.47375 3.4125 5.6875 3.625 C3 4 3 4 0 2 C0 1.34 0 0.68 0 0 Z " fill="#DBDBDF" transform="translate(83,125)"/>
<path d="M0 0 C2.64 0 5.28 0 8 0 C6.76341941 3.42437702 5.64719559 6.44734711 3 9 C-0.1875 9.25 -0.1875 9.25 -3 9 C-2.67 10.32 -2.34 11.64 -2 13 C-2.99 13.495 -2.99 13.495 -4 14 C-4.75 11.8125 -4.75 11.8125 -5 9 C-3.125 6.4375 -3.125 6.4375 -1 4 C-0.22166466 1.81785432 -0.22166466 1.81785432 0 0 Z " fill="#D2D7B8" transform="translate(92,60)"/>
<path d="M0 0 C0.33 0.66 0.66 1.32 1 2 C1.74765625 1.98839844 2.4953125 1.97679688 3.265625 1.96484375 C4.25046875 1.95582031 5.2353125 1.94679688 6.25 1.9375 C7.71179688 1.92009766 7.71179688 1.92009766 9.203125 1.90234375 C11.65758678 1.98804423 13.66168914 2.29293934 16 3 C16 3.66 16 4.32 16 5 C14.35 5 12.7 5 11 5 C11.33 5.33 11.66 5.66 12 6 C12 6.66 12 7.32 12 8 C8.7 8 5.4 8 2 8 C2.33 7.01 2.66 6.02 3 5 C0.03 4.505 0.03 4.505 -3 4 C-3 3.34 -3 2.68 -3 2 C-2.01 1.34 -1.02 0.68 0 0 Z " fill="#B7BDB2" transform="translate(110,92)"/>
<path d="M0 0 C1.98 0 3.96 0 6 0 C7.10228696 4.40914783 7.07654536 8.48382401 7 13 C1.125 11.125 1.125 11.125 0 10 C-0.29386153 6.27775401 -0.14809171 5.22213757 2 2 C1.34 2 0.68 2 0 2 C0 1.34 0 0.68 0 0 Z " fill="#8B9098" transform="translate(154,72)"/>
<path d="M0 0 C3.3125 1.75 3.3125 1.75 6 4 C6 5.32 6 6.64 6 8 C1.71 8.66 -2.58 9.32 -7 10 C-2.5 6.625 -2.5 6.625 1 6 C1 5.01 1 4.02 1 3 C-0.32 3.33 -1.64 3.66 -3 4 C-3 3.34 -3 2.68 -3 2 C-4.98 2.99 -4.98 2.99 -7 4 C-7 3.01 -7 2.02 -7 1 C-4.37310841 -0.31344579 -2.93059745 -0.33302244 0 0 Z " fill="#4F5659" transform="translate(149,81)"/>
<path d="M0 0 C0.33 4.29 0.66 8.58 1 13 C0.34 13 -0.32 13 -1 13 C-1.66 14.32 -2.32 15.64 -3 17 C-3.33 16.34 -3.66 15.68 -4 15 C-4.66 15 -5.32 15 -6 15 C-5.744398 13.06043186 -5.46995354 11.12334011 -5.1875 9.1875 C-5.03667969 8.10855469 -4.88585937 7.02960938 -4.73046875 5.91796875 C-4.11261101 3.44984184 -3.14660375 0 0 0 Z " fill="#CFD0D6" transform="translate(167,72)"/>
<path d="M0 0 C0.33 0 0.66 0 1 0 C1 3.3 1 6.6 1 10 C2.32 10.66 3.64 11.32 5 12 C6 13 6 13 6.0625 15.5625 C6.041875 16.366875 6.02125 17.17125 6 18 C5.34 18 4.68 18 4 18 C3.67 18.99 3.34 19.98 3 21 C1.68 21 0.36 21 -1 21 C-0.67 14.07 -0.34 7.14 0 0 Z " fill="#D1D3D5" transform="translate(169,92)"/>
<path d="M0 0 C-0.8125 1.9375 -0.8125 1.9375 -2 4 C-2.99 4.33 -3.98 4.66 -5 5 C-5 5.99 -5 6.98 -5 8 C-9.95 9.485 -9.95 9.485 -15 11 C-14.01 9.68 -13.02 8.36 -12 7 C-11.34 7 -10.68 7 -10 7 C-10 5.02 -10 3.04 -10 1 C-6.61981469 -0.04005702 -3.5219721 -0.08004482 0 0 Z " fill="#B8BBBF" transform="translate(104,89)"/>
<path d="M0 0 C5.28 0.33 10.56 0.66 16 1 C16 1.33 16 1.66 16 2 C21.445 2.495 21.445 2.495 27 3 C27 3.66 27 4.32 27 5 C19.57429538 5.20375409 13.14569985 5.00581048 6 3 C2.66605561 2.8309611 2.66605561 2.8309611 0 3 C0 2.01 0 1.02 0 0 Z " fill="#C3C3C6" transform="translate(33,117)"/>
<path d="M0 0 C1.32 0 2.64 0 4 0 C4 0.66 4 1.32 4 2 C4.99 1.67 5.98 1.34 7 1 C7 1.66 7 2.32 7 3 C10.19902639 3.08886184 12.92677456 2.91058531 16 2 C16.5625 3.9375 16.5625 3.9375 17 6 C16.67 6.33 16.34 6.66 16 7 C9.74916152 6.95210085 4.56591268 5.78295634 -1 3 C-0.67 2.01 -0.34 1.02 0 0 Z " fill="#BEC5C7" transform="translate(69,82)"/>
<path d="M0 0 C0.66 0.66 1.32 1.32 2 2 C-0.2233881 4.2233881 -0.92305521 4.3605016 -3.9140625 4.8515625 C-4.67460937 4.98046875 -5.43515625 5.109375 -6.21875 5.2421875 C-7.0128125 5.36851562 -7.806875 5.49484375 -8.625 5.625 C-9.42679688 5.7590625 -10.22859375 5.893125 -11.0546875 6.03125 C-13.03527484 6.36134789 -15.01749675 6.68161083 -17 7 C-16 4 -16 4 -14.1796875 2.83203125 C-9.29467189 0.67103282 -5.45340114 -0.6677634 0 0 Z " fill="#BBC379" transform="translate(169,124)"/>
<path d="M0 0 C-0.33 0.66 -0.66 1.32 -1 2 C-1.99 2 -2.98 2 -4 2 C-4.37318359 2.90298828 -4.37318359 2.90298828 -4.75390625 3.82421875 C-6.19326404 6.33745477 -7.48828539 7.30283513 -9.9375 8.8125 C-10.62714844 9.25207031 -11.31679687 9.69164063 -12.02734375 10.14453125 C-14 11 -14 11 -17 10 C-15.625 8.5 -15.625 8.5 -14 7 C-13.34 7 -12.68 7 -12 7 C-11.773125 6.401875 -11.54625 5.80375 -11.3125 5.1875 C-8.64127805 0.73546341 -5.00990402 -0.42942034 0 0 Z " fill="#D8DADC" transform="translate(160,110)"/>
<path d="M0 0 C2.64 0 5.28 0 8 0 C7.33333333 1.33333333 6.66666667 2.66666667 6 4 C5.67 4.99 5.34 5.98 5 7 C5 6.34 5 5.68 5 5 C0.05 5.33 -4.9 5.66 -10 6 C-9.67 5.01 -9.34 4.02 -9 3 C-6.36 3 -3.72 3 -1 3 C-0.67 2.01 -0.34 1.02 0 0 Z " fill="#D5D6D8" transform="translate(159,65)"/>
<path d="M0 0 C0.99 0.33 1.98 0.66 3 1 C3 1.66 3 2.32 3 3 C7.29 3 11.58 3 16 3 C16.33 3.99 16.66 4.98 17 6 C19.31 6 21.62 6 24 6 C24 6.33 24 6.66 24 7 C16.46823637 7.44990623 6.1394393 7.59684895 0.15234375 2.39453125 C-0.22792969 1.93433594 -0.60820313 1.47414063 -1 1 C-0.67 0.67 -0.34 0.34 0 0 Z " fill="#B9B9BC" transform="translate(48,125)"/>
<path d="M0 0 C1.65 1.65 3.3 3.3 5 5 C4.67 5.99 4.34 6.98 4 8 C1.03 8 -1.94 8 -5 8 C-4.64950425 4.75791433 -4.43778819 3.38472296 -1.9375 1.1875 C-1.298125 0.795625 -0.65875 0.40375 0 0 Z " fill="#D0D4DB" transform="translate(98,70)"/>
<path d="M0 0 C1.98 0 3.96 0 6 0 C5.34 0.66 4.68 1.32 4 2 C3.29289322 3.64991582 2.62056011 5.31562256 2 7 C1.34 6.835 0.68 6.67 0 6.5 C-3.73099794 5.87816701 -7.21873378 5.93591074 -11 6 C-10.67 5.01 -10.34 4.02 -10 3 C-7.03 3 -4.06 3 -1 3 C-0.67 2.01 -0.34 1.02 0 0 Z " fill="#D0D2D5" transform="translate(119,65)"/>
<path d="M0 0 C2.64 0 5.28 0 8 0 C7.6875 2.375 7.6875 2.375 7 5 C4 7 4 7 0 7 C0 4.69 0 2.38 0 0 Z " fill="#DAE5AD" transform="translate(136,65)"/>
<path d="M0 0 C-2.97 2.64 -5.94 5.28 -9 8 C-9.99 7.67 -10.98 7.34 -12 7 C-12 6.34 -12 5.68 -12 5 C-12.66 4.34 -13.32 3.68 -14 3 C-12.23358317 2.3012307 -10.46167336 1.61633417 -8.6875 0.9375 C-7.20830078 0.36322266 -7.20830078 0.36322266 -5.69921875 -0.22265625 C-3 -1 -3 -1 0 0 Z " fill="#333537" transform="translate(105,96)"/>
<path d="M0 0 C-3.61973402 1.31626692 -6.09567131 2 -10 2 C-9.34 3.32 -8.68 4.64 -8 6 C-9.98 6 -11.96 6 -14 6 C-14 5.01 -14 4.02 -14 3 C-15.65 2.67 -17.3 2.34 -19 2 C-19 1.67 -19 1.34 -19 1 C-16.58440932 0.63645961 -14.16805703 0.28389449 -11.75 -0.0625 C-11.06808594 -0.16626953 -10.38617188 -0.27003906 -9.68359375 -0.37695312 C-6.2150075 -0.86524925 -3.33088887 -1.22762141 0 0 Z " fill="#C2C2C4" transform="translate(82,135)"/>
<path d="M0 0 C0 0.66 0 1.32 0 2 C-3.3 1.67 -6.6 1.34 -10 1 C-10 1.33 -10 1.66 -10 2 C-13.63 2 -17.26 2 -21 2 C-21 1.34 -21 0.68 -21 0 C-14.17682521 -1.97636787 -6.91120071 -1.20194795 0 0 Z " fill="#A3A7A6" transform="translate(134,91)"/>
<path d="M0 0 C0.33 0.66 0.66 1.32 1 2 C1.66 2 2.32 2 3 2 C3 2.66 3 3.32 3 4 C2.01 4.495 2.01 4.495 1 5 C-0.03485877 7.31808364 -1.0355414 9.65175298 -2 12 C-3 13 -3 13 -5.28515625 13.09765625 C-6.65994141 13.08025391 -6.65994141 13.08025391 -8.0625 13.0625 C-8.98160156 13.05347656 -9.90070313 13.04445313 -10.84765625 13.03515625 C-11.55792969 13.02355469 -12.26820313 13.01195313 -13 13 C-12.67 12.34 -12.34 11.68 -12 11 C-9.0170339 10.40227901 -6.03669195 10.25662185 -3 10 C-2.01 6.7 -1.02 3.4 0 0 Z " fill="#C5C8B8" transform="translate(173,108)"/>
<path d="M0 0 C0.33 0 0.66 0 1 0 C0.93999894 1.6260287 0.8512115 3.25101549 0.75 4.875 C0.68039063 6.23238281 0.68039063 6.23238281 0.609375 7.6171875 C0 10 0 10 -2.046875 11.3203125 C-2.69140625 11.54460937 -3.3359375 11.76890625 -4 12 C-4 10 -4 10 -3 9 C-4.98 9 -6.96 9 -9 9 C-6.95581344 7.46686008 -4.92030407 5.94535136 -2.8125 4.5 C-0.71796426 3.03596546 -0.71796426 3.03596546 0 0 Z " fill="#45474A" transform="translate(167,86)"/>
<path d="M0 0 C2.97 0.33 5.94 0.66 9 1 C9.33 1.99 9.66 2.98 10 4 C11.87387216 4.80212628 11.87387216 4.80212628 14.0625 5.1875 C14.79597656 5.34605469 15.52945313 5.50460938 16.28515625 5.66796875 C16.85105469 5.77753906 17.41695312 5.88710937 18 6 C14.88578592 7.8454602 12.61678684 8.46369062 9 8 C6.4951889 6.12139167 6.01299375 5.03898126 5 2 C3.35 1.67 1.7 1.34 0 1 C0 0.67 0 0.34 0 0 Z " fill="#767D7F" transform="translate(80,83)"/>
<path d="M0 0 C0.33 0.66 0.66 1.32 1 2 C0.175 2.474375 -0.65 2.94875 -1.5 3.4375 C-2.7375 4.2109375 -2.7375 4.2109375 -4 5 C-4 5.33 -4 5.66 -4 6 C-1.03 6.495 -1.03 6.495 2 7 C2 7.33 2 7.66 2 8 C-5.33333333 8.36666667 -5.33333333 8.36666667 -8.5 6.625 C-10 5 -10 5 -10 3 C-5.05 1.515 -5.05 1.515 0 0 Z " fill="#666766" transform="translate(82,134)"/>
<path d="M0 0 C-7.00087446 3.79214033 -12.07648322 5.55640508 -20 4 C-20 3.67 -20 3.34 -20 3 C-19.16855469 2.79503906 -18.33710938 2.59007812 -17.48046875 2.37890625 C-16.39378906 2.10949219 -15.30710938 1.84007812 -14.1875 1.5625 C-12.56908203 1.16224609 -12.56908203 1.16224609 -10.91796875 0.75390625 C-4.12060012 -1.00230814 -4.12060012 -1.00230814 0 0 Z " fill="#4A4C4C" transform="translate(152,134)"/>
<path d="M0 0 C0.66 0.33 1.32 0.66 2 1 C1.8125 3.8125 1.8125 3.8125 1 7 C-1.4375 8.75 -1.4375 8.75 -4 10 C-4.66 10.66 -5.32 11.32 -6 12 C-5.59791618 6.37082652 -3.71069698 3.99613521 0 0 Z " fill="#A7A8AC" transform="translate(153,105)"/>
<path d="M0 0 C7.92 0.33 15.84 0.66 24 1 C24 1.33 24 1.66 24 2 C16.08 2.33 8.16 2.66 0 3 C0 2.01 0 1.02 0 0 Z " fill="#4B4B4C" transform="translate(104,137)"/>
<path d="M0 0 C0.66 0.66 1.32 1.32 2 2 C1.67 2.99 1.34 3.98 1 5 C3.97 5.495 3.97 5.495 7 6 C7 6.33 7 6.66 7 7 C3.04 7 -0.92 7 -5 7 C-5 6.01 -5 5.02 -5 4 C-3.35 3.34 -1.7 2.68 0 2 C0 1.34 0 0.68 0 0 Z " fill="#30302E" transform="translate(83,134)"/>
<path d="M0 0 C1.43739513 -0.02712066 2.87493863 -0.04645067 4.3125 -0.0625 C5.51326172 -0.07990234 5.51326172 -0.07990234 6.73828125 -0.09765625 C9 0 9 0 12 1 C12 1.66 12 2.32 12 3 C10.1875 4.0625 10.1875 4.0625 8 5 C5.28368454 4.09456151 2.65228812 3.07525194 0 2 C0 1.34 0 0.68 0 0 Z " fill="#D5D4D9" transform="translate(102,132)"/>
<path d="M0 0 C0.66 0 1.32 0 2 0 C2.66 1.65 3.32 3.3 4 5 C1.69 6.32 -0.62 7.64 -3 9 C-2.5020163 5.26512223 -2.12508244 3.18762365 0 0 Z " fill="#B6C46A" transform="translate(175,115)"/>
<path d="M0 0 C2.50357861 0.8345262 4.66785852 1.79371992 7 3 C7 3.66 7 4.32 7 5 C3.87819599 5.96661363 1.47916205 5.98988909 -1.75 5.5625 C-2.94882812 5.40974609 -2.94882812 5.40974609 -4.171875 5.25390625 C-4.77515625 5.17011719 -5.3784375 5.08632812 -6 5 C-6 4.34 -6 3.68 -6 3 C-4.02 2.67 -2.04 2.34 0 2 C0 1.34 0 0.68 0 0 Z " fill="#D0D1CE" transform="translate(66,85)"/>
<path d="M0 0 C-1.32 0.33 -2.64 0.66 -4 1 C-4 1.99 -4 2.98 -4 4 C-3.34 4.33 -2.68 4.66 -2 5 C-7.75 5.125 -7.75 5.125 -10 4 C-10 3.01 -10 2.02 -10 1 C-3.71428571 -1.42857143 -3.71428571 -1.42857143 0 0 Z " fill="#C4C4C4" transform="translate(30,132)"/>
<path d="M0 0 C0 0.99 0 1.98 0 3 C0.66 3 1.32 3 2 3 C2 3.66 2 4.32 2 5 C-1.3 5 -4.6 5 -8 5 C-7.67 3.68 -7.34 2.36 -7 1 C-4 0 -4 0 0 0 Z " fill="#C5C7C9" transform="translate(120,95)"/>
<path d="M0 0 C0.99 0 1.98 0 3 0 C3 3 3 3 1.6875 4.4375 C1.130625 4.953125 0.57375 5.46875 0 6 C-0.4125 6.68707031 -0.825 7.37414062 -1.25 8.08203125 C-3 10 -3 10 -5.69921875 10.390625 C-7.17841797 10.32101563 -7.17841797 10.32101563 -8.6875 10.25 C-9.68136719 10.21390625 -10.67523438 10.1778125 -11.69921875 10.140625 C-12.83810547 10.07101563 -12.83810547 10.07101563 -14 10 C-14 9.67 -14 9.34 -14 9 C-13.32453125 9.020625 -12.6490625 9.04125 -11.953125 9.0625 C-9.10665473 8.99668566 -6.73094597 8.82613256 -4 8 C-1.94776614 5.56103866 -0.92525364 3.0312414 0 0 Z " fill="#C6CF90" transform="translate(174,112)"/>
<path d="M0 0 C7.425 0.99 7.425 0.99 15 2 C14.01 2.495 14.01 2.495 13 3 C13 3.66 13 4.32 13 5 C8.51474352 4.343621 4.33085971 3.29925791 0 2 C0 1.34 0 0.68 0 0 Z " fill="#1B1B1D" transform="translate(55,130)"/>
<path d="M0 0 C0.66 2.31 1.32 4.62 2 7 C0.35 7 -1.3 7 -3 7 C-3.33 6.01 -3.66 5.02 -4 4 C-4.99 3.67 -5.98 3.34 -7 3 C-7 2.34 -7 1.68 -7 1 C-4 0 -4 0 0 0 Z " fill="#C3C4C7" transform="translate(68,124)"/>
<path d="M0 0 C3.34373475 0.55728913 6.03312999 1.35173889 9 3 C8.34 4.32 7.68 5.64 7 7 C5.68 7 4.36 7 3 7 C3 6.34 3 5.68 3 5 C3.66 5 4.32 5 5 5 C5 4.34 5 3.68 5 3 C3.02 3 1.04 3 -1 3 C-0.67 2.01 -0.34 1.02 0 0 Z " fill="#AFB5A7" transform="translate(68,85)"/>
<path d="M0 0 C0.33 1.32 0.66 2.64 1 4 C-1.97180943 5.89865603 -4.51460083 7.35455571 -8 8 C-6.79618552 5.50638429 -5.54571278 3.31856917 -4 1 C-3.01 1.33 -2.02 1.66 -1 2 C-0.67 1.34 -0.34 0.68 0 0 Z " fill="#D4D6D8" transform="translate(148,73)"/>
<path d="M0 0 C1.32 0 2.64 0 4 0 C4 1.98 4 3.96 4 6 C3.01 5.67 2.02 5.34 1 5 C0.67 6.65 0.34 8.3 0 10 C-0.99 9.67 -1.98 9.34 -3 9 C-2.34 8.01 -1.68 7.02 -1 6 C-0.60986284 4.0103005 -0.26797351 2.00980131 0 0 Z " fill="#909398" transform="translate(112,71)"/>
<path d="M0 0 C0.33 0 0.66 0 1 0 C1 2.31 1 4.62 1 7 C-6.28571429 10.42857143 -6.28571429 10.42857143 -11 10 C-10.01 9.34 -9.02 8.68 -8 8 C-6.989375 7.29875 -5.97875 6.5975 -4.9375 5.875 C-2 4 -2 4 0 4 C0 2.68 0 1.36 0 0 Z " fill="#BBBBBB" transform="translate(179,121)"/>
<path d="M0 0 C0.99 0.33 1.98 0.66 3 1 C8.11707747 1.2006697 12.94774054 0.70908905 18 0 C14.80210385 3.19789615 11.90250252 3.90499973 7.4375 4.375 C4 4 4 4 1.5625 2 C1.046875 1.34 0.53125 0.68 0 0 Z " fill="#3A3F44" transform="translate(88,85)"/>
<path d="M0 0 C2.8125 2 2.8125 2 5 4 C3.68 4.33 2.36 4.66 1 5 C1 4.34 1 3.68 1 3 C-0.32 3.33 -1.64 3.66 -3 4 C-3 3.34 -3 2.68 -3 2 C-4.98 2.99 -4.98 2.99 -7 4 C-7 3.01 -7 2.02 -7 1 C-4.39120333 -0.30439833 -2.90289827 -0.33754631 0 0 Z " fill="#575E63" transform="translate(149,81)"/>
<path d="M0 0 C2.3125 0.13671875 2.3125 0.13671875 5 0.6875 C5.886875 0.85636719 6.77375 1.02523437 7.6875 1.19921875 C10 2 10 2 12 5 C7.03083364 4.48594831 2.70973649 3.76615118 -2 2 C-1.34 1.34 -0.68 0.68 0 0 Z " fill="#B8B7BA" transform="translate(98,133)"/>
<path d="M0 0 C1.32 0 2.64 0 4 0 C4 0.66 4 1.32 4 2 C4.99 1.67 5.98 1.34 7 1 C7 1.66 7 2.32 7 3 C7.66 3.33 8.32 3.66 9 4 C8.67 4.66 8.34 5.32 8 6 C5.03 5.01 2.06 4.02 -1 3 C-0.67 2.01 -0.34 1.02 0 0 Z " fill="#CFD1CF" transform="translate(69,82)"/>
<path d="M0 0 C0.99 0.33 1.98 0.66 3 1 C3.05422947 2.4370809 3.09289723 3.87475462 3.125 5.3125 C3.14820312 6.11300781 3.17140625 6.91351563 3.1953125 7.73828125 C3 10 3 10 1 13 C-0.10228696 8.59085217 -0.07654536 4.51617599 0 0 Z " fill="#A1A6AC" transform="translate(116,71)"/>
<path d="M0 0 C2.64 0 5.28 0 8 0 C8 0.33 8 0.66 8 1 C6.02 1 4.04 1 2 1 C2 1.66 2 2.32 2 3 C2.66 3 3.32 3 4 3 C3.34 5.31 2.68 7.62 2 10 C1.34 9.67 0.68 9.34 0 9 C0 6.03 0 3.06 0 0 Z " fill="#A9AEB4" transform="translate(152,71)"/>
<path d="M0 0 C0.91007812 0.00902344 1.82015625 0.01804688 2.7578125 0.02734375 C3.45648438 0.03894531 4.15515625 0.05054688 4.875 0.0625 C3.885 1.5475 3.885 1.5475 2.875 3.0625 C0.4921875 3.35546875 0.4921875 3.35546875 -2.25 3.25 C-3.16007812 3.22292969 -4.07015625 3.19585937 -5.0078125 3.16796875 C-5.70648438 3.13316406 -6.40515625 3.09835938 -7.125 3.0625 C-7.125 2.4025 -7.125 1.7425 -7.125 1.0625 C-4.60024538 -0.19987731 -2.81299534 -0.03606404 0 0 Z " fill="#272729" transform="translate(75.125,131.9375)"/>
<path d="M0 0 C0.99 0.33 1.98 0.66 3 1 C-1.56033396 5.33231726 -4.8203352 6.82799461 -11 8 C-10.67 7.01 -10.34 6.02 -10 5 C-8.22265625 4.12109375 -8.22265625 4.12109375 -6.0625 3.4375 C-3.27149772 2.54093484 -2.12225355 2.12225355 0 0 Z " fill="#9A9F9C" transform="translate(110,89)"/>
<path d="M0 0 C2.375 -0.1875 2.375 -0.1875 5 0 C5.66 0.99 6.32 1.98 7 3 C4.30992402 5.69007598 1.63144185 6.02729236 -2 7 C-2.99 7.495 -2.99 7.495 -4 8 C-3 5 -3 5 -1 3.9375 C-0.34 3.628125 0.32 3.31875 1 3 C1.33 2.34 1.66 1.68 2 1 C1.34 0.67 0.68 0.34 0 0 Z " fill="#AEB2B6" transform="translate(102,88)"/>
<path d="M0 0 C0.66 0 1.32 0 2 0 C2.98248524 4.0527516 3.08159574 7.83861737 3 12 C2.01 11.67 1.02 11.34 0 11 C0 7.37 0 3.74 0 0 Z " fill="#8C9098" transform="translate(158,72)"/>
<path d="M0 0 C-1.98 2.31 -3.96 4.62 -6 7 C-6.66 5.68 -7.32 4.36 -8 3 C-7.67 2.01 -7.34 1.02 -7 0 C-4 -1 -4 -1 0 0 Z " fill="#B3B5B8" transform="translate(140,104)"/>
<path d="M0 0 C3.63 0 7.26 0 11 0 C10.67 0.99 10.34 1.98 10 3 C6.6875 3.1875 6.6875 3.1875 3 3 C2.01 2.01 1.02 1.02 0 0 Z " fill="#DEDFE3" transform="translate(60,95)"/>
<path d="M0 0 C0.66 0 1.32 0 2 0 C2.33 1.32 2.66 2.64 3 4 C-2.17578125 7.22265625 -2.17578125 7.22265625 -4 8 C-4.99 7.67 -5.98 7.34 -7 7 C-4 5 -4 5 -1 5 C-0.67 3.35 -0.34 1.7 0 0 Z " fill="#CFD3D8" transform="translate(156,84)"/>
<path d="M0 0 C2.97 0 5.94 0 9 0 C9.33 0.66 9.66 1.32 10 2 C9.01 2 8.02 2 7 2 C7 2.66 7 3.32 7 4 C4.03 3.505 4.03 3.505 1 3 C0.67 3.66 0.34 4.32 0 5 C0 3.35 0 1.7 0 0 Z " fill="#D8DCE1" transform="translate(78,88)"/>
<path d="M0 0 C2.4375 0.75 2.4375 0.75 5 2 C5.8125 4.125 5.8125 4.125 6 6 C0.375 8.125 0.375 8.125 -3 7 C-1.35 6.34 0.3 5.68 2 5 C1.34 3.35 0.68 1.7 0 0 Z " fill="#51545B" transform="translate(102,81)"/>
<path d="M0 0 C0.99 0.33 1.98 0.66 3 1 C3 2.65 3 4.3 3 6 C2.34 6 1.68 6 1 6 C0.34 7.32 -0.32 8.64 -1 10 C-2.31223496 6.06329512 -1.24296256 3.87511856 0 0 Z " fill="#CACBCF" transform="translate(165,79)"/>
<path d="M0 0 C0.66 0.33 1.32 0.66 2 1 C0.25 4 0.25 4 -2 7 C-3.32 7 -4.64 7 -6 7 C-5.34 5.02 -4.68 3.04 -4 1 C-2.68 1.33 -1.36 1.66 0 2 C0 1.34 0 0.68 0 0 Z " fill="#D2DCA0" transform="translate(98,61)"/>
<path d="M0 0 C0.33 1.32 0.66 2.64 1 4 C2.97670607 5.75422772 2.97670607 5.75422772 5 7 C4.01 8.485 4.01 8.485 3 10 C1.68 9.67 0.36 9.34 -1 9 C-0.67 6.03 -0.34 3.06 0 0 Z " fill="#525252" transform="translate(21,118)"/>
<path d="M0 0 C0.66 0 1.32 0 2 0 C2 0.66 2 1.32 2 2 C2.66 2 3.32 2 4 2 C4 2.66 4 3.32 4 4 C-1.28 3.67 -6.56 3.34 -12 3 C-11.67 2.34 -11.34 1.68 -11 1 C-7.37 1 -3.74 1 0 1 C0 0.67 0 0.34 0 0 Z " fill="#D4DCC9" transform="translate(123,91)"/>
<path d="M0 0 C3.59391114 1.33488128 6.75490696 2.96022723 10 5 C9.01 6.485 9.01 6.485 8 8 C7.01 8 6.02 8 5 8 C4.9175 7.4225 4.835 6.845 4.75 6.25 C3.79468987 3.3840696 2.21530827 2.0009236 0 0 Z " fill="#C6C9CF" transform="translate(103,80)"/>
<path d="M0 0 C0.99 0.33 1.98 0.66 3 1 C3.26218749 4.14624993 3.24754367 5.61837017 1.5 8.3125 C0.7575 9.1478125 0.7575 9.1478125 0 10 C-0.19412181 8.52168779 -0.38012131 7.04230684 -0.5625 5.5625 C-0.66691406 4.73878906 -0.77132812 3.91507812 -0.87890625 3.06640625 C-0.91886719 2.38449219 -0.95882812 1.70257813 -1 1 C-0.67 0.67 -0.34 0.34 0 0 Z " fill="#878B8C" transform="translate(123,66)"/>
<path d="M0 0 C6.75 1.625 6.75 1.625 9 5 C5.20442119 5 3.37097383 4.49821059 0 3 C0 2.01 0 1.02 0 0 Z " fill="#CACACC" transform="translate(39,121)"/>
<path d="M0 0 C0.99 0.66 1.98 1.32 3 2 C3.1875 4.625 3.1875 4.625 3 7 C1.35 7 -0.3 7 -2 7 C-1.34 4.69 -0.68 2.38 0 0 Z " fill="#D9DDD6" transform="translate(172,103)"/>
<path d="M0 0 C-0.33 1.32 -0.66 2.64 -1 4 C-2.65 4.33 -4.3 4.66 -6 5 C-6 3.68 -6 2.36 -6 1 C-4 0 -4 0 0 0 Z " fill="#D7D9D8" transform="translate(141,123)"/>
<path d="M0 0 C0.99 1.32 1.98 2.64 3 4 C0.68143083 5.54571278 -1.50638429 6.79618552 -4 8 C-3.40072174 4.64404172 -2.15377564 2.62198774 0 0 Z " fill="#35373C" transform="translate(80,106)"/>
<path d="M0 0 C0.66 0.33 1.32 0.66 2 1 C1 3 1 3 -1 5 C-3.75372909 5.36933645 -6.20365661 5.18336678 -9 5 C-7.68 4.67 -6.36 4.34 -5 4 C-5 3.34 -5 2.68 -5 2 C-2.625 0.9375 -2.625 0.9375 0 0 Z " fill="#1D1C1E" transform="translate(37,124)"/>
<path d="M0 0 C-0.33 0.99 -0.66 1.98 -1 3 C-1.99 3.33 -2.98 3.66 -4 4 C-4.33 3.34 -4.66 2.68 -5 2 C-6.32 2.33 -7.64 2.66 -9 3 C-9 2.34 -9 1.68 -9 1 C-5.64919071 -1.10976881 -3.77897651 -1.0497157 0 0 Z " fill="#555B60" transform="translate(102,80)"/>
<path d="M0 0 C1.32 0 2.64 0 4 0 C4 1.65 4 3.3 4 5 C2.68 5.33 1.36 5.66 0 6 C-1.125 2.25 -1.125 2.25 0 0 Z " fill="#20201E" transform="translate(84,131)"/>
<path d="M0 0 C0 0.66 0 1.32 0 2 C2.31 2 4.62 2 7 2 C7 2.33 7 2.66 7 3 C1.55306686 3.09688221 -3.63904667 3.12862175 -9 2 C-9 1.67 -9 1.34 -9 1 C-2.25 0 -2.25 0 0 0 Z " fill="#8E8E90" transform="translate(65,129)"/>
<path d="M0 0 C1.98 0 3.96 0 6 0 C4 3 4 3 2.0546875 3.51171875 C1.33539063 3.56972656 0.61609375 3.62773437 -0.125 3.6875 C-2.043125 3.8421875 -2.043125 3.8421875 -4 4 C-4.33 3.34 -4.66 2.68 -5 2 C-3.35 2 -1.7 2 0 2 C0 1.34 0 0.68 0 0 Z " fill="#ACB665" transform="translate(165,125)"/>
<path d="M0 0 C0.33 0.66 0.66 1.32 1 2 C0.67 2.66 0.34 3.32 0 4 C0.99 4.33 1.98 4.66 3 5 C0.03 5 -2.94 5 -6 5 C-5.34 4.67 -4.68 4.34 -4 4 C-4 3.34 -4 2.68 -4 2 C-2.68 1.34 -1.36 0.68 0 0 Z " fill="#E1E1E1" transform="translate(30,108)"/>
<path d="M0 0 C0 0.66 0 1.32 0 2 C0.66 2.33 1.32 2.66 2 3 C-2.455 3.495 -2.455 3.495 -7 4 C-4.83989616 0.75984424 -3.8842653 0 0 0 Z " fill="#45453A" transform="translate(156,130)"/>
<path d="M0 0 C-2.95711562 1.64284201 -5.62008426 2.6442194 -9 3 C-9.66 2.34 -10.32 1.68 -11 1 C-6.87831311 -0.62950412 -4.29299643 -1.26264601 0 0 Z " fill="#555656" transform="translate(152,134)"/>
<path d="M0 0 C2.31 0 4.62 0 7 0 C7.33 0.99 7.66 1.98 8 3 C7.01 3.33 6.02 3.66 5 4 C2.3125 2.625 2.3125 2.625 0 1 C0 0.67 0 0.34 0 0 Z " fill="#C1C1C2" transform="translate(84,128)"/>
<path d="M0 0 C-0.33 0.99 -0.66 1.98 -1 3 C0.32 3.33 1.64 3.66 3 4 C-3.625 3.25 -3.625 3.25 -7 1 C-4.53721199 -0.231394 -2.7204945 -0.07159196 0 0 Z " fill="#CDCDD0" transform="translate(49,118)"/>
<path d="M0 0 C3.3 0.33 6.6 0.66 10 1 C6.23312136 2.88343932 4.97041037 3.22057835 1 3 C0.67 2.01 0.34 1.02 0 0 Z " fill="#64686B" transform="translate(88,88)"/>
<path d="M0 0 C0.33 0 0.66 0 1 0 C1 2.31 1 4.62 1 7 C1.99 7.33 2.98 7.66 4 8 C3.01 8.495 3.01 8.495 2 9 C0.68 7.68 -0.64 6.36 -2 5 C-1.34 3.35 -0.68 1.7 0 0 Z " fill="#6A6E77" transform="translate(157,76)"/>
<path d="M0 0 C0.103125 0.639375 0.20625 1.27875 0.3125 1.9375 C0.539375 2.618125 0.76625 3.29875 1 4 C1.99 4.33 2.98 4.66 4 5 C1.69 4.67 -0.62 4.34 -3 4 C-3 3.01 -3 2.02 -3 1 C-2.01 0.67 -1.02 0.34 0 0 Z " fill="#6D6D6D" transform="translate(29,132)"/>
<path d="M0 0 C0.33 1.32 0.66 2.64 1 4 C-1.64 4.66 -4.28 5.32 -7 6 C-2.25 1.125 -2.25 1.125 0 0 Z " fill="#3A3D24" transform="translate(178,120)"/>
<path d="M0 0 C2.33944736 0.28730055 4.6739143 0.61936779 7 1 C6.01 1.33 5.02 1.66 4 2 C1.61783417 2.92962569 -0.71255736 3.85627868 -3 5 C-1.125 1.125 -1.125 1.125 0 0 Z " fill="#434549" transform="translate(73,117)"/>
<path d="M0 0 C0 0.66 0 1.32 0 2 C-6.625 2.25 -6.625 2.25 -10 0 C-2.25 -1.125 -2.25 -1.125 0 0 Z " fill="#DDDFE5" transform="translate(134,89)"/>
<path d="M0 0 C0 0.66 0 1.32 0 2 C-0.66 2 -1.32 2 -2 2 C-2 2.99 -2 3.98 -2 5 C-3.32 4.34 -4.64 3.68 -6 3 C-6 2.34 -6 1.68 -6 1 C-3.92446352 0.4465236 -2.15634036 0 0 0 Z " fill="#79797B" transform="translate(78,136)"/>
<path d="M0 0 C-1.32 0.33 -2.64 0.66 -4 1 C-4 1.66 -4 2.32 -4 3 C-5.65 3 -7.3 3 -9 3 C-9 2.34 -9 1.68 -9 1 C-6.04335481 -0.4783226 -3.25770263 -0.06032783 0 0 Z " fill="#BFCC63" transform="translate(169,124)"/>
<path d="M0 0 C2 2 2 2 2.1953125 4.6015625 C2.17210937 5.59929687 2.14890625 6.59703125 2.125 7.625 C2.10695312 8.62789062 2.08890625 9.63078125 2.0703125 10.6640625 C2.03550781 11.82035156 2.03550781 11.82035156 2 13 C1.67 13 1.34 13 1 13 C0.77213542 10.98177083 0.54427083 8.96354167 0.31640625 6.9453125 C0.08707039 4.92595684 0.08707039 4.92595684 -1 3 C-0.67 2.01 -0.34 1.02 0 0 Z " fill="#A6A9B1" transform="translate(160,72)"/>
</svg>
