<?xml version="1.0" encoding="UTF-8"?>
<svg version="1.1" xmlns="http://www.w3.org/2000/svg" width="200" height="200">
<path d="M0 0 C66 0 132 0 200 0 C200 66 200 132 200 200 C134 200 68 200 0 200 C0 134 0 68 0 0 Z " fill="#FEFEFE" transform="translate(0,0)"/>
<path d="M0 0 C1.19689453 0.00128906 2.39378906 0.00257812 3.62695312 0.00390625 C9.33022588 0.06103419 13.92550597 0.35745577 19.3125 2.375 C19.3125 3.035 19.3125 3.695 19.3125 4.375 C20.01375 4.560625 20.715 4.74625 21.4375 4.9375 C25.56889721 7.00319861 28.19082465 9.22267828 30.3125 13.375 C31.62891632 20.14887737 31.19712134 25.82582437 27.4375 31.6875 C25.8203125 33.86328125 25.8203125 33.86328125 24.3125 35.375 C23.6525 35.375 22.9925 35.375 22.3125 35.375 C22.3125 36.035 22.3125 36.695 22.3125 37.375 C21.3225 37.87 21.3225 37.87 20.3125 38.375 C21.3025 42.335 21.3025 42.335 22.3125 46.375 C28.34238796 44.18651422 28.34238796 44.18651422 32.3125 39.375 C32.5703125 38.715 32.828125 38.055 33.09375 37.375 C34.01528971 35.15059381 34.84076383 33.2860604 36.3125 31.375 C39.06803631 30.43822722 41.35663309 30.47035055 44.3125 30.375 C44.9725 29.715 45.6325 29.055 46.3125 28.375 C50.86805556 28.93055556 50.86805556 28.93055556 52.3125 30.375 C52.16852475 32.45567452 51.85768827 34.49771608 51.56640625 36.5625 C50.86195698 44.36563035 51.68199583 51.35425746 53.3125 59 C56.02681566 71.83797946 56.02681566 71.83797946 55.3125 76.375 C53.29152578 78.52844661 51.69652845 79.93610771 49.3125 81.5625 C48.71018555 81.99103271 48.10787109 82.41956543 47.48730469 82.86108398 C45.77839299 84.05819547 44.04830289 85.21744047 42.3125 86.375 C41.63703125 86.86742187 40.9615625 87.35984375 40.265625 87.8671875 C34.53772 91.46683422 27.50163665 91.01204201 20.9453125 91.19921875 C17.48243883 91.12192108 17.48243883 91.12192108 15.3125 92.375 C17.6014314 81.86022139 24.19368762 77.65695607 32.80078125 72.0390625 C35.82290234 70.03684853 38.80438283 67.9874687 41.75 65.875 C42.75933594 65.1634375 43.76867187 64.451875 44.80859375 63.71875 C47.64324078 61.06541425 48.41698375 59.10721143 49.3125 55.375 C48.29542969 56.02855469 48.29542969 56.02855469 47.2578125 56.6953125 C44.28262041 58.59910577 41.29935995 60.48956856 38.3125 62.375 C37.52230469 62.87644531 36.73210937 63.37789062 35.91796875 63.89453125 C30.91242637 66.98995184 25.77887089 69.66320997 20.5 72.25 C1.98575908 81.31869432 1.98575908 81.31869432 -8.6875 98.375 C-9.06343066 100.3674325 -9.40729545 102.3668674 -9.6875 104.375 C-26.00058331 108.40529117 -44.1747166 109.95798423 -60.39453125 104.8359375 C-63.4595603 102.88309105 -64.25924609 100.65694515 -65.6875 97.375 C-66.265 96.83875 -66.8425 96.3025 -67.4375 95.75 C-67.85 95.29625 -68.2625 94.8425 -68.6875 94.375 C-68.57250977 92.47753906 -68.57250977 92.47753906 -67.6875 90.375 C-65.55444336 88.81933594 -65.55444336 88.81933594 -62.77734375 87.359375 C-61.29331055 86.56660156 -61.29331055 86.56660156 -59.77929688 85.7578125 C-58.73837891 85.21898438 -57.69746094 84.68015625 -56.625 84.125 C-55.58021484 83.57070312 -54.53542969 83.01640625 -53.45898438 82.4453125 C-50.87458071 81.07640462 -48.28422409 79.72034797 -45.6875 78.375 C-47.28031203 78.51680119 -48.8726791 78.6636059 -50.46484375 78.8125 C-51.35163818 78.89371094 -52.23843262 78.97492188 -53.15209961 79.05859375 C-56.44750756 79.46984543 -59.50232856 80.44840467 -62.6875 81.375 C-73.32751412 83.27124014 -84.22347937 83.02053118 -94.6875 80.375 C-94.77 79.405625 -94.8525 78.43625 -94.9375 77.4375 C-95.36430672 74.27148597 -96.3305573 71.85393249 -97.75 69 C-100.41178496 63.32797823 -100.6285663 58.25701554 -98.6875 52.3125 C-98.3575 51.673125 -98.0275 51.03375 -97.6875 50.375 C-97.0275 50.375 -96.3675 50.375 -95.6875 50.375 C-95.3575 49.385 -95.0275 48.395 -94.6875 47.375 C-91.83506605 44.75384447 -89.56665244 42.94968925 -85.6875 42.375 C-85.6875 41.715 -85.6875 41.055 -85.6875 40.375 C-82.6875 38.375 -82.6875 38.375 -79.6875 38.375 C-79.6875 37.715 -79.6875 37.055 -79.6875 36.375 C-78.3675 36.375 -77.0475 36.375 -75.6875 36.375 C-75.6875 35.715 -75.6875 35.055 -75.6875 34.375 C-68.45887274 30.92268806 -61.35545502 27.71437611 -53.6875 25.375 C-53.6875 24.715 -53.6875 24.055 -53.6875 23.375 C-52.3675 23.045 -51.0475 22.715 -49.6875 22.375 C-49.6875 21.715 -49.6875 21.055 -49.6875 20.375 C-47.7075 19.715 -45.7275 19.055 -43.6875 18.375 C-43.6875 17.715 -43.6875 17.055 -43.6875 16.375 C-41.7075 15.715 -39.7275 15.055 -37.6875 14.375 C-37.6875 13.715 -37.6875 13.055 -37.6875 12.375 C-35.7075 11.715 -33.7275 11.055 -31.6875 10.375 C-31.6875 9.715 -31.6875 9.055 -31.6875 8.375 C-28.6875 7.04166667 -25.6875 5.70833333 -22.6875 4.375 C-22.07914307 4.03839355 -21.47078613 3.70178711 -20.84399414 3.35498047 C-13.972978 -0.20530392 -7.6218608 -0.15749359 0 0 Z " fill="#D4D6DA" transform="translate(119.6875,41.625)"/>
<path d="M0 0 C4.55555556 0.55555556 4.55555556 0.55555556 6 2 C5.85602475 4.08067452 5.54518827 6.12271608 5.25390625 8.1875 C4.54945698 15.99063035 5.36949583 22.97925746 7 30.625 C9.71431566 43.46297946 9.71431566 43.46297946 9 48 C6.97902578 50.15344661 5.38402845 51.56110771 3 53.1875 C2.39768555 53.61603271 1.79537109 54.04456543 1.17480469 54.48608398 C-0.53410701 55.68319547 -2.26419711 56.84244047 -4 58 C-4.67546875 58.49242187 -5.3509375 58.98484375 -6.046875 59.4921875 C-11.77478 63.09183422 -18.81086335 62.63704201 -25.3671875 62.82421875 C-28.83006117 62.74692108 -28.83006117 62.74692108 -31 64 C-28.7110686 53.48522139 -22.11881238 49.28195607 -13.51171875 43.6640625 C-10.48959766 41.66184853 -7.50811717 39.6124687 -4.5625 37.5 C-3.55316406 36.7884375 -2.54382813 36.076875 -1.50390625 35.34375 C1.33074078 32.69041425 2.10448375 30.73221143 3 27 C2.32195312 27.43570313 1.64390625 27.87140625 0.9453125 28.3203125 C-2.02987959 30.22410577 -5.01314005 32.11456856 -8 34 C-8.79019531 34.50144531 -9.58039063 35.00289062 -10.39453125 35.51953125 C-15.40007363 38.61495184 -20.53362911 41.28820997 -25.8125 43.875 C-44.32674092 52.94369432 -44.32674092 52.94369432 -55 70 C-55.37593066 71.9924325 -55.71979545 73.9918674 -56 76 C-72.31308331 80.03029117 -90.4872166 81.58298423 -106.70703125 76.4609375 C-109.7720603 74.50809105 -110.57174609 72.28194515 -112 69 C-112.5775 68.46375 -113.155 67.9275 -113.75 67.375 C-114.1625 66.92125 -114.575 66.4675 -115 66 C-114.86303711 64.09155273 -114.86303711 64.09155273 -114 62 C-112.02563477 60.52368164 -112.02563477 60.52368164 -109.44140625 59.16015625 C-108.49716797 58.65419922 -107.55292969 58.14824219 -106.58007812 57.62695312 C-105.58427734 57.11068359 -104.58847656 56.59441406 -103.5625 56.0625 C-102.60150391 55.55009766 -101.64050781 55.03769531 -100.65039062 54.50976562 C-96.84638016 52.49104935 -93.0426633 50.49496566 -89.15185547 48.64794922 C-87.82178467 48.01590576 -87.82178467 48.01590576 -86.46484375 47.37109375 C-85.28136353 46.82666626 -85.28136353 46.82666626 -84.07397461 46.27124023 C-81.86145007 45.09290358 -81.86145007 45.09290358 -80.40844727 42.85180664 C-79.94365967 42.24071045 -79.47887207 41.62961426 -79 41 C-78.01 41 -77.02 41 -76 41 C-76 40.34 -76 39.68 -76 39 C-73.27475883 35.77008454 -70.8661746 34.52612155 -67 33 C-66.34 32.01 -65.68 31.02 -65 30 C-63.66829135 29.33009382 -62.33483821 28.66364838 -61 28 C-59.29862802 26.36549473 -59.29862802 26.36549473 -57.8125 24.5 C-57.04873047 23.58734375 -57.04873047 23.58734375 -56.26953125 22.65625 C-54.92882362 21.01530467 -54.92882362 21.01530467 -54 19 C-53.34 19 -52.68 19 -52 19 C-52 18.34 -52 17.68 -52 17 C-49.953125 15.4140625 -49.953125 15.4140625 -47.25 13.625 C-44.52327923 11.81515902 -42.14778885 10.15101921 -39.85546875 7.80859375 C-38 6 -38 6 -35.0625 5.4375 C-30.95526214 6.19189063 -29.62323092 7.80958402 -27 11 C-24 15.44827586 -24 15.44827586 -24 18 C-17.97011204 15.81151422 -17.97011204 15.81151422 -14 11 C-13.7421875 10.34 -13.484375 9.68 -13.21875 9 C-12.29721029 6.77559381 -11.47173617 4.9110604 -10 3 C-7.24446369 2.06322722 -4.95586691 2.09535055 -2 2 C-1.34 1.34 -0.68 0.68 0 0 Z " fill="#383839" transform="translate(166,70)"/>
<path d="M0 0 C0.66 0 1.32 0 2 0 C1.71612725 3.51105772 1.49749627 5.46230201 -0.93359375 8.08984375 C-1.75988281 8.69957031 -2.58617187 9.30929688 -3.4375 9.9375 C-4.34113281 10.61425781 -5.24476563 11.29101562 -6.17578125 11.98828125 C-16.77854284 19.54073245 -16.77854284 19.54073245 -21.265625 22.48828125 C-26.4141338 26.02549748 -28.60729372 29.21762649 -31 35 C-16.22438272 35.00316877 -16.22438272 35.00316877 -3 29 C-2.07960938 28.37351562 -1.15921875 27.74703125 -0.2109375 27.1015625 C5.16678265 23.43149033 5.16678265 23.43149033 7.77734375 17.74609375 C7.85082031 16.83988281 7.92429687 15.93367188 8 15 C8.33 15 8.66 15 9 15 C9.12117187 15.61488281 9.24234375 16.22976562 9.3671875 16.86328125 C9.53476563 17.67152344 9.70234375 18.47976562 9.875 19.3125 C10.11863281 20.51326172 10.11863281 20.51326172 10.3671875 21.73828125 C10.94478999 24.25301118 10.94478999 24.25301118 13 27 C13.47107124 29.71687598 13.47554614 32.28259347 13 35 C11.125 37 11.125 37 9 38 C8.34 38 7.68 38 7 38 C7 38.66 7 39.32 7 40 C1.30964413 42.06922032 -4.35113829 43.56472477 -10.25 44.875 C-21.48924201 47.42385353 -31.64605798 51.76573031 -42.0625 56.6484375 C-56.14558657 63.12815552 -69.6614909 64.18706467 -84.98681641 64.18530273 C-87.12812797 64.18750321 -89.26893432 64.20576662 -91.41015625 64.22460938 C-100.42341189 64.26204353 -108.32249125 64.27828727 -116 59 C-115.70703125 57.01432292 -115.4140625 55.02864583 -115.12109375 53.04296875 C-114.86095201 50.7974658 -114.86095201 50.7974658 -116 48 C-116.556875 47.608125 -117.11375 47.21625 -117.6875 46.8125 C-119 45 -119 45 -118.75 43.03125 C-118.2355698 41.00210867 -117.62252373 38.99862882 -117 37 C-113.17330957 40.42388092 -111.27721526 43.00724943 -110 48 C-109.01 48.185625 -109.01 48.185625 -108 48.375 C-105 49 -105 49 -101.53125 50.0234375 C-96.20687989 51.35574453 -90.96126004 51.29860626 -85.5 51.25 C-84.45005859 51.24613281 -83.40011719 51.24226563 -82.31835938 51.23828125 C-73.75541992 51.14401036 -65.44824893 50.39147629 -57 49 C-56.95875 47.72125 -56.9175 46.4425 -56.875 45.125 C-56.13315741 38.67198567 -53.28219759 32.86035989 -48.34545898 28.55810547 C-43.27731272 24.6141662 -37.84000689 21.52060898 -32.1875 18.5 C-31.30529785 18.02151611 -30.4230957 17.54303223 -29.51416016 17.05004883 C-27.01254182 15.69417999 -24.50698123 14.34591999 -22 13 C-10.32690839 7.44175065 -10.32690839 7.44175065 0 0 Z " fill="#D5D6D9" transform="translate(167,97)"/>
<path d="M0 0 C1.19689453 0.00128906 2.39378906 0.00257812 3.62695312 0.00390625 C9.33022588 0.06103419 13.92550597 0.35745577 19.3125 2.375 C19.3125 3.035 19.3125 3.695 19.3125 4.375 C20.01375 4.560625 20.715 4.74625 21.4375 4.9375 C25.56889721 7.00319861 28.19082465 9.22267828 30.3125 13.375 C31.62891632 20.14887737 31.19712134 25.82582437 27.4375 31.6875 C25.8203125 33.86328125 25.8203125 33.86328125 24.3125 35.375 C23.6525 35.375 22.9925 35.375 22.3125 35.375 C22.3125 36.035 22.3125 36.695 22.3125 37.375 C20.9925 38.035 19.6725 38.695 18.3125 39.375 C17.77625 38.715 17.24 38.055 16.6875 37.375 C14.4531643 35.19619461 14.4531643 35.19619461 11.5625 34.6875 C7.33603643 35.5815596 5.31349352 37.60898813 2.2421875 40.55078125 C-2.86094754 45.375 -2.86094754 45.375 -5.6875 45.375 C-5.6875 46.035 -5.6875 46.695 -5.6875 47.375 C-6.3475 47.375 -7.0075 47.375 -7.6875 47.375 C-7.955625 48.15875 -8.22375 48.9425 -8.5 49.75 C-9.6875 52.375 -9.6875 52.375 -12.6875 54.375 C-13.6775 50.415 -14.6675 46.455 -15.6875 42.375 C-21.6275 42.87 -21.6275 42.87 -27.6875 43.375 C-28.1825 41.89 -28.1825 41.89 -28.6875 40.375 C-25.2225 39.88 -25.2225 39.88 -21.6875 39.375 C-21.6875 38.715 -21.6875 38.055 -21.6875 37.375 C-22.3475 36.715 -23.0075 36.055 -23.6875 35.375 C-23.88896402 31.681493 -23.86103189 28.89559568 -22.6875 25.375 C-23.08147335 22.73695411 -23.08147335 22.73695411 -23.6875 20.375 C-17.85548588 15.22910519 -12.64218555 14.2832897 -5.12890625 13.65625 C-2.47864281 13.41809375 -2.47864281 13.41809375 0.8125 12.375 C5.28399915 11.09742882 9.68881941 10.72852085 14.3125 10.375 C12.3325 10.045 10.3525 9.715 8.3125 9.375 C8.3125 8.385 8.3125 7.395 8.3125 6.375 C7.6525 6.375 6.9925 6.375 6.3125 6.375 C6.3125 5.715 6.3125 5.055 6.3125 4.375 C5.6525 4.375 4.9925 4.375 4.3125 4.375 C5.3025 6.355 6.2925 8.335 7.3125 10.375 C3.6825 10.705 0.0525 11.035 -3.6875 11.375 C-5.98129749 7.93430376 -6.6875 6.65209699 -6.6875 2.375 C-7.6775 2.375 -8.6675 2.375 -9.6875 2.375 C-8.6975 5.345 -7.7075 8.315 -6.6875 11.375 C-11.1425 11.87 -11.1425 11.87 -15.6875 12.375 C-17.0075 10.395 -18.3275 8.415 -19.6875 6.375 C-19.0275 9.345 -18.3675 12.315 -17.6875 15.375 C-18.43 15.66375 -19.1725 15.9525 -19.9375 16.25 C-22.25489797 17.19802644 -24.46667115 18.22345911 -26.6875 19.375 C-28.1481285 16.72761084 -28.6875 15.48051666 -28.6875 12.375 C-29.3475 12.375 -30.0075 12.375 -30.6875 12.375 C-31.0175 11.055 -31.3475 9.735 -31.6875 8.375 C-28.6875 7.04166667 -25.6875 5.70833333 -22.6875 4.375 C-22.07914307 4.03839355 -21.47078613 3.70178711 -20.84399414 3.35498047 C-13.972978 -0.20530392 -7.6218608 -0.15749359 0 0 Z " fill="#D2D4D7" transform="translate(119.6875,41.625)"/>
<path d="M0 0 C1.19689453 0.00128906 2.39378906 0.00257812 3.62695312 0.00390625 C9.33022588 0.06103419 13.92550597 0.35745577 19.3125 2.375 C19.3125 3.035 19.3125 3.695 19.3125 4.375 C20.01375 4.560625 20.715 4.74625 21.4375 4.9375 C25.54305039 6.99027519 28.25758624 9.20982126 30.3125 13.375 C30.80787813 17.75679832 30.668896 21.9860493 30.3125 26.375 C29.9825 26.375 29.6525 26.375 29.3125 26.375 C29.003125 25.42625 28.69375 24.4775 28.375 23.5 C27.43855258 20.51419592 27.43855258 20.51419592 26.3125 18.375 C25.6525 19.695 24.9925 21.015 24.3125 22.375 C22.9925 22.375 21.6725 22.375 20.3125 22.375 C20.3125 21.715 20.3125 21.055 20.3125 20.375 C20.9725 20.375 21.6325 20.375 22.3125 20.375 C22.3125 19.715 22.3125 19.055 22.3125 18.375 C21.735 18.725625 21.1575 19.07625 20.5625 19.4375 C17.95448224 20.52417407 16.91832371 20.30565133 14.3125 19.375 C14.3125 20.035 14.3125 20.695 14.3125 21.375 C14.3125 22.035 14.3125 22.695 14.3125 23.375 C15.3025 23.705 16.2925 24.035 17.3125 24.375 C15.63732761 27.91147504 14.81969183 29.1661563 11.125 30.6875 C9.7328125 31.0278125 9.7328125 31.0278125 8.3125 31.375 C8.3125 29.375 8.3125 29.375 10.8125 26.75 C11.6375 25.96625 12.4625 25.1825 13.3125 24.375 C12.6525 24.375 11.9925 24.375 11.3125 24.375 C11.3125 25.035 11.3125 25.695 11.3125 26.375 C8.3425 26.87 8.3425 26.87 5.3125 27.375 C4.6525 25.395 3.9925 23.415 3.3125 21.375 C2.6525 21.375 1.9925 21.375 1.3125 21.375 C1.02375 20.735625 0.735 20.09625 0.4375 19.4375 C-0.51573451 17.22293921 -0.51573451 17.22293921 -2.6875 16.375 C-3.0175 17.365 -3.3475 18.355 -3.6875 19.375 C-3.6875 18.385 -3.6875 17.395 -3.6875 16.375 C-4.3475 16.705 -5.0075 17.035 -5.6875 17.375 C-7.22773996 17.44450541 -8.77084988 17.45952357 -10.3125 17.4375 C-11.53839844 17.42396484 -11.53839844 17.42396484 -12.7890625 17.41015625 C-13.41554688 17.39855469 -14.04203125 17.38695313 -14.6875 17.375 C-12.6875 14.375 -12.6875 14.375 -10.55078125 13.93359375 C-9.70902344 13.89363281 -8.86726563 13.85367188 -8 13.8125 C-4.81991527 13.58957561 -2.27982274 13.25852078 0.8125 12.375 C5.28399915 11.09742882 9.68881941 10.72852085 14.3125 10.375 C12.3325 10.045 10.3525 9.715 8.3125 9.375 C8.3125 8.385 8.3125 7.395 8.3125 6.375 C7.6525 6.375 6.9925 6.375 6.3125 6.375 C6.3125 5.715 6.3125 5.055 6.3125 4.375 C5.6525 4.375 4.9925 4.375 4.3125 4.375 C5.3025 6.355 6.2925 8.335 7.3125 10.375 C3.6825 10.705 0.0525 11.035 -3.6875 11.375 C-5.98129749 7.93430376 -6.6875 6.65209699 -6.6875 2.375 C-7.6775 2.375 -8.6675 2.375 -9.6875 2.375 C-8.6975 5.345 -7.7075 8.315 -6.6875 11.375 C-11.1425 11.87 -11.1425 11.87 -15.6875 12.375 C-17.0075 10.395 -18.3275 8.415 -19.6875 6.375 C-19.0275 9.345 -18.3675 12.315 -17.6875 15.375 C-18.43 15.66375 -19.1725 15.9525 -19.9375 16.25 C-22.25489797 17.19802644 -24.46667115 18.22345911 -26.6875 19.375 C-28.1481285 16.72761084 -28.6875 15.48051666 -28.6875 12.375 C-29.3475 12.375 -30.0075 12.375 -30.6875 12.375 C-31.0175 11.055 -31.3475 9.735 -31.6875 8.375 C-28.6875 7.04166667 -25.6875 5.70833333 -22.6875 4.375 C-22.07914307 4.03839355 -21.47078613 3.70178711 -20.84399414 3.35498047 C-13.972978 -0.20530392 -7.6218608 -0.15749359 0 0 Z " fill="#E0E1E5" transform="translate(119.6875,41.625)"/>
<path d="M0 0 C4.11140375 0.75515579 5.47963822 2.33392278 8.0625 5.5625 C9.55608066 8.34599123 10.19416898 9.75054126 9.6875 12.875 C9.48125 13.431875 9.275 13.98875 9.0625 14.5625 C7.7425 14.5625 6.4225 14.5625 5.0625 14.5625 C5.0625 15.2225 5.0625 15.8825 5.0625 16.5625 C4.0725 17.2225 3.0825 17.8825 2.0625 18.5625 C2.5575 19.5525 2.5575 19.5525 3.0625 20.5625 C2.27875 20.500625 1.495 20.43875 0.6875 20.375 C-0.611875 20.4678125 -0.611875 20.4678125 -1.9375 20.5625 C-2.5975 21.5525 -3.2575 22.5425 -3.9375 23.5625 C-4.5975 23.5625 -5.2575 23.5625 -5.9375 23.5625 C-5.9375 24.5525 -5.9375 25.5425 -5.9375 26.5625 C-6.9275 26.5625 -7.9175 26.5625 -8.9375 26.5625 C-8.9375 27.5525 -8.9375 28.5425 -8.9375 29.5625 C-9.47375 29.27375 -10.01 28.985 -10.5625 28.6875 C-13.29030484 27.39538192 -16.06362718 26.47691408 -18.9375 25.5625 C-17.79680004 26.79344848 -17.79680004 26.79344848 -15.375 28 C-14.570625 28.515625 -13.76625 29.03125 -12.9375 29.5625 C-12.9375 30.2225 -12.9375 30.8825 -12.9375 31.5625 C-17.05918689 33.19200412 -19.64450357 33.82514601 -23.9375 32.5625 C-23.9375 33.2225 -23.9375 33.8825 -23.9375 34.5625 C-25.4225 34.0675 -25.4225 34.0675 -26.9375 33.5625 C-26.9375 35.2125 -26.9375 36.8625 -26.9375 38.5625 C-27.9275 38.5625 -28.9175 38.5625 -29.9375 38.5625 C-28.6175 39.5525 -27.2975 40.5425 -25.9375 41.5625 C-26.2675 42.2225 -26.5975 42.8825 -26.9375 43.5625 C-33.36607143 44.84821429 -33.36607143 44.84821429 -35.9375 43.5625 C-35.9375 44.2225 -35.9375 44.8825 -35.9375 45.5625 C-34.4525 46.0575 -34.4525 46.0575 -32.9375 46.5625 C-32.9375 46.8925 -32.9375 47.2225 -32.9375 47.5625 C-34.5875 47.5625 -36.2375 47.5625 -37.9375 47.5625 C-37.9375 46.9025 -37.9375 46.2425 -37.9375 45.5625 C-38.5975 45.5625 -39.2575 45.5625 -39.9375 45.5625 C-39.9375 44.9025 -39.9375 44.2425 -39.9375 43.5625 C-45.05541642 43.45587674 -49.86678099 43.85082014 -54.9375 44.5625 C-52.78643854 42.8894522 -50.68275625 41.41693214 -48.3125 40.0625 C-45.68911891 38.63115192 -45.68911891 38.63115192 -43.9375 35.5625 C-42.9475 35.5625 -41.9575 35.5625 -40.9375 35.5625 C-40.9375 34.9025 -40.9375 34.2425 -40.9375 33.5625 C-38.21225883 30.33258454 -35.8036746 29.08862155 -31.9375 27.5625 C-31.2775 26.5725 -30.6175 25.5825 -29.9375 24.5625 C-28.60579135 23.89259382 -27.27233821 23.22614838 -25.9375 22.5625 C-24.23612802 20.92799473 -24.23612802 20.92799473 -22.75 19.0625 C-21.98623047 18.14984375 -21.98623047 18.14984375 -21.20703125 17.21875 C-19.86632362 15.57780467 -19.86632362 15.57780467 -18.9375 13.5625 C-18.2775 13.5625 -17.6175 13.5625 -16.9375 13.5625 C-16.9375 12.9025 -16.9375 12.2425 -16.9375 11.5625 C-14.890625 9.9765625 -14.890625 9.9765625 -12.1875 8.1875 C-9.46077923 6.37765902 -7.08528885 4.71351921 -4.79296875 2.37109375 C-2.9375 0.5625 -2.9375 0.5625 0 0 Z M-39.9375 47.5625 C-37.9375 48.5625 -37.9375 48.5625 -37.9375 48.5625 Z " fill="#414240" transform="translate(130.9375,75.4375)"/>
<path d="M0 0 C4.55555556 0.55555556 4.55555556 0.55555556 6 2 C5.85602475 4.08067452 5.54518827 6.12271608 5.25390625 8.1875 C4.54945698 15.99063035 5.36949583 22.97925746 7 30.625 C9.71431566 43.46297946 9.71431566 43.46297946 9 48 C6.97902578 50.15344661 5.38402845 51.56110771 3 53.1875 C2.39768555 53.61603271 1.79537109 54.04456543 1.17480469 54.48608398 C-0.53410701 55.68319547 -2.26419711 56.84244047 -4 58 C-4.67546875 58.49242187 -5.3509375 58.98484375 -6.046875 59.4921875 C-11.77478 63.09183422 -18.81086335 62.63704201 -25.3671875 62.82421875 C-28.83006117 62.74692108 -28.83006117 62.74692108 -31 64 C-28.7110686 53.48522139 -22.11881238 49.28195607 -13.51171875 43.6640625 C-10.48959766 41.66184853 -7.50811717 39.6124687 -4.5625 37.5 C-3.55316406 36.7884375 -2.54382813 36.076875 -1.50390625 35.34375 C1.33074078 32.69041425 2.10448375 30.73221143 3 27 C1.02 27.99 1.02 27.99 -1 29 C-1.66 28.34 -2.32 27.68 -3 27 C-2.54625 26.608125 -2.0925 26.21625 -1.625 25.8125 C1.0378583 22.84238882 2.05985078 20.50087351 1.8984375 16.453125 C1.65178304 13.95839136 1.35652727 11.48123707 1 9 C-0.32 8.67 -1.64 8.34 -3 8 C-3 7.34 -3 6.68 -3 6 C-3.99 6 -4.98 6 -6 6 C-6.20625 6.598125 -6.4125 7.19625 -6.625 7.8125 C-8.50926082 10.81018767 -10.81132084 11.61361776 -14 13 C-13.52449439 11.51965236 -13.04448784 10.04074979 -12.5625 8.5625 C-12.29566406 7.73878906 -12.02882812 6.91507812 -11.75390625 6.06640625 C-11 4 -11 4 -10 3 C-7.9720021 2.7746669 -5.94325126 2.55232815 -3.91015625 2.37890625 C-1.7671052 2.13777773 -1.7671052 2.13777773 0 0 Z " fill="#4F5251" transform="translate(166,70)"/>
<path d="M0 0 C0.66 0.33 1.32 0.66 2 1 C3.56319321 0.83996559 5.12560184 0.67221542 6.6875 0.5 C10.10160744 0.45052018 11.51045317 0.59818558 14.1796875 2.7890625 C17.50834581 6.9188087 19.8600187 10.54072912 20 16 C19.01 16.33 18.02 16.66 17 17 C16.67 17.66 16.34 18.32 16 19 C12.9375 19.625 12.9375 19.625 10 20 C10 20.66 10 21.32 10 22 C8.10919048 22.41917468 6.21195776 22.80944146 4.3125 23.1875 C3.25675781 23.40792969 2.20101562 23.62835938 1.11328125 23.85546875 C-2.59425545 24.02758777 -4.0655675 23.18364076 -7 21 C-8 20 -8 20 -8.125 16.625 C-8 13 -8 13 -7 10 C-7.39397335 7.36195411 -7.39397335 7.36195411 -8 5 C-5.31158141 2.74754119 -3.35358125 1.11786042 0 0 Z " fill="#D7D9DD" transform="translate(104,57)"/>
<path d="M0 0 C0.99 0 1.98 0 3 0 C3 0.66 3 1.32 3 2 C5.475 2.495 5.475 2.495 8 3 C9.28654332 9.69841577 9.11464988 14.10439344 5.91015625 20.1875 C4.85041543 21.95985407 4.85041543 21.95985407 5 24 C0.30508588 26.57463033 -3.94430948 26.25273747 -9 25 C-12.25 23.125 -12.25 23.125 -15 21 C-15.94875 20.46375 -16.8975 19.9275 -17.875 19.375 C-18.57625 18.92125 -19.2775 18.4675 -20 18 C-20 17.34 -20 16.68 -20 16 C-21.32 16 -22.64 16 -24 16 C-24 15.34 -24 14.68 -24 14 C-22.68 14 -21.36 14 -20 14 C-20 12.68 -20 11.36 -20 10 C-19.34 10 -18.68 10 -18 10 C-18 10.66 -18 11.32 -18 12 C-13.296045 10.15531177 -9.89548541 8.28040877 -6 5 C-5.0925 4.46375 -4.185 3.9275 -3.25 3.375 C-0.87854191 2.1987496 -0.87854191 2.1987496 0 0 Z " fill="#424243" transform="translate(160,76)"/>
<path d="M0 0 C3.82669043 3.42388092 5.72278474 6.00724943 7 11 C7.66 11.12375 8.32 11.2475 9 11.375 C9.99 11.58125 10.98 11.7875 12 12 C12.66257812 12.1340625 13.32515625 12.268125 14.0078125 12.40625 C20.74370252 13.89759096 20.74370252 13.89759096 23 17 C22.34 17 21.68 17 21 17 C21 17.66 21 18.32 21 19 C20.01 19.33 19.02 19.66 18 20 C28.64688763 25.976319 43.22965644 24.21123249 55 24 C48.43283915 28.37810723 39.94576436 27.18615994 32.31494141 27.18530273 C30.13814666 27.18748681 27.96186145 27.20567081 25.78515625 27.22460938 C8.7013748 27.29469518 8.7013748 27.29469518 1 22 C1.29296875 20.01432292 1.5859375 18.02864583 1.87890625 16.04296875 C2.13904799 13.7974658 2.13904799 13.7974658 1 11 C0.443125 10.608125 -0.11375 10.21625 -0.6875 9.8125 C-2 8 -2 8 -1.75 6.03125 C-1.2355698 4.00210867 -0.62252373 1.99862882 0 0 Z " fill="#BABABE" transform="translate(50,134)"/>
<path d="M0 0 C1.98 0.66 3.96 1.32 6 2 C5.01 3.65 4.02 5.3 3 7 C5.33214148 8.20628008 7.49642139 9.1654738 10 10 C10 10.66 10 11.32 10 12 C5.87831311 13.62950412 3.29299643 14.26264601 -1 13 C-1 13.66 -1 14.32 -1 15 C-1.99 14.67 -2.98 14.34 -4 14 C-4 15.65 -4 17.3 -4 19 C-4.99 19 -5.98 19 -7 19 C-5.68 19.99 -4.36 20.98 -3 22 C-3.33 22.66 -3.66 23.32 -4 24 C-10.42857143 25.28571429 -10.42857143 25.28571429 -13 24 C-13 24.66 -13 25.32 -13 26 C-12.01 26.33 -11.02 26.66 -10 27 C-10 27.33 -10 27.66 -10 28 C-11.65 28 -13.3 28 -15 28 C-15 27.34 -15 26.68 -15 26 C-15.66 26 -16.32 26 -17 26 C-17 25.34 -17 24.68 -17 24 C-22.11791642 23.89337674 -26.92928099 24.28832014 -32 25 C-29.84893854 23.3269522 -27.74525625 21.85443214 -25.375 20.5 C-22.75161891 19.06865192 -22.75161891 19.06865192 -21 16 C-20.01 16 -19.02 16 -18 16 C-18 15.34 -18 14.68 -18 14 C-15.27475883 10.77008454 -12.8661746 9.52612155 -9 8 C-8.34 7.01 -7.68 6.02 -7 5 C-5.67532254 4.3162955 -4.34136367 3.65035814 -3 3 C-1.29078411 1.4587688 -1.29078411 1.4587688 0 0 Z M-17 28 C-15 29 -15 29 -15 29 Z " fill="#403F41" transform="translate(108,95)"/>
<path d="M0 0 C0.66 0 1.32 0 2 0 C3.35015859 4.05047576 2.62084998 6.7920168 2 11 C3.32 11.33 4.64 11.66 6 12 C5.34773438 12.24234375 4.69546875 12.4846875 4.0234375 12.734375 C-1.11213194 14.70376741 -5.56942895 16.7353687 -10 20 C-9.67 20.99 -9.34 21.98 -9 23 C-12.58444759 27.39383898 -15.37846063 28.72125999 -20.9140625 29.8359375 C-24.3724632 30.10794654 -27.00588019 28.54868266 -30 27 C-29.12671434 21.91311101 -25.9630676 19.97789825 -22 17 C-19.87066978 15.53837562 -17.71510051 14.12408099 -15.55078125 12.71484375 C-12.47028744 10.6438839 -9.47715188 8.46546209 -6.5 6.25 C-5.4790625 5.49203125 -4.458125 4.7340625 -3.40625 3.953125 C-0.94164155 2.22712764 -0.94164155 2.22712764 0 0 Z " fill="#3A393B" transform="translate(168,101)"/>
<path d="M0 0 C1.40958984 0.41765625 1.40958984 0.41765625 2.84765625 0.84375 C3.80542969 1.1221875 4.76320312 1.400625 5.75 1.6875 C6.46285156 1.9040625 7.17570312 2.120625 7.91015625 2.34375 C7.58015625 3.33375 7.25015625 4.32375 6.91015625 5.34375 C5.92015625 5.34375 4.93015625 5.34375 3.91015625 5.34375 C3.56984375 6.2409375 3.56984375 6.2409375 3.22265625 7.15625 C0.75265186 11.27292398 -3.71151012 12.79242242 -8.08984375 14.34375 C-10.73828125 14.6875 -10.73828125 14.6875 -13.46484375 14.84375 C-16.77581253 15.08655438 -19.38977216 15.4347997 -22.58984375 16.40625 C-27.44137142 17.70576634 -32.09770955 17.50624261 -37.08984375 17.34375 C-34.61451413 15.69353026 -32.46492525 14.60324008 -29.77734375 13.40625 C-24.24029904 10.72703482 -19.75569094 7.05926152 -15.17651367 3.00219727 C-10.14263577 -1.2458408 -6.48554937 -1.37746181 0 0 Z " fill="#8A8D8D" transform="translate(83.08984375,105.65625)"/>
<path d="M0 0 C1.32 0.33 2.64 0.66 4 1 C4 2.65 4 4.3 4 6 C6.64 6 9.28 6 12 6 C12 5.34 12 4.68 12 4 C12.66 4 13.32 4 14 4 C14 5.65 14 7.3 14 9 C14.66 9 15.32 9 16 9 C15 12 15 12 12.125 13.5625 C11.09375 14.036875 10.0625 14.51125 9 15 C8.01 15.66 7.02 16.32 6 17 C2.44706617 17.34104711 -1.08549468 17.44232422 -4.65234375 17.55859375 C-8.10457579 18.01378887 -9.50311897 18.65330731 -12 21 C-11.01 23.97 -10.02 26.94 -9 30 C-9.66 30 -10.32 30 -11 30 C-11.67154933 28.71086513 -12.33708859 27.41859796 -13 26.125 C-13.37125 25.40570313 -13.7425 24.68640625 -14.125 23.9453125 C-15 22 -15 22 -15 20 C-15.66 20 -16.32 20 -17 20 C-17.33 18.02 -17.66 16.04 -18 14 C-17.01 14.33 -16.02 14.66 -15 15 C-15 16.32 -15 17.64 -15 19 C-14.608125 18.525625 -14.21625 18.05125 -13.8125 17.5625 C-11.59191626 15.64820367 -9.86624291 15.38733012 -7 15 C-7.7425 13.6078125 -7.7425 13.6078125 -8.5 12.1875 C-10 9 -10 9 -10 6 C-10.598125 6.350625 -11.19625 6.70125 -11.8125 7.0625 C-14 8 -14 8 -17 7 C-11.42531458 3.38398784 -6.39432346 3.69279941 0 4 C0 2.68 0 1.36 0 0 Z " fill="#CECED2" transform="translate(68,66)"/>
<path d="M0 0 C1.32 3.96 2.64 7.92 4 12 C2.68 12 1.36 12 0 12 C0 12.66 0 13.32 0 14 C-0.66 14 -1.32 14 -2 14 C-2 14.66 -2 15.32 -2 16 C-5 15 -5 15 -6.6875 12.0625 C-8 9 -8 9 -8 7 C-8.66 7 -9.32 7 -10 7 C-9.4070085 8.46291304 -8.80016177 9.92021513 -8.1875 11.375 C-7.85105469 12.18710938 -7.51460937 12.99921875 -7.16796875 13.8359375 C-6.05560918 16.30147458 -6.05560918 16.30147458 -3 18 C-2.51789063 17.6390625 -2.03578125 17.278125 -1.5390625 16.90625 C-0.90742187 16.4421875 -0.27578125 15.978125 0.375 15.5 C1.00148438 15.0359375 1.62796875 14.571875 2.2734375 14.09375 C4 13 4 13 6 13 C6 13.99 6 14.98 6 16 C5.01 16 4.02 16 3 16 C2.34 17.32 1.68 18.64 1 20 C-0.65 20 -2.3 20 -4 20 C-4 20.66 -4 21.32 -4 22 C-4.66 22 -5.32 22 -6 22 C-6 20.68 -6 19.36 -6 18 C-6.66 18 -7.32 18 -8 18 C-8 18.66 -8 19.32 -8 20 C-10.64 20 -13.28 20 -16 20 C-16.33 18.35 -16.66 16.7 -17 15 C-17.99 14.67 -18.98 14.34 -20 14 C-19.67 15.65 -19.34 17.3 -19 19 C-22.3 19 -25.6 19 -29 19 C-24.25 15 -24.25 15 -22 15 C-22 14.34 -22 13.68 -22 13 C-20.68 12.67 -19.36 12.34 -18 12 C-18 11.34 -18 10.68 -18 10 C-16.02 9.34 -14.04 8.68 -12 8 C-12 7.34 -12 6.68 -12 6 C-10.02 5.34 -8.04 4.68 -6 4 C-6 3.34 -6 2.68 -6 2 C-2.25 0 -2.25 0 0 0 Z " fill="#D7D8DC" transform="translate(88,52)"/>
<path d="M0 0 C0.99 0 1.98 0 3 0 C3.99 2.64 4.98 5.28 6 8 C9.3 7.67 12.6 7.34 16 7 C15.34 5.35 14.68 3.7 14 2 C14.66 2 15.32 2 16 2 C16 2.66 16 3.32 16 4 C16.66 4 17.32 4 18 4 C18 4.99 18 5.98 18 7 C20.64 7 23.28 7 26 7 C23.20878312 9.79121688 20.25670769 9.6587417 16.5 10.0625 C11.60238265 10.46885879 11.60238265 10.46885879 7 12 C4.94024274 12.29095872 2.87711405 12.558284 0.8125 12.8125 C-4.54659075 13.63336729 -8.63581827 14.7403334 -13 18 C-14.01835938 18.74636719 -15.03671875 19.49273437 -16.0859375 20.26171875 C-19.08203295 22.47626218 -22.04587444 24.72983454 -25 27 C-28.65474975 24.21908379 -30.73146452 22.49753488 -32 18 C-32 17.01 -32 16.02 -32 15 C-31.34 15 -30.68 15 -30 15 C-29.73445313 15.56589844 -29.46890625 16.13179687 -29.1953125 16.71484375 C-28.84210938 17.44832031 -28.48890625 18.18179688 -28.125 18.9375 C-27.77695313 19.66839844 -27.42890625 20.39929688 -27.0703125 21.15234375 C-26.1315023 23.16332459 -26.1315023 23.16332459 -24 24 C-24 23.34 -24 22.68 -24 22 C-23.34 22 -22.68 22 -22 22 C-22 21.34 -22 20.68 -22 20 C-21.01 19.67 -20.02 19.34 -19 19 C-19.515625 17.9275 -20.03125 16.855 -20.5625 15.75 C-21.63240282 13.28522388 -22.03572782 12.27867697 -21.6875 9.5625 C-21.460625 9.046875 -21.23375 8.53125 -21 8 C-21 8.66 -21 9.32 -21 10 C-20.34 10 -19.68 10 -19 10 C-18.34 12.31 -17.68 14.62 -17 17 C-16.2575 16.34 -15.515 15.68 -14.75 15 C-12 13 -12 13 -8 13 C-8.515625 11.906875 -9.03125 10.81375 -9.5625 9.6875 C-11 6 -11 6 -10 3 C-9.525625 3.99 -9.05125 4.98 -8.5625 6 C-6.39823767 9.17831009 -6.39823767 9.17831009 -3.73046875 9.3984375 C-1.46128006 9.37699635 0.74627444 9.26004526 3 9 C2.505 8.071875 2.01 7.14375 1.5 6.1875 C0 3 0 3 0 0 Z " fill="#C7CACE" transform="translate(110,44)"/>
<path d="M0 0 C0.33 0 0.66 0 1 0 C1.9964171 4.11022054 2.47068828 7.78190889 2 12 C-0.02097422 14.15344661 -1.61597155 15.56110771 -4 17.1875 C-4.60231445 17.61603271 -5.20462891 18.04456543 -5.82519531 18.48608398 C-7.53410701 19.68319547 -9.26419711 20.84244047 -11 22 C-11.67546875 22.49242187 -12.3509375 22.98484375 -13.046875 23.4921875 C-18.77478 27.09183422 -25.81086335 26.63704201 -32.3671875 26.82421875 C-35.83006117 26.74692108 -35.83006117 26.74692108 -38 28 C-37.01 24.535 -37.01 24.535 -36 21 C-35.29875 21.309375 -34.5975 21.61875 -33.875 21.9375 C-28.16737588 24.04683935 -24.38544434 24.34380121 -18.76953125 22.03515625 C-16.21592537 20.541325 -15.15504987 18.67105282 -14 16 C-14.99 15.67 -15.98 15.34 -17 15 C-11.50878509 11.072256 -6.42726142 8.10346737 0 6 C0 4.02 0 2.04 0 0 Z " fill="#5C5C5E" transform="translate(173,106)"/>
<path d="M0 0 C1.9765625 1.15234375 1.9765625 1.15234375 4 3 C4.4609375 5.62890625 4.4609375 5.62890625 4.375 8.5625 C4.35566406 10.01849609 4.35566406 10.01849609 4.3359375 11.50390625 C4 14 4 14 2 16 C1.01 16 0.02 16 -1 16 C-1 16.66 -1 17.32 -1 18 C-6.65611463 18.56561146 -10.22642128 16.71391278 -15 14 C-15 13.34 -15 12.68 -15 12 C-14.071875 11.79375 -13.14375 11.5875 -12.1875 11.375 C-8.10769476 9.61508401 -7.87767127 7.91181514 -6 4 C-2.8125 1.625 -2.8125 1.625 0 0 Z " fill="#1F1F1E" transform="translate(159,78)"/>
<path d="M0 0 C3.60105627 3.08661966 5.4819811 5.78222426 7.4375 10.125 C9.16251057 13.81674237 9.75759946 14.84449777 13.3125 17.125 C14.6428125 17.558125 14.6428125 17.558125 16 18 C12.94736336 18.98120464 11.05263664 18.98120464 8 18 C8.59861742 20.35171131 9.26924352 22.6859378 10 25 C10.66 25.33 11.32 25.66 12 26 C7.6109185 25.48964169 4.66291938 24.47785723 1 22 C1.29296875 20.01432292 1.5859375 18.02864583 1.87890625 16.04296875 C2.13904799 13.7974658 2.13904799 13.7974658 1 11 C0.443125 10.608125 -0.11375 10.21625 -0.6875 9.8125 C-2 8 -2 8 -1.75 6.03125 C-1.2355698 4.00210867 -0.62252373 1.99862882 0 0 Z " fill="#CCCCCE" transform="translate(50,134)"/>
<path d="M0 0 C0 1.32 0 2.64 0 4 C-0.99 4.33 -1.98 4.66 -3 5 C-3.639375 5.66 -4.27875 6.32 -4.9375 7 C-7.2157735 9.20923491 -7.9285703 9.5761741 -11 10 C-13.25916114 9.76262437 -15.5105321 9.44320954 -17.75 9.0625 C-19.50570312 8.77052734 -19.50570312 8.77052734 -21.296875 8.47265625 C-22.18890625 8.31667969 -23.0809375 8.16070312 -24 8 C-23.67 6.68 -23.34 5.36 -23 4 C-19.535 3.505 -19.535 3.505 -16 3 C-16 2.34 -16 1.68 -16 1 C-10.63904667 -0.12862175 -5.44693314 -0.09688221 0 0 Z " fill="#F4F6F7" transform="translate(104,96)"/>
<path d="M0 0 C-3.01447835 2.57075841 -5.35979771 3.52207066 -9.25 4.1875 C-10.58804688 4.42533203 -10.58804688 4.42533203 -11.953125 4.66796875 C-12.96632813 4.83232422 -12.96632813 4.83232422 -14 5 C-14 5.66 -14 6.32 -14 7 C-12.35333797 6.8864371 -10.70763918 6.75882619 -9.0625 6.625 C-8.14597656 6.55539063 -7.22945312 6.48578125 -6.28515625 6.4140625 C-5.53105469 6.27742188 -4.77695313 6.14078125 -4 6 C-3.67 5.34 -3.34 4.68 -3 4 C-0.525 4.495 -0.525 4.495 2 5 C-0.68841859 7.25245881 -2.64641875 8.88213958 -6 10 C-6 10.66 -6 11.32 -6 12 C-6.66 12 -7.32 12 -8 12 C-8.268125 12.78375 -8.53625 13.5675 -8.8125 14.375 C-10 17 -10 17 -13 19 C-13.99 15.04 -14.98 11.08 -16 7 C-21.94 7.495 -21.94 7.495 -28 8 C-28.33 7.01 -28.66 6.02 -29 5 C-25.91747911 4.49490361 -22.83386475 3.99682001 -19.75 3.5 C-18.87730469 3.35691406 -18.00460938 3.21382813 -17.10546875 3.06640625 C-16.26113281 2.93105469 -15.41679688 2.79570313 -14.546875 2.65625 C-13.77182617 2.53056641 -12.99677734 2.40488281 -12.19824219 2.27539062 C-10 2 -10 2 -6 2 C-6 1.34 -6 0.68 -6 0 C-3 -1 -3 -1 0 0 Z " fill="#CED0D2" transform="translate(120,77)"/>
<path d="M0 0 C0.5259375 0.7734375 0.5259375 0.7734375 1.0625 1.5625 C3.09468727 3.40146383 3.09468727 3.40146383 6.6875 2.6875 C7.780625 2.460625 8.87375 2.23375 10 2 C10 2.66 10 3.32 10 4 C9.34 4 8.68 4 8 4 C8 4.66 8 5.32 8 6 C9.94999129 5.80528889 9.94999129 5.80528889 12 5 C13.28436734 3.0162233 13.28436734 3.0162233 14 1 C16.03455241 2.87178822 16.95011196 4.31435922 17.15234375 7.09375 C16.86278472 11.54850434 16.37875973 13.54733594 13.4375 17.0625 C12.633125 17.701875 11.82875 18.34125 11 19 C7 13.375 7 13.375 7 10 C6.01 9.67 5.02 9.34 4 9 C0 3.74285714 0 3.74285714 0 0 Z " fill="#DADCDF" transform="translate(132,58)"/>
<path d="M0 0 C0.99 2.97 1.98 5.94 3 9 C1.35 9.33 -0.3 9.66 -2 10 C-2.33 10.99 -2.66 11.98 -3 13 C-3.66 13 -4.32 13 -5 13 C-5.12375 12.360625 -5.2475 11.72125 -5.375 11.0625 C-5.58125 10.381875 -5.7875 9.70125 -6 9 C-6.66 8.67 -7.32 8.34 -8 8 C-8.33 8.66 -8.66 9.32 -9 10 C-9 9.34 -9 8.68 -9 8 C-11.97 8 -14.94 8 -18 8 C-18 7.34 -18 6.68 -18 6 C-16.68 6 -15.36 6 -14 6 C-14 5.34 -14 4.68 -14 4 C-12.0429132 3.32968281 -10.08428887 2.66385317 -8.125 2 C-7.03445312 1.62875 -5.94390625 1.2575 -4.8203125 0.875 C-2 0 -2 0 0 0 Z " fill="#D2D2D5" transform="translate(58,72)"/>
<path d="M0 0 C0.99 0 1.98 0 3 0 C3 0.66 3 1.32 3 2 C4.65 2.33 6.3 2.66 8 3 C9.39765083 10.41362614 8.95317148 14.53117395 5 21 C0.25 21.125 0.25 21.125 -2 20 C-2 19.34 -2 18.68 -2 18 C-0.68 17.34 0.64 16.68 2 16 C2.05391993 14.20866022 2.09275571 12.41686101 2.125 10.625 C2.14820313 9.62726563 2.17140625 8.62953125 2.1953125 7.6015625 C2.27216848 4.83737827 2.27216848 4.83737827 0 3 C0 2.01 0 1.02 0 0 Z " fill="#424141" transform="translate(160,76)"/>
<path d="M0 0 C-0.1875 1.8125 -0.1875 1.8125 -1 4 C-5.76701967 7.44284754 -10.53313403 9.16522258 -16.375 9.5 C-19.68800639 9.74491311 -22.70317203 10.06782588 -25.875 11.0625 C-28.79109511 11.93732853 -30.98455674 12.18275414 -34 12 C-31.36065692 9.36065692 -29.10826089 9.10917534 -25.5 8.1875 C-19.98115667 6.68184633 -15.16822975 4.84114075 -10.18359375 2.05078125 C-6.79443091 0.41986031 -3.73894733 0 0 0 Z " fill="#ADAFAF" transform="translate(86,111)"/>
<path d="M0 0 C2.63665511 1.03868232 3.45872081 2.53248344 5.0625 4.8125 C2.99046315 6.20783117 0.90784304 7.57799477 -1.1875 8.9375 C-1.77402344 9.33582031 -2.36054688 9.73414062 -2.96484375 10.14453125 C-4.703125 11.2578125 -4.703125 11.2578125 -7.9375 12.8125 C-10.359375 12.0546875 -10.359375 12.0546875 -11.9375 10.8125 C-11.37747584 7.27590908 -10.25975676 5.85690308 -7.5 3.625 C-6.88253906 3.11582031 -6.26507813 2.60664062 -5.62890625 2.08203125 C-2.52893661 -0.2447358 -2.52893661 -0.2447358 0 0 Z " fill="#333335" transform="translate(149.9375,117.1875)"/>
<path d="M0 0 C4.79747471 0.63270153 9.46183771 1.53171803 14.1875 2.5625 C23.75728491 4.5154467 33.27877878 4.26892723 43 4 C39.2043089 6.53046074 36.1507202 6.28840803 31.75390625 6.265625 C30.94638412 6.26753845 30.138862 6.2694519 29.30686951 6.27142334 C27.59967741 6.27278376 25.89247493 6.26909729 24.18530273 6.26074219 C21.57577171 6.25005436 18.96693128 6.26063493 16.35742188 6.2734375 C14.69791515 6.27211561 13.03840885 6.2695526 11.37890625 6.265625 C10.59963272 6.26967346 9.82035919 6.27372192 9.01747131 6.27789307 C5.20441804 6.24499859 2.23157753 6.15260365 -1 4 C-0.67 2.68 -0.34 1.36 0 0 Z " fill="#A0A0A3" transform="translate(62,154)"/>
<path d="M0 0 C0.99 0 1.98 0 3 0 C3.99 2.64 4.98 5.28 6 8 C9.3 7.67 12.6 7.34 16 7 C15.34 5.35 14.68 3.7 14 2 C14.66 2 15.32 2 16 2 C16 2.66 16 3.32 16 4 C16.66 4 17.32 4 18 4 C18 4.99 18 5.98 18 7 C20.64 7 23.28 7 26 7 C23.16299138 9.83700862 20.76174677 9.59857072 16.8125 10.0625 C15.51957031 10.21847656 14.22664063 10.37445313 12.89453125 10.53515625 C10.96673828 10.76525391 10.96673828 10.76525391 9 11 C6.664489 11.31997113 4.33245063 11.65814926 2 12 C2 11.34 2 10.68 2 10 C1.01 10.495 1.01 10.495 0 11 C-1.99960012 11.039992 -4.00047242 11.04346799 -6 11 C-6 10.67 -6 10.34 -6 10 C-1.545 9.505 -1.545 9.505 3 9 C2.505 8.071875 2.01 7.14375 1.5 6.1875 C0 3 0 3 0 0 Z " fill="#CFD1D4" transform="translate(110,44)"/>
<path d="M0 0 C2.18975773 3.28463659 2.99806563 6.20696275 4 10 C3.2575 10.28875 2.515 10.5775 1.75 10.875 C-0.56739797 11.82302644 -2.77917115 12.84845911 -5 14 C-6.4606285 11.35261084 -7 10.10551666 -7 7 C-7.66 6.67 -8.32 6.34 -9 6 C-8.34 6 -7.68 6 -7 6 C-7 5.34 -7 4.68 -7 4 C-4.69 2.68 -2.38 1.36 0 0 Z " fill="#D5D7D9" transform="translate(98,47)"/>
<path d="M0 0 C0.66 0 1.32 0 2 0 C2 1.65 2 3.3 2 5 C2.66 5 3.32 5 4 5 C3 8 3 8 0.63671875 9.203125 C-0.33652344 9.54859375 -1.30976562 9.8940625 -2.3125 10.25 C-3.76076172 10.78367187 -3.76076172 10.78367187 -5.23828125 11.328125 C-8.02246834 12.00546613 -9.35478935 11.98017307 -12 11 C-9.69 9.68 -7.38 8.36 -5 7 C-5.99 6.34 -6.98 5.68 -8 5 C-8 4.01 -8 3.02 -8 2 C-5.36 2 -2.72 2 0 2 C0 1.34 0 0.68 0 0 Z " fill="#C2C7CA" transform="translate(80,70)"/>
<path d="M0 0 C-0.8125 1.9375 -0.8125 1.9375 -2 4 C-2.99 4.33 -3.98 4.66 -5 5 C-5.73323796 7.01508358 -5.73323796 7.01508358 -6 9 C-7.27875 9.061875 -8.5575 9.12375 -9.875 9.1875 C-10.59429687 9.22230469 -11.31359375 9.25710937 -12.0546875 9.29296875 C-12.69664063 9.19628906 -13.33859375 9.09960938 -14 9 C-14.66 8.01 -15.32 7.02 -16 6 C-15.38125 5.938125 -14.7625 5.87625 -14.125 5.8125 C-13.42375 5.544375 -12.7225 5.27625 -12 5 C-11.690625 4.175 -11.38125 3.35 -11.0625 2.5 C-10.711875 1.675 -10.36125 0.85 -10 0 C-6.43000326 -1.35080958 -3.64229838 -0.93659101 0 0 Z " fill="#DFE1E4" transform="translate(88,86)"/>
<path d="M0 0 C0.75 1.75 0.75 1.75 1 4 C-0.5625 6.3125 -0.5625 6.3125 -3 8 C-6.25 7.75 -6.25 7.75 -9 7 C-9.33 7.99 -9.66 8.98 -10 10 C-13.3 10 -16.6 10 -20 10 C-20 9.34 -20 8.68 -20 8 C-19.20335938 7.75765625 -18.40671875 7.5153125 -17.5859375 7.265625 C-12.67830077 5.71333114 -4.64568098 0 0 0 Z " fill="#DBDCE0" transform="translate(126,74)"/>
<path d="M0 0 C2.6538451 0.5798616 4.94678635 1.09839318 7.375 2.3125 C7.375 2.9725 7.375 3.6325 7.375 4.3125 C6.385 3.9825 5.395 3.6525 4.375 3.3125 C4.375 4.9625 4.375 6.6125 4.375 8.3125 C-0.245 7.3225 -4.865 6.3325 -9.625 5.3125 C-9.625 3.3125 -9.625 3.3125 -8.3125 1.0625 C-4.95669038 -1.12267836 -3.85682655 -0.69251014 0 0 Z " fill="#535152" transform="translate(99.625,105.6875)"/>
<path d="M0 0 C6.41481258 -0.42765417 11.88595404 1.14256832 18 3 C17.67 3.99 17.34 4.98 17 6 C16.01 6 15.02 6 14 6 C13.67 6.66 13.34 7.32 13 8 C13 7.34 13 6.68 13 6 C8.38 7.32 3.76 8.64 -1 10 C-0.67 9.01 -0.34 8.02 0 7 C1.8125 6.12109375 1.8125 6.12109375 4 5.4375 C6.14541038 4.79318716 6.14541038 4.79318716 8 4 C8.33 3.34 8.66 2.68 9 2 C5.7 2 2.4 2 -1 2 C-0.67 1.34 -0.34 0.68 0 0 Z " fill="#8C8E8D" transform="translate(73,105)"/>
<path d="M0 0 C0.33 0 0.66 0 1 0 C1.99906976 4.12116277 2.5922763 7.78003139 2 12 C-0.08046429 14.37172929 -2.41703369 16.20114846 -5 18 C-6.32 17.34 -7.64 16.68 -9 16 C-8.34 16 -7.68 16 -7 16 C-6.7834375 15.0409375 -6.7834375 15.0409375 -6.5625 14.0625 C-6 12 -6 12 -5 11 C-5.66 10.34 -6.32 9.68 -7 9 C-4.69 8.01 -2.38 7.02 0 6 C0 4.02 0 2.04 0 0 Z " fill="#656567" transform="translate(173,106)"/>
<path d="M0 0 C1.98 0.66 3.96 1.32 6 2 C3.375 6.875 3.375 6.875 0 8 C-0.66 7.67 -1.32 7.34 -2 7 C-2 7.66 -2 8.32 -2 9 C-1.34 9 -0.68 9 0 9 C0 9.66 0 10.32 0 11 C-3.4375 10.1875 -3.4375 10.1875 -7 9 C-7.33 8.01 -7.66 7.02 -8 6 C-7.236875 5.566875 -6.47375 5.13375 -5.6875 4.6875 C-3.41906232 3.26313215 -1.7800277 1.96739903 0 0 Z " fill="#525252" transform="translate(108,95)"/>
<path d="M0 0 C-0.91995161 3.09438268 -1.63783286 4.71026629 -4.1875 6.75 C-7.46572351 8.20698822 -10.44322079 8.65129616 -14 9 C-14.33 8.01 -14.66 7.02 -15 6 C-13.44632634 4.98634107 -11.88162164 3.98957744 -10.3125 3 C-9.44238281 2.443125 -8.57226562 1.88625 -7.67578125 1.3125 C-4.83026663 -0.08325608 -3.1211406 -0.26993648 0 0 Z " fill="#49494B" transform="translate(159,122)"/>
<path d="M0 0 C2.72426311 2.35277269 3.8141763 4.62496331 5 8 C7.64 7.67 10.28 7.34 13 7 C13 7.66 13 8.32 13 9 C12.27554688 9.15855469 11.55109375 9.31710938 10.8046875 9.48046875 C4.5194448 10.99730732 0.67824078 12.561669 -4 17 C-4.66 17 -5.32 17 -6 17 C-6.33 15.68 -6.66 14.36 -7 13 C-6.38125 12.87625 -5.7625 12.7525 -5.125 12.625 C-2.80879168 12.12802644 -2.80879168 12.12802644 -1 10 C0.32 10 1.64 10 3 10 C2.2575 8.3603125 2.2575 8.3603125 1.5 6.6875 C0 3 0 3 0 0 Z " fill="#BEC1C4" transform="translate(99,47)"/>
<path d="M0 0 C1.98 0.99 1.98 0.99 4 2 C4.33 1.34 4.66 0.68 5 0 C6.32 0.66 7.64 1.32 9 2 C9 2.66 9 3.32 9 4 C10.98 4 12.96 4 15 4 C14.01 5.485 14.01 5.485 13 7 C10.1796875 7.29296875 10.1796875 7.29296875 6.875 7.1875 C5.23144531 7.14689453 5.23144531 7.14689453 3.5546875 7.10546875 C2.29011719 7.05326172 2.29011719 7.05326172 1 7 C0.67 4.69 0.34 2.38 0 0 Z " fill="#444645" transform="translate(103,108)"/>
<path d="M0 0 C1.94045688 0.4241929 3.87731761 0.86485995 5.8125 1.3125 C7.43091797 1.67794922 7.43091797 1.67794922 9.08203125 2.05078125 C11.9447156 2.98201592 13.15397066 3.68760535 15 6 C14.34 6 13.68 6 13 6 C13 6.66 13 7.32 13 8 C11.35 8.66 9.7 9.32 8 10 C8 9.01 8 8.02 8 7 C7.05125 6.773125 6.1025 6.54625 5.125 6.3125 C2 5 2 5 0.8046875 2.41796875 C0.53914063 1.62003906 0.27359375 0.82210937 0 0 Z " fill="#C2C1C7" transform="translate(58,145)"/>
<path d="M0 0 C0 2.8125 0 2.8125 -1 6 C-3.52731147 7.49598706 -6.17786234 8.23681491 -9 9 C-9.99 9.33 -10.98 9.66 -12 10 C-11.45276317 6.62537285 -10.9451 4.91765 -9 2 C-3.10526316 0 -3.10526316 0 0 0 Z " fill="#373737" transform="translate(141,84)"/>
<path d="M0 0 C0.99 0 1.98 0 3 0 C3 0.66 3 1.32 3 2 C4.32 2 5.64 2 7 2 C7 5.3 7 8.6 7 12 C6.01 12 5.02 12 4 12 C3.67 12.66 3.34 13.32 3 14 C2.92652344 13.06027344 2.92652344 13.06027344 2.8515625 12.1015625 C2.77679688 11.28429687 2.70203125 10.46703125 2.625 9.625 C2.55539063 8.81289062 2.48578125 8.00078125 2.4140625 7.1640625 C2.17107412 4.79665809 2.17107412 4.79665809 0 3 C0 2.01 0 1.02 0 0 Z " fill="#363534" transform="translate(160,76)"/>
<path d="M0 0 C1.98 0.99 1.98 0.99 4 2 C4 2.99 4 3.98 4 5 C4.66 5 5.32 5 6 5 C6.66 6.65 7.32 8.3 8 10 C9.98 10 11.96 10 14 10 C14 9.34 14 8.68 14 8 C14.66 8 15.32 8 16 8 C14.61198929 11.35435922 13.11371 13.11290303 10 15 C9.01 15 8.02 15 7 15 C6.5875 13.96875 6.175 12.9375 5.75 11.875 C4.22831497 8.28557072 2.17936992 5.23147954 0 2 C0 1.34 0 0.68 0 0 Z " fill="#CBCCD1" transform="translate(117,58)"/>
<path d="M0 0 C2.99559666 0.59911933 4.00690049 1.15503398 5.8125 3.5625 C1.55950436 5.99278322 -1.29766479 6.88848901 -6.1875 6.5625 C-7.1775 6.5625 -8.1675 6.5625 -9.1875 6.5625 C-4.07445652 0.71902174 -4.07445652 0.71902174 0 0 Z " fill="#636566" transform="translate(131.1875,75.4375)"/>
<path d="M0 0 C1.4540625 0.0309375 1.4540625 0.0309375 2.9375 0.0625 C2.9375 1.0525 2.9375 2.0425 2.9375 3.0625 C2.2775 3.0625 1.6175 3.0625 0.9375 3.0625 C0.73125 3.660625 0.525 4.25875 0.3125 4.875 C-1.57176082 7.87268767 -3.87382084 8.67611776 -7.0625 10.0625 C-6.58699439 8.58215236 -6.10698784 7.10324979 -5.625 5.625 C-5.35816406 4.80128906 -5.09132812 3.97757812 -4.81640625 3.12890625 C-3.64372032 -0.0853469 -3.61643303 0.07380476 0 0 Z " fill="#40433F" transform="translate(159.0625,72.9375)"/>
<path d="M0 0 C1.32 3.96 2.64 7.92 4 12 C3.01 12 2.02 12 1 12 C0.67 10.02 0.34 8.04 0 6 C-2.97 6 -5.94 6 -9 6 C-8.67 5.34 -8.34 4.68 -8 4 C-7.34 4 -6.68 4 -6 4 C-6 3.34 -6 2.68 -6 2 C-2.25 0 -2.25 0 0 0 Z " fill="#E1E2E6" transform="translate(88,52)"/>
<path d="M0 0 C1.32 0 2.64 0 4 0 C4.66 1.32 5.32 2.64 6 4 C5.67 2.68 5.34 1.36 5 0 C7.9719385 1.12451727 10.33440687 2.22293791 13 4 C12.67 4.66 12.34 5.32 12 6 C8.75 6.9375 8.75 6.9375 5 7 C2.0625 4.6875 2.0625 4.6875 0 2 C0 1.34 0 0.68 0 0 Z " fill="#4D4E4F" transform="translate(92,113)"/>
<path d="M0 0 C0.66 0.99 1.32 1.98 2 3 C1.67 3.99 1.34 4.98 1 6 C0.34 5.34 -0.32 4.68 -1 4 C-1.598125 4.66 -2.19625 5.32 -2.8125 6 C-5 8 -5 8 -8 8 C-7.67 9.65 -7.34 11.3 -7 13 C-10.3 13 -13.6 13 -17 13 C-12.25 9 -12.25 9 -10 9 C-10 8.34 -10 7.68 -10 7 C-8.68 6.67 -7.36 6.34 -6 6 C-6 5.34 -6 4.68 -6 4 C-4.02 3.34 -2.04 2.68 0 2 C0 1.34 0 0.68 0 0 Z " fill="#E8E8EA" transform="translate(76,58)"/>
<path d="M0 0 C0 0.66 0 1.32 0 2 C-0.99 2.33 -1.98 2.66 -3 3 C-3.61875 3.70125 -4.2375 4.4025 -4.875 5.125 C-5.57625 5.74375 -6.2775 6.3625 -7 7 C-9.75 6.75 -9.75 6.75 -12 6 C-8.68803702 2.17850426 -5.19066552 0 0 0 Z M-12 7 C-13.65 7.66 -15.3 8.32 -17 9 C-17 9.66 -17 10.32 -17 11 C-17.99 10.67 -18.98 10.34 -20 10 C-20 9.34 -20 8.68 -20 8 C-16.93251126 6.13759612 -15.40254489 5.7848054 -12 7 Z " fill="#E9E9EA" transform="translate(108,42)"/>
<path d="M0 0 C2.6875 0.3125 2.6875 0.3125 5 1 C5 2.98 5 4.96 5 7 C3.35 7.33 1.7 7.66 0 8 C-0.99 6.35 -1.98 4.7 -3 3 C-1.8125 1.4375 -1.8125 1.4375 0 0 Z " fill="#D8D9DD" transform="translate(104,46)"/>
<path d="M0 0 C4.875 0.875 4.875 0.875 6 2 C5.94921875 4.03125 5.94921875 4.03125 5.6875 6.5 C5.60886719 7.3146875 5.53023437 8.129375 5.44921875 8.96875 C5.22685547 9.97421875 5.22685547 9.97421875 5 11 C4.01 11.495 4.01 11.495 3 12 C2.566875 10.2984375 2.566875 10.2984375 2.125 8.5625 C1.75375 7.386875 1.3825 6.21125 1 5 C0.34 4.67 -0.32 4.34 -1 4 C-0.67 2.68 -0.34 1.36 0 0 Z " fill="#494947" transform="translate(166,70)"/>
<path d="M0 0 C0.66 0 1.32 0 2 0 C2 0.66 2 1.32 2 2 C2.66 2 3.32 2 4 2 C4 2.99 4 3.98 4 5 C6.64 5 9.28 5 12 5 C9.68600977 7.31399023 9.01395276 7.32256804 5.8671875 7.6328125 C5.06152344 7.71660156 4.25585938 7.80039062 3.42578125 7.88671875 C2.58402344 7.96535156 1.74226563 8.04398438 0.875 8.125 C0.02550781 8.21136719 -0.82398437 8.29773437 -1.69921875 8.38671875 C-3.79869727 8.59902557 -5.89926242 8.80053603 -8 9 C-8 8.34 -8 7.68 -8 7 C-4.7 6.34 -1.4 5.68 2 5 C1.34 3.35 0.68 1.7 0 0 Z " fill="#C5C5C9" transform="translate(124,46)"/>
<path d="M0 0 C1.26328125 0.02707031 2.5265625 0.05414063 3.828125 0.08203125 C4.79234375 0.11683594 5.7565625 0.15164062 6.75 0.1875 C6.42 1.1775 6.09 2.1675 5.75 3.1875 C0.14 3.1875 -5.47 3.1875 -11.25 3.1875 C-6.71532336 -0.21350748 -5.4587218 -0.15163116 0 0 Z " fill="#EAEAEE" transform="translate(131.25,52.8125)"/>
<path d="M0 0 C0.99 0 1.98 0 3 0 C4.38226016 2.76452033 4.09525387 5.0461363 4.0625 8.125 C4.05347656 9.22070312 4.04445312 10.31640625 4.03515625 11.4453125 C4.02355469 12.28835937 4.01195312 13.13140625 4 14 C3.01 14 2.02 14 1 14 C1.01740234 13.11248047 1.01740234 13.11248047 1.03515625 12.20703125 C1.08322386 7.99768215 1.06006883 4.1077667 0 0 Z " fill="#4B4B4B" transform="translate(169,98)"/>
<path d="M0 0 C0.33 0.66 0.66 1.32 1 2 C1.99 2.33 2.98 2.66 4 3 C5.80886571 7.76017293 6.20666253 11.93676791 6 17 C5.67 17 5.34 17 5 17 C4.34 13.7 3.68 10.4 3 7 C1.68 6.67 0.36 6.34 -1 6 C-1.33 4.35 -1.66 2.7 -2 1 C-1.34 0.67 -0.68 0.34 0 0 Z " fill="#5F5F5D" transform="translate(164,72)"/>
<path d="M0 0 C0.99 0.33 1.98 0.66 3 1 C3 2.32 3 3.64 3 5 C4.32 4.67 5.64 4.34 7 4 C6.67 4.99 6.34 5.98 6 7 C6.52943294 9.31413374 6.52943294 9.31413374 7.4375 11.6875 C7.72496094 12.49574219 8.01242188 13.30398437 8.30859375 14.13671875 C8.53675781 14.75160156 8.76492187 15.36648437 9 16 C8.34 16 7.68 16 7 16 C6.32845067 14.71086513 5.66291141 13.41859796 5 12.125 C4.62875 11.40570313 4.2575 10.68640625 3.875 9.9453125 C3 8 3 8 3 6 C2.34 6 1.68 6 1 6 C0.67 4.02 0.34 2.04 0 0 Z " fill="#CACBCF" transform="translate(50,80)"/>
<path d="M0 0 C0.598125 0.309375 1.19625 0.61875 1.8125 0.9375 C4.08956772 2.10209704 4.08956772 2.10209704 7 3 C7 3.66 7 4.32 7 5 C1.375 7.125 1.375 7.125 -2 6 C-1.125 1.125 -1.125 1.125 0 0 Z " fill="#51524F" transform="translate(111,102)"/>
<path d="M0 0 C1.65 0.33 3.3 0.66 5 1 C5 1.66 5 2.32 5 3 C5.99 3.33 6.98 3.66 8 4 C7.01 4 6.02 4 5 4 C4.67 4.99 4.34 5.98 4 7 C1.36 6.01 -1.28 5.02 -4 4 C-2.68 3.34 -1.36 2.68 0 2 C0 1.34 0 0.68 0 0 Z " fill="#4B4947" transform="translate(116,97)"/>
<path d="M0 0 C2.125 0.9375 2.125 0.9375 4 2 C3.34 3.32 2.68 4.64 2 6 C0.02 6 -1.96 6 -4 6 C-4 6.66 -4 7.32 -4 8 C-4.99 7.67 -5.98 7.34 -7 7 C-2.25 1.125 -2.25 1.125 0 0 Z " fill="#454746" transform="translate(136,80)"/>
<path d="M0 0 C5.94 0.33 11.88 0.66 18 1 C17.67 2.32 17.34 3.64 17 5 C8.585 3.02 8.585 3.02 0 1 C0 0.67 0 0.34 0 0 Z " fill="#B6B8B8" transform="translate(75,104)"/>
<path d="M0 0 C-0.99 0.495 -0.99 0.495 -2 1 C-1.34 1.66 -0.68 2.32 0 3 C-4.29299643 4.26264601 -6.87831311 3.62950412 -11 2 C-9 -1 -9 -1 -6.0625 -1.8125 C-3 -2 -3 -2 0 0 Z " fill="#2C2C2E" transform="translate(143,93)"/>
<path d="M0 0 C0.66 0 1.32 0 2 0 C1.67 2.64 1.34 5.28 1 8 C1.86625 8.1546875 1.86625 8.1546875 2.75 8.3125 C5.32049158 9.09792798 6.93657284 10.30504197 9 12 C4.6109185 11.48964169 1.66291938 10.47785723 -2 8 C-1.125 1.125 -1.125 1.125 0 0 Z " fill="#DCDBDE" transform="translate(53,148)"/>
<path d="M0 0 C1.25 1.875 1.25 1.875 2 4 C1.67 4.99 1.34 5.98 1 7 C0.01 6.34 -0.98 5.68 -2 5 C-2 4.01 -2 3.02 -2 2 C-3.65 2.33 -5.3 2.66 -7 3 C-7.33 3.99 -7.66 4.98 -8 6 C-8.66 5.01 -9.32 4.02 -10 3 C-3.375 -1.125 -3.375 -1.125 0 0 Z " fill="#E1E4E7" transform="translate(54,88)"/>
<path d="M0 0 C3 1 3 1 4.16796875 3.06640625 C4.50441406 3.89011719 4.84085938 4.71382813 5.1875 5.5625 C5.53167969 6.38878906 5.87585938 7.21507813 6.23046875 8.06640625 C6.48441406 8.70449219 6.73835937 9.34257813 7 10 C5.68 11.32 4.36 12.64 3 14 C2.34 13.67 1.68 13.34 1 13 C1 12.34 1 11.68 1 11 C1.66 10.67 2.32 10.34 3 10 C2.01 6.7 1.02 3.4 0 0 Z " fill="#C3C5C9" transform="translate(136,67)"/>
<path d="M0 0 C0.66 0 1.32 0 2 0 C2 0.66 2 1.32 2 2 C2.99 2.33 3.98 2.66 5 3 C1.88983545 6.28788824 -1.01618925 8.83735988 -5 11 C-5 8 -5 8 -3.125 5.8125 C-1 4 -1 4 1 4 C0.67 2.68 0.34 1.36 0 0 Z " fill="#D1D1D1" transform="translate(158,103)"/>
<path d="M0 0 C0.33 0 0.66 0 1 0 C1 2.31 1 4.62 1 7 C-3.455 6.01 -3.455 6.01 -8 5 C-8 4.01 -8 3.02 -8 2 C-6.865625 1.855625 -5.73125 1.71125 -4.5625 1.5625 C-1.19222799 1.38828522 -1.19222799 1.38828522 0 0 Z " fill="#939393" transform="translate(88,133)"/>
<path d="M0 0 C-2.54456151 2.96865509 -5.48994665 4.3619751 -9 6 C-9 5.01 -9 4.02 -9 3 C-10.98 3 -12.96 3 -15 3 C-10.25420243 0.26203987 -5.40112241 -0.15885654 0 0 Z " fill="#E4E5E4" transform="translate(75,119)"/>
<path d="M0 0 C0.66 0.33 1.32 0.66 2 1 C1.21625 1.7425 0.4325 2.485 -0.375 3.25 C-2.56504531 5.54433318 -3.82731386 7.12158858 -5 10 C-5.99 9.34 -6.98 8.68 -8 8 C-7.9375 6.25 -7.9375 6.25 -7 4 C-4.74876994 2.27481113 -2.59865097 1.23093993 0 0 Z " fill="#4E4E4E" transform="translate(59,128)"/>
<path d="M0 0 C1.65 0 3.3 0 5 0 C4.01 0.495 4.01 0.495 3 1 C2.67 1.99 2.34 2.98 2 4 C-0.90018326 5.61121292 -2.50161669 6.06645111 -5.8125 5.625 C-6.534375 5.41875 -7.25625 5.2125 -8 5 C-6.8125 3.5 -6.8125 3.5 -5 2 C-2.3125 1.8125 -2.3125 1.8125 0 2 C0 1.34 0 0.68 0 0 Z " fill="#BBBCBC" transform="translate(78,114)"/>
<path d="M0 0 C5.841744 -0.35050464 9.8531808 -0.16727335 15 3 C14.67 3.66 14.34 4.32 14 5 C13.34 5 12.68 5 12 5 C11.67 4.34 11.34 3.68 11 3 C8.97536745 2.34786708 8.97536745 2.34786708 7 2 C7 2.66 7 3.32 7 4 C5.68 4.33 4.36 4.66 3 5 C3.33 4.01 3.66 3.02 4 2 C2.68 1.34 1.36 0.68 0 0 Z " fill="#2E2E2C" transform="translate(109,95)"/>
<path d="M0 0 C-4.2403502 3.88698768 -9.39096352 4.89129015 -15 5.125 C-15.66 5.08375 -16.32 5.0425 -17 5 C-16.67 4.34 -16.34 3.68 -16 3 C-13.71484375 2.5859375 -13.71484375 2.5859375 -10.9375 2.375 C-10.01839844 2.30023438 -9.09929687 2.22546875 -8.15234375 2.1484375 C-7.44207031 2.09945312 -6.73179688 2.05046875 -6 2 C-6 1.34 -6 0.68 -6 0 C-3 -1 -3 -1 0 0 Z " fill="#B5B6BA" transform="translate(120,77)"/>
<path d="M0 0 C0 0.66 0 1.32 0 2 C-3.14930893 3.04976964 -5.38814456 3.10131595 -8.6875 3.0625 C-9.68136719 3.05347656 -10.67523438 3.04445312 -11.69921875 3.03515625 C-12.83810547 3.01775391 -12.83810547 3.01775391 -14 3 C-10.17190555 -0.82809445 -5.1539534 -0.10105791 0 0 Z " fill="#C7CACB" transform="translate(99,156)"/>
<path d="M0 0 C0.66 0.33 1.32 0.66 2 1 C0.7934375 1.8971875 0.7934375 1.8971875 -0.4375 2.8125 C-3.22327984 4.80947276 -3.22327984 4.80947276 -4 8 C-4 7.34 -4 6.68 -4 6 C-5.32 5.67 -6.64 5.34 -8 5 C-8 3.68 -8 2.36 -8 1 C-6.865625 1.020625 -5.73125 1.04125 -4.5625 1.0625 C-1.18424326 1.41577477 -1.18424326 1.41577477 0 0 Z " fill="#BEC4C4" transform="translate(48,87)"/>
<path d="M0 0 C0.33 1.65 0.66 3.3 1 5 C0.67 4.34 0.34 3.68 0 3 C-3.3 3 -6.6 3 -10 3 C-10 2.34 -10 1.68 -10 1 C-6.61981469 -0.04005702 -3.5219721 -0.08004482 0 0 Z " fill="#E3E4E9" transform="translate(104,83)"/>
<path d="M0 0 C0.33 0.99 0.66 1.98 1 3 C-1.64 4.98 -4.28 6.96 -7 9 C-6.5047783 5.33535945 -5.9791794 3.29167646 -3 1 C-2.01 0.67 -1.02 0.34 0 0 Z " fill="#7A7A7C" transform="translate(174,115)"/>
<path d="M0 0 C3.63 0 7.26 0 11 0 C11 0.66 11 1.32 11 2 C5.06 2.495 5.06 2.495 -1 3 C-0.67 2.01 -0.34 1.02 0 0 Z " fill="#727572" transform="translate(71,107)"/>
<path d="M0 0 C0.33 0.99 0.66 1.98 1 3 C0.34 3 -0.32 3 -1 3 C-1 3.99 -1 4.98 -1 6 C-2.65 6.33 -4.3 6.66 -6 7 C-6.66 6.01 -7.32 5.02 -8 4 C-5.36 2.68 -2.72 1.36 0 0 Z " fill="#4F5153" transform="translate(125,81)"/>
<path d="M0 0 C0 0.99 0 1.98 0 3 C-0.99 3 -1.98 3 -3 3 C-3.66 4.32 -4.32 5.64 -5 7 C-6.32 7 -7.64 7 -9 7 C-7.4576387 2.93377477 -4.5679954 0 0 0 Z " fill="#E2E7E9" transform="translate(94,65)"/>
<path d="M0 0 C0.5259375 0.7734375 0.5259375 0.7734375 1.0625 1.5625 C3.09468727 3.40146383 3.09468727 3.40146383 6.6875 2.6875 C7.780625 2.460625 8.87375 2.23375 10 2 C10 2.66 10 3.32 10 4 C9.34 4 8.68 4 8 4 C8 4.66 8 5.32 8 6 C6.02 6.33 4.04 6.66 2 7 C0.5393715 4.35261084 0 3.10551666 0 0 Z " fill="#C9CCCF" transform="translate(132,58)"/>
<path d="M0 0 C2.1640625 -0.29296875 2.1640625 -0.29296875 4.625 -0.1875 C5.44226563 -0.16042969 6.25953125 -0.13335937 7.1015625 -0.10546875 C8.04128906 -0.05326172 8.04128906 -0.05326172 9 0 C9 0.66 9 1.32 9 2 C6.59454362 3.20272819 5.05003047 3.10071472 2.375 3.0625 C1.14910156 3.04896484 1.14910156 3.04896484 -0.1015625 3.03515625 C-1.04128906 3.01775391 -1.04128906 3.01775391 -2 3 C-1.34 2.01 -0.68 1.02 0 0 Z " fill="#E6E8EB" transform="translate(107,56)"/>
<path d="M0 0 C-0.33 0.99 -0.66 1.98 -1 3 C-7.435 3.495 -7.435 3.495 -14 4 C-8.8803571 0.16026783 -6.24585509 -0.11784632 0 0 Z " fill="#535355" transform="translate(90,116)"/>
<path d="M0 0 C1.65 0.33 3.3 0.66 5 1 C2.11912454 3.40072955 -0.56404834 5.47291037 -4 7 C-4.33 5.68 -4.66 4.36 -5 3 C-4.360625 2.87625 -3.72125 2.7525 -3.0625 2.625 C-2.0415625 2.315625 -2.0415625 2.315625 -1 2 C-0.67 1.34 -0.34 0.68 0 0 Z " fill="#D1D3D6" transform="translate(117,81)"/>
<path d="M0 0 C1.32 0.33 2.64 0.66 4 1 C4.66 3.31 5.32 5.62 6 8 C4.02 7.34 2.04 6.68 0 6 C0 4.02 0 2.04 0 0 Z " fill="#C5C5C8" transform="translate(54,150)"/>
<path d="M0 0 C0 1.65 0 3.3 0 5 C-3.76687864 5 -4.91190305 4.76462683 -8 3 C-7 1 -7 1 -5.125 0.375 C-3 0 -3 0 0 0 Z " fill="#2A2C29" transform="translate(127,103)"/>
<path d="M0 0 C0 0.66 0 1.32 0 2 C-2.90548882 4.04169485 -4.40142046 5 -8 5 C-8 4.01 -8 3.02 -8 2 C-7.34 2 -6.68 2 -6 2 C-6 1.34 -6 0.68 -6 0 C-3 -1 -3 -1 0 0 Z " fill="#2A2C2C" transform="translate(104,121)"/>
<path d="M0 0 C3.96 0.33 7.92 0.66 12 1 C12 1.99 12 2.98 12 4 C8.37 3.67 4.74 3.34 1 3 C0.67 2.01 0.34 1.02 0 0 Z " fill="#4D4C4D" transform="translate(150,98)"/>
<path d="M0 0 C0.99 0.33 1.98 0.66 3 1 C1.35 1.66 -0.3 2.32 -2 3 C-2 3.66 -2 4.32 -2 5 C-2.66 5 -3.32 5 -4 5 C-4.66 6.32 -5.32 7.64 -6 9 C-6.66 9 -7.32 9 -8 9 C-7.67 7.68 -7.34 6.36 -7 5 C-5.68 4.67 -4.36 4.34 -3 4 C-3 3.34 -3 2.68 -3 2 C-2.01 1.34 -1.02 0.68 0 0 Z " fill="#303230" transform="translate(134,79)"/>
<path d="M0 0 C2.125 0.9375 2.125 0.9375 4 2 C2.25 4 2.25 4 0 6 C-1.32 6 -2.64 6 -4 6 C-2.25 1.125 -2.25 1.125 0 0 Z " fill="#414242" transform="translate(108,95)"/>
<path d="M0 0 C0.66 0.33 1.32 0.66 2 1 C0.76055724 1.86941494 -0.49207059 2.72005457 -1.75 3.5625 C-2.44609375 4.03816406 -3.1421875 4.51382813 -3.859375 5.00390625 C-6 6 -6 6 -8.265625 5.65234375 C-8.83796875 5.43707031 -9.4103125 5.22179687 -10 5 C-8.38007835 4.13624104 -6.75388139 3.28424146 -5.125 2.4375 C-4.22007813 1.96183594 -3.31515625 1.48617187 -2.3828125 0.99609375 C-1.20332031 0.50302734 -1.20332031 0.50302734 0 0 Z " fill="#A5A9AF" transform="translate(78,76)"/>
<path d="M0 0 C0.66 0 1.32 0 2 0 C3.32 2.64 4.64 5.28 6 8 C5.01 8.33 4.02 8.66 3 9 C0 3.375 0 3.375 0 0 Z " fill="#C6C8CC" transform="translate(110,68)"/>
<path d="M0 0 C0.33 1.32 0.66 2.64 1 4 C-2.4019487 6.09350689 -5.05272412 6.17942163 -9 6 C-7.15333916 4.76889277 -5.28212332 3.57269245 -3.375 2.4375 C-1.12552959 1.20512563 -1.12552959 1.20512563 0 0 Z " fill="#606262" transform="translate(151,83)"/>
<path d="M0 0 C-3.68734758 2.45823172 -6.69699971 3.01242616 -11 4 C-11.33 3.01 -11.66 2.02 -12 1 C-7.95858806 0.36605303 -4.0934693 -0.12404452 0 0 Z " fill="#C1C3C8" transform="translate(103,81)"/>
<path d="M0 0 C0 0.99 0 1.98 0 3 C-2.97 3 -5.94 3 -9 3 C-9 2.34 -9 1.68 -9 1 C-6.04335481 -0.4783226 -3.25770263 -0.06032783 0 0 Z " fill="#E5E7EB" transform="translate(115,81)"/>
<path d="M0 0 C0.66 0 1.32 0 2 0 C1.88637738 1.4800841 1.75877092 2.95910074 1.625 4.4375 C1.52058594 5.67306641 1.52058594 5.67306641 1.4140625 6.93359375 C1.27742187 7.61550781 1.14078125 8.29742187 1 9 C0.01 9.495 0.01 9.495 -1 10 C-1.125 3.375 -1.125 3.375 0 0 Z " fill="#2E2E2C" transform="translate(170,72)"/>
<path d="M0 0 C0 3 0 3 -1 5 C-2.98 5 -4.96 5 -7 5 C-4.63707344 2.47411298 -3.33537489 1.11179163 0 0 Z " fill="#747678" transform="translate(65,113)"/>
<path d="M0 0 C0 0.99 0 1.98 0 3 C-1.65 3.66 -3.3 4.32 -5 5 C-5.33 3.68 -5.66 2.36 -6 1 C-4 0 -4 0 0 0 Z " fill="#3F3E41" transform="translate(138,112)"/>
<path d="M0 0 C0.66 0 1.32 0 2 0 C1.67 2.31 1.34 4.62 1 7 C0.01 7.33 -0.98 7.66 -2 8 C-1.125 2.25 -1.125 2.25 0 0 Z " fill="#D0D0D1" transform="translate(22,92)"/>
<path d="M0 0 C0.66 0 1.32 0 2 0 C0.61990379 3.33523252 -0.84950652 5.18607951 -4 7 C-4.99 6.67 -5.98 6.34 -7 6 C-6 4 -6 4 -2.9375 2.875 C-1.4834375 2.441875 -1.4834375 2.441875 0 2 C0 1.34 0 0.68 0 0 Z " fill="#BCBEC2" transform="translate(131,66)"/>
<path d="M0 0 C4.3201636 0.74059947 8.08401322 2.04200661 12 4 C11.01 4.66 10.02 5.32 9 6 C6.03 4.35 3.06 2.7 0 1 C0 0.67 0 0.34 0 0 Z " fill="#262727" transform="translate(99,113)"/>
<path d="M0 0 C0.66 0.33 1.32 0.66 2 1 C1.34 2.98 0.68 4.96 0 7 C-1.32 6.67 -2.64 6.34 -4 6 C-4 5.34 -4 4.68 -4 4 C-3.34 4 -2.68 4 -2 4 C-1.34 2.68 -0.68 1.36 0 0 Z " fill="#2D2E2D" transform="translate(129,95)"/>
<path d="M0 0 C0.99 0.33 1.98 0.66 3 1 C3 2.32 3 3.64 3 5 C4.32 4.67 5.64 4.34 7 4 C6.01 4.99 5.02 5.98 4 7 C3.01 6.67 2.02 6.34 1 6 C0.67 4.02 0.34 2.04 0 0 Z " fill="#BABCBF" transform="translate(50,80)"/>
<path d="M0 0 C1.98 0 3.96 0 6 0 C6 0.99 6 1.98 6 3 C3.69 3 1.38 3 -1 3 C-0.67 2.01 -0.34 1.02 0 0 Z " fill="#4A4D47" transform="translate(156,73)"/>
<path d="M0 0 C-5.2734375 3.22265625 -5.2734375 3.22265625 -7 4 C-7.66 3.67 -8.32 3.34 -9 3 C-8.67 2.01 -8.34 1.02 -8 0 C-4.71303767 -0.79953138 -3.28976808 -1.09658936 0 0 Z " fill="#E7E8ED" transform="translate(86,86)"/>
<path d="M0 0 C-2.46278801 2.46278801 -4.70676982 2.99771255 -8 4 C-8 3.01 -8 2.02 -8 1 C-4.93251126 -0.86240388 -3.40254489 -1.2151946 0 0 Z " fill="#E3E5E9" transform="translate(64,84)"/>
<path d="M0 0 C0 0.66 0 1.32 0 2 C-4.455 2.495 -4.455 2.495 -9 3 C-8 1 -8 1 -6.1875 0.375 C-4 0 -4 0 0 0 Z " fill="#E3E5E9" transform="translate(52,109)"/>
<path d="M0 0 C2.97 0.495 2.97 0.495 6 1 C5.67 1.99 5.34 2.98 5 4 C4.01 4 3.02 4 2 4 C1.67 4.66 1.34 5.32 1 6 C0.67 4.02 0.34 2.04 0 0 Z " fill="#919394" transform="translate(85,107)"/>
<path d="M0 0 C0.66 0.33 1.32 0.66 2 1 C1.67 2.65 1.34 4.3 1 6 C0.01 6 -0.98 6 -2 6 C-1.125 1.125 -1.125 1.125 0 0 Z " fill="#484948" transform="translate(111,102)"/>
<path d="M0 0 C2 3 2 3 2 6 C0.35 5.67 -1.3 5.34 -3 5 C-2.67 4.01 -2.34 3.02 -2 2 C-1.34 2 -0.68 2 0 2 C0 1.34 0 0.68 0 0 Z " fill="#545655" transform="translate(114,87)"/>
<path d="M0 0 C1.32 0.66 2.64 1.32 4 2 C4 2.66 4 3.32 4 4 C1.36 4 -1.28 4 -4 4 C-4 3.34 -4 2.68 -4 2 C-2.68 2 -1.36 2 0 2 C0 1.34 0 0.68 0 0 Z " fill="#E8E7EA" transform="translate(44,76)"/>
<path d="M0 0 C0.66 0 1.32 0 2 0 C2.99 2.64 3.98 5.28 5 8 C4.01 8 3.02 8 2 8 C1.01 5.69 0.02 3.38 -1 1 C-0.67 0.67 -0.34 0.34 0 0 Z " fill="#E3E2E7" transform="translate(56,72)"/>
<path d="M0 0 C0.99 0.66 1.98 1.32 3 2 C2 5 2 5 -0.0625 6.1875 C-0.701875 6.455625 -1.34125 6.72375 -2 7 C-1.34 4.69 -0.68 2.38 0 0 Z " fill="#4D4C4F" transform="translate(137,127)"/>
<path d="M0 0 C2.96 4.44 2.96 4.44 4 7 C3.67 7.99 3.34 8.98 3 10 C-1.06153846 4.58461538 -1.06153846 4.58461538 -0.75 1.625 C-0.5025 1.08875 -0.255 0.5525 0 0 Z " fill="#CBCED1" transform="translate(45,93)"/>
<path d="M0 0 C0.66 0.33 1.32 0.66 2 1 C-0.31 2.65 -2.62 4.3 -5 6 C-5.33 5.01 -5.66 4.02 -6 3 C-5.01 3 -4.02 3 -3 3 C-3 2.34 -3 1.68 -3 1 C-2.01 0.67 -1.02 0.34 0 0 Z " fill="#BDC0C5" transform="translate(89,65)"/>
<path d="M0 0 C0.99 0.33 1.98 0.66 3 1 C1.10646634 2.89353366 -0.84526801 4.4198632 -3 6 C-3.33 5.01 -3.66 4.02 -4 3 C-2.1875 1.4375 -2.1875 1.4375 0 0 Z " fill="#E3E6E9" transform="translate(100,59)"/>
</svg>
