<?xml version="1.0" encoding="UTF-8"?>
<svg version="1.1" xmlns="http://www.w3.org/2000/svg" width="200" height="200">
<path d="M0 0 C66 0 132 0 200 0 C200 66 200 132 200 200 C134 200 68 200 0 200 C0 134 0 68 0 0 Z " fill="#FEFEFE" transform="translate(0,0)"/>
<path d="M0 0 C1.4540625 0.0309375 1.4540625 0.0309375 2.9375 0.0625 C2.36397107 3.93382028 0.45045648 6.14422796 -2.0625 9.0625 C-1.464375 9.10375 -0.86625 9.145 -0.25 9.1875 C3.03020435 10.49958174 3.47969788 12.95674767 4.9375 16.0625 C7.62106975 18.2612727 7.62106975 18.2612727 9.98828125 18.03125 C12.18736315 17.18257686 12.18736315 17.18257686 13.16796875 14.59375 C13.48378906 13.5934375 13.79960938 12.593125 14.125 11.5625 C15.88797619 6.11202381 15.88797619 6.11202381 16.9375 5.0625 C20.4375 4.5625 20.4375 4.5625 23.9375 4.0625 C24.2675 3.7325 24.5975 3.4025 24.9375 3.0625 C27.60808851 2.92134839 30.26182238 3.02002893 32.9375 3.0625 C34.34750664 5.88251327 34.18298451 7.93257255 33.9375 11.0625 C32.4375 13.9375 32.4375 13.9375 30.9375 16.0625 C31.55625 16.289375 32.175 16.51625 32.8125 16.75 C35.55160209 18.44179835 35.98774472 20.05494161 36.9375 23.0625 C38.9175 22.4025 40.8975 21.7425 42.9375 21.0625 C43.02 20.36125 43.1025 19.66 43.1875 18.9375 C44.15700815 15.22105211 45.38802146 12.94743625 47.9375 10.0625 C51.6875 9.6875 51.6875 9.6875 54.9375 10.0625 C55.2675 9.0725 55.5975 8.0825 55.9375 7.0625 C58.5775 7.0625 61.2175 7.0625 63.9375 7.0625 C64.18774631 13.56890394 64.18774631 13.56890394 62.9453125 16.01953125 C61.20967864 19.5378898 61.57581771 23.22310343 61.9375 27.0625 C62.2675 27.866875 62.5975 28.67125 62.9375 29.5 C64.26769045 32.90861302 64.03128719 35.87380996 63.91796875 39.5 C63.93656173 41.93939866 64.29554623 44.0015079 64.8125 46.375 C64.9375 50.0625 64.9375 50.0625 63.7734375 51.6328125 C58.96486043 55.77813756 55.08862948 56.27460791 48.9375 56.0625 C48.17824219 55.83433594 47.41898438 55.60617188 46.63671875 55.37109375 C42.80144043 54.93261765 40.550253 56.30467276 37.125 58 C35.96355469 58.56589844 34.80210937 59.13179687 33.60546875 59.71484375 C32.72503906 60.15957031 31.84460938 60.60429688 30.9375 61.0625 C33.33200005 54.1126096 38.30533424 51.33548285 44.6953125 48.1484375 C45.36151611 47.81303955 46.02771973 47.4776416 46.71411133 47.13208008 C48.04736 46.47257045 49.39093085 45.83343961 50.74487305 45.2175293 C54.28415868 43.48040915 56.29037027 42.01814105 57.82421875 38.43359375 C58.19160156 37.32113281 58.55898437 36.20867187 58.9375 35.0625 C59.2675 34.4025 59.5975 33.7425 59.9375 33.0625 C59.09832031 33.62517578 59.09832031 33.62517578 58.2421875 34.19921875 C52.27460997 38.00810666 46.35490151 40.50270265 39.66796875 42.78515625 C20.58469429 49.14862818 20.58469429 49.14862818 7.9375 64.0625 C6.85316215 66.37546259 5.87848954 68.68526328 4.9375 71.0625 C-12.51491522 73.31442454 -30.31907469 72.84939815 -47.0625 67.0625 C-39.59416607 76.07600647 -26.33789199 79.70037211 -15.0625 81.0625 C12.14262045 83.30030076 12.14262045 83.30030076 36.75 74.0625 C38.16033895 72.74451953 39.55767242 71.41239049 40.9375 70.0625 C43.37548857 67.80008674 44.33906484 67.08022516 47.70703125 66.98046875 C49.21330078 67.11388672 49.21330078 67.11388672 50.75 67.25 C55.06191094 67.36015831 57.54585386 67.27534043 60.875 64.4375 C61.9335011 63.34786652 62.9557681 62.22177916 63.9375 61.0625 C64.69546875 60.20398438 64.69546875 60.20398438 65.46875 59.328125 C66.6614293 57.93666582 67.80524317 56.50355415 68.9375 55.0625 C70.9375 56.0625 70.9375 56.0625 72.0625 59.1875 C72.91505199 62.96308738 73.09479024 66.20888912 72.9375 70.0625 C62.96524378 75.62395059 52.73166502 77.15683589 41.50390625 78.5390625 C38.48399887 78.98229097 35.73202214 79.57691186 32.8125 80.4375 C17.05982969 85.00484228 1.28602704 86.85858289 -15.0625 87.0625 C-16.09730499 87.07733429 -16.09730499 87.07733429 -17.15301514 87.09246826 C-21.96823456 87.16060632 -26.78322026 87.20839372 -31.59884644 87.23571777 C-33.23259081 87.24518887 -34.86632287 87.25712514 -36.50003052 87.27160645 C-38.81263147 87.28945045 -41.12483833 87.293238 -43.4375 87.29296875 C-44.13250107 87.30009384 -44.82750214 87.30721893 -45.54356384 87.31455994 C-49.49273222 87.29632874 -52.5043758 86.79562589 -56.0625 85.0625 C-55.5675 83.5775 -55.5675 83.5775 -55.0625 82.0625 C-52.0925 81.0725 -52.0925 81.0725 -49.0625 80.0625 C-57.9725 80.0625 -66.8825 80.0625 -76.0625 80.0625 C-76.3925 79.4025 -76.7225 78.7425 -77.0625 78.0625 C-72.61889631 75.19565891 -67.90669638 73.14159954 -63.0625 71.0625 C-63.0625 70.7325 -63.0625 70.4025 -63.0625 70.0625 C-64.22007813 69.80855469 -65.37765625 69.55460937 -66.5703125 69.29296875 C-68.1094671 68.94572046 -69.64852453 68.59804133 -71.1875 68.25 C-71.94804688 68.08435547 -72.70859375 67.91871094 -73.4921875 67.74804688 C-83.71154853 65.41345147 -83.71154853 65.41345147 -87.0625 62.0625 C-87.046875 59.91796875 -87.046875 59.91796875 -86.8125 57.25 C-86.74546875 56.37730469 -86.6784375 55.50460938 -86.609375 54.60546875 C-85.97058879 51.63511288 -85.09335363 50.3065309 -83.0625 48.0625 C-80.95117188 47.17602539 -80.95117188 47.17602539 -78.53125 46.59765625 C-72.93011661 45.09255518 -67.82539225 42.91478514 -62.5625 40.5 C-61.67046875 40.10103516 -60.7784375 39.70207031 -59.859375 39.29101562 C-55.0954501 37.22610585 -55.0954501 37.22610585 -51.0625 34.0625 C-50.0725 34.0625 -49.0825 34.0625 -48.0625 34.0625 C-47.97613281 33.46824219 -47.88976563 32.87398437 -47.80078125 32.26171875 C-46.85668258 29.44940365 -45.63603177 28.59701551 -43.25 26.875 C-42.56292969 26.36582031 -41.87585938 25.85664062 -41.16796875 25.33203125 C-39.0625 24.0625 -39.0625 24.0625 -36.86328125 23.57421875 C-36.26902344 23.40535156 -35.67476562 23.23648438 -35.0625 23.0625 C-34.5675 21.5775 -34.5675 21.5775 -34.0625 20.0625 C-32.7425 20.0625 -31.4225 20.0625 -30.0625 20.0625 C-30.0625 19.4025 -30.0625 18.7425 -30.0625 18.0625 C-29.49660156 17.95292969 -28.93070313 17.84335938 -28.34765625 17.73046875 C-27.61417969 17.57191406 -26.88070312 17.41335937 -26.125 17.25 C-25.39410156 17.09917969 -24.66320312 16.94835937 -23.91015625 16.79296875 C-22.99556641 16.43138672 -22.99556641 16.43138672 -22.0625 16.0625 C-21.7325 15.0725 -21.4025 14.0825 -21.0625 13.0625 C-19.0625 12.39583333 -17.0625 11.72916667 -15.0625 11.0625 C-14.381875 10.36125 -13.70125 9.66 -13 8.9375 C-11.0625 7.0625 -11.0625 7.0625 -8.3125 6.8125 C-7.57 6.895 -6.8275 6.9775 -6.0625 7.0625 C-5.5984375 5.6084375 -5.5984375 5.6084375 -5.125 4.125 C-3.72021812 0.07592282 -3.72021812 0.07592282 0 0 Z " fill="#2C2D2A" transform="translate(107.0625,57.9375)"/>
<path d="M0 0 C1.4540625 0.0309375 1.4540625 0.0309375 2.9375 0.0625 C2.36397107 3.93382028 0.45045648 6.14422796 -2.0625 9.0625 C-1.464375 9.10375 -0.86625 9.145 -0.25 9.1875 C3.03020435 10.49958174 3.47969788 12.95674767 4.9375 16.0625 C7.62106975 18.2612727 7.62106975 18.2612727 9.98828125 18.03125 C12.18736315 17.18257686 12.18736315 17.18257686 13.16796875 14.59375 C13.48378906 13.5934375 13.79960938 12.593125 14.125 11.5625 C15.88797619 6.11202381 15.88797619 6.11202381 16.9375 5.0625 C20.4375 4.5625 20.4375 4.5625 23.9375 4.0625 C24.2675 3.7325 24.5975 3.4025 24.9375 3.0625 C27.60808851 2.92134839 30.26182238 3.02002893 32.9375 3.0625 C34.38180855 5.95111709 34.31438506 7.85897701 33.9375 11.0625 C31.6875 13.9375 31.6875 13.9375 28.9375 16.0625 C27.6175 16.0625 26.2975 16.0625 24.9375 16.0625 C24.9375 15.4025 24.9375 14.7425 24.9375 14.0625 C19.64249087 15.42407378 17.70004467 18.66593955 14.9375 23.0625 C15.97197266 23.10117188 15.97197266 23.10117188 17.02734375 23.140625 C23.77530068 23.54790909 28.96825996 24.89364418 34.9375 28.0625 C34.9375 28.7225 34.9375 29.3825 34.9375 30.0625 C26.36607143 29.0625 26.36607143 29.0625 22.9375 28.0625 C22.9375 28.7225 22.9375 29.3825 22.9375 30.0625 C24.2575 30.7225 25.5775 31.3825 26.9375 32.0625 C26.9375 32.7225 26.9375 33.3825 26.9375 34.0625 C22.9775 34.0625 19.0175 34.0625 14.9375 34.0625 C14.9375 35.3825 14.9375 36.7025 14.9375 38.0625 C12.76875748 37.55646008 10.93782373 37.06266187 8.9375 36.0625 C8.855 36.68125 8.7725 37.3 8.6875 37.9375 C7.9375 40.0625 7.9375 40.0625 6.1875 41.375 C3.42429971 42.2193112 1.68944864 41.82693018 -1.0625 41.0625 C-1.0625 42.0525 -1.0625 43.0425 -1.0625 44.0625 C-6.71644631 44.40865998 -10.09256806 43.49675238 -15.0625 41.0625 C-15.0625 40.4025 -15.0625 39.7425 -15.0625 39.0625 C-15.75214844 39.44921875 -16.44179687 39.8359375 -17.15234375 40.234375 C-25.32141953 44.76154457 -32.94284883 48.96774548 -42.21484375 50.5703125 C-44.29267769 50.95850167 -44.29267769 50.95850167 -46.0625 53.0625 C-48.04498715 53.77956982 -50.04665349 54.44540413 -52.0625 55.0625 C-53.0525 55.3925 -54.0425 55.7225 -55.0625 56.0625 C-55.0625 57.0525 -55.0625 58.0425 -55.0625 59.0625 C-54.4025 59.3925 -53.7425 59.7225 -53.0625 60.0625 C-54.5475 60.5575 -54.5475 60.5575 -56.0625 61.0625 C-56.3925 61.7225 -56.7225 62.3825 -57.0625 63.0625 C-57.0625 62.4025 -57.0625 61.7425 -57.0625 61.0625 C-57.77535156 61.01351562 -58.48820312 60.96453125 -59.22265625 60.9140625 C-64.76758491 60.48121477 -69.78336449 59.82221184 -75.0625 58.0625 C-75.7225 58.7225 -76.3825 59.3825 -77.0625 60.0625 C-79.2265625 60.2578125 -79.2265625 60.2578125 -81.6875 60.1875 C-82.50476563 60.16945312 -83.32203125 60.15140625 -84.1640625 60.1328125 C-84.79054688 60.10960937 -85.41703125 60.08640625 -86.0625 60.0625 C-86.47332183 51.84606346 -86.47332183 51.84606346 -83.0625 48.0625 C-80.95117188 47.17602539 -80.95117188 47.17602539 -78.53125 46.59765625 C-72.93011661 45.09255518 -67.82539225 42.91478514 -62.5625 40.5 C-61.67046875 40.10103516 -60.7784375 39.70207031 -59.859375 39.29101562 C-55.0954501 37.22610585 -55.0954501 37.22610585 -51.0625 34.0625 C-50.0725 34.0625 -49.0825 34.0625 -48.0625 34.0625 C-47.97613281 33.46824219 -47.88976563 32.87398437 -47.80078125 32.26171875 C-46.85668258 29.44940365 -45.63603177 28.59701551 -43.25 26.875 C-42.56292969 26.36582031 -41.87585938 25.85664062 -41.16796875 25.33203125 C-39.0625 24.0625 -39.0625 24.0625 -36.86328125 23.57421875 C-36.26902344 23.40535156 -35.67476562 23.23648438 -35.0625 23.0625 C-34.5675 21.5775 -34.5675 21.5775 -34.0625 20.0625 C-32.7425 20.0625 -31.4225 20.0625 -30.0625 20.0625 C-30.0625 19.4025 -30.0625 18.7425 -30.0625 18.0625 C-29.49660156 17.95292969 -28.93070313 17.84335938 -28.34765625 17.73046875 C-27.61417969 17.57191406 -26.88070312 17.41335937 -26.125 17.25 C-25.39410156 17.09917969 -24.66320312 16.94835937 -23.91015625 16.79296875 C-22.99556641 16.43138672 -22.99556641 16.43138672 -22.0625 16.0625 C-21.7325 15.0725 -21.4025 14.0825 -21.0625 13.0625 C-19.0625 12.39583333 -17.0625 11.72916667 -15.0625 11.0625 C-14.381875 10.36125 -13.70125 9.66 -13 8.9375 C-11.0625 7.0625 -11.0625 7.0625 -8.3125 6.8125 C-7.57 6.895 -6.8275 6.9775 -6.0625 7.0625 C-5.5984375 5.6084375 -5.5984375 5.6084375 -5.125 4.125 C-3.72021812 0.07592282 -3.72021812 0.07592282 0 0 Z " fill="#2A2A28" transform="translate(107.0625,57.9375)"/>
<path d="M0 0 C0.66 0 1.32 0 2 0 C1.22051237 4.21028184 0.35244123 7.81330908 -2.94824219 10.70947266 C-5.37395824 12.2065704 -7.8278306 13.53317843 -10.375 14.8125 C-12.0722182 15.71125419 -13.76758756 16.6135099 -15.4609375 17.51953125 C-16.64574707 18.14915771 -16.64574707 18.14915771 -17.85449219 18.79150391 C-20.49654098 20.27968569 -22.79895128 21.91217395 -25 24 C-25 24.66 -25 25.32 -25 26 C-23.89591797 25.44119141 -23.89591797 25.44119141 -22.76953125 24.87109375 C-21.79371094 24.39800781 -20.81789063 23.92492187 -19.8125 23.4375 C-18.84957031 22.96183594 -17.88664062 22.48617187 -16.89453125 21.99609375 C-13.6606239 20.88321066 -12.23235801 21.0818385 -9 22 C-3.72520012 22.38362181 -0.53704922 21.74333208 4 19 C5.95216435 17.04783565 6.84826645 15.46800047 8 13 C10 14 10 14 11.625 17.5 C12.13671875 19.671875 12.13671875 19.671875 12 22 C9.81674264 25.52547098 7.0219931 28.18794427 4 31 C3.2575 31.845625 2.515 32.69125 1.75 33.5625 C-1.52155808 35.27263263 -2.82274729 34.90630739 -6.4375 34.5625 C-12.70303437 34.28742776 -15.25452292 36.33910813 -19.6875 40.3125 C-27.1805508 46.79469778 -34.2371891 48.50287634 -44 49 C-45.08361816 49.05752441 -46.16723633 49.11504883 -47.28369141 49.17431641 C-65.81272294 49.99069578 -87.56290936 50.1937423 -103 38 C-104.27734375 35.81640625 -104.27734375 35.81640625 -105 34 C-104.16082031 34.18175781 -104.16082031 34.18175781 -103.3046875 34.3671875 C-86.47040387 37.88560691 -70.09258189 39.20549444 -53 37 C-52.74347656 36.2265625 -52.48695312 35.453125 -52.22265625 34.65625 C-48.77654421 25.28096877 -44.59859921 19.87124422 -35.65625 15.28515625 C-30.53108419 13.0066858 -25.41009447 11.0420316 -20 9.5625 C-13.82112867 7.86047367 -4.59806156 4.59806156 0 0 Z " fill="#D0D1D0" transform="translate(165,91)"/>
<path d="M0 0 C2 1 2 1 3.125 4.125 C3.97755199 7.90058738 4.15729024 11.14638912 4 15 C-5.97225622 20.56145059 -16.20583498 22.09433589 -27.43359375 23.4765625 C-30.45350113 23.91979097 -33.20547786 24.51441186 -36.125 25.375 C-51.87767031 29.94234228 -67.65147296 31.79608289 -84 32 C-85.03480499 32.01483429 -85.03480499 32.01483429 -86.09051514 32.02996826 C-90.90573456 32.09810632 -95.72072026 32.14589372 -100.53634644 32.17321777 C-102.17009081 32.18268887 -103.80382287 32.19462514 -105.43753052 32.20910645 C-107.75013147 32.22695045 -110.06233833 32.230738 -112.375 32.23046875 C-113.07000107 32.23759384 -113.76500214 32.24471893 -114.48106384 32.25205994 C-118.43023222 32.23382874 -121.4418758 31.73312589 -125 30 C-124.67 29.01 -124.34 28.02 -124 27 C-122.02 26.34 -120.04 25.68 -118 25 C-126.91 25 -135.82 25 -145 25 C-145.33 24.34 -145.66 23.68 -146 23 C-141.55639631 20.13315891 -136.84419638 18.07909954 -132 16 C-132 15.67 -132 15.34 -132 15 C-133.15757812 14.74605469 -134.31515625 14.49210937 -135.5078125 14.23046875 C-137.0469671 13.88322046 -138.58602453 13.53554133 -140.125 13.1875 C-140.88554687 13.02185547 -141.64609375 12.85621094 -142.4296875 12.68554688 C-152.64904853 10.35095147 -152.64904853 10.35095147 -156 7 C-156.04080783 5.00041636 -156.04254356 2.99954746 -156 1 C-155.4740625 1.7425 -155.4740625 1.7425 -154.9375 2.5 C-152.00564656 4.76982201 -149.59104465 4.3264586 -146 4 C-145.34 3.34 -144.68 2.68 -144 2 C-142.16821289 2.15600586 -142.16821289 2.15600586 -139.97265625 2.71484375 C-139.18052734 2.90626953 -138.38839844 3.09769531 -137.57226562 3.29492188 C-136.32993164 3.61299805 -136.32993164 3.61299805 -135.0625 3.9375 C-133.43020507 4.34972147 -131.79613125 4.75497858 -130.16015625 5.15234375 C-129.43449463 5.33788818 -128.70883301 5.52343262 -127.96118164 5.71459961 C-125.79180366 6.1803509 -125.79180366 6.1803509 -123 5 C-123.495 4.01 -123.495 4.01 -124 3 C-121.125 3.3125 -121.125 3.3125 -118 4 C-116 7 -116 7 -116 11 C-115.34 11.33 -114.68 11.66 -114 12 C-114.66 12 -115.32 12 -116 12 C-108.53166607 21.01350647 -95.27539199 24.63787211 -84 26 C-56.79487955 28.23780076 -56.79487955 28.23780076 -32.1875 19 C-30.77716105 17.68201953 -29.37982758 16.34989049 -28 15 C-25.56201143 12.73758674 -24.59843516 12.01772516 -21.23046875 11.91796875 C-20.22628906 12.00691406 -19.22210938 12.09585938 -18.1875 12.1875 C-13.87558906 12.29765831 -11.39164614 12.21284043 -8.0625 9.375 C-7.0039989 8.28536652 -5.9817319 7.15927916 -5 6 C-4.24203125 5.14148438 -4.24203125 5.14148438 -3.46875 4.265625 C-2.2760707 2.87416582 -1.13225683 1.44105415 0 0 Z " fill="#353534" transform="translate(176,113)"/>
<path d="M0 0 C2.05078125 0.03255208 4.1015625 0.06510417 6.15234375 0.09765625 C7.5966523 2.98627334 7.52922881 4.89413326 7.15234375 8.09765625 C4.90234375 10.97265625 4.90234375 10.97265625 2.15234375 13.09765625 C0.83234375 13.09765625 -0.48765625 13.09765625 -1.84765625 13.09765625 C-1.84765625 12.43765625 -1.84765625 11.77765625 -1.84765625 11.09765625 C-7.14266538 12.45923003 -9.08511158 15.7010958 -11.84765625 20.09765625 C-10.81318359 20.13632813 -10.81318359 20.13632813 -9.7578125 20.17578125 C-3.00985557 20.58306534 2.18310371 21.92880043 8.15234375 25.09765625 C8.15234375 25.75765625 8.15234375 26.41765625 8.15234375 27.09765625 C-0.41908482 26.09765625 -0.41908482 26.09765625 -3.84765625 25.09765625 C-3.84765625 25.75765625 -3.84765625 26.41765625 -3.84765625 27.09765625 C-2.52765625 27.75765625 -1.20765625 28.41765625 0.15234375 29.09765625 C0.15234375 29.75765625 0.15234375 30.41765625 0.15234375 31.09765625 C-3.80765625 31.09765625 -7.76765625 31.09765625 -11.84765625 31.09765625 C-11.84765625 32.41765625 -11.84765625 33.73765625 -11.84765625 35.09765625 C-14.01639877 34.59161633 -15.84733252 34.09781812 -17.84765625 33.09765625 C-17.93015625 33.71640625 -18.01265625 34.33515625 -18.09765625 34.97265625 C-18.84765625 37.09765625 -18.84765625 37.09765625 -20.59765625 38.41015625 C-23.36085654 39.25446745 -25.09570761 38.86208643 -27.84765625 38.09765625 C-27.84765625 39.08765625 -27.84765625 40.07765625 -27.84765625 41.09765625 C-30.15765625 41.09765625 -32.46765625 41.09765625 -34.84765625 41.09765625 C-34.84765625 37.09765625 -34.84765625 37.09765625 -33.84765625 34.09765625 C-35.16765625 34.09765625 -36.48765625 34.09765625 -37.84765625 34.09765625 C-37.84765625 33.43765625 -37.84765625 32.77765625 -37.84765625 32.09765625 C-33.37337701 32.00817067 -29.24201836 32.24021974 -24.84765625 33.09765625 C-24.51765625 32.43765625 -24.18765625 31.77765625 -23.84765625 31.09765625 C-25.82765625 30.76765625 -27.80765625 30.43765625 -29.84765625 30.09765625 C-29.51765625 29.10765625 -29.18765625 28.11765625 -28.84765625 27.09765625 C-25.21765625 26.76765625 -21.58765625 26.43765625 -17.84765625 26.09765625 C-18.83765625 25.43765625 -19.82765625 24.77765625 -20.84765625 24.09765625 C-19.85765625 23.76765625 -18.86765625 23.43765625 -17.84765625 23.09765625 C-17.84765625 21.11765625 -17.84765625 19.13765625 -17.84765625 17.09765625 C-16.52765625 17.42765625 -15.20765625 17.75765625 -13.84765625 18.09765625 C-13.81027344 17.36160156 -13.77289063 16.62554687 -13.734375 15.8671875 C-13.02046078 5.27046078 -13.02046078 5.27046078 -9.84765625 2.09765625 C-6.22265625 1.34765625 -6.22265625 1.34765625 -2.84765625 1.09765625 C-1.84765625 0.09765625 -1.84765625 0.09765625 0 0 Z " fill="#21211F" transform="translate(133.84765625,60.90234375)"/>
<path d="M0 0 C2 1 2 1 3.125 4.125 C3.97755199 7.90058738 4.15729024 11.14638912 4 15 C-5.95772979 20.5533493 -16.17717411 22.09567438 -27.390625 23.46875 C-32.40303518 24.20650734 -37.14503724 25.58585976 -42 27 C-51.78896987 29.83914962 -61.90788347 29.19097164 -72 29 C-72 28.67 -72 28.34 -72 28 C-70.45505859 27.83564453 -70.45505859 27.83564453 -68.87890625 27.66796875 C-65.05756855 27.25046983 -61.24319845 26.78676488 -57.4296875 26.30322266 C-55.85009195 26.10609066 -54.26936274 25.91777245 -52.6875 25.73974609 C-42.43793714 24.55864412 -35.57814659 22.41372921 -28 15 C-25.56201143 12.73758674 -24.59843516 12.01772516 -21.23046875 11.91796875 C-20.22628906 12.00691406 -19.22210938 12.09585938 -18.1875 12.1875 C-13.87558906 12.29765831 -11.39164614 12.21284043 -8.0625 9.375 C-7.0039989 8.28536652 -5.9817319 7.15927916 -5 6 C-4.24203125 5.14148438 -4.24203125 5.14148438 -3.46875 4.265625 C-2.2760707 2.87416582 -1.13225683 1.44105415 0 0 Z " fill="#2F2F2F" transform="translate(176,113)"/>
<path d="M0 0 C5.28 1.32 10.56 2.64 16 4 C12.31842655 6.76118009 9.18269728 8.20741545 5 10 C3.68 10.99 2.36 11.98 1 13 C10.57 13 20.14 13 30 13 C26.52502752 15.60622936 25.73812781 16.09769329 22 17 C21.67 17.66 21.34 18.32 21 19 C24.41799762 19.7716179 27.5643815 20.12257266 31.06567383 20.11352539 C32.53663261 20.11341209 32.53663261 20.11341209 34.03730774 20.11329651 C35.0833165 20.10813522 36.12932526 20.10297394 37.20703125 20.09765625 C38.82782845 20.09553383 38.82782845 20.09553383 40.48136902 20.09336853 C43.92510776 20.0877808 47.36878098 20.0752305 50.8125 20.0625 C53.15038968 20.05748342 55.48828039 20.05292079 57.82617188 20.04882812 C63.55080353 20.03781538 69.27539708 20.02108941 75 20 C75 20.33 75 20.66 75 21 C60.43662929 22.7828828 45.99630816 24.30011445 31.3125 24.375 C30.20342285 24.38853516 29.0943457 24.40207031 27.95166016 24.41601562 C26.93249512 24.41021484 25.91333008 24.40441406 24.86328125 24.3984375 C23.52197144 24.39336182 23.52197144 24.39336182 22.15356445 24.38818359 C21.08755005 24.19603271 21.08755005 24.19603271 20 24 C19.34 23.01 18.68 22.02 18 21 C17.01 20.67 16.02 20.34 15 20 C14.3125 17.9375 14.3125 17.9375 14 16 C13.37432129 15.97494385 12.74864258 15.9498877 12.10400391 15.92407227 C9.27745381 15.80824727 6.45124831 15.68546015 3.625 15.5625 C2.64015625 15.52318359 1.6553125 15.48386719 0.640625 15.44335938 C-0.30039062 15.40146484 -1.24140625 15.35957031 -2.2109375 15.31640625 C-3.08024902 15.27974854 -3.94956055 15.24309082 -4.84521484 15.20532227 C-7 15 -7 15 -9 14 C-8.33333333 11.33333333 -7.66666667 8.66666667 -7 6 C-3.535 5.505 -3.535 5.505 0 5 C0 3.35 0 1.7 0 0 Z " fill="#E0E0E0" transform="translate(30,124)"/>
<path d="M0 0 C1.4540625 0.0309375 1.4540625 0.0309375 2.9375 0.0625 C2.36397107 3.93382028 0.45045648 6.14422796 -2.0625 9.0625 C-1.464375 9.10375 -0.86625 9.145 -0.25 9.1875 C3.03020435 10.49958174 3.47969788 12.95674767 4.9375 16.0625 C7.71864056 18.39641203 7.71864056 18.39641203 10.625 17.6875 C11.7696875 17.378125 11.7696875 17.378125 12.9375 17.0625 C12.9375 18.3825 12.9375 19.7025 12.9375 21.0625 C11.9475 21.18625 10.9575 21.31 9.9375 21.4375 C7.16376492 21.82492454 4.51697729 22.40003555 1.8125 23.125 C-1.37571027 23.89634119 -3.8249802 24.26484499 -7.0625 24.0625 C-7.3925 23.0725 -7.7225 22.0825 -8.0625 21.0625 C-9.0525 20.7325 -10.0425 20.4025 -11.0625 20.0625 C-6.90111737 19.98090426 -3.1152516 20.08001476 0.9375 21.0625 C0.9375 20.4025 0.9375 19.7425 0.9375 19.0625 C-1.7025 18.7325 -4.3425 18.4025 -7.0625 18.0625 C-7.0625 17.0725 -7.0625 16.0825 -7.0625 15.0625 C-7.65417969 15.15789062 -8.24585937 15.25328125 -8.85546875 15.3515625 C-13.50630225 16.00404485 -16.78564374 16.40787279 -21.0625 14.0625 C-21.0625 13.7325 -21.0625 13.4025 -21.0625 13.0625 C-20.155 12.815 -19.2475 12.5675 -18.3125 12.3125 C-15.00604029 11.30177112 -15.00604029 11.30177112 -13 8.9375 C-11.0625 7.0625 -11.0625 7.0625 -8.3125 6.8125 C-7.57 6.895 -6.8275 6.9775 -6.0625 7.0625 C-5.753125 6.093125 -5.44375 5.12375 -5.125 4.125 C-3.72021812 0.07592282 -3.72021812 0.07592282 0 0 Z " fill="#333431" transform="translate(107.0625,57.9375)"/>
<path d="M0 0 C2.64 0 5.28 0 8 0 C8.2512673 6.53294972 8.2512673 6.53294972 6.9765625 8.90234375 C5.72872138 11.58270648 6.0015986 13.38550346 6.25 16.3125 C6.34046441 20.54171103 5.99450471 22.79653939 3.25 26.0625 C1.0561214 28.32839986 -1.07855893 29.79806854 -4 31 C-4.99 31 -5.98 31 -7 31 C-6.67 28.36 -6.34 25.72 -6 23 C-5.01 23 -4.02 23 -3 23 C-2.34 17.72 -1.68 12.44 -1 7 C-8.16794971 7.4452998 -8.16794971 7.4452998 -11 9 C-9.125 4.125 -9.125 4.125 -8 3 C-5.66702567 2.95907063 -3.33294775 2.95758277 -1 3 C-0.67 2.01 -0.34 1.02 0 0 Z " fill="#222320" transform="translate(163,65)"/>
<path d="M0 0 C0 0.66 0 1.32 0 2 C1.98 1.34 3.96 0.68 6 0 C6 0.66 6 1.32 6 2 C6.61875 2.268125 7.2375 2.53625 7.875 2.8125 C10 4 10 4 12 7 C12 7.99 12 8.98 12 10 C12.66 10 13.32 10 14 10 C17 13.46153846 17 13.46153846 17 16 C15.0429132 16.67031719 13.08428887 17.33614683 11.125 18 C10.03445312 18.37125 8.94390625 18.7425 7.8203125 19.125 C5 20 5 20 3 20 C3 19.01 3 18.02 3 17 C1.02 17 -0.96 17 -3 17 C-2.67 16.01 -2.34 15.02 -2 14 C6.57142857 15 6.57142857 15 10 16 C10 15.34 10 14.68 10 14 C3.42736799 11.56569185 -3.08336373 10.09890483 -10 9 C-7.90491415 3.41001431 -6.41810416 0 0 0 Z " fill="#2E2F2C" transform="translate(132,72)"/>
<path d="M0 0 C0 0.99 0 1.98 0 3 C-0.99 3.33 -1.98 3.66 -3 4 C-3.33 4.66 -3.66 5.32 -4 6 C8.87 6.495 8.87 6.495 22 7 C22 7.66 22 8.32 22 9 C21.360625 9.268125 20.72125 9.53625 20.0625 9.8125 C17.66868314 10.88667752 17.66868314 10.88667752 17 14 C19.31 14 21.62 14 24 14 C24 14.66 24 15.32 24 16 C31.26 16 38.52 16 46 16 C46 16.33 46 16.66 46 17 C40.9646141 17.04954963 35.9293711 17.08579037 30.89379883 17.10986328 C29.18185961 17.11990208 27.46993745 17.13353595 25.75805664 17.15087891 C23.29308858 17.17522073 20.82834785 17.18650438 18.36328125 17.1953125 C17.22080681 17.21079636 17.22080681 17.21079636 16.05525208 17.22659302 C11.91917259 17.22746036 8.7187941 16.85778997 5 15 C5.33 14.01 5.66 13.02 6 12 C7.98 11.34 9.96 10.68 12 10 C3.09 10 -5.82 10 -15 10 C-15.33 9.34 -15.66 8.68 -16 8 C-12.15858728 5.52166922 -8.16945788 3.6802019 -3.98828125 1.8671875 C-2.64278038 1.28034822 -1.31293654 0.65646827 0 0 Z " fill="#696969" transform="translate(46,128)"/>
<path d="M0 0 C0.99 1.485 0.99 1.485 2 3 C0.68 3.33 -0.64 3.66 -2 4 C-2.33 3.34 -2.66 2.68 -3 2 C-3.70125 2.78375 -4.4025 3.5675 -5.125 4.375 C-8.10691113 7.09761451 -10.16390311 7.95379176 -14 9 C-14.33 9.33 -14.66 9.66 -15 10 C-16.51928038 10.07179964 -18.04167482 10.08392007 -19.5625 10.0625 C-20.38878906 10.05347656 -21.21507813 10.04445313 -22.06640625 10.03515625 C-22.70449219 10.02355469 -23.34257813 10.01195313 -24 10 C-24 9.34 -24 8.68 -24 8 C-22.35 7.67 -20.7 7.34 -19 7 C-19.99 6.34 -20.98 5.68 -22 5 C-21.75 3.125 -21.75 3.125 -21 1 C-15.10615328 -2.74084335 -6.15701689 -3.15744456 0 0 Z " fill="#1F1F1D" transform="translate(87,82)"/>
<path d="M0 0 C1.32 0.66 2.64 1.32 4 2 C3.67 2.99 3.34 3.98 3 5 C6.02038089 5.33794471 9.04119756 5.67048433 12.0625 6 C12.91005859 6.09539062 13.75761719 6.19078125 14.63085938 6.2890625 C19.45472589 6.81056158 24.14836264 7.10532727 29 7 C28.505 6.01 28.505 6.01 28 5 C34.6 5 41.2 5 48 5 C48 5.99 48 6.98 48 8 C45.21938025 8.92687325 43.57948141 9.12193396 40.7121582 9.11352539 C39.85149246 9.11344986 38.99082672 9.11337433 38.1040802 9.11329651 C37.17899155 9.10813522 36.25390289 9.10297394 35.30078125 9.09765625 C34.35059616 9.0962413 33.40041107 9.09482635 32.4214325 9.09336853 C29.38508971 9.08776875 26.34882052 9.07521632 23.3125 9.0625 C21.25455836 9.05748497 19.19661556 9.05292207 17.13867188 9.04882812 C12.09241954 9.0377994 7.04622225 9.02053493 2 9 C2 8.34 2 7.68 2 7 C-0.31 7 -2.62 7 -5 7 C-4.67 5.68 -4.34 4.36 -4 3 C-2.68 2.67 -1.36 2.34 0 2 C0 1.34 0 0.68 0 0 Z " fill="#565656" transform="translate(68,135)"/>
<path d="M0 0 C1.4540625 0.0309375 1.4540625 0.0309375 2.9375 0.0625 C2.36397107 3.93382028 0.45045648 6.14422796 -2.0625 9.0625 C-1.0725 9.3925 -0.0825 9.7225 0.9375 10.0625 C-0.01125 10.51625 -0.96 10.97 -1.9375 11.4375 C-5.06563679 12.86488254 -5.06563679 12.86488254 -7.0625 15.0625 C-12.05315483 16.27829803 -16.44815925 16.59294493 -21.0625 14.0625 C-21.0625 13.7325 -21.0625 13.4025 -21.0625 13.0625 C-20.155 12.815 -19.2475 12.5675 -18.3125 12.3125 C-15.00604029 11.30177112 -15.00604029 11.30177112 -13 8.9375 C-11.0625 7.0625 -11.0625 7.0625 -8.3125 6.8125 C-7.57 6.895 -6.8275 6.9775 -6.0625 7.0625 C-5.753125 6.093125 -5.44375 5.12375 -5.125 4.125 C-3.72021812 0.07592282 -3.72021812 0.07592282 0 0 Z " fill="#363635" transform="translate(107.0625,57.9375)"/>
<path d="M0 0 C0.825 0.165 1.65 0.33 2.5 0.5 C6.41272317 1.05896045 10.05183173 1.06807187 14 1 C14 1.99 14 2.98 14 4 C16.64 4.33 19.28 4.66 22 5 C22 5.66 22 6.32 22 7 C18.67465243 8.10844919 16.37817425 7.84454356 13 7 C13 8.32 13 9.64 13 11 C12.41992188 10.86722656 11.83984375 10.73445313 11.2421875 10.59765625 C6.84229018 9.60295999 2.46105842 8.68631668 -2 8 C-2 7.34 -2 6.68 -2 6 C-0.35 5.67 1.3 5.34 3 5 C2.2575 4.319375 2.2575 4.319375 1.5 3.625 C0 2 0 2 0 0 Z " fill="#1E1F1A" transform="translate(86,72)"/>
<path d="M0 0 C6.16671569 1.12661152 12.27908584 2.48014347 18.375 3.9375 C19.06464844 4.09508789 19.75429687 4.25267578 20.46484375 4.41503906 C24.33388473 5.35958478 26.91999297 6.52153702 30 9 C23.05033907 9.1346906 16.28143617 8.75715004 9.375 8 C8.01181641 7.85691406 8.01181641 7.85691406 6.62109375 7.7109375 C4.41352957 7.47856232 2.20657739 7.24153511 0 7 C0.66 5.02 1.32 3.04 2 1 C1.34 0.67 0.68 0.34 0 0 Z " fill="#343434" transform="translate(70,134)"/>
<path d="M0 0 C0.495 0.99 0.495 0.99 1 2 C0.67 2.66 0.34 3.32 0 4 C1.65 4 3.3 4 5 4 C4.67 5.32 4.34 6.64 4 8 C2.98421875 8.18175781 1.9684375 8.36351562 0.921875 8.55078125 C-0.46886989 8.80402998 -1.85948556 9.05798899 -3.25 9.3125 C-3.98508789 9.44567627 -4.72017578 9.57885254 -5.47753906 9.71606445 C-9.65901373 10.4936001 -13.67401673 11.45767746 -17.75 12.6875 C-26.26924464 14.95929857 -35.26083365 14.23315958 -44 14 C-44 13.67 -44 13.34 -44 13 C-42.45505859 12.83564453 -42.45505859 12.83564453 -40.87890625 12.66796875 C-37.05756855 12.25046983 -33.24319845 11.78676488 -29.4296875 11.30322266 C-27.85009195 11.10609066 -26.26936274 10.91777245 -24.6875 10.73974609 C-14.40467405 9.55481107 -7.49286486 7.75060468 0 0 Z " fill="#373838" transform="translate(148,128)"/>
<path d="M0 0 C8.91 1.98 8.91 1.98 18 4 C17.67 6.31 17.34 8.62 17 11 C10.4389196 9.26860378 4.9131363 6.80603796 0 2 C0 1.34 0 0.68 0 0 Z " fill="#C3C3C3" transform="translate(31,115)"/>
<path d="M0 0 C-0.66 0.66 -1.32 1.32 -2 2 C5.15186051 4.17742288 12.05588042 4.42867157 19.5 4.625 C20.70398438 4.66367188 21.90796875 4.70234375 23.1484375 4.7421875 C26.09881119 4.83585016 29.04918856 4.92157524 32 5 C32 5.33 32 5.66 32 6 C26.9646141 6.04954963 21.9293711 6.08579037 16.89379883 6.10986328 C15.18185961 6.11990208 13.46993745 6.13353595 11.75805664 6.15087891 C9.29308858 6.17522073 6.82834785 6.18650438 4.36328125 6.1953125 C3.22080681 6.21079636 3.22080681 6.21079636 2.05525208 6.22659302 C-2.08082741 6.22746036 -5.2812059 5.85778997 -9 4 C-8.67 3.01 -8.34 2.02 -8 1 C-2.59770115 -1.29885057 -2.59770115 -1.29885057 0 0 Z " fill="#8F8F8F" transform="translate(60,139)"/>
<path d="M0 0 C2.64 0.66 5.28 1.32 8 2 C5.55799529 4.05128396 3.48424833 5.21182658 0.5 6.4375 C-3.03285692 7.73646644 -3.03285692 7.73646644 -5.0625 10.25 C-5.701875 10.8275 -6.34125 11.405 -7 12 C-10.25 11.75 -10.25 11.75 -13 11 C-12.67 10.01 -12.34 9.02 -12 8 C-10.15234375 7.26953125 -10.15234375 7.26953125 -7.9375 6.8125 C-6.83728516 6.57466797 -6.83728516 6.57466797 -5.71484375 6.33203125 C-5.14894531 6.22246094 -4.58304688 6.11289063 -4 6 C-3.67 4.68 -3.34 3.36 -3 2 C-2.01 2 -1.02 2 0 2 C0 1.34 0 0.68 0 0 Z " fill="#B9B9B9" transform="translate(38,126)"/>
<path d="M0 0 C0.33 0.66 0.66 1.32 1 2 C4.37719009 2.92915348 7.57699365 3.12254007 11.06567383 3.11352539 C12.04631302 3.11344986 13.02695221 3.11337433 14.03730774 3.11329651 C15.0833165 3.10813522 16.12932526 3.10297394 17.20703125 3.09765625 C18.82782845 3.09553383 18.82782845 3.09553383 20.48136902 3.09336853 C23.92510776 3.0877808 27.36878098 3.0752305 30.8125 3.0625 C33.15038968 3.05748342 35.48828039 3.05292079 37.82617188 3.04882812 C43.55080353 3.03781538 49.27539708 3.02108941 55 3 C55 3.33 55 3.66 55 4 C48.9833165 5.05575078 43.13452091 5.12939265 37.03515625 5.09765625 C36.00184677 5.0962413 34.96853729 5.09482635 33.90391541 5.09336853 C30.6234134 5.08779839 27.34298117 5.07525141 24.0625 5.0625 C21.83007911 5.05748114 19.59765715 5.05291891 17.36523438 5.04882812 C11.91013269 5.03783875 6.45507133 5.0211305 1 5 C0.34 3.68 -0.32 2.36 -1 1 C-0.67 0.67 -0.34 0.34 0 0 Z " fill="#BABABA" transform="translate(50,141)"/>
<path d="M0 0 C0.66 0.33 1.32 0.66 2 1 C1.67 2.32 1.34 3.64 1 5 C9.58 5 18.16 5 27 5 C23.27459338 7.48360441 21.36937027 7.2315867 16.92578125 7.1953125 C16.2419487 7.1924826 15.55811615 7.18965271 14.8535614 7.18673706 C12.67302835 7.17555684 10.49290855 7.15045691 8.3125 7.125 C6.83268823 7.11496738 5.35287001 7.10584202 3.87304688 7.09765625 C0.248564 7.07562481 -3.37567766 7.04111002 -7 7 C-7.33 6.34 -7.66 5.68 -8 5 C-7.236875 4.54625 -6.47375 4.0925 -5.6875 3.625 C-3.76367186 2.46175508 -1.87058776 1.2470585 0 0 Z " fill="#9A9A9A" transform="translate(38,131)"/>
<path d="M0 0 C0.66 2.31 1.32 4.62 2 7 C-1.96 7 -5.92 7 -10 7 C-9 2 -9 2 -7.25 0.125 C-4.40525065 -1.29737468 -2.98383376 -0.91172698 0 0 Z " fill="#292A27" transform="translate(110,69)"/>
<path d="M0 0 C6.6 0 13.2 0 20 0 C20 0.99 20 1.98 20 3 C17.17588235 3.94137255 15.47081968 4.11725382 12.55078125 4.09765625 C11.70322266 4.09443359 10.85566406 4.09121094 9.98242188 4.08789062 C9.10134766 4.07951172 8.22027344 4.07113281 7.3125 4.0625 C6.41982422 4.05798828 5.52714844 4.05347656 4.60742188 4.04882812 C2.40488013 4.03704983 0.20247401 4.02060164 -2 4 C-1.01 3.34 -0.02 2.68 1 2 C0.67 1.34 0.34 0.68 0 0 Z " fill="#616161" transform="translate(96,140)"/>
<path d="M0 0 C-3.14409606 2.66038897 -6.12513731 3.7083791 -10 5 C-10.33 5.66 -10.66 6.32 -11 7 C-12.32 7 -13.64 7 -15 7 C-15.33 5.68 -15.66 4.36 -16 3 C-19.3 2.67 -22.6 2.34 -26 2 C-26 1.67 -26 1.34 -26 1 C-23.16681141 0.83049299 -20.33349012 0.66432466 -17.5 0.5 C-16.70851563 0.45230469 -15.91703125 0.40460938 -15.1015625 0.35546875 C-10.057819 0.06607363 -5.05202732 -0.04634887 0 0 Z " fill="#D6D6D6" transform="translate(60,137)"/>
<path d="M0 0 C1.11375 0.928125 1.11375 0.928125 2.25 1.875 C6.91473167 5.05242592 12.52304819 5.326459 18 6 C18 6.33 18 6.66 18 7 C15.47909222 7.0272367 12.95848543 7.04695207 10.4375 7.0625 C9.38079102 7.07506836 9.38079102 7.07506836 8.30273438 7.08789062 C3.75975202 7.10882603 -0.51784892 6.74800682 -5 6 C-4.67 5.01 -4.34 4.02 -4 3 C-3.01 2.67 -2.02 2.34 -1 2 C-0.67 1.34 -0.34 0.68 0 0 Z " fill="#555555" transform="translate(47,128)"/>
<path d="M0 0 C0.7425 0.0825 1.485 0.165 2.25 0.25 C2.58 1.57 2.91 2.89 3.25 4.25 C1.6 4.91 -0.05 5.57 -1.75 6.25 C-1.75 6.91 -1.75 7.57 -1.75 8.25 C-6.16062136 9.2757259 -8.67630576 9.28684712 -12.75 7.25 C-12.75 6.92 -12.75 6.59 -12.75 6.25 C-11.38875 5.87875 -11.38875 5.87875 -10 5.5 C-6.69354029 4.48927112 -6.69354029 4.48927112 -4.6875 2.125 C-2.75 0.25 -2.75 0.25 0 0 Z " fill="#383835" transform="translate(98.75,64.75)"/>
<path d="M0 0 C1.32 0 2.64 0 4 0 C4 0.66 4 1.32 4 2 C5.98 1.34 7.96 0.68 10 0 C10 0.66 10 1.32 10 2 C10.66 2.33 11.32 2.66 12 3 C11.0409375 3.1546875 11.0409375 3.1546875 10.0625 3.3125 C9.381875 3.539375 8.70125 3.76625 8 4 C7.67 4.99 7.34 5.98 7 7 C6.67 6.34 6.34 5.68 6 5 C3.525 6.485 3.525 6.485 1 8 C-0.42944945 5.64561267 -1.08661261 4.51967567 -0.625 1.75 C-0.41875 1.1725 -0.2125 0.595 0 0 Z " fill="#383836" transform="translate(128,72)"/>
<path d="M0 0 C1.32 1.65 2.64 3.3 4 5 C5.32 4.34 6.64 3.68 8 3 C8.33 3.99 8.66 4.98 9 6 C6.35541621 7.32229189 4.32238699 7.09677194 1.375 7.0625 C0.37210937 7.05347656 -0.63078125 7.04445313 -1.6640625 7.03515625 C-2.43492188 7.02355469 -3.20578125 7.01195313 -4 7 C-2.92598892 4.08482708 -2.22189824 2.22189824 0 0 Z " fill="#2F302D" transform="translate(126,74)"/>
<path d="M0 0 C0 0.66 0 1.32 0 2 C-0.639375 2.268125 -1.27875 2.53625 -1.9375 2.8125 C-4.33131686 3.88667752 -4.33131686 3.88667752 -5 7 C-2.69 7 -0.38 7 2 7 C2 7.66 2 8.32 2 9 C-3.00890086 8.38487182 -8.00632136 7.7282448 -13 7 C-11.33784732 5.66104368 -9.67036393 4.32869858 -8 3 C-7.319375 2.4225 -6.63875 1.845 -5.9375 1.25 C-4 0 -4 0 0 0 Z " fill="#7C7C7C" transform="translate(68,135)"/>
<path d="M0 0 C2.64 0.66 5.28 1.32 8 2 C8 2.66 8 3.32 8 4 C2.87674471 6.45489316 -1.33895411 7.50341703 -7 8 C-7 7.34 -7 6.68 -7 6 C-3.535 5.505 -3.535 5.505 0 5 C0 3.35 0 1.7 0 0 Z " fill="#EDEDED" transform="translate(30,124)"/>
<path d="M0 0 C0.268125 0.639375 0.53625 1.27875 0.8125 1.9375 C1.88667752 4.33131686 1.88667752 4.33131686 5 5 C4 6 4 6 1.96875 6.0625 C0.32291667 6.02083333 -1.32291667 5.97916667 -2.96875 5.9375 C-4.99609236 5.76775055 -4.99609236 5.76775055 -6 7 C-7.99958364 7.04080783 -10.00045254 7.04254356 -12 7 C-10.68 6.67 -9.36 6.34 -8 6 C-8 5.34 -8 4.68 -8 4 C-5.36 3.34 -2.72 2.68 0 2 C0 1.34 0 0.68 0 0 Z " fill="#434341" transform="translate(85,72)"/>
<path d="M0 0 C2.4375 0.6875 2.4375 0.6875 5 2 C5.8125 4.625 5.8125 4.625 6 7 C3.69 7 1.38 7 -1 7 C-1 3 -1 3 0 0 Z " fill="#262624" transform="translate(100,95)"/>
<path d="M0 0 C1.98362069 2.91708924 1.9876191 4.12380904 1.625 7.75 C1.41875 8.8225 1.2125 9.895 1 11 C-0.98 11.33 -2.96 11.66 -5 12 C-3.85814266 7.52040582 -2.56984833 3.85477249 0 0 Z " fill="#40403E" transform="translate(169,86)"/>
<path d="M0 0 C1.32 0.66 2.64 1.32 4 2 C3.34 3.65 2.68 5.3 2 7 C-0.31 7 -2.62 7 -5 7 C-4.67 5.68 -4.34 4.36 -4 3 C-2.68 2.67 -1.36 2.34 0 2 C0 1.34 0 0.68 0 0 Z " fill="#575757" transform="translate(68,135)"/>
<path d="M0 0 C3.465 1.485 3.465 1.485 7 3 C7 3.66 7 4.32 7 5 C8.98 5 10.96 5 13 5 C13 5.33 13 5.66 13 6 C8.05 5.67 3.1 5.34 -2 5 C-1.34 3.35 -0.68 1.7 0 0 Z " fill="#414141" transform="translate(72,136)"/>
<path d="M0 0 C0.66 0 1.32 0 2 0 C1.01 2.97 0.02 5.94 -1 9 C-1.66 8.67 -2.32 8.34 -3 8 C-3 7.34 -3 6.68 -3 6 C-3.86625 6.2784375 -3.86625 6.2784375 -4.75 6.5625 C-7.22488597 7.04372783 -8.60985476 6.67787733 -11 6 C-10.28972656 5.65066406 -9.57945312 5.30132812 -8.84765625 4.94140625 C-7.92855469 4.48636719 -7.00945312 4.03132813 -6.0625 3.5625 C-4.68771484 2.88380859 -4.68771484 2.88380859 -3.28515625 2.19140625 C-1.09471096 1.19474606 -1.09471096 1.19474606 0 0 Z " fill="#BABBB8" transform="translate(165,91)"/>
<path d="M0 0 C0.99 0.33 1.98 0.66 3 1 C3.73046875 2.84765625 3.73046875 2.84765625 4.1875 5.0625 C4.34605469 5.79597656 4.50460938 6.52945313 4.66796875 7.28515625 C4.83232422 8.13400391 4.83232422 8.13400391 5 9 C3.68 9.99 2.36 10.98 1 12 C-0.26237731 9.47524538 -0.09856404 7.68799534 -0.0625 4.875 C-0.05347656 3.96492188 -0.04445312 3.05484375 -0.03515625 2.1171875 C-0.02355469 1.41851562 -0.01195312 0.71984375 0 0 Z " fill="#C2C2C0" transform="translate(172,104)"/>
<path d="M0 0 C5 2 5 2 10 4 C10 4.99 10 5.98 10 7 C7.125 7.125 7.125 7.125 4 7 C3.34 6.34 2.68 5.68 2 5 C2 4.34 2 3.68 2 3 C1.34 2.01 0.68 1.02 0 0 Z " fill="#2B2B2B" transform="translate(32,119)"/>
<path d="M0 0 C2 1 2 1 3.125 4.125 C3.97755199 7.90058738 4.15729024 11.14638912 4 15 C0.55783328 12.3401439 0.00495326 9.09711714 -1 5 C-0.67 4.67 -0.34 4.34 0 4 C-0.66 3.34 -1.32 2.68 -2 2 C-1.34 1.34 -0.68 0.68 0 0 Z " fill="#474747" transform="translate(176,113)"/>
<path d="M0 0 C0.66 0 1.32 0 2 0 C2 0.66 2 1.32 2 2 C2.66 2 3.32 2 4 2 C4 2.66 4 3.32 4 4 C6.64 4 9.28 4 12 4 C11.67 4.99 11.34 5.98 11 7 C8.03 6.67 5.06 6.34 2 6 C1.34 4.02 0.68 2.04 0 0 Z " fill="#171715" transform="translate(116,78)"/>
<path d="M0 0 C0.86625 0.639375 1.7325 1.27875 2.625 1.9375 C5.9598812 3.97548296 8.16047478 4.63433093 12 5 C12 5.33 12 5.66 12 6 C6.47322267 6.19392201 2.24385089 5.7479503 -3 4 C-2.01 2.68 -1.02 1.36 0 0 Z " fill="#484848" transform="translate(47,128)"/>
<path d="M0 0 C-0.33 2.31 -0.66 4.62 -1 7 C-2.65 6.67 -4.3 6.34 -6 6 C-5.67 4.35 -5.34 2.7 -5 1 C-2 0 -2 0 0 0 Z " fill="#BABABA" transform="translate(49,119)"/>
<path d="M0 0 C0.33 0.99 0.66 1.98 1 3 C-3.29 2.34 -7.58 1.68 -12 1 C-7.25491362 -2.16339092 -5.18692969 -2.25518682 0 0 Z " fill="#3A3A3A" transform="translate(71,133)"/>
<path d="M0 0 C0.66 0.33 1.32 0.66 2 1 C1.34 2.65 0.68 4.3 0 6 C-1.98 6 -3.96 6 -6 6 C-2.25 1.125 -2.25 1.125 0 0 Z " fill="#878787" transform="translate(38,131)"/>
<path d="M0 0 C2.64 0.33 5.28 0.66 8 1 C8 1.66 8 2.32 8 3 C7.01 3.495 7.01 3.495 6 4 C5.67 4.66 5.34 5.32 5 6 C3.2925002 4.71937515 1.62626404 3.38232443 0 2 C0 1.34 0 0.68 0 0 Z " fill="#C5C5C3" transform="translate(60,125)"/>
<path d="M0 0 C6.625 -0.125 6.625 -0.125 10 1 C10 1.66 10 2.32 10 3 C10.66 3.33 11.32 3.66 12 4 C8.875 3.47916667 5.75 2.95833333 2.625 2.4375 C1.75875 2.293125 0.8925 2.14875 0 2 C0 1.34 0 0.68 0 0 Z " fill="#141512" transform="translate(96,93)"/>
<path d="M0 0 C2.64 0 5.28 0 8 0 C7.67 1.32 7.34 2.64 7 4 C6.67 3.34 6.34 2.68 6 2 C3.525 3.485 3.525 3.485 1 5 C0.67 3.35 0.34 1.7 0 0 Z " fill="#646462" transform="translate(128,75)"/>
<path d="M0 0 C1.2065625 0.0309375 1.2065625 0.0309375 2.4375 0.0625 C2.7675 1.3825 3.0975 2.7025 3.4375 4.0625 C1.7875 4.7225 0.1375 5.3825 -1.5625 6.0625 C-2.2225 4.4125 -2.8825 2.7625 -3.5625 1.0625 C-2.5625 0.0625 -2.5625 0.0625 0 0 Z " fill="#61615F" transform="translate(98.5625,64.9375)"/>
<path d="M0 0 C0.33 0 0.66 0 1 0 C1.125 2.875 1.125 2.875 1 6 C0.34 6.66 -0.32 7.32 -1 8 C-1.99 7.67 -2.98 7.34 -4 7 C-4 5.35 -4 3.7 -4 2 C-2.68 2 -1.36 2 0 2 C0 1.34 0 0.68 0 0 Z " fill="#343432" transform="translate(140,63)"/>
<path d="M0 0 C3.94727588 -0.17942163 6.5980513 -0.09350689 10 2 C10 2.66 10 3.32 10 4 C7.36 3.67 4.72 3.34 2 3 C2 2.34 2 1.68 2 1 C1.34 0.67 0.68 0.34 0 0 Z " fill="#1D1E1B" transform="translate(132,84)"/>
<path d="M0 0 C0.66 0.66 1.32 1.32 2 2 C-1.50776784 3.60355101 -4.14354879 4.22036864 -8 4 C-7.67 3.01 -7.34 2.02 -7 1 C-3.625 0.375 -3.625 0.375 0 0 Z " fill="#2F2F2E" transform="translate(131,62)"/>
<path d="M0 0 C1.32 0.66 2.64 1.32 4 2 C1.44008376 4.01136276 -1.04590299 5.62845496 -4 7 C-2.92598892 4.08482708 -2.22189824 2.22189824 0 0 Z " fill="#363635" transform="translate(142,112)"/>
<path d="M0 0 C0.66 1.32 1.32 2.64 2 4 C-1.465 5.485 -1.465 5.485 -5 7 C-4.67 5.68 -4.34 4.36 -4 3 C-2.68 2.67 -1.36 2.34 0 2 C0 1.34 0 0.68 0 0 Z " fill="#CACBC8" transform="translate(161,97)"/>
<path d="M0 0 C1.65 0 3.3 0 5 0 C4.75 1.875 4.75 1.875 4 4 C1.9375 5.25 1.9375 5.25 0 6 C0 4.02 0 2.04 0 0 Z " fill="#2B2B2B" transform="translate(105,58)"/>
<path d="M0 0 C0.66 0.33 1.32 0.66 2 1 C2 1.66 2 2.32 2 3 C2.33 3.66 2.66 4.32 3 5 C1.02 5 -0.96 5 -3 5 C-2.625 3.0625 -2.625 3.0625 -2 1 C-1.34 0.67 -0.68 0.34 0 0 Z " fill="#686868" transform="translate(66,137)"/>
<path d="M0 0 C3.3 0.99 6.6 1.98 10 3 C7.07175348 3.97608217 5.04386724 4.08226668 2 4 C1.34 2.68 0.68 1.36 0 0 Z " fill="#CECECE" transform="translate(31,115)"/>
<path d="M0 0 C0.33 0 0.66 0 1 0 C1 2.31 1 4.62 1 7 C0.01 7 -0.98 7 -2 7 C-2.33 6.01 -2.66 5.02 -3 4 C-1.625 1.8125 -1.625 1.8125 0 0 Z " fill="#383836" transform="translate(169,86)"/>
<path d="M0 0 C1.65 0 3.3 0 5 0 C5.33 0.99 5.66 1.98 6 3 C3.69 3 1.38 3 -1 3 C-0.67 2.01 -0.34 1.02 0 0 Z " fill="#141412" transform="translate(105,88)"/>
<path d="M0 0 C5.75 1.625 5.75 1.625 8 5 C6.68 5.33 5.36 5.66 4 6 C4 5.01 4 4.02 4 3 C2.68 2.34 1.36 1.68 0 1 C0 0.67 0 0.34 0 0 Z " fill="#1A1B17" transform="translate(81,80)"/>
<path d="M0 0 C-0.66 1.65 -1.32 3.3 -2 5 C-3.65 4.67 -5.3 4.34 -7 4 C-4.83989616 0.75984424 -3.8842653 0 0 0 Z " fill="#1D1D1B" transform="translate(115,79)"/>
<path d="M0 0 C-1.98 0.66 -3.96 1.32 -6 2 C-5.67 2.99 -5.34 3.98 -5 5 C-6.32 4.67 -7.64 4.34 -9 4 C-8.67 3.01 -8.34 2.02 -8 1 C-2.59770115 -1.29885057 -2.59770115 -1.29885057 0 0 Z " fill="#CBCBCB" transform="translate(34,133)"/>
<path d="M0 0 C2.97 0.495 2.97 0.495 6 1 C5.01 1.33 4.02 1.66 3 2 C3 2.99 3 3.98 3 5 C2.01 5 1.02 5 0 5 C0 3.35 0 1.7 0 0 Z M-2 5 C0 6 0 6 0 6 Z " fill="#E2E2E2" transform="translate(30,124)"/>
<path d="M0 0 C1.5 1.3125 1.5 1.3125 3 3 C3 3.99 3 4.98 3 6 C3.66 6.33 4.32 6.66 5 7 C3.68 7 2.36 7 1 7 C0 6 0 6 -0.0625 2.9375 C-0.041875 1.968125 -0.02125 0.99875 0 0 Z " fill="#575757" transform="translate(20,114)"/>
<path d="M0 0 C2.64 0.33 5.28 0.66 8 1 C8 1.66 8 2.32 8 3 C5.69 3 3.38 3 1 3 C0.67 2.01 0.34 1.02 0 0 Z " fill="#1C1C1A" transform="translate(98,99)"/>
<path d="M0 0 C1.32 0 2.64 0 4 0 C4.66 1.98 5.32 3.96 6 6 C5.01 6 4.02 6 3 6 C2.01 4.02 1.02 2.04 0 0 Z " fill="#373733" transform="translate(86,81)"/>
</svg>
