<?xml version="1.0" encoding="UTF-8"?>
<svg version="1.1" xmlns="http://www.w3.org/2000/svg" width="200" height="200">
<path d="M0 0 C66 0 132 0 200 0 C200 66 200 132 200 200 C134 200 68 200 0 200 C0 134 0 68 0 0 Z " fill="#FEFEFE" transform="translate(0,0)"/>
<path d="M0 0 C4.66935037 -0.46693504 8.6102711 -0.85149069 12.4375 2.1875 C15.87157134 5.95660269 16.93341885 8.23559964 17.125 13.3125 C17.08375 14.199375 17.0425 15.08625 17 16 C17.66 16 18.32 16 19 16 C19.226875 15.443125 19.45375 14.88625 19.6875 14.3125 C21.46384764 11.18274463 23.1518522 9.22898524 26 7 C30.02636016 6.27957771 34.12082278 6.70694093 38 8 C38.226875 7.401875 38.45375 6.80375 38.6875 6.1875 C40.40806668 3.31988887 41.96531888 2.37940051 45 1 C50.47968562 -0.14691094 54.34103666 2.42114925 58.8515625 5.265625 C61.62884036 7.50764567 62.4983736 9.4886152 63 13 C63.845625 12.34 64.69125 11.68 65.5625 11 C69.54681331 8.68185408 71.46982582 8.25869877 76 9 C78.63016161 11.1727422 80.47336894 12.94673788 82 16 C82.1328125 17.875 82.1328125 17.875 82.125 20 C82.12757813 20.70125 82.13015625 21.4025 82.1328125 22.125 C82 24 82 24 81 26 C80.34 26 79.68 26 79 26 C78.74065674 26.6086792 78.48131348 27.2173584 78.21411133 27.84448242 C74.42928226 34.56401908 64.63613595 36.8365764 57.8125 39.1875 C55.88132402 39.86796081 53.95032819 40.54893316 52.01953125 41.23046875 C51.17495361 41.52332764 50.33037598 41.81618652 49.46020508 42.11791992 C44.47816304 43.55274413 44.47816304 43.55274413 40.8125 46.8125 C40.4103125 47.8953125 40.4103125 47.8953125 40 49 C39.443125 50.2684375 39.443125 50.2684375 38.875 51.5625 C37.83106762 54.03896506 37.83106762 54.03896506 38 57 C39.4540625 57.5259375 39.4540625 57.5259375 40.9375 58.0625 C44 60 44 60 44.875 63.6875 C44.91625 64.780625 44.9575 65.87375 45 67 C45.99 67 46.98 67 48 67 C48 66.34 48 65.68 48 65 C49.3303125 64.5978125 49.3303125 64.5978125 50.6875 64.1875 C54.94907964 61.37324929 55.85007507 58.55859404 57.62890625 53.88671875 C60.69122655 47.43926946 65.38703458 43.64367616 71.125 39.6875 C71.74503906 39.24599609 72.36507812 38.80449219 73.00390625 38.34960938 C75.64528103 36.49496665 77.92198609 35.02600464 81 34 C82.21869929 31.49552484 82.21869929 31.49552484 83 29 C83.66 29 84.32 29 85 29 C87.59851869 36.30060012 88.29354537 42.85040293 87.9765625 50.515625 C87.85001205 54.28980596 88.04508643 56.75207273 90 60 C89.66072327 63.50585956 88.12743542 66.23433395 86 69 C80.32048123 71.94854805 74.72100813 72.91173762 68.4375 73.875 C61.4683752 74.99971629 54.6050753 76.26899595 47.75097656 77.96264648 C24.44457093 83.70458968 0.83856646 83.28567604 -23 83 C-23.66 81.68 -24.32 80.36 -25 79 C-37.21 79 -49.42 79 -62 79 C-61 77 -60 75 -59 73 C-59.99 72.67 -60.98 72.34 -62 72 C-62 71.34 -62 70.68 -62 70 C-63.32 70 -64.64 70 -66 70 C-68.31516013 67.27141842 -68.96032825 65.2947044 -69.4375 61.75 C-68.75851225 55.93010496 -66.93561545 50.99091875 -62.8125 46.75 C-59.66179129 44.78955902 -56.41965665 43.05440937 -53.1484375 41.3046875 C-51.13900124 40.08441166 -49.71870415 38.89710991 -48.125 37.1875 C-47.42375 36.465625 -46.7225 35.74375 -46 35 C-45.01 35 -44.02 35 -43 35 C-42.67 34.01 -42.34 33.02 -42 32 C-40.824375 31.87625 -40.824375 31.87625 -39.625 31.75 C-36.8553382 31.29150599 -36.8553382 31.29150599 -35.875 29 C-35.58625 28.34 -35.2975 27.68 -35 27 C-34.01 26.67 -33.02 26.34 -32 26 C-31.525625 25.505 -31.05125 25.01 -30.5625 24.5 C-29 23 -29 23 -26.9375 22.5625 C-26.298125 22.376875 -25.65875 22.19125 -25 22 C-24.29605388 20.68596724 -23.63654342 19.3479743 -23 18 C-19.90734492 14.48941856 -17.43668793 12.47889598 -13 11 C-12.67 10.67 -12.34 10.34 -12 10 C-9.5 9.875 -9.5 9.875 -7 10 C-6.505 10.495 -6.505 10.495 -6 11 C-5.67 10.34 -5.34 9.68 -5 9 C-5.99 8.67 -6.98 8.34 -8 8 C-8 7.67 -8 7.34 -8 7 C-5.69 7 -3.38 7 -1 7 C-1 10 -1 10 -3 13 C-1.68445979 11.71142987 -0.37265903 10.41904109 0.9375 9.125 C2.03384766 8.04605469 2.03384766 8.04605469 3.15234375 6.9453125 C5.05667999 5.12972808 5.05667999 5.12972808 6 3 C3.69 2.67 1.38 2.34 -1 2 C-0.67 1.34 -0.34 0.68 0 0 Z " fill="#A92027" transform="translate(90,60)"/>
<path d="M0 0 C0.66 0 1.32 0 2 0 C4.59851869 7.30060012 5.29354537 13.85040293 4.9765625 21.515625 C4.85001205 25.28980596 5.04508643 27.75207273 7 31 C6.66072327 34.50585956 5.12743542 37.23433395 3 40 C-2.67951877 42.94854805 -8.27899187 43.91173762 -14.5625 44.875 C-21.5316248 45.99971629 -28.3949247 47.26899595 -35.24902344 48.96264648 C-58.55542907 54.70458968 -82.16143354 54.28567604 -106 54 C-106.66 52.68 -107.32 51.36 -108 50 C-120.21 50 -132.42 50 -145 50 C-144 48 -143 46 -142 44 C-142.99 43.67 -143.98 43.34 -145 43 C-145 42.34 -145 41.68 -145 41 C-146.32 41 -147.64 41 -149 41 C-151.38012737 38.19484988 -151.97256685 36.21554615 -152.4375 32.5625 C-151.92274219 28.37090065 -150.67714369 26.22832033 -148 23 C-147.34 23 -146.68 23 -146 23 C-145.67 22.01 -145.34 21.02 -145 20 C-140.64406358 20 -136.28890408 20.25471375 -131.9375 20.4375 C-130.90560547 20.47681641 -129.87371094 20.51613281 -128.81054688 20.55664062 C-127.83021484 20.59853516 -126.84988281 20.64042969 -125.83984375 20.68359375 C-124.93613037 20.72025146 -124.03241699 20.75690918 -123.10131836 20.79467773 C-121 21 -121 21 -120 22 C-117.81707226 22.23481693 -115.62796826 22.41363323 -113.4375 22.5625 C-112.23996094 22.64628906 -111.04242188 22.73007813 -109.80859375 22.81640625 C-108.41833984 22.90728516 -108.41833984 22.90728516 -107 23 C-107.66 25.31 -108.32 27.62 -109 30 C-108.34 30.33 -107.68 30.66 -107 31 C-107 30.34 -107 29.68 -107 29 C-106.01 28.67 -105.02 28.34 -104 28 C-102.78130071 25.49552484 -102.78130071 25.49552484 -102 23 C-99.03 22.67 -96.06 22.34 -93 22 C-92.505 23.98 -92.505 23.98 -92 26 C-90.783125 26.144375 -89.56625 26.28875 -88.3125 26.4375 C-86.10983914 26.69883264 -84.00019294 26.99995348 -81.84228516 27.52026367 C-78.30246645 28.1177335 -74.85904125 28.06668581 -71.28515625 27.9921875 C-69.7793036 27.97467242 -68.27344379 27.95776402 -66.76757812 27.94140625 C-64.412963 27.91047293 -62.05871135 27.87492547 -59.7043457 27.82861328 C-57.41873755 27.78607922 -55.13355357 27.76278442 -52.84765625 27.7421875 C-52.15060074 27.72356659 -51.45354523 27.70494568 -50.73536682 27.6857605 C-46.09591408 27.66162911 -42.87155568 28.4115906 -39 31 C-38.125 34.6875 -38.125 34.6875 -38 38 C-37.01 38 -36.02 38 -35 38 C-35 37.34 -35 36.68 -35 36 C-34.113125 35.731875 -33.22625 35.46375 -32.3125 35.1875 C-28.05092036 32.37324929 -27.14992493 29.55859404 -25.37109375 24.88671875 C-22.30877345 18.43926946 -17.61296542 14.64367616 -11.875 10.6875 C-11.25496094 10.24599609 -10.63492188 9.80449219 -9.99609375 9.34960938 C-7.35471897 7.49496665 -5.07801391 6.02600464 -2 5 C-0.78130071 2.49552484 -0.78130071 2.49552484 0 0 Z " fill="#81492F" transform="translate(173,89)"/>
<path d="M0 0 C0.99 0.33 1.98 0.66 3 1 C3.495 2.485 3.495 2.485 4 4 C1.03 4 -1.94 4 -5 4 C-4.01 4.33 -3.02 4.66 -2 5 C-2 6.32 -2 7.64 -2 9 C-7.61 8.67 -13.22 8.34 -19 8 C-16.37886292 8 -14.49064888 8.31292445 -12 9 C-12 9.66 -12 10.32 -12 11 C-10.68 11.33 -9.36 11.66 -8 12 C-8 12.33 -8 12.66 -8 13 C-13.36891879 12.50130596 -18.69235173 11.97772468 -24 11 C-24 11.66 -24 12.32 -24 13 C-20.04 13.33 -16.08 13.66 -12 14 C-12.66 14.33 -13.32 14.66 -14 15 C-14 15.66 -14 16.32 -14 17 C-17.44450737 19.29633824 -19.93812283 19.54016485 -24 20 C-21.41603321 20.08112454 -18.83462432 20.14054748 -16.25 20.1875 C-15.15558594 20.22520508 -15.15558594 20.22520508 -14.0390625 20.26367188 C-9.60233843 20.32417266 -7.31131728 19.94769132 -4 17 C-3.01 17 -2.02 17 -1 17 C-1 16.34 -1 15.68 -1 15 C-0.01 15 0.98 15 2 15 C2 14.34 2 13.68 2 13 C3.95890881 11.60699818 5.9639118 10.27754554 8 9 C8.99 8.34 9.98 7.68 11 7 C11.99 7 12.98 7 14 7 C14 6.34 14 5.68 14 5 C15.32 5 16.64 5 18 5 C19.06652192 7.30368736 20.06421005 9.64018187 21 12 C20.67 12.66 20.34 13.32 20 14 C21.32 14.33 22.64 14.66 24 15 C23.40832031 15.19335938 22.81664062 15.38671875 22.20703125 15.5859375 C20.5786186 16.1225433 18.95237461 16.66576566 17.328125 17.21484375 C15.57821078 17.80499939 13.82182286 18.37601398 12.0625 18.9375 C9.39412395 20.31211797 9.03462258 21.19173871 8 24 C7.48241908 25.38305527 6.96413439 26.76584728 6.4453125 28.1484375 C6.03949951 29.2300415 6.03949951 29.2300415 5.62548828 30.33349609 C5.41907715 30.88344238 5.21266602 31.43338867 5 32 C-30.38815264 34.11272553 -30.38815264 34.11272553 -41 30 C-41.495 28.515 -41.495 28.515 -42 27 C-44.97 27 -47.94 27 -51 27 C-51.495 29.475 -51.495 29.475 -52 32 C-53.98 32.495 -53.98 32.495 -56 33 C-56 33.66 -56 34.32 -56 35 C-56.99 34.67 -57.98 34.34 -59 34 C-57.125 29.25 -57.125 29.25 -56 27 C-57.39025391 27.01740234 -57.39025391 27.01740234 -58.80859375 27.03515625 C-60.00613281 27.04417969 -61.20367187 27.05320312 -62.4375 27.0625 C-63.63246094 27.07410156 -64.82742187 27.08570312 -66.05859375 27.09765625 C-69 27 -69 27 -70 26 C-73.52431513 25.53148141 -77.07684059 25.38915146 -80.625 25.1875 C-82.10419922 25.07245117 -82.10419922 25.07245117 -83.61328125 24.95507812 C-90.0821735 24.59665486 -93.7135205 25.18692305 -99 29 C-97.06801765 22.67714866 -92.85162579 20.42062865 -87.3125 17.375 C-86.16201172 16.76785156 -86.16201172 16.76785156 -84.98828125 16.1484375 C-82.86239685 15.03482076 -82.86239685 15.03482076 -81 13 C-78.3984375 12.8046875 -78.3984375 12.8046875 -75.375 12.875 C-73.87066406 12.90207031 -73.87066406 12.90207031 -72.3359375 12.9296875 C-71.56507812 12.95289062 -70.79421875 12.97609375 -70 13 C-70 13.66 -70 14.32 -70 15 C-65.50611126 16.49796291 -60.11874316 16.94166363 -55.75 15 C-55.1725 14.67 -54.595 14.34 -54 14 C-52.68 14 -51.36 14 -50 14 C-50 13.34 -50 12.68 -50 12 C-48.948125 11.4225 -47.89625 10.845 -46.8125 10.25 C-44.45010295 8.91225709 -42.54573886 7.62329564 -40.4375 5.875 C-37.72270382 3.78669525 -35.27944023 2.91519262 -32 2 C-31.64707655 5.79392709 -31.65626021 7.5073063 -33.875 10.6875 C-34.926875 11.8321875 -34.926875 11.8321875 -36 13 C-36.66 13.99 -37.32 14.98 -38 16 C-38.66 16 -39.32 16 -40 16 C-40 16.66 -40 17.32 -40 18 C-40.61875 18.103125 -41.2375 18.20625 -41.875 18.3125 C-44.36526484 18.87525373 -44.36526484 18.87525373 -46 22 C-45.05125 21.505 -44.1025 21.01 -43.125 20.5 C-40 19 -40 19 -38 19 C-37.731875 18.401875 -37.46375 17.80375 -37.1875 17.1875 C-35.92331195 14.85873253 -35.1859724 13.50756717 -33 12 C-29.3125 11.8125 -29.3125 11.8125 -26 12 C-26.495 10.515 -26.495 10.515 -27 9 C-26.360625 8.525625 -25.72125 8.05125 -25.0625 7.5625 C-23.11706694 6.16261274 -23.11706694 6.16261274 -22 5 C-20.14712498 4.92773498 -18.29166122 4.9161878 -16.4375 4.9375 C-15.42558594 4.94652344 -14.41367188 4.95554687 -13.37109375 4.96484375 C-12.58863281 4.97644531 -11.80617188 4.98804687 -11 5 C-11 4.34 -11 3.68 -11 3 C-13.31 3 -15.62 3 -18 3 C-16.68 2.01 -15.36 1.02 -14 0 C-13.505 0.99 -13.505 0.99 -13 2 C-12.39671875 1.77183594 -11.7934375 1.54367188 -11.171875 1.30859375 C-10.37265625 1.02113281 -9.5734375 0.73367187 -8.75 0.4375 C-7.96109375 0.14746094 -7.1721875 -0.14257812 -6.359375 -0.44140625 C-3.75403299 -1.05823391 -2.49903499 -0.86227034 0 0 Z " fill="#B5252F" transform="translate(122,85)"/>
<path d="M0 0 C0.66 0 1.32 0 2 0 C4.59851869 7.30060012 5.29354537 13.85040293 4.9765625 21.515625 C4.84984725 25.29472101 5.05701494 27.74377207 7 31 C6.62925373 34.05865675 5.76554463 35.35168306 4 38 C0.89892578 38.76782227 0.89892578 38.76782227 -3.0546875 39.31640625 C-4.10162277 39.4693943 -4.10162277 39.4693943 -5.16970825 39.62547302 C-7.40322792 39.95030524 -9.63868614 40.25754811 -11.875 40.5625 C-14.103763 40.87316001 -16.33179716 41.18766762 -18.55886841 41.51023865 C-20.58472368 41.802697 -22.61240108 42.08244924 -24.64013672 42.36157227 C-27.56288942 42.916942 -29.44644238 43.57896153 -32 45 C-41.29359801 46.90819123 -50.78961709 47.24249955 -60.25 47.375 C-61.7501062 47.41391357 -61.7501062 47.41391357 -63.28051758 47.45361328 C-70.37702369 47.47178615 -70.37702369 47.47178615 -73.671875 44.9765625 C-74.11015625 44.32429688 -74.5484375 43.67203125 -75 43 C-72.73752711 41.86876355 -71.36629193 41.83402582 -68.8515625 41.75390625 C-68.01641113 41.72232422 -67.18125977 41.69074219 -66.32080078 41.65820312 C-65.43118652 41.62662109 -64.54157227 41.59503906 -63.625 41.5625 C-55.94200238 41.23923606 -48.55098161 40.50549166 -41 39 C-39.00089703 38.66132844 -37.00109278 38.32670903 -35 38 C-35 37.34 -35 36.68 -35 36 C-34.113125 35.731875 -33.22625 35.46375 -32.3125 35.1875 C-28.05092036 32.37324929 -27.14992493 29.55859404 -25.37109375 24.88671875 C-22.30877345 18.43926946 -17.61296542 14.64367616 -11.875 10.6875 C-11.25496094 10.24599609 -10.63492188 9.80449219 -9.99609375 9.34960938 C-7.35471897 7.49496665 -5.07801391 6.02600464 -2 5 C-0.78130071 2.49552484 -0.78130071 2.49552484 0 0 Z " fill="#C7BBAF" transform="translate(173,89)"/>
<path d="M0 0 C5.07394032 2.27506415 9.16307356 4.26176815 11.625 9.375 C11.74875 10.24125 11.8725 11.1075 12 12 C12.845625 11.34 13.69125 10.68 14.5625 10 C18.54681331 7.68185408 20.46982582 7.25869877 25 8 C27.63016161 10.1727422 29.47336894 11.94673788 31 15 C31.1328125 16.875 31.1328125 16.875 31.125 19 C31.12886719 20.051875 31.12886719 20.051875 31.1328125 21.125 C31 23 31 23 30 25 C29.34 25 28.68 25 28 25 C27.731875 25.639375 27.46375 26.27875 27.1875 26.9375 C26 29 26 29 23 30 C22.62230469 29.55011719 22.24460938 29.10023437 21.85546875 28.63671875 C19.5060088 26.56424776 17.26926656 25.82127918 14.3125 24.8125 C13.31863281 24.46832031 12.32476562 24.12414062 11.30078125 23.76953125 C10.54152344 23.51558594 9.78226563 23.26164062 9 23 C9.495 24.485 9.495 24.485 10 26 C7.03 26 4.06 26 1 26 C1 25.34 1 24.68 1 24 C6.41176471 20 6.41176471 20 9 20 C9 19.34 9 18.68 9 18 C9.99 17.67 10.98 17.34 12 17 C11.2236068 13.9254644 11.2236068 13.9254644 9 12 C8.34 12 7.68 12 7 12 C7 11.34 7 10.68 7 10 C6.01 10.33 5.02 10.66 4 11 C4.515625 11.4125 5.03125 11.825 5.5625 12.25 C6.036875 12.8275 6.51125 13.405 7 14 C6.6875 16.1875 6.6875 16.1875 6 18 C5.34 17.67 4.68 17.34 4 17 C4.33 16.34 4.66 15.68 5 15 C3.906875 15.185625 2.81375 15.37125 1.6875 15.5625 C-2 16 -2 16 -5 15 C-4.34 16.32 -3.68 17.64 -3 19 C-9.27 19 -15.54 19 -22 19 C-22 19.66 -22 20.32 -22 21 C-21.505 20.649375 -21.01 20.29875 -20.5 19.9375 C-16.77302397 18.53988399 -13.90197152 19.34967141 -10 20 C-9.67 21.32 -9.34 22.64 -9 24 C-10.03640625 23.91621094 -11.0728125 23.83242187 -12.140625 23.74609375 C-13.51039132 23.64289218 -14.88018447 23.54004626 -16.25 23.4375 C-16.93191406 23.38142578 -17.61382812 23.32535156 -18.31640625 23.26757812 C-21.7420581 23.01813746 -24.72701177 22.86120255 -28 24 C-28 23.34 -28 22.68 -28 22 C-28.99 21.67 -29.98 21.34 -31 21 C-30.34 21 -29.68 21 -29 21 C-29 20.34 -29 19.68 -29 19 C-28.01 19 -27.02 19 -26 19 C-25.938125 18.4225 -25.87625 17.845 -25.8125 17.25 C-24.6865841 14.13207906 -22.58205789 12.98619837 -20 11 C-20 10.34 -20 9.68 -20 9 C-22.64 9.33 -25.28 9.66 -28 10 C-27 8 -27 8 -25 6 C-20.78077237 5.66514066 -17.0486801 5.65043997 -13 7 C-12.6596875 6.1028125 -12.6596875 6.1028125 -12.3125 5.1875 C-9.47026346 0.45043909 -5.27826874 -0.89630979 0 0 Z " fill="#C04B4D" transform="translate(141,61)"/>
<path d="M0 0 C-4.72737292 5.47380022 -11.692312 5.7380651 -18.4375 6.8125 C-25.4465645 7.96469018 -32.35645328 9.26281654 -39.25341797 10.96484375 C-62.56194186 16.69762969 -86.16077072 16.28568398 -110 16 C-110.66 14.68 -111.32 13.36 -112 12 C-124.21 12 -136.42 12 -149 12 C-146.75 7.5 -146.75 7.5 -143 6 C-144.32 5.67 -145.64 5.34 -147 5 C-147 4.34 -147 3.68 -147 3 C-146.0925 3.185625 -145.185 3.37125 -144.25 3.5625 C-141.11788786 3.98413048 -139.93284703 3.74465767 -137 3 C-133.1698003 2.75332438 -129.33735522 2.76892654 -125.5 2.75 C-124.45457031 2.729375 -123.40914062 2.70875 -122.33203125 2.6875 C-121.32527344 2.68234375 -120.31851563 2.6771875 -119.28125 2.671875 C-117.90549805 2.65785645 -117.90549805 2.65785645 -116.50195312 2.64355469 C-113.54362213 3.0650187 -112.25969747 4.10641756 -110 6 C-107.31915596 6.6408587 -104.76154323 6.7698714 -102 7 C-102 7.66 -102 8.32 -102 9 C-94.1529416 9.05080046 -86.30592578 9.0857759 -78.45874023 9.10986328 C-75.79036743 9.11877541 -73.12220998 9.13354451 -70.45385742 9.15087891 C-66.61374195 9.17519702 -62.7737723 9.18649932 -58.93359375 9.1953125 C-57.74479111 9.20563507 -56.55598846 9.21595764 -55.3311615 9.22659302 C-48.00089504 9.22758114 -42.51588594 8.65786206 -35.84375 5.51171875 C-30.66695046 3.21653614 -25.05832039 2.6478733 -19.5 1.8125 C-18.39785156 1.63525391 -17.29570312 1.45800781 -16.16015625 1.27539062 C-10.71595335 0.42902295 -5.50984711 -0.22957696 0 0 Z " fill="#2C2827" transform="translate(177,127)"/>
<path d="M0 0 C0.33 1.32 0.66 2.64 1 4 C2.216875 4.144375 3.43375 4.28875 4.6875 4.4375 C6.89016086 4.69883264 8.99980706 4.99995348 11.15771484 5.52026367 C14.69753355 6.1177335 18.14095875 6.06668581 21.71484375 5.9921875 C23.2206964 5.97467242 24.72655621 5.95776402 26.23242188 5.94140625 C28.587037 5.91047293 30.94128865 5.87492547 33.2956543 5.82861328 C35.58126245 5.78607922 37.86644643 5.76278442 40.15234375 5.7421875 C40.84939926 5.72356659 41.54645477 5.70494568 42.26463318 5.6857605 C46.90408592 5.66162911 50.12844432 6.4115906 54 9 C54.875 12.6875 54.875 12.6875 55 16 C47.34462042 21.10358639 36.51496956 20.28107825 27.625 20.4375 C26.57868408 20.47182129 25.53236816 20.50614258 24.4543457 20.54150391 C16.03113009 20.58885194 16.03113009 20.58885194 12.5625 17.578125 C11.716875 16.72734375 10.87125 15.8765625 10 15 C3.91819571 12.22176714 -2.9658901 11.39418625 -9.53125 10.4296875 C-12 10 -12 10 -14 9 C-14 8.34 -14 7.68 -14 7 C-13.01 6.67 -12.02 6.34 -11 6 C-10.67 5.175 -10.34 4.35 -10 3.5 C-9.67 2.675 -9.34 1.85 -9 1 C-5.8035914 -0.06546953 -3.34252724 -0.07427838 0 0 Z " fill="#890C1B" transform="translate(80,111)"/>
<path d="M0 0 C1.32 0 2.64 0 4 0 C5.06652192 2.30368736 6.06421005 4.64018187 7 7 C6.67 7.66 6.34 8.32 6 9 C7.32 9.33 8.64 9.66 10 10 C9.40832031 10.19335938 8.81664062 10.38671875 8.20703125 10.5859375 C6.5786186 11.1225433 4.95237461 11.66576566 3.328125 12.21484375 C1.57821078 12.80499939 -0.17817714 13.37601398 -1.9375 13.9375 C-4.60587605 15.31211797 -4.96537742 16.19173871 -6 19 C-6.51758092 20.38305527 -7.03586561 21.76584728 -7.5546875 23.1484375 C-7.82522949 23.86950684 -8.09577148 24.59057617 -8.37451172 25.33349609 C-8.58092285 25.88344238 -8.78733398 26.43338867 -9 27 C-15.33151251 27.37800075 -21.66354476 27.71599925 -28 28 C-29.04583252 28.04737305 -29.04583252 28.04737305 -30.11279297 28.09570312 C-45.63999849 28.71346494 -45.63999849 28.71346494 -52 25 C-52.76171875 22.890625 -52.76171875 22.890625 -53 21 C-51.07010782 19.80017556 -49.13080772 18.61547182 -47.1875 17.4375 C-45.56908203 16.44556641 -45.56908203 16.44556641 -43.91796875 15.43359375 C-41 14 -41 14 -38 15 C-35.3398959 15.14794162 -32.72312785 15.23094447 -30.0625 15.25 C-29.34642578 15.270625 -28.63035156 15.29125 -27.89257812 15.3125 C-23.51449558 15.3449603 -21.27286281 14.8855867 -18 12 C-17.01 12 -16.02 12 -15 12 C-15 11.34 -15 10.68 -15 10 C-14.01 10 -13.02 10 -12 10 C-12 9.34 -12 8.68 -12 8 C-10.04109119 6.60699818 -8.0360882 5.27754554 -6 4 C-5.01 3.34 -4.02 2.68 -3 2 C-2.01 2 -1.02 2 0 2 C0 1.34 0 0.68 0 0 Z " fill="#C4393E" transform="translate(136,90)"/>
<path d="M0 0 C2.33909307 3.5086396 2.41291057 4.87089433 2 9 C-0.33698502 14.56696431 -5.12773831 17.22251812 -9.9375 20.5 C-18.02530169 26.0374782 -22.66411743 30.26334495 -25.875 39.6953125 C-27.19505757 42.3995971 -28.41097254 43.4995409 -31 45 C-31.99 45 -32.98 45 -34 45 C-34 45.66 -34 46.32 -34 47 C-34.99 47 -35.98 47 -37 47 C-37.33 44.69 -37.66 42.38 -38 40 C-38.969375 39.7525 -39.93875 39.505 -40.9375 39.25 C-44 38 -44 38 -45.0625 36.25 C-44.9468308 32.08590892 -42.84370614 29.06244477 -40.3125 25.875 C-34.83806034 21.43626514 -28.18726176 19.26990237 -21.5625 17.125 C-10.68622439 13.72227383 -10.68622439 13.72227383 -3 6 C-2.34 6 -1.68 6 -1 6 C-0.67 4.02 -0.34 2.04 0 0 Z " fill="#DCCFC9" transform="translate(172,80)"/>
<path d="M0 0 C0.98226562 0.18175781 0.98226562 0.18175781 1.984375 0.3671875 C2.89703125 0.53476563 3.8096875 0.70234375 4.75 0.875 C5.7503125 1.05933594 6.750625 1.24367188 7.78125 1.43359375 C9.90171063 1.80673306 12.02695208 2.15378862 14.15625 2.47265625 C22.59387983 3.74043144 28.34853343 5.42714963 35 11 C36.31138904 11.70885894 37.63777017 12.39456452 39 13 C39 13.66 39 14.32 39 15 C41.50964028 16.25482014 43.24492911 16.12937726 46.05078125 16.1328125 C47.56381836 16.13474609 47.56381836 16.13474609 49.10742188 16.13671875 C50.16509766 16.13285156 51.22277344 16.12898438 52.3125 16.125 C53.35857422 16.12886719 54.40464844 16.13273437 55.48242188 16.13671875 C56.49498047 16.13542969 57.50753906 16.13414062 58.55078125 16.1328125 C59.47544189 16.13168457 60.40010254 16.13055664 61.3527832 16.12939453 C63.99744176 16.00012505 66.41640117 15.55934997 69 15 C70.43628457 14.93733488 71.8750555 14.91313653 73.3125 14.9375 C75.1378125 14.9684375 75.1378125 14.9684375 77 15 C77 15.33 77 15.66 77 16 C70.59782029 18.30352937 64.58461078 18.27405839 57.828125 18.23046875 C56.66875427 18.23001053 55.50938354 18.22955231 54.31488037 18.2290802 C51.87413504 18.22606869 49.43339145 18.2182155 46.99267578 18.20581055 C43.24895459 18.18749489 39.50548018 18.18530145 35.76171875 18.18554688 C33.38801869 18.18063344 31.0143203 18.17480588 28.640625 18.16796875 C27.51875793 18.16685593 26.39689087 18.1657431 25.24102783 18.16459656 C23.6836087 18.15502678 23.6836087 18.15502678 22.09472656 18.14526367 C21.18096252 18.14145187 20.26719849 18.13764008 19.32574463 18.13371277 C17 18 17 18 14 17 C14 16.34 14 15.68 14 15 C12.824375 15.0825 11.64875 15.165 10.4375 15.25 C6.33574044 15.27162615 4.17406804 14.15663685 0.80859375 11.95703125 C-2.33418358 10.29400653 -5.48829631 10.24643535 -9 10 C-9 8.33333333 -9 6.66666667 -9 5 C-6.03 5 -3.06 5 0 5 C0 3.35 0 1.7 0 0 Z " fill="#804B2F" transform="translate(61,119)"/>
<path d="M0 0 C0.66 0 1.32 0 2 0 C4.48577137 7.76803553 5.61370506 17.15888482 3 25 C-3.39379236 27.86643051 -9.97673617 29.18636585 -16.81640625 30.54882812 C-21.35053609 31.37537211 -21.35053609 31.37537211 -25 34 C-27.125 33.625 -27.125 33.625 -29 33 C-28.28343509 31.28634264 -27.55103233 29.57930537 -26.8125 27.875 C-26.20341797 26.44800781 -26.20341797 26.44800781 -25.58203125 24.9921875 C-22.19749944 18.59082609 -17.72578286 14.72146082 -11.875 10.6875 C-11.25496094 10.24599609 -10.63492188 9.80449219 -9.99609375 9.34960938 C-7.35471897 7.49496665 -5.07801391 6.02600464 -2 5 C-0.78130071 2.49552484 -0.78130071 2.49552484 0 0 Z " fill="#9B2B36" transform="translate(173,89)"/>
<path d="M0 0 C0.99773438 0.02320312 1.99546875 0.04640625 3.0234375 0.0703125 C4.52777344 0.09738281 4.52777344 0.09738281 6.0625 0.125 C6.83335938 0.14820312 7.60421875 0.17140625 8.3984375 0.1953125 C8.3984375 0.8553125 8.3984375 1.5153125 8.3984375 2.1953125 C12.89232624 3.69327541 18.27969434 4.13697613 22.6484375 2.1953125 C23.2259375 1.8653125 23.8034375 1.5353125 24.3984375 1.1953125 C25.7184375 1.1953125 27.0384375 1.1953125 28.3984375 1.1953125 C28.7109375 3.5078125 28.7109375 3.5078125 28.3984375 6.1953125 C25.06469128 8.84269921 21.39341145 9.86365452 17.3984375 11.1953125 C16.7384375 11.8553125 16.0784375 12.5153125 15.3984375 13.1953125 C12.62036133 13.26708984 12.62036133 13.26708984 9.10546875 13.03125 C7.19991211 12.92683594 7.19991211 12.92683594 5.25585938 12.8203125 C2.57756645 12.65927076 -0.09842541 12.48049829 -2.77539062 12.296875 C-12.39438921 11.7757981 -12.39438921 11.7757981 -20.6015625 16.1953125 C-18.66958015 9.87246116 -14.45318829 7.61594115 -8.9140625 4.5703125 C-8.14707031 4.16554688 -7.38007812 3.76078125 -6.58984375 3.34375 C-0.92047488 0.06910472 -0.92047488 0.06910472 0 0 Z " fill="#BB4245" transform="translate(43.6015625,97.8046875)"/>
<path d="M0 0 C4.71335161 0 9.41642855 0.23808515 14.125 0.4375 C15.15238281 0.47681641 16.17976563 0.51613281 17.23828125 0.55664062 C18.21410156 0.59853516 19.18992187 0.64042969 20.1953125 0.68359375 C21.09266113 0.72025146 21.99000977 0.75690918 22.91455078 0.79467773 C25 1 25 1 26 2 C28.18292774 2.23481693 30.37203174 2.41363323 32.5625 2.5625 C34.35880859 2.68818359 34.35880859 2.68818359 36.19140625 2.81640625 C37.11824219 2.87699219 38.04507813 2.93757813 39 3 C37.125 7.75 37.125 7.75 36 10 C35.34 10 34.68 10 34 10 C34 11.65 34 13.3 34 15 C30.7 15 27.4 15 24 15 C23.67 14.01 23.34 13.02 23 12 C21.23167185 11.36856864 21.23167185 11.36856864 19 11 C18.14535156 10.67386719 17.29070313 10.34773438 16.41015625 10.01171875 C12.26981784 8.78337093 8.41894497 8.54966895 4.125 8.375 C3.34125 8.33632812 2.5575 8.29765625 1.75 8.2578125 C-0.16631367 8.16433378 -2.08312319 8.08111505 -4 8 C-3.6875 6.0625 -3.6875 6.0625 -3 4 C-2.01 3.67 -1.02 3.34 0 3 C0 2.01 0 1.02 0 0 Z " fill="#910C18" transform="translate(27,109)"/>
<path d="M0 0 C7.66816143 -0.76681614 7.66816143 -0.76681614 10.93359375 1.11328125 C12.5625 2.5 12.5625 2.5 15 5 C14.1646875 5.061875 14.1646875 5.061875 13.3125 5.125 C9.75969726 6.46930374 8.29041047 9.00974189 6 12 C6.66 12.33 7.32 12.66 8 13 C6.68 13 5.36 13 4 13 C4 13.66 4 14.32 4 15 C3.34 15 2.68 15 2 15 C2 15.66 2 16.32 2 17 C-1.3 17 -4.6 17 -8 17 C-6.68 17.33 -5.36 17.66 -4 18 C-4 18.99 -4 19.98 -4 21 C-7.3 21 -10.6 21 -14 21 C-12.68 21.33 -11.36 21.66 -10 22 C-10.33 23.32 -10.66 24.64 -11 26 C-17.77619889 26 -24.27508468 25.88195611 -31 25 C-27.25 22 -27.25 22 -25 22 C-24.773125 21.443125 -24.54625 20.88625 -24.3125 20.3125 C-21.58505042 15.50699359 -18.20119687 12.73373229 -13 11 C-12.67 10.67 -12.34 10.34 -12 10 C-9.5 9.875 -9.5 9.875 -7 10 C-6.67 10.33 -6.34 10.66 -6 11 C-5.67 10.34 -5.34 9.68 -5 9 C-5.99 8.67 -6.98 8.34 -8 8 C-8 7.67 -8 7.34 -8 7 C-5.69 7 -3.38 7 -1 7 C-1 10 -1 10 -3 13 C-1.68445979 11.71142987 -0.37265903 10.41904109 0.9375 9.125 C1.66839844 8.40570313 2.39929688 7.68640625 3.15234375 6.9453125 C5.05667999 5.12972808 5.05667999 5.12972808 6 3 C3.69 2.67 1.38 2.34 -1 2 C-0.67 1.34 -0.34 0.68 0 0 Z " fill="#C4353A" transform="translate(90,60)"/>
<path d="M0 0 C0.28875 0.61875 0.5775 1.2375 0.875 1.875 C1.93720042 4.13325765 1.93720042 4.13325765 4 6 C4 6.99 4 7.98 4 9 C2.68 9 1.36 9 0 9 C0 9.66 0 10.32 0 11 C-5.41176471 15 -5.41176471 15 -8 15 C-8 15.66 -8 16.32 -8 17 C-4.04 16.505 -4.04 16.505 0 16 C0 15.34 0 14.68 0 14 C5.70709064 14.46588495 9.15939723 15.93757784 14 19 C13.94921875 20.796875 13.94921875 20.796875 13 23 C10.57384835 24.30431827 8.37168901 25.29909754 5.8125 26.25 C5.15185547 26.518125 4.49121094 26.78625 3.81054688 27.0625 C-0.26361819 28.6390772 -3.56670439 29.30336704 -8 29 C-8.144375 28.2575 -8.28875 27.515 -8.4375 26.75 C-8.90187492 24.47972261 -9.41863569 22.24240521 -10 20 C-11.32 19.67 -12.64 19.34 -14 19 C-12.71937515 17.2925002 -11.38232443 15.62626404 -10 14 C-9.34 14 -8.68 14 -8 14 C-7.9175 13.38125 -7.835 12.7625 -7.75 12.125 C-7 10 -7 10 -4.9375 8.75 C-4.298125 8.5025 -3.65875 8.255 -3 8 C-3.57344937 5.13275314 -3.8614515 4.1385485 -6 2 C-4.0625 1.4375 -4.0625 1.4375 -2 1 C-1.67 1.33 -1.34 1.66 -1 2 C-0.67 1.34 -0.34 0.68 0 0 Z " fill="#BA2B34" transform="translate(150,70)"/>
<path d="M0 0 C0.33 1.32 0.66 2.64 1 4 C2.216875 4.144375 3.43375 4.28875 4.6875 4.4375 C6.89016086 4.69883264 8.99980706 4.99995348 11.15771484 5.52026367 C14.69753355 6.1177335 18.14095875 6.06668581 21.71484375 5.9921875 C23.2206964 5.97467242 24.72655621 5.95776402 26.23242188 5.94140625 C28.587037 5.91047293 30.94128865 5.87492547 33.2956543 5.82861328 C35.58126245 5.78607922 37.86644643 5.76278442 40.15234375 5.7421875 C40.84939926 5.72356659 41.54645477 5.70494568 42.26463318 5.6857605 C46.90408592 5.66162911 50.12844432 6.4115906 54 9 C54.875 12.6875 54.875 12.6875 55 16 C52 18 52 18 48 18 C48 15.69 48 13.38 48 11 C47.01 10.67 46.02 10.34 45 10 C44.505 9.01 44.505 9.01 44 8 C42.02 8 40.04 8 38 8 C37.34 9.32 36.68 10.64 36 12 C26.23958934 12.32001346 16.67967405 11.11306313 7 10 C6.67 9.01 6.34 8.02 6 7 C4.08351538 6.83125293 2.16680367 6.66508357 0.25 6.5 C-0.81734375 6.4071875 -1.8846875 6.314375 -2.984375 6.21875 C-5.3179218 6.04947717 -7.66032182 6 -10 6 C-9.67 4.35 -9.34 2.7 -9 1 C-5.8035914 -0.06546953 -3.34252724 -0.07427838 0 0 Z " fill="#9B1423" transform="translate(80,111)"/>
<path d="M0 0 C0.33 0 0.66 0 1 0 C0.97679687 1.10859375 0.95359375 2.2171875 0.9296875 3.359375 C0.91092423 4.82290992 0.89272463 6.28645214 0.875 7.75 C0.85824219 8.47960937 0.84148437 9.20921875 0.82421875 9.9609375 C0.78866683 13.87164855 0.96402748 16.6365734 3 20 C2.62925373 23.05865675 1.76554463 24.35168306 0 27 C-9.38309525 29.98248385 -20.22161562 29.58713488 -30 30 C-30.33 29.01 -30.66 28.02 -31 27 C-30.24976563 26.75765625 -29.49953125 26.5153125 -28.7265625 26.265625 C-22.87319988 24.34890676 -17.12402292 22.32637617 -11.44921875 19.9296875 C-8.36619995 18.7594188 -5.17077502 17.90593572 -2 17 C-1.34 11.39 -0.68 5.78 0 0 Z " fill="#D8CDBC" transform="translate(177,100)"/>
<path d="M0 0 C0.99 0.33 1.98 0.66 3 1 C3.495 2.485 3.495 2.485 4 4 C1.03 4 -1.94 4 -5 4 C-4.01 4.33 -3.02 4.66 -2 5 C-2 6.32 -2 7.64 -2 9 C-7.61 8.67 -13.22 8.34 -19 8 C-16.37886292 8 -14.49064888 8.31292445 -12 9 C-12 9.66 -12 10.32 -12 11 C-10.68 11.33 -9.36 11.66 -8 12 C-8 12.33 -8 12.66 -8 13 C-13.36891879 12.50130596 -18.69235173 11.97772468 -24 11 C-24 11.66 -24 12.32 -24 13 C-20.04 13.33 -16.08 13.66 -12 14 C-12.99 14.495 -12.99 14.495 -14 15 C-14 15.66 -14 16.32 -14 17 C-15.0725 16.835 -16.145 16.67 -17.25 16.5 C-21.23501131 15.96866516 -24.16426379 15.72142126 -28 17 C-30.3406065 16.72230092 -32.67624308 16.39460023 -35 16 C-34.34 14.68 -33.68 13.36 -33 12 C-30.69 12 -28.38 12 -26 12 C-26.33 11.01 -26.66 10.02 -27 9 C-26.360625 8.525625 -25.72125 8.05125 -25.0625 7.5625 C-23.11706694 6.16261274 -23.11706694 6.16261274 -22 5 C-20.14712498 4.92773498 -18.29166122 4.9161878 -16.4375 4.9375 C-15.42558594 4.94652344 -14.41367188 4.95554687 -13.37109375 4.96484375 C-12.19740234 4.98224609 -12.19740234 4.98224609 -11 5 C-11 4.34 -11 3.68 -11 3 C-13.31 3 -15.62 3 -18 3 C-16.68 2.01 -15.36 1.02 -14 0 C-13.67 0.66 -13.34 1.32 -13 2 C-12.39671875 1.77183594 -11.7934375 1.54367188 -11.171875 1.30859375 C-9.97304687 0.87740234 -9.97304687 0.87740234 -8.75 0.4375 C-7.96109375 0.14746094 -7.1721875 -0.14257812 -6.359375 -0.44140625 C-3.75403299 -1.05823391 -2.49903499 -0.86227034 0 0 Z " fill="#CE4245" transform="translate(122,85)"/>
<path d="M0 0 C-4.72768314 5.47415943 -11.69210087 5.73736609 -18.4375 6.8125 C-27.71268568 8.3458346 -36.85229749 10.22507313 -45.99194336 12.42504883 C-46.85440674 12.63025146 -47.71687012 12.8354541 -48.60546875 13.046875 C-49.35981201 13.23088867 -50.11415527 13.41490234 -50.89135742 13.60449219 C-53 14 -53 14 -57 14 C-57 13.01 -57 12.02 -57 11 C-58.65 11 -60.3 11 -62 11 C-62 11.66 -62 12.32 -62 13 C-62.66 13 -63.32 13 -64 13 C-64 12.34 -64 11.68 -64 11 C-64.99 11 -65.98 11 -67 11 C-67 11.66 -67 12.32 -67 13 C-68.32 13 -69.64 13 -71 13 C-71 12.34 -71 11.68 -71 11 C-72.65 11 -74.3 11 -76 11 C-76 10.67 -76 10.34 -76 10 C-75.12786865 9.98018066 -74.2557373 9.96036133 -73.35717773 9.93994141 C-70.09356807 9.86142564 -66.83038246 9.77472031 -63.56713867 9.68261719 C-62.15999602 9.64454707 -60.75276331 9.60965755 -59.34545898 9.578125 C-57.31201177 9.5319922 -55.27917293 9.47408432 -53.24609375 9.4140625 C-52.02591553 9.3826416 -50.8057373 9.3512207 -49.54858398 9.31884766 C-44.59178384 8.87346885 -40.33571787 7.62983726 -35.84375 5.51171875 C-30.66695046 3.21653614 -25.05832039 2.6478733 -19.5 1.8125 C-18.39785156 1.63525391 -17.29570312 1.45800781 -16.16015625 1.27539062 C-10.71595335 0.42902295 -5.50984711 -0.22957696 0 0 Z " fill="#402A1E" transform="translate(177,127)"/>
<path d="M0 0 C2.31 0 4.62 0 7 0 C7.495 0.99 7.495 0.99 8 2 C6.5625 4.625 6.5625 4.625 5 7 C6.32 7.33 7.64 7.66 9 8 C9 8.66 9 9.32 9 10 C5.37 10.33 1.74 10.66 -2 11 C-2 11.66 -2 12.32 -2 13 C-3.98 13.99 -3.98 13.99 -6 15 C-6 15.66 -6 16.32 -6 17 C-8.31 17.33 -10.62 17.66 -13 18 C-12.01 18.66 -11.02 19.32 -10 20 C-11.093125 20.268125 -12.18625 20.53625 -13.3125 20.8125 C-16.88982994 21.96452151 -17.62879764 22.42260613 -20 25 C-23.0625 26.75 -23.0625 26.75 -26 28 C-26.66 27.67 -27.32 27.34 -28 27 C-27.01 26.67 -26.02 26.34 -25 26 C-24.67 25.01 -24.34 24.02 -24 23 C-22.68 23 -21.36 23 -20 23 C-20 22.34 -20 21.68 -20 21 C-19.0246803 19.97591432 -18.01801357 18.98165594 -17 18 C-14.85435851 15.52926132 -13.20438494 13.62887673 -12.1875 10.5 C-10.41895664 6.77675082 -7.55813657 4.96231996 -4 3 C-1.0625 2.1875 -1.0625 2.1875 1 2 C0.67 1.34 0.34 0.68 0 0 Z " fill="#A8111C" transform="translate(102,80)"/>
<path d="M0 0 C4.22941329 0.13917549 8.45845778 0.28750221 12.6875 0.4375 C13.88568359 0.47681641 15.08386719 0.51613281 16.31835938 0.55664062 C17.47529297 0.59853516 18.63222656 0.64042969 19.82421875 0.68359375 C21.41882935 0.73858032 21.41882935 0.73858032 23.0456543 0.79467773 C25.78204532 0.9848525 28.32856732 1.3931507 31 2 C31 2.66 31 3.32 31 4 C32.32 4 33.64 4 35 4 C35 3.34 35 2.68 35 2 C35.99 2 36.98 2 38 2 C38 2.66 38 3.32 38 4 C38.66 4 39.32 4 40 4 C40 3.34 40 2.68 40 2 C41.65 2 43.3 2 45 2 C45 2.99 45 3.98 45 5 C39.61804014 5.90482048 34.4553068 6.13304442 29.00390625 6.09765625 C28.17036118 6.0962413 27.3368161 6.09482635 26.47801208 6.09336853 C23.83947014 6.08781168 21.20101591 6.0752674 18.5625 6.0625 C16.76367311 6.05747942 14.96484487 6.05291749 13.16601562 6.04882812 C8.77731042 6.03785643 4.38867004 6.02062196 0 6 C0 5.34 0 4.68 0 4 C-0.66 4 -1.32 4 -2 4 C-1.34 2.68 -0.68 1.36 0 0 Z " fill="#100904" transform="translate(75,136)"/>
<path d="M0 0 C0.66 0 1.32 0 2 0 C4.48577137 7.76803553 5.61370506 17.15888482 3 25 C0.66883683 26.60769874 -0.42816426 27.09530596 -3.25 26.625 C-4.11625 26.315625 -4.11625 26.315625 -5 26 C-4.34 24.68 -3.68 23.36 -3 22 C-3.66 21.01 -4.32 20.02 -5 19 C-7.16479509 15.75280737 -7.25134712 15.12205971 -6.875 11.4375 C-6.81054688 10.65246094 -6.74609375 9.86742188 -6.6796875 9.05859375 C-6 7 -6 7 -4.0234375 5.88671875 C-3.35570312 5.59410156 -2.68796875 5.30148438 -2 5 C-0.71745356 2.46229997 -0.71745356 2.46229997 0 0 Z M-3 16 C-3.33 16.99 -3.66 17.98 -4 19 C-3.34 19 -2.68 19 -2 19 C-2.33 18.01 -2.66 17.02 -3 16 Z " fill="#A02F35" transform="translate(173,89)"/>
<path d="M0 0 C2 2 2 2 2.23046875 3.875 C2.20919922 4.926875 2.20919922 4.926875 2.1875 6 C2.18105469 6.70125 2.17460937 7.4025 2.16796875 8.125 C2 10 2 10 1 12 C0.34 12 -0.32 12 -1 12 C-1.268125 12.639375 -1.53625 13.27875 -1.8125 13.9375 C-3 16 -3 16 -6 17 C-6.37769531 16.55011719 -6.75539062 16.10023437 -7.14453125 15.63671875 C-9.4939912 13.56424776 -11.73073344 12.82127918 -14.6875 11.8125 C-15.68136719 11.46832031 -16.67523438 11.12414062 -17.69921875 10.76953125 C-18.45847656 10.51558594 -19.21773437 10.26164062 -20 10 C-19.67 10.99 -19.34 11.98 -19 13 C-21.97 13 -24.94 13 -28 13 C-28 12.34 -28 11.68 -28 11 C-22.58823529 7 -22.58823529 7 -20 7 C-20 6.34 -20 5.68 -20 5 C-16.5432931 4.60494778 -15.34552207 4.72535425 -12.5625 6.9375 C-11.716875 7.618125 -10.87125 8.29875 -10 9 C-6.81237891 9.79690838 -6.81237891 9.79690838 -4 10 C-4 9.01 -4 8.02 -4 7 C-2.35 6.67 -0.7 6.34 1 6 C0.67 4.02 0.34 2.04 0 0 Z " fill="#B8333B" transform="translate(170,74)"/>
<path d="M0 0 C2.68739532 0.12773725 3.67220124 0.17752167 5.8125 1.875 C6.204375 2.390625 6.59625 2.90625 7 3.4375 C7.99 3.7675 8.98 4.0975 10 4.4375 C9.67 5.4275 9.34 6.4175 9 7.4375 C8.67 6.7775 8.34 6.1175 8 5.4375 C3.17557816 6.70696514 3.17557816 6.70696514 0 10.4375 C2.64 10.7675 5.28 11.0975 8 11.4375 C8 11.7675 8 12.0975 8 12.4375 C3.545 12.9325 3.545 12.9325 -1 13.4375 C-1 14.0975 -1 14.7575 -1 15.4375 C-0.505 15.086875 -0.01 14.73625 0.5 14.375 C4.22697603 12.97738399 7.09802848 13.78717141 11 14.4375 C11.33 15.7575 11.66 17.0775 12 18.4375 C10.96359375 18.35371094 9.9271875 18.26992187 8.859375 18.18359375 C7.48960868 18.08039218 6.11981553 17.97754626 4.75 17.875 C4.06808594 17.81892578 3.38617188 17.76285156 2.68359375 17.70507812 C-0.7420581 17.45563746 -3.72701177 17.29870255 -7 18.4375 C-7 17.7775 -7 17.1175 -7 16.4375 C-7.99 16.1075 -8.98 15.7775 -10 15.4375 C-9.34 15.4375 -8.68 15.4375 -8 15.4375 C-8 14.7775 -8 14.1175 -8 13.4375 C-7.01 13.4375 -6.02 13.4375 -5 13.4375 C-4.938125 12.86 -4.87625 12.2825 -4.8125 11.6875 C-3.6865841 8.56957906 -1.58205789 7.42369837 1 5.4375 C1 4.7775 1 4.1175 1 3.4375 C-1.64 3.7675 -4.28 4.0975 -7 4.4375 C-5.24239427 0.92228854 -3.79423083 0.11856971 0 0 Z " fill="#BE3236" transform="translate(120,66.5625)"/>
<path d="M0 0 C1.32 0 2.64 0 4 0 C5.06652192 2.30368736 6.06421005 4.64018187 7 7 C6.67 7.66 6.34 8.32 6 9 C7.32 9.33 8.64 9.66 10 10 C9.40832031 10.19335938 8.81664062 10.38671875 8.20703125 10.5859375 C6.5786186 11.1225433 4.95237461 11.66576566 3.328125 12.21484375 C1.57821078 12.80499939 -0.17817714 13.37601398 -1.9375 13.9375 C-4.53790628 15.27710324 -4.99269109 16.28801448 -6 19 C-6.37125 19.9075 -6.7425 20.815 -7.125 21.75 C-7.558125 22.86375 -7.558125 22.86375 -8 24 C-8.33 24 -8.66 24 -9 24 C-9 22.02 -9 20.04 -9 18 C-8.34 18 -7.68 18 -7 18 C-6.8453125 17.071875 -6.8453125 17.071875 -6.6875 16.125 C-6 14 -6 14 -3 12 C-3.474375 11.5875 -3.94875 11.175 -4.4375 10.75 C-6.16266518 8.817815 -6.56584875 7.51807725 -7 5 C-3.375 2 -3.375 2 0 2 C0 1.34 0 0.68 0 0 Z " fill="#BF4B4B" transform="translate(136,90)"/>
<path d="M0 0 C2.8125 -0.25 2.8125 -0.25 6 0 C7.69921875 2.015625 7.69921875 2.015625 9 4 C7.42210402 5.15330947 5.8374518 6.29737927 4.25 7.4375 C3.36828125 8.07558594 2.4865625 8.71367188 1.578125 9.37109375 C-0.76513734 10.8516095 -2.27888369 11.67188202 -5 12 C-7.35684056 11.42190703 -9.69011685 10.74386068 -12 10 C-13.31104649 9.61994956 -14.62350497 9.24472735 -15.9375 8.875 C-16.948125 8.58625 -17.95875 8.2975 -19 8 C-19 7.67 -19 7.34 -19 7 C-15.37 7.33 -11.74 7.66 -8 8 C-8 7.01 -8 6.02 -8 5 C-9.65 4.67 -11.3 4.34 -13 4 C-13 3.67 -13 3.34 -13 3 C-9.37 3.33 -5.74 3.66 -2 4 C-2 3.34 -2 2.68 -2 2 C-1.34 2 -0.68 2 0 2 C0 1.34 0 0.68 0 0 Z " fill="#9C0F1A" transform="translate(94,73)"/>
<path d="M0 0 C0.98226562 0.18175781 0.98226562 0.18175781 1.984375 0.3671875 C2.89703125 0.53476563 3.8096875 0.70234375 4.75 0.875 C5.74644531 1.05804688 6.74289063 1.24109375 7.76953125 1.4296875 C11.9593827 2.16937107 16.16308721 2.8099411 20.37109375 3.4375 C22.88407569 3.97519599 24.77544511 4.7378412 27 6 C27 6.33 27 6.66 27 7 C18.20606372 7.42781312 10.48688461 6.29967196 2 4 C1.67 5.98 1.34 7.96 1 10 C-2.3 10 -5.6 10 -9 10 C-9 8.33333333 -9 6.66666667 -9 5 C-6.03 5 -3.06 5 0 5 C0 3.35 0 1.7 0 0 Z " fill="#A35939" transform="translate(61,119)"/>
<path d="M0 0 C3.375 1.5 3.375 1.5 6 3 C3 5 3 5 1 5 C0.8453125 5.86625 0.8453125 5.86625 0.6875 6.75 C-0.14680381 9.48044883 -0.93625184 11.00741557 -3 13 C-6.1875 13.25 -6.1875 13.25 -9 13 C-8.34 12.01 -7.68 11.02 -7 10 C-8.96822886 8.03177114 -12.34808709 8.33751619 -15 8 C-14.34 7.67 -13.68 7.34 -13 7 C-12.731875 6.38125 -12.46375 5.7625 -12.1875 5.125 C-9.48502387 0.28899009 -5.21600475 -0.63869446 0 0 Z " fill="#BF6769" transform="translate(141,61)"/>
<path d="M0 0 C5.70709064 0.46588495 9.15939723 1.93757784 14 5 C13.95703125 6.79296875 13.95703125 6.79296875 13 9 C10.53221544 10.32468532 8.2883288 11.34175099 5.6875 12.3125 C5.01009766 12.58900391 4.33269531 12.86550781 3.63476562 13.15039062 C-2.508971 15.53461686 -2.508971 15.53461686 -6 14 C-4.824375 13.38125 -4.824375 13.38125 -3.625 12.75 C-0.92559981 10.95039987 0.04527025 10.05513519 1 7 C0.67 6.01 0.34 5.02 0 4 C0.99 4 1.98 4 3 4 C2.01 2.68 1.02 1.36 0 0 Z " fill="#B01E2F" transform="translate(150,84)"/>
<path d="M0 0 C1.08667969 0.19464844 2.17335938 0.38929687 3.29296875 0.58984375 C4.54013672 0.82380859 4.54013672 0.82380859 5.8125 1.0625 C5.8125 1.3925 5.8125 1.7225 5.8125 2.0625 C3.8325 2.0625 1.8525 2.0625 -0.1875 2.0625 C0.3075 2.51625 0.8025 2.97 1.3125 3.4375 C2.8125 5.0625 2.8125 5.0625 2.8125 7.0625 C-0.0625 6.75 -0.0625 6.75 -3.1875 6.0625 C-3.8475 5.0725 -4.5075 4.0825 -5.1875 3.0625 C-6.1775 3.3925 -7.1675 3.7225 -8.1875 4.0625 C-7.1975 4.3925 -6.2075 4.7225 -5.1875 5.0625 C-6.1775 5.5575 -6.1775 5.5575 -7.1875 6.0625 C-7.1875 7.0525 -7.1875 8.0425 -7.1875 9.0625 C-5.5375 8.7325 -3.8875 8.4025 -2.1875 8.0625 C-3.1775 9.5475 -3.1775 9.5475 -4.1875 11.0625 C-7.15278179 11.1187279 -9.87600026 11.01933804 -12.8125 10.75 C-14.01519531 10.6581543 -14.01519531 10.6581543 -15.2421875 10.56445312 C-17.22508124 10.41101492 -19.20648519 10.23854307 -21.1875 10.0625 C-20.8575 9.4025 -20.5275 8.7425 -20.1875 8.0625 C-19.1975 8.0625 -18.2075 8.0625 -17.1875 8.0625 C-16.8575 7.0725 -16.5275 6.0825 -16.1875 5.0625 C-15.011875 4.93875 -15.011875 4.93875 -13.8125 4.8125 C-11.0428382 4.35400599 -11.0428382 4.35400599 -10.0625 2.0625 C-9.77375 1.4025 -9.485 0.7425 -9.1875 0.0625 C-5.61369658 -1.12876781 -3.67866698 -0.6724445 0 0 Z " fill="#BA3D46" transform="translate(64.1875,86.9375)"/>
<path d="M0 0 C2.12493141 -0.02693575 4.24995912 -0.04636628 6.375 -0.0625 C7.55835937 -0.07410156 8.74171875 -0.08570312 9.9609375 -0.09765625 C13 0 13 0 15 1 C16.53668865 1.22467831 18.07968054 1.40796805 19.625 1.5625 C20.44226563 1.64628906 21.25953125 1.73007813 22.1015625 1.81640625 C22.72804688 1.87699219 23.35453125 1.93757813 24 2 C24.66 4.31 25.32 6.62 26 9 C34.58 9 43.16 9 52 9 C48.44482222 12.55517778 43.06188897 11.41214461 38.25 11.4375 C37.16460937 11.47037109 36.07921875 11.50324219 34.9609375 11.53710938 C25.99100888 11.59742063 25.99100888 11.59742063 22.53125 8.578125 C21.6959375 7.72734375 20.860625 6.8765625 20 6 C17.63833236 4.87557193 17.63833236 4.87557193 15.25 4.3125 C14.40179688 4.085625 13.55359375 3.85875 12.6796875 3.625 C8.47195413 2.64360446 4.25160952 1.76890811 0 1 C0 0.67 0 0.34 0 0 Z " fill="#741218" transform="translate(70,120)"/>
<path d="M0 0 C0.33 1.32 0.66 2.64 1 4 C2.216875 4.144375 3.43375 4.28875 4.6875 4.4375 C6.93885482 4.70460989 9.10121045 5.02325105 11.3125 5.53125 C14.68056716 6.11870357 17.89564338 6.09443324 21.3125 6.0625 C22.56675781 6.05347656 23.82101563 6.04445313 25.11328125 6.03515625 C26.06589844 6.02355469 27.01851562 6.01195313 28 6 C28.495 6.99 28.495 6.99 29 8 C21.41 8.33 13.82 8.66 6 9 C6 8.34 6 7.68 6 7 C4.08351538 6.83125293 2.16680367 6.66508357 0.25 6.5 C-0.81734375 6.4071875 -1.8846875 6.314375 -2.984375 6.21875 C-5.3179218 6.04947717 -7.66032182 6 -10 6 C-9.67 4.35 -9.34 2.7 -9 1 C-5.8035914 -0.06546953 -3.34252724 -0.07427838 0 0 Z " fill="#A31724" transform="translate(80,111)"/>
<path d="M0 0 C-4.22940411 3.9300452 -4.22940411 3.9300452 -7.75390625 4.25 C-8.68074219 4.1675 -9.60757813 4.085 -10.5625 4 C-14.87771125 3.67178143 -14.87771125 3.67178143 -18.375 6 C-18.91125 6.66 -19.4475 7.32 -20 8 C-22.75 8.25 -22.75 8.25 -25 8 C-25.33 6.68 -25.66 5.36 -26 4 C-16.78552849 -3.07117869 -10.94700289 -3.74076578 0 0 Z " fill="#DF605B" transform="translate(109,107)"/>
<path d="M0 0 C0.9075 0.185625 1.815 0.37125 2.75 0.5625 C5.88191621 0.98410411 7.06765833 0.74755864 10 0 C13.82988205 -0.27094696 17.66154424 -0.27700257 21.5 -0.3125 C22.54542969 -0.34150391 23.59085938 -0.37050781 24.66796875 -0.40039062 C26.17810547 -0.41295898 26.17810547 -0.41295898 27.71875 -0.42578125 C28.63591797 -0.44036377 29.55308594 -0.45494629 30.49804688 -0.4699707 C33.72581075 0.1363374 34.91611512 1.53742084 37 4 C32.52088918 4.05856225 28.0418783 4.09378482 23.5625 4.125 C22.30244141 4.14175781 21.04238281 4.15851563 19.74414062 4.17578125 C12.82015067 4.21193786 6.68225418 3.84689071 0 2 C0 1.34 0 0.68 0 0 Z " fill="#290E08" transform="translate(30,130)"/>
<path d="M0 0 C2.33909307 3.5086396 2.41291057 4.87089433 2 9 C-0.08761227 14.56696606 -5.14406733 17.03757567 -10 20 C-10.33 19.34 -10.66 18.68 -11 18 C-10.67 17.34 -10.34 16.68 -10 16 C-11.0725 16.350625 -12.145 16.70125 -13.25 17.0625 C-16.78720743 17.94680186 -17.74811124 18.02880551 -21 17 C-20.19175781 16.68546875 -19.38351563 16.3709375 -18.55078125 16.046875 C-17.48214844 15.61890625 -16.41351563 15.1909375 -15.3125 14.75 C-14.25675781 14.33234375 -13.20101562 13.9146875 -12.11328125 13.484375 C-8.36231949 11.69596161 -4.90521018 9.81042036 -3 6 C-2.34 6 -1.68 6 -1 6 C-0.67 4.02 -0.34 2.04 0 0 Z " fill="#DCC6C1" transform="translate(172,80)"/>
<path d="M0 0 C2.91809581 0.08706253 5.83315711 0.19394734 8.75 0.3125 C9.575 0.33505859 10.4 0.35761719 11.25 0.38085938 C12.04921875 0.41630859 12.8484375 0.45175781 13.671875 0.48828125 C14.4050293 0.51446533 15.13818359 0.54064941 15.89355469 0.56762695 C18 1 18 1 22 4 C14.74 4 7.48 4 0 4 C0 4.66 0 5.32 0 6 C4.455 6.99 4.455 6.99 9 8 C9 9.32 9 10.64 9 12 C6.69 12.66 4.38 13.32 2 14 C-0.98263247 9.89888036 -1.3793347 7.02618483 -1 2 C-0.67 1.34 -0.34 0.68 0 0 Z " fill="#8B5541" transform="translate(22,116)"/>
<path d="M0 0 C-0.99 0.495 -0.99 0.495 -2 1 C-2 1.66 -2 2.32 -2 3 C0.31 3.66 2.62 4.32 5 5 C4.67 6.32 4.34 7.64 4 9 C-2.77619889 9 -9.27508468 8.88195611 -16 8 C-12.25 5 -12.25 5 -10 5 C-9.566875 4.0409375 -9.566875 4.0409375 -9.125 3.0625 C-6.99029742 -0.85112139 -4.08058807 -0.08870844 0 0 Z " fill="#B03434" transform="translate(75,77)"/>
<path d="M0 0 C1 1 1 1 1.09765625 3.28515625 C1.08605469 4.20167969 1.07445312 5.11820312 1.0625 6.0625 C1.05347656 6.98160156 1.04445312 7.90070313 1.03515625 8.84765625 C1.02355469 9.55792969 1.01195312 10.26820312 1 11 C-2.73229119 11.34718988 -4.59957594 11.23503152 -7.875 9.3125 C-10 7 -10 7 -10.5 4.375 C-9.35044219 -1.08539958 -4.55180488 -0.25287805 0 0 Z " fill="#590504" transform="translate(165,73)"/>
<path d="M0 0 C0.33 0.99 0.66 1.98 1 3 C-5.87144231 6.88949565 -12.7342657 9.03043777 -20.703125 8.984375 C-23.35444724 9.00241121 -24.67526476 9.80013665 -27 11 C-28.32 11 -29.64 11 -31 11 C-31 10.34 -31 9.68 -31 9 C-29 8.33333333 -27 7.66666667 -25 7 C-24.08927734 6.67322266 -24.08927734 6.67322266 -23.16015625 6.33984375 C-15.58805833 3.68016252 -7.79263355 1.88361817 0 0 Z " fill="#BCA598" transform="translate(174,114)"/>
<path d="M0 0 C2.375 1 2.375 1 4 3 C4.62925165 5.70364905 4.8170661 8.21025799 5 11 C3.35 11.33 1.7 11.66 0 12 C-0.33 9.69 -0.66 7.38 -1 5 C-4.41656024 4.83322718 -4.41656024 4.83322718 -8 5 C-10.16343011 7.03268602 -10.16343011 7.03268602 -12 10 C-12.33 9.01 -12.66 8.02 -13 7 C-9.29145952 0.60596469 -7.37946296 -0.50892848 0 0 Z " fill="#AD313D" transform="translate(166,69)"/>
<path d="M0 0 C14.82639715 -0.59393579 14.82639715 -0.59393579 19 3 C19.875 6.6875 19.875 6.6875 20 10 C17 12 17 12 13 12 C13 9.69 13 7.38 13 5 C12.01 4.67 11.02 4.34 10 4 C9.67 3.34 9.34 2.68 9 2 C6.87423218 1.53348793 6.87423218 1.53348793 4.4375 1.375 C3.61121094 1.30023438 2.78492187 1.22546875 1.93359375 1.1484375 C1.29550781 1.09945312 0.65742187 1.05046875 0 1 C0 0.67 0 0.34 0 0 Z " fill="#982434" transform="translate(115,117)"/>
<path d="M0 0 C0.83047852 -0.00193359 1.66095703 -0.00386719 2.51660156 -0.00585938 C3.40186523 -0.00134766 4.28712891 0.00316406 5.19921875 0.0078125 C6.5445166 0.01071289 6.5445166 0.01071289 7.91699219 0.01367188 C14.94681595 0.05904184 21.89044911 0.41786524 28.88671875 1.1328125 C28.88671875 1.4628125 28.88671875 1.7928125 28.88671875 2.1328125 C10.91796875 3.80989583 10.91796875 3.80989583 5.88671875 2.1328125 C5.55671875 2.7928125 5.22671875 3.4528125 4.88671875 4.1328125 C2.90671875 3.4728125 0.92671875 2.8128125 -1.11328125 2.1328125 C-1.11328125 2.7928125 -1.11328125 3.4528125 -1.11328125 4.1328125 C0.53671875 4.1328125 2.18671875 4.1328125 3.88671875 4.1328125 C2.89671875 5.6178125 2.89671875 5.6178125 1.88671875 7.1328125 C1.22671875 7.1328125 0.56671875 7.1328125 -0.11328125 7.1328125 C-0.11328125 6.4728125 -0.11328125 5.8128125 -0.11328125 5.1328125 C-1.10328125 4.8028125 -2.09328125 4.4728125 -3.11328125 4.1328125 C-3.11328125 3.4728125 -3.11328125 2.8128125 -3.11328125 2.1328125 C-4.10328125 1.8028125 -5.09328125 1.4728125 -6.11328125 1.1328125 C-3.82711335 -0.01027145 -2.53956447 0.00384658 0 0 Z " fill="#68361D" transform="translate(31.11328125,127.8671875)"/>
<path d="M0 0 C-0.33 0.99 -0.66 1.98 -1 3 C-1.721875 3.0825 -2.44375 3.165 -3.1875 3.25 C-6.14026834 3.81698854 -6.14026834 3.81698854 -8.375 6.0625 C-11.7679163 8.56679537 -13.87226982 8.22931834 -18 8 C-18.99 8.33 -19.98 8.66 -21 9 C-21.33 9.99 -21.66 10.98 -22 12 C-24.64 11.67 -27.28 11.34 -30 11 C-29.21625 10.38125 -28.4325 9.7625 -27.625 9.125 C-25.03162353 7.10141339 -25.03162353 7.10141339 -23 5 C-20.15811208 4.85965986 -17.3732042 5.00533877 -14.53125 5.125 C-11.82784342 5.27542329 -11.82784342 5.27542329 -10 3 C-11.32 2.34 -12.64 1.68 -14 1 C-12.04175306 0.83232136 -10.08339945 0.66588795 -8.125 0.5 C-6.48917969 0.36078125 -6.48917969 0.36078125 -4.8203125 0.21875 C-3.21670436 0.09437042 -1.60842449 0 0 0 Z " fill="#D24F4A" transform="translate(116,105)"/>
<path d="M0 0 C1.42119141 -0.00386719 1.42119141 -0.00386719 2.87109375 -0.0078125 C5.26390459 0.11026525 7.27586153 0.44387365 9.5625 1.125 C9.5625 1.785 9.5625 2.445 9.5625 3.125 C7.2525 3.125 4.9425 3.125 2.5625 3.125 C2.5625 3.785 2.5625 4.445 2.5625 5.125 C-1.5594364 7.12351462 -4.88202917 7.38285684 -9.4375 7.125 C-10.0975 6.795 -10.7575 6.465 -11.4375 6.125 C-11.4375 5.465 -11.4375 4.805 -11.4375 4.125 C-10.4475 3.795 -9.4575 3.465 -8.4375 3.125 C-8.4375 2.465 -8.4375 1.805 -8.4375 1.125 C-5.36792902 0.10180967 -3.21309677 -0.00871939 0 0 Z " fill="#DB5954" transform="translate(52.4375,101.875)"/>
<path d="M0 0 C0.33 0 0.66 0 1 0 C0.97679687 1.10859375 0.95359375 2.2171875 0.9296875 3.359375 C0.91092423 4.82290992 0.89272463 6.28645214 0.875 7.75 C0.85824219 8.47960937 0.84148437 9.20921875 0.82421875 9.9609375 C0.78866683 13.87164855 0.96402748 16.6365734 3 20 C2.62925373 23.05865675 1.76554463 24.35168306 0 27 C-2.625 27.1875 -2.625 27.1875 -5 27 C-4.505 26.34 -4.01 25.68 -3.5 25 C-1.51177853 21.02355707 -1.85727645 18.42443019 -2 14 C-1.67 13.01 -1.34 12.02 -1 11 C-0.77820215 9.10787263 -0.59385985 7.21115528 -0.4375 5.3125 C-0.35371094 4.31863281 -0.26992187 3.32476562 -0.18359375 2.30078125 C-0.12300781 1.54152344 -0.06242188 0.78226562 0 0 Z M-2 18 C-3.5625 20 -3.5625 20 -6 22 C-9.75 22.25 -9.75 22.25 -13 22 C-5.77464789 16.11267606 -5.77464789 16.11267606 -2 18 Z " fill="#CEBEB1" transform="translate(177,100)"/>
<path d="M0 0 C11.22 0 22.44 0 34 0 C28.99881649 2.50059175 25.089745 3.1260559 19.55078125 3.1328125 C18.53822266 3.13410156 17.52566406 3.13539063 16.48242188 3.13671875 C15.43634766 3.13285156 14.39027344 3.12898437 13.3125 3.125 C11.72598633 3.13080078 11.72598633 3.13080078 10.10742188 3.13671875 C9.09873047 3.13542969 8.09003906 3.13414062 7.05078125 3.1328125 C5.66886597 3.13112061 5.66886597 3.13112061 4.2590332 3.12939453 C2 3 2 3 0 2 C0 1.34 0 0.68 0 0 Z " fill="#D8CBB5" transform="translate(100,133)"/>
<path d="M0 0 C0.98226562 -0.02578125 1.96453125 -0.0515625 2.9765625 -0.078125 C3.76804687 0.03015625 4.55953125 0.1384375 5.375 0.25 C6.035 1.24 6.695 2.23 7.375 3.25 C4.8553886 3.61599397 2.33506672 3.96800851 -0.1875 4.3125 C-0.89197266 4.41626953 -1.59644531 4.52003906 -2.32226562 4.62695312 C-8.06467277 5.39437159 -13.06824429 5.1022519 -18.625 3.25 C-18.625 2.59 -18.625 1.93 -18.625 1.25 C-12.42488704 0.63438595 -6.23025529 0.15085364 0 0 Z " fill="#914D2C" transform="translate(40.625,118.75)"/>
<path d="M0 0 C1.32 0 2.64 0 4 0 C4.3125 2.3125 4.3125 2.3125 4 5 C0.66625378 7.64738671 -3.00502605 8.66834202 -7 10 C-7.66 10.66 -8.32 11.32 -9 12 C-12.625 12.125 -12.625 12.125 -16 12 C-16 11.67 -16 11.34 -16 11 C-14.02 11 -12.04 11 -10 11 C-10 10.01 -10 9.02 -10 8 C-8.68 7.67 -7.36 7.34 -6 7 C-6 6.01 -6 5.02 -6 4 C-7.32 3.67 -8.64 3.34 -10 3 C-9.04287109 2.80083984 -9.04287109 2.80083984 -8.06640625 2.59765625 C-7.24011719 2.42105469 -6.41382813 2.24445313 -5.5625 2.0625 C-4.32693359 1.80146484 -4.32693359 1.80146484 -3.06640625 1.53515625 C-1.02338796 1.19247006 -1.02338796 1.19247006 0 0 Z " fill="#CF3F42" transform="translate(68,99)"/>
<path d="M0 0 C2.64 0 5.28 0 8 0 C8 0.66 8 1.32 8 2 C11.3 1.67 14.6 1.34 18 1 C17.67 2.98 17.34 4.96 17 7 C13.7 7 10.4 7 7 7 C6.67 6.01 6.34 5.02 6 4 C4.06381575 3.32843384 4.06381575 3.32843384 2 3 C1.34 2.67 0.68 2.34 0 2 C0 1.34 0 0.68 0 0 Z " fill="#71080C" transform="translate(44,117)"/>
<path d="M0 0 C5.23757909 0.14334427 10.10657161 1.11791216 15 3 C12.93506643 7.02118642 11.07786057 9.01334998 7 11 C6.34 11 5.68 11 5 11 C4.855625 10.2575 4.71125 9.515 4.5625 8.75 C4.09812508 6.47972261 3.58136431 4.24240521 3 2 C1.68 1.67 0.36 1.34 -1 1 C-0.67 0.67 -0.34 0.34 0 0 Z " fill="#C9353E" transform="translate(137,88)"/>
<path d="M0 0 C4.16138263 -0.08159574 7.9472484 0.01751476 12 1 C12 1.66 12 2.32 12 3 C13.32 3 14.64 3 16 3 C16 2.34 16 1.68 16 1 C16.99 1 17.98 1 19 1 C19 1.66 19 2.32 19 3 C19.66 3 20.32 3 21 3 C21 2.34 21 1.68 21 1 C22.65 1 24.3 1 26 1 C26 1.99 26 2.98 26 4 C18.68212478 5.24559578 11.92748971 6.07888432 5 3 C2.29113059 2.83201738 2.29113059 2.83201738 0 3 C0 2.01 0 1.02 0 0 Z " fill="#342018" transform="translate(94,137)"/>
<path d="M0 0 C-0.33 0.99 -0.66 1.98 -1 3 C-2.92578125 3.73046875 -2.92578125 3.73046875 -5.3125 4.1875 C-6.48232422 4.42533203 -6.48232422 4.42533203 -7.67578125 4.66796875 C-10 5 -10 5 -14 5 C-14 4.01 -14 3.02 -14 2 C-15.65 2 -17.3 2 -19 2 C-19 2.66 -19 3.32 -19 4 C-19.66 4 -20.32 4 -21 4 C-21 3.34 -21 2.68 -21 2 C-21.99 2 -22.98 2 -24 2 C-24 2.66 -24 3.32 -24 4 C-25.32 4 -26.64 4 -28 4 C-28 3.34 -28 2.68 -28 2 C-29.65 2 -31.3 2 -33 2 C-33 1.67 -33 1.34 -33 1 C-28.78249212 0.85694335 -24.56496269 0.71454463 -20.34741211 0.57275391 C-18.9128357 0.52443202 -17.47826532 0.47593077 -16.04370117 0.42724609 C-13.98097266 0.35727469 -11.91822328 0.28794962 -9.85546875 0.21875 C-7.99378052 0.1559082 -7.99378052 0.1559082 -6.09448242 0.09179688 C-4.06365121 0.03155289 -2.03172457 0 0 0 Z " fill="#5A4030" transform="translate(134,136)"/>
<path d="M0 0 C0.33 0.99 0.66 1.98 1 3 C0.34 3 -0.32 3 -1 3 C-0.67 2.01 -0.34 1.02 0 0 Z M-2 3 C1 5 1 5 1.6875 7.125 C1.8421875 8.053125 1.8421875 8.053125 2 9 C-3.10334017 10.905247 -7.46342706 12.42589023 -13 12 C-12.67 11.01 -12.34 10.02 -12 9 C-11.34 9 -10.68 9 -10 9 C-10 8.34 -10 7.68 -10 7 C-8.68 7 -7.36 7 -6 7 C-6 6.34 -6 5.68 -6 5 C-4.68 4.34 -3.36 3.68 -2 3 Z " fill="#911A23" transform="translate(170,105)"/>
<path d="M0 0 C7.75 0.875 7.75 0.875 10 2 C10 2.66 10 3.32 10 4 C10.66 4.33 11.32 4.66 12 5 C11.03900391 5.03867188 11.03900391 5.03867188 10.05859375 5.078125 C5.53895544 5.37449473 1.95985591 5.69960683 -1.9375 8.125 C-2.948125 8.74375 -3.95875 9.3625 -5 10 C-5.99 9.67 -6.98 9.34 -8 9 C-5.69 7.68 -3.38 6.36 -1 5 C-1.86625 4.7834375 -1.86625 4.7834375 -2.75 4.5625 C-4.83333333 4.04166667 -6.91666667 3.52083333 -9 3 C-5.64672361 0.76448241 -5.09256343 0.82716472 -1.3125 1.375 C-0.50425781 1.48585938 0.30398437 1.59671875 1.13671875 1.7109375 C2.05904297 1.85402344 2.05904297 1.85402344 3 2 C2.01 1.34 1.02 0.68 0 0 Z " fill="#B2312F" transform="translate(93,99)"/>
<path d="M0 0 C1.2065625 0.0309375 1.2065625 0.0309375 2.4375 0.0625 C1.7775 1.3825 1.1175 2.7025 0.4375 4.0625 C-0.5525 4.0625 -1.5425 4.0625 -2.5625 4.0625 C-2.5625 4.7225 -2.5625 5.3825 -2.5625 6.0625 C-0.5825 6.0625 1.3975 6.0625 3.4375 6.0625 C3.4375 6.3925 3.4375 6.7225 3.4375 7.0625 C-2.5025 7.3925 -8.4425 7.7225 -14.5625 8.0625 C-14.8925 7.0725 -15.2225 6.0825 -15.5625 5.0625 C-14.70785156 4.78535156 -13.85320312 4.50820312 -12.97265625 4.22265625 C-11.86792969 3.86042969 -10.76320312 3.49820313 -9.625 3.125 C-8.52285156 2.76535156 -7.42070312 2.40570313 -6.28515625 2.03515625 C-0.63146552 0.0154016 -0.63146552 0.0154016 0 0 Z " fill="#CBC2B2" transform="translate(161.5625,121.9375)"/>
<path d="M0 0 C1.98567708 0.5859375 3.97135417 1.171875 5.95703125 1.7578125 C4.54858407 4.97305555 2.85358339 7.07965118 0.33203125 9.5078125 C-0.61542969 10.42820312 -0.61542969 10.42820312 -1.58203125 11.3671875 C-2.06414062 11.82609375 -2.54625 12.285 -3.04296875 12.7578125 C-3.70296875 12.4278125 -4.36296875 12.0978125 -5.04296875 11.7578125 C-3.72296875 10.1078125 -2.40296875 8.4578125 -1.04296875 6.7578125 C-4.01296875 6.2628125 -4.01296875 6.2628125 -7.04296875 5.7578125 C-5.58388412 2.39069413 -4.188518 -0.49653559 0 0 Z " fill="#C0BBB6" transform="translate(90.04296875,61.2421875)"/>
<path d="M0 0 C2.4375 0.375 2.4375 0.375 5 1 C5.33 1.66 5.66 2.32 6 3 C5.01 3.33 4.02 3.66 3 4 C1.77479736 7.00847418 1.77479736 7.00847418 1 10 C-2.3 10 -5.6 10 -9 10 C-9 8.33333333 -9 6.66666667 -9 5 C-6.03 5 -3.06 5 0 5 C0 3.35 0 1.7 0 0 Z " fill="#A46149" transform="translate(61,119)"/>
<path d="M0 0 C2.97 0 5.94 0 9 0 C9 0.66 9 1.32 9 2 C11.31 2 13.62 2 16 2 C15.49396008 4.16874252 15.00016187 5.99967627 14 8 C10.9375 8.625 10.9375 8.625 8 9 C8 8.34 8 7.68 8 7 C7.01 6.67 6.02 6.34 5 6 C5.33 5.01 5.66 4.02 6 3 C3.03 2.505 3.03 2.505 0 2 C0 1.34 0 0.68 0 0 Z " fill="#AE1F26" transform="translate(59,85)"/>
<path d="M0 0 C-5.87590017 3.89984122 -12.00097451 3.55172636 -18.875 3.6875 C-20.0403125 3.72166016 -21.205625 3.75582031 -22.40625 3.79101562 C-25.27073718 3.87319354 -28.13492985 3.94244421 -31 4 C-31.33 3.34 -31.66 2.68 -32 2 C-29.69483117 0.84741559 -28.20766053 0.81728056 -25.640625 0.71875 C-24.33738281 0.66267578 -24.33738281 0.66267578 -23.0078125 0.60546875 C-22.09773438 0.57066406 -21.18765625 0.53585938 -20.25 0.5 C-0.74748129 -0.25874352 -0.74748129 -0.25874352 0 0 Z " fill="#C0968D" transform="translate(130,130)"/>
<path d="M0 0 C0.99 0.33 1.98 0.66 3 1 C3.33 1.99 3.66 2.98 4 4 C0.7 3.67 -2.6 3.34 -6 3 C-6.33 3.66 -6.66 4.32 -7 5 C-10.21451269 6.60725635 -13.43612536 6.05748185 -17 6 C-17 5.67 -17 5.34 -17 5 C-15.02 5 -13.04 5 -11 5 C-11 4.34 -11 3.68 -11 3 C-13.31 3 -15.62 3 -18 3 C-16.68 2.01 -15.36 1.02 -14 0 C-13.67 0.66 -13.34 1.32 -13 2 C-12.39671875 1.77183594 -11.7934375 1.54367188 -11.171875 1.30859375 C-10.37265625 1.02113281 -9.5734375 0.73367187 -8.75 0.4375 C-7.96109375 0.14746094 -7.1721875 -0.14257812 -6.359375 -0.44140625 C-3.75403299 -1.05823391 -2.49903499 -0.86227034 0 0 Z " fill="#C8393E" transform="translate(122,85)"/>
<path d="M0 0 C1.52519276 0.08937803 3.04681929 0.24537146 4.5625 0.4375 C5.38878906 0.53933594 6.21507812 0.64117187 7.06640625 0.74609375 C7.70449219 0.82988281 8.34257812 0.91367187 9 1 C9.33 1.99 9.66 2.98 10 4 C7.91351418 5.81898764 6.53378209 7.00696217 4 8 C0.85430694 7.76471239 -2.01033661 6.98326707 -5 6 C-4.34 5.67 -3.68 5.34 -3 5 C-2.30062468 3.68352881 -1.63270867 2.34977849 -1 1 C-0.67 0.67 -0.34 0.34 0 0 Z " fill="#C1C5C0" transform="translate(131,63)"/>
<path d="M0 0 C3 0 3 0 4.6875 1.5 C5.120625 1.995 5.55375 2.49 6 3 C5 5 4 7 3 9 C10.26 9 17.52 9 25 9 C25 9.33 25 9.66 25 10 C21.04168191 10.02892857 17.08339083 10.04677427 13.125 10.0625 C11.43310547 10.07506836 11.43310547 10.07506836 9.70703125 10.08789062 C8.63066406 10.09111328 7.55429687 10.09433594 6.4453125 10.09765625 C5.45031738 10.10289307 4.45532227 10.10812988 3.43017578 10.11352539 C1 10 1 10 -1 9 C-1 7.35 -1 5.7 -1 4 C-0.34 4 0.32 4 1 4 C0.67 2.68 0.34 1.36 0 0 Z " fill="#B9BAB9" transform="translate(25,130)"/>
<path d="M0 0 C0.75 1.6875 0.75 1.6875 1 4 C-0.8125 6.5625 -0.8125 6.5625 -3 9 C-3.99 10.485 -3.99 10.485 -5 12 C-5.66 12 -6.32 12 -7 12 C-7 12.66 -7 13.32 -7 14 C-8.32 14 -9.64 14 -11 14 C-10.67 13.01 -10.34 12.02 -10 11 C-9.34 11 -8.68 11 -8 11 C-8 10.01 -8 9.02 -8 8 C-7.34 8 -6.68 8 -6 8 C-6 6.35 -6 4.7 -6 3 C-5.01 3 -4.02 3 -3 3 C-3 2.34 -3 1.68 -3 1 C-2.01 0.67 -1.02 0.34 0 0 Z " fill="#BF2230" transform="translate(89,89)"/>
<path d="M0 0 C-1.4165021 3.4232134 -3.06827149 4.82484659 -6 7 C-6.33 7.99 -6.66 8.98 -7 10 C-8.32 9.67 -9.64 9.34 -11 9 C-10.47731534 6.23723823 -9.89130413 3.6739124 -9 1 C-5.65441284 -0.80842549 -3.59559792 -1.33170293 0 0 Z " fill="#7F0F18" transform="translate(122,70)"/>
<path d="M0 0 C0.33 0.66 0.66 1.32 1 2 C2.98 2 4.96 2 7 2 C7 2.33 7 2.66 7 3 C5.02 3.33 3.04 3.66 1 4 C1.33 4.66 1.66 5.32 2 6 C0.80375 6.2475 -0.3925 6.495 -1.625 6.75 C-5.79449098 7.77382519 -8.5823753 9.43678148 -12 12 C-12 11.34 -12 10.68 -12 10 C-12.66 9.67 -13.32 9.34 -14 9 C-13.01 9 -12.02 9 -11 9 C-11 8.34 -11 7.68 -11 7 C-7.74436549 4.14674729 -3.96064107 1.74268207 0 0 Z " fill="#B42030" transform="translate(102,77)"/>
<path d="M0 0 C2.71286403 0 5.39600989 0.0934571 8.10546875 0.21875 C9.08837891 0.26386719 10.07128906 0.30898437 11.08398438 0.35546875 C12.62022461 0.42701172 12.62022461 0.42701172 14.1875 0.5 C15.22326172 0.54769531 16.25902344 0.59539062 17.32617188 0.64453125 C19.88414342 0.76241012 22.44208395 0.88092405 25 1 C23 3 23 3 21.09228516 3.16357422 C19.95218994 3.10967529 19.95218994 3.10967529 18.7890625 3.0546875 C17.95632812 3.03019531 17.12359375 3.00570312 16.265625 2.98046875 C14.51267808 2.9104546 12.76003298 2.83239715 11.0078125 2.74609375 C5.88769508 2.46881059 5.88769508 2.46881059 1.6484375 5.0078125 C0.83246094 5.99394531 0.83246094 5.99394531 0 7 C-1.32 7 -2.64 7 -4 7 C-3.34 5.68 -2.68 4.36 -2 3 C-1.34 3 -0.68 3 0 3 C0 2.01 0 1.02 0 0 Z " fill="#A72227" transform="translate(27,109)"/>
<path d="M0 0 C3.375 -0.125 3.375 -0.125 7 0 C7.66 0.66 8.32 1.32 9 2 C5.56476684 6.31606218 5.56476684 6.31606218 3 8 C-0.14068935 8.22980654 -2.95202607 7.74506029 -6 7 C-4.8125 5 -4.8125 5 -3 3 C-0.375 2.6875 -0.375 2.6875 2 3 C2.33 3.33 2.66 3.66 3 4 C3.33 3.34 3.66 2.68 4 2 C2.68 1.67 1.36 1.34 0 1 C0 0.67 0 0.34 0 0 Z " fill="#565956" transform="translate(126,69)"/>
<path d="M0 0 C-1 1 -2 2 -3 3 C-3.639375 3.721875 -4.27875 4.44375 -4.9375 5.1875 C-7 7 -7 7 -11 7 C-11 6.34 -11 5.68 -11 5 C-12.32 5 -13.64 5 -15 5 C-15 4.34 -15 3.68 -15 3 C-13.4447088 2.29634398 -11.88035173 1.61270622 -10.3125 0.9375 C-9.44238281 0.55464844 -8.57226562 0.17179687 -7.67578125 -0.22265625 C-4.67786136 -1.0935848 -2.96719847 -0.85006226 0 0 Z " fill="#C94B48" transform="translate(93,103)"/>
<path d="M0 0 C2.31 0 4.62 0 7 0 C7 3 7 3 5.375 5.6875 C3 8 3 8 -0.25 8.3125 C-1.1575 8.209375 -2.065 8.10625 -3 8 C-3.66 6.68 -4.32 5.36 -5 4 C-4 3 -4 3 -1.5 2.875 C1 3 1 3 2 4 C2.33 3.34 2.66 2.68 3 2 C2.01 1.67 1.02 1.34 0 1 C0 0.67 0 0.34 0 0 Z " fill="#5E3938" transform="translate(82,67)"/>
<path d="M0 0 C2.68739532 0.12773725 3.67220124 0.17752167 5.8125 1.875 C6.204375 2.390625 6.59625 2.90625 7 3.4375 C7.99 3.7675 8.98 4.0975 10 4.4375 C9.67 5.4275 9.34 6.4175 9 7.4375 C8.67 6.7775 8.34 6.1175 8 5.4375 C4.59687262 6.49625074 1.98646769 7.44652154 -1 9.4375 C-0.34 7.4575 0.32 5.4775 1 3.4375 C-1.64 3.7675 -4.28 4.0975 -7 4.4375 C-5.24239427 0.92228854 -3.79423083 0.11856971 0 0 Z " fill="#A94E53" transform="translate(120,66.5625)"/>
<path d="M0 0 C-0.33 0.99 -0.66 1.98 -1 3 C-1.99 3 -2.98 3 -4 3 C-4 3.66 -4 4.32 -4 5 C-4.99 5 -5.98 5 -7 5 C-7.33 5.99 -7.66 6.98 -8 8 C-8.66 7.67 -9.32 7.34 -10 7 C-10 8.32 -10 9.64 -10 11 C-11.65 11 -13.3 11 -15 11 C-15 12.98 -15 14.96 -15 17 C-16.125 15.25 -16.125 15.25 -17 13 C-15.73370552 9.39253315 -13.62895346 7.64043999 -10.625 5.375 C-9.85414062 4.78460938 -9.08328125 4.19421875 -8.2890625 3.5859375 C-3.11330049 0 -3.11330049 0 0 0 Z " fill="#D03E48" transform="translate(90,87)"/>
<path d="M0 0 C0.99 0.33 1.98 0.66 3 1 C3 1.66 3 2.32 3 3 C2.34 3 1.68 3 1 3 C1 3.99 1 4.98 1 6 C0.01 6.495 0.01 6.495 -1 7 C-1.33 7.99 -1.66 8.98 -2 10 C-2.99 10 -3.98 10 -5 10 C-5 8.02 -5 6.04 -5 4 C-3.35 4 -1.7 4 0 4 C0 2.68 0 1.36 0 0 Z M-8 3 C-7.01 3.495 -7.01 3.495 -6 4 C-5.59270772 6.32156597 -5.25561323 8.6568787 -5 11 C-5.99 11 -6.98 11 -8 11 C-8 8.36 -8 5.72 -8 3 Z " fill="#C32732" transform="translate(80,94)"/>
<path d="M0 0 C-3.4019487 2.09350689 -6.05272412 2.17942163 -10 2 C-10 2.66 -10 3.32 -10 4 C-9.34 4.33 -8.68 4.66 -8 5 C-12.26616316 6.13764351 -15.56486311 7 -20 7 C-20 6.34 -20 5.68 -20 5 C-20.66 4.67 -21.32 4.34 -22 4 C-21.39671875 3.87882813 -20.7934375 3.75765625 -20.171875 3.6328125 C-19.37265625 3.46523437 -18.5734375 3.29765625 -17.75 3.125 C-16.96109375 2.96257812 -16.1721875 2.80015625 -15.359375 2.6328125 C-13.02422901 2.00649851 -11.14264389 1.10003779 -9 0 C-5.38555534 -0.81140594 -3.54715438 -1.18238479 0 0 Z " fill="#5F4B3B" transform="translate(154,131)"/>
<path d="M0 0 C1.19625 0.33 2.3925 0.66 3.625 1 C10.03375105 2.45606824 16.46619456 2.16729516 23 2 C23.33 2.66 23.66 3.32 24 4 C16.41 4.33 8.82 4.66 1 5 C1 4.34 1 3.68 1 3 C0.34 3 -0.32 3 -1 3 C-0.67 2.01 -0.34 1.02 0 0 Z " fill="#A61E2C" transform="translate(85,115)"/>
<path d="M0 0 C4.1313911 0.5143499 7.53063676 0.62092619 11.625 -0.375 C11.295 0.945 10.965 2.265 10.625 3.625 C3.84880111 3.625 -2.65008468 3.50695611 -9.375 2.625 C-6.1028621 -0.37061921 -4.33904337 -0.6441717 0 0 Z " fill="#C84549" transform="translate(68.375,82.375)"/>
<path d="M0 0 C1 1 1 1 1.09765625 3.28515625 C1.08605469 4.20167969 1.07445312 5.11820312 1.0625 6.0625 C1.05347656 6.98160156 1.04445312 7.90070313 1.03515625 8.84765625 C1.02355469 9.55792969 1.01195312 10.26820312 1 11 C0.67 11 0.34 11 0 11 C0 8.36 0 5.72 0 3 C-2.31 3 -4.62 3 -7 3 C-7 4.98 -7 6.96 -7 9 C-7.99 8.34 -8.98 7.68 -10 7 C-10.375 4.5 -10.375 4.5 -10 2 C-6.34346173 -0.43769218 -4.30999899 -0.23944439 0 0 Z " fill="#810C15" transform="translate(165,73)"/>
<path d="M0 0 C-2.36551942 2.73902249 -4.54857221 3.93170092 -8 5 C-10.8125 5.125 -10.8125 5.125 -13 5 C-13 4.34 -13 3.68 -13 3 C-15.64 3 -18.28 3 -21 3 C-21 2.67 -21 2.34 -21 2 C-18.81347261 1.66034526 -16.62571975 1.32857523 -14.4375 1 C-13.21933594 0.814375 -12.00117188 0.62875 -10.74609375 0.4375 C-7.12372152 0.01444923 -3.64287954 -0.07501425 0 0 Z " fill="#6D5042" transform="translate(177,127)"/>
<path d="M0 0 C2.58396679 -0.08112454 5.16537568 -0.14054748 7.75 -0.1875 C8.47960938 -0.21263672 9.20921875 -0.23777344 9.9609375 -0.26367188 C14.78731876 -0.32948616 15.94866839 -0.03849871 20 3 C13.4 3 6.8 3 0 3 C0 2.01 0 1.02 0 0 Z " fill="#A6593F" transform="translate(24,117)"/>
<path d="M0 0 C1.8253125 0.0309375 1.8253125 0.0309375 3.6875 0.0625 C3.6875 0.3925 3.6875 0.7225 3.6875 1.0625 C-1.23708583 2.65891649 -5.32843201 3.30270659 -10.55859375 3.2578125 C-11.54255882 3.25356766 -11.54255882 3.25356766 -12.54640198 3.24923706 C-14.61446409 3.23815984 -16.68207173 3.21308063 -18.75 3.1875 C-20.16340515 3.17745402 -21.57681717 3.16833102 -22.99023438 3.16015625 C-26.43113394 3.13826184 -29.87177252 3.10382051 -33.3125 3.0625 C-32.9825 2.4025 -32.6525 1.7425 -32.3125 1.0625 C-31.3066687 1.07035522 -31.3066687 1.07035522 -30.28051758 1.07836914 C-27.228688 1.09921605 -24.17687344 1.11218469 -21.125 1.125 C-20.06990234 1.13337891 -19.01480469 1.14175781 -17.92773438 1.15039062 C-16.90615234 1.15361328 -15.88457031 1.15683594 -14.83203125 1.16015625 C-13.89464111 1.16539307 -12.95725098 1.17062988 -11.99145508 1.17602539 C-7.90968495 1.00305327 -4.10617403 -0.06959617 0 0 Z " fill="#9E7F63" transform="translate(134.3125,133.9375)"/>
<path d="M0 0 C3.85645121 -0.22036864 6.49223216 0.39644899 10 2 C10 2.99 10 3.98 10 5 C10.33 5.99 10.66 6.98 11 8 C8.36 8 5.72 8 3 8 C3.0928125 6.576875 3.0928125 6.576875 3.1875 5.125 C3.125625 4.09375 3.06375 3.0625 3 2 C2.01 1.34 1.02 0.68 0 0 Z " fill="#995B3A" transform="translate(90,129)"/>
<path d="M0 0 C0.66 0.33 1.32 0.66 2 1 C1.54658132 2.27259511 1.08704773 3.54301243 0.625 4.8125 C0.36976563 5.52019531 0.11453125 6.22789063 -0.1484375 6.95703125 C-1 9 -1 9 -3 12 C-3.99 12 -4.98 12 -6 12 C-6.3125 9.25 -6.3125 9.25 -6 6 C-3.5625 3.75 -3.5625 3.75 -1 2 C-0.67 1.34 -0.34 0.68 0 0 Z " fill="#A81C2F" transform="translate(166,97)"/>
<path d="M0 0 C2.31 0 4.62 0 7 0 C6.49396008 2.16874252 6.00016187 3.99967627 5 6 C5.66 6 6.32 6 7 6 C7 6.66 7 7.32 7 8 C4.36 7.67 1.72 7.34 -1 7 C-0.67 4.69 -0.34 2.38 0 0 Z " fill="#343132" transform="translate(68,134)"/>
<path d="M0 0 C0 0.33 0 0.66 0 1 C-2.64 1 -5.28 1 -8 1 C-8 1.66 -8 2.32 -8 3 C-6.35 3 -4.7 3 -3 3 C-2.67 3.66 -2.34 4.32 -2 5 C-6.96073422 6.32286246 -11.91111512 6.08893197 -17 6 C-16.37480469 5.71382813 -15.74960937 5.42765625 -15.10546875 5.1328125 C-12.84953704 4.09777046 -12.84953704 4.09777046 -11.3125 1.875 C-7.8084341 -0.96613451 -4.34648526 -0.33434502 0 0 Z " fill="#87151F" transform="translate(40,111)"/>
<path d="M0 0 C1.08667969 0.19464844 2.17335938 0.38929687 3.29296875 0.58984375 C4.54013672 0.82380859 4.54013672 0.82380859 5.8125 1.0625 C5.8125 1.3925 5.8125 1.7225 5.8125 2.0625 C3.8325 2.0625 1.8525 2.0625 -0.1875 2.0625 C0.3075 2.51625 0.8025 2.97 1.3125 3.4375 C2.8125 5.0625 2.8125 5.0625 2.8125 7.0625 C-2.74694056 6.56832751 -2.74694056 6.56832751 -4.875 4.125 C-5.308125 3.444375 -5.74125 2.76375 -6.1875 2.0625 C-7.1775 1.4025 -8.1675 0.7425 -9.1875 0.0625 C-5.61369658 -1.12876781 -3.67866698 -0.6724445 0 0 Z " fill="#D04A50" transform="translate(64.1875,86.9375)"/>
<path d="M0 0 C1.27230469 -0.03867188 1.27230469 -0.03867188 2.5703125 -0.078125 C4.875 0.25 4.875 0.25 7.875 3.25 C1.935 3.25 -4.005 3.25 -10.125 3.25 C-10.125 2.59 -10.125 1.93 -10.125 1.25 C-6.75525113 0.3514003 -3.47058822 0.10147919 0 0 Z " fill="#4E2413" transform="translate(58.125,129.75)"/>
<path d="M0 0 C3.18748029 -0.02932572 6.37492528 -0.04690739 9.5625 -0.0625 C10.90538086 -0.07506836 10.90538086 -0.07506836 12.27539062 -0.08789062 C17.29997943 -0.10629571 22.04817291 0.13733602 27 1 C27 1.66 27 2.32 27 3 C24.36 3 21.72 3 19 3 C19 2.34 19 1.68 19 1 C16.36 1 13.72 1 11 1 C11 1.66 11 2.32 11 3 C7.37 2.34 3.74 1.68 0 1 C0 0.67 0 0.34 0 0 Z " fill="#7C0A13" transform="translate(33,116)"/>
<path d="M0 0 C0.33 0.99 0.66 1.98 1 3 C-2.52574425 5.35049617 -3.84972507 5.32551176 -8 5 C-11.375 4 -11.375 4 -14 3 C-9.77083105 0.3567694 -4.91644565 0 0 0 Z " fill="#793A1F" transform="translate(50,121)"/>
<path d="M0 0 C1.45742463 -0.08096803 2.91612807 -0.13917774 4.375 -0.1875 C5.18710938 -0.22230469 5.99921875 -0.25710937 6.8359375 -0.29296875 C7.55007812 -0.19628906 8.26421875 -0.09960938 9 0 C9.66 0.99 10.32 1.98 11 3 C10.34 3 9.68 3 9 3 C8.34 4.65 7.68 6.3 7 8 C6.01 7.67 5.02 7.34 4 7 C4.66 5.68 5.32 4.36 6 3 C3.69 2.67 1.38 2.34 -1 2 C-0.67 1.34 -0.34 0.68 0 0 Z " fill="#BF615D" transform="translate(90,60)"/>
<path d="M0 0 C4.29 0 8.58 0 13 0 C13 1.32 13 2.64 13 4 C9.7 4 6.4 4 3 4 C2.67 3.01 2.34 2.02 2 1 C1.34 0.67 0.68 0.34 0 0 Z " fill="#5F0E09" transform="translate(48,120)"/>
<path d="M0 0 C1.65 0.33 3.3 0.66 5 1 C0.48306148 4.88958595 0.48306148 4.88958595 -2.1875 5.5 C-4.16479522 5.82860964 -4.16479522 5.82860964 -5.125 7.75 C-5.41375 8.4925 -5.7025 9.235 -6 10 C-6.37125 10.9075 -6.7425 11.815 -7.125 12.75 C-7.558125 13.86375 -7.558125 13.86375 -8 15 C-8.33 15 -8.66 15 -9 15 C-9 13.02 -9 11.04 -9 9 C-8.34 9 -7.68 9 -7 9 C-6.938125 8.38125 -6.87625 7.7625 -6.8125 7.125 C-6.544375 6.42375 -6.27625 5.7225 -6 5 C-4.34795544 4.29788106 -2.68076231 3.63028587 -1 3 C-0.67 2.01 -0.34 1.02 0 0 Z " fill="#AE4749" transform="translate(136,99)"/>
<path d="M0 0 C1.32 0 2.64 0 4 0 C4 0.66 4 1.32 4 2 C3.30132812 2.26554687 2.60265625 2.53109375 1.8828125 2.8046875 C0.51769531 3.33449219 0.51769531 3.33449219 -0.875 3.875 C-2.23238281 4.39707031 -2.23238281 4.39707031 -3.6171875 4.9296875 C-6.12217007 5.88530895 -6.12217007 5.88530895 -8 8 C-11.625 8.125 -11.625 8.125 -15 8 C-15 7.67 -15 7.34 -15 7 C-13.02 7 -11.04 7 -9 7 C-9 6.01 -9 5.02 -9 4 C-5.86501708 2.14223235 -3.62528568 1.79859524 0 2 C0 1.34 0 0.68 0 0 Z " fill="#C33339" transform="translate(67,103)"/>
<path d="M0 0 C0.99 0.66 1.98 1.32 3 2 C5.51502177 2.36696181 5.51502177 2.36696181 8.32421875 2.4140625 C9.35224609 2.45273438 10.38027344 2.49140625 11.43945312 2.53125 C13.04723633 2.57765625 13.04723633 2.57765625 14.6875 2.625 C15.77095703 2.66367188 16.85441406 2.70234375 17.97070312 2.7421875 C20.64696467 2.83650509 23.32321843 2.92210005 26 3 C26 3.33 26 3.66 26 4 C16.76 4 7.52 4 -2 4 C-1.34 2.68 -0.68 1.36 0 0 Z " fill="#535453" transform="translate(30,135)"/>
<path d="M0 0 C2.31 0 4.62 0 7 0 C5.02 0.99 5.02 0.99 3 2 C3 2.99 3 3.98 3 5 C-0.96 5 -4.92 5 -9 5 C-5.71299843 3.35649921 -3.52069985 2.58678331 0 2 C0 1.34 0 0.68 0 0 Z " fill="#CB4243" transform="translate(55,105)"/>
<path d="M0 0 C2.4375 0.375 2.4375 0.375 5 1 C5.33 1.66 5.66 2.32 6 3 C5.2575 3.061875 4.515 3.12375 3.75 3.1875 C0.1814261 4.24185138 -0.92245228 5.99909773 -3 9 C-2.34 9.33 -1.68 9.66 -1 10 C-2.875 9.75 -2.875 9.75 -5 9 C-6.25 6.9375 -6.25 6.9375 -7 5 C-6.01 4.67 -5.02 4.34 -4 4 C-3.34 4.33 -2.68 4.66 -2 5 C-1.34 3.35 -0.68 1.7 0 0 Z " fill="#C04449" transform="translate(99,63)"/>
<path d="M0 0 C1.07765625 0.10183594 2.1553125 0.20367187 3.265625 0.30859375 C4.08546875 0.39238281 4.9053125 0.47617188 5.75 0.5625 C5.75 1.5525 5.75 2.5425 5.75 3.5625 C3.26979503 3.44908509 0.79155031 3.32235314 -1.6875 3.1875 C-2.39455078 3.1565625 -3.10160156 3.125625 -3.83007812 3.09375 C-5.64239188 2.98969371 -7.44817988 2.78330108 -9.25 2.5625 C-9.58 1.9025 -9.91 1.2425 -10.25 0.5625 C-6.70049966 -0.60056443 -3.69176052 -0.36115049 0 0 Z " fill="#2D1509" transform="translate(88.25,136.4375)"/>
<path d="M0 0 C3.56051786 0.44506473 4.95687431 0.99609934 7.5 3.4375 C7.17 4.4275 6.84 5.4175 6.5 6.4375 C5.84 6.4375 5.18 6.4375 4.5 6.4375 C4.5 5.4475 4.5 4.4575 4.5 3.4375 C0.33861737 3.35590426 -3.4472484 3.45501476 -7.5 4.4375 C-5.07526306 1.33383672 -3.98536323 0.4981704 0 0 Z " fill="#B65B60" transform="translate(162.5,68.5625)"/>
<path d="M0 0 C0.66 0.66 1.32 1.32 2 2 C4.72469786 2.46659731 7.38179802 2.83599254 10.125 3.125 C11.25615234 3.25455078 11.25615234 3.25455078 12.41015625 3.38671875 C14.27257127 3.59889261 16.13618931 3.80045763 18 4 C18 4.33 18 4.66 18 5 C14.87517438 5.08687496 11.75065754 5.14034568 8.625 5.1875 C7.73554687 5.21263672 6.84609375 5.23777344 5.9296875 5.26367188 C4.65351562 5.27817383 4.65351562 5.27817383 3.3515625 5.29296875 C2.17327881 5.31653442 2.17327881 5.31653442 0.97119141 5.34057617 C0.32069824 5.22818604 -0.32979492 5.1157959 -1 5 C-1.66 4.01 -2.32 3.02 -3 2 C-2.01 1.34 -1.02 0.68 0 0 Z " fill="#181715" transform="translate(34,133)"/>
<path d="M0 0 C0.33 0 0.66 0 1 0 C1.22417836 2.7648665 1.32233508 4.46277487 -0.125 6.875 C-2 8 -2 8 -5.125 7.8125 C-6.07375 7.544375 -7.0225 7.27625 -8 7 C-8.33 6.34 -8.66 5.68 -9 5 C-8.071875 4.731875 -7.14375 4.46375 -6.1875 4.1875 C-3.20270088 3.07551601 -2.01587906 2.33417575 0 0 Z " fill="#CACBBF" transform="translate(175,117)"/>
<path d="M0 0 C1.32 0 2.64 0 4 0 C4 1.65 4 3.3 4 5 C2.02 5.66 0.04 6.32 -2 7 C-2.33 6.01 -2.66 5.02 -3 4 C-2.67 3.34 -2.34 2.68 -2 2 C-1.34 2 -0.68 2 0 2 C0 1.34 0 0.68 0 0 Z " fill="#BF6459" transform="translate(136,90)"/>
<path d="M0 0 C2 2 2 2 2.23046875 3.875 C2.20919922 4.926875 2.20919922 4.926875 2.1875 6 C2.17783203 7.051875 2.17783203 7.051875 2.16796875 8.125 C2 10 2 10 1 12 C0.34 12 -0.32 12 -1 12 C-1.33 12.99 -1.66 13.98 -2 15 C-4.64 14.01 -7.28 13.02 -10 12 C-6.52674819 10.8422494 -3.63932552 10.93133348 0 11 C0 7.37 0 3.74 0 0 Z " fill="#C05B5E" transform="translate(170,74)"/>
<path d="M0 0 C2.37531394 -0.0543965 4.74935883 -0.09385864 7.125 -0.125 C7.79015625 -0.14175781 8.4553125 -0.15851563 9.140625 -0.17578125 C13.49516056 -0.21847278 16.95600114 0.40003783 21 2 C16.63118918 3.45627027 12.6634592 2.61022117 8.12890625 2.15625 C5.40510841 2.02023013 3.55528242 2.14614641 1 3 C0.67 2.01 0.34 1.02 0 0 Z " fill="#A01116" transform="translate(118,79)"/>
<path d="M0 0 C0.66 0 1.32 0 2 0 C2 1.65 2 3.3 2 5 C1.01 5 0.02 5 -1 5 C-1.33 5.99 -1.66 6.98 -2 8 C-2.66 8 -3.32 8 -4 8 C-4.66 9.32 -5.32 10.64 -6 12 C-6.66 11.67 -7.32 11.34 -8 11 C-7.525625 10.443125 -7.05125 9.88625 -6.5625 9.3125 C-4.87604004 6.81653926 -4.41046893 4.9553763 -4 2 C-2.68 2 -1.36 2 0 2 C0 1.34 0 0.68 0 0 Z " fill="#9D2024" transform="translate(144,76)"/>
<path d="M0 0 C0.99 0.33 1.98 0.66 3 1 C2.34 1 1.68 1 1 1 C1.33 1.66 1.66 2.32 2 3 C3.86492402 3.38995102 3.86492402 3.38995102 6 3.5 C8.1875 3.65625 8.1875 3.65625 10 4 C10.33 4.66 10.66 5.32 11 6 C7.37 6 3.74 6 0 6 C0 5.34 0 4.68 0 4 C-0.66 4 -1.32 4 -2 4 C-1.34 2.68 -0.68 1.36 0 0 Z " fill="#171114" transform="translate(75,136)"/>
<path d="M0 0 C2.97 0 5.94 0 9 0 C9 1.32 9 2.64 9 4 C3.375 4.25 3.375 4.25 0 2 C0 1.34 0 0.68 0 0 Z " fill="#D5BCA7" transform="translate(52,124)"/>
<path d="M0 0 C8.57142857 -0.28571429 8.57142857 -0.28571429 12 2 C12 2.33 12 2.66 12 3 C8.04 3 4.08 3 0 3 C0 2.01 0 1.02 0 0 Z " fill="#A66047" transform="translate(76,123)"/>
<path d="M0 0 C-0.37994168 2.75457718 -0.8073633 3.82020574 -2.875 5.75 C-5 7 -5 7 -8 7 C-8.33 7.99 -8.66 8.98 -9 10 C-9.66 9.67 -10.32 9.34 -11 9 C-10.34 8.01 -9.68 7.02 -9 6 C-8.34 6 -7.68 6 -7 6 C-6.9175 5.38125 -6.835 4.7625 -6.75 4.125 C-6 2 -6 2 -4.0625 0.75 C-2 0 -2 0 0 0 Z " fill="#AA292E" transform="translate(149,78)"/>
<path d="M0 0 C-0.33 1.32 -0.66 2.64 -1 4 C-3.64 4.66 -6.28 5.32 -9 6 C-8.39816251 3.97954558 -7.72693904 1.97888961 -7 0 C-4.3333581 -1.33332095 -2.83319697 -0.67102033 0 0 Z " fill="#CE4D4C" transform="translate(149,66)"/>
<path d="M0 0 C1.34110539 2.20887947 2.06609767 3.45469419 1.75 6.0625 C1 8 1 8 -1 11 C-1.99 10.67 -2.98 10.34 -4 10 C-3.52219697 8.70782829 -3.04270894 7.41627954 -2.5625 6.125 C-2.29566406 5.40570313 -2.02882812 4.68640625 -1.75390625 3.9453125 C-1 2 -1 2 0 0 Z " fill="#993542" transform="translate(150,109)"/>
<path d="M0 0 C0.66 0.33 1.32 0.66 2 1 C2 5.62 2 10.24 2 15 C1.67 15 1.34 15 1 15 C0.67 13.02 0.34 11.04 0 9 C-0.33 9 -0.66 9 -1 9 C-1.09765625 2.84765625 -1.09765625 2.84765625 -1 1 C-0.67 0.67 -0.34 0.34 0 0 Z " fill="#A44344" transform="translate(175,96)"/>
<path d="M0 0 C0.77321882 2.98241547 1.41196203 5.97580475 2 9 C-0.4375 8.25 -0.4375 8.25 -3 7 C-3.8125 4.875 -3.8125 4.875 -4 3 C-2.68 2.01 -1.36 1.02 0 0 Z " fill="#B54B44" transform="translate(133,92)"/>
<path d="M0 0 C2.97 0 5.94 0 9 0 C9 0.66 9 1.32 9 2 C10.65 2 12.3 2 14 2 C14 2.99 14 3.98 14 5 C13.01 5 12.02 5 11 5 C11 4.34 11 3.68 11 3 C7.37 2.67 3.74 2.34 0 2 C0 1.34 0 0.68 0 0 Z " fill="#B82E34" transform="translate(59,85)"/>
<path d="M0 0 C5.61 0.66 11.22 1.32 17 2 C17 2.33 17 2.66 17 3 C14.54159395 3.02691685 12.08348118 3.04679802 9.625 3.0625 C8.92632812 3.07087891 8.22765625 3.07925781 7.5078125 3.08789062 C2.2265625 3.11328125 2.2265625 3.11328125 0 2 C0 1.34 0 0.68 0 0 Z " fill="#643724" transform="translate(76,134)"/>
<path d="M0 0 C0.9075 0.185625 1.815 0.37125 2.75 0.5625 C5.81387973 0.97494535 7.1297269 0.74071564 10 0 C12.75 0.4375 12.75 0.4375 15 1 C15 1.66 15 2.32 15 3 C4.44191344 3.18451025 4.44191344 3.18451025 0 2 C0 1.34 0 0.68 0 0 Z " fill="#401D0F" transform="translate(30,130)"/>
<path d="M0 0 C2.4375 0.1875 2.4375 0.1875 5 1 C7.42363044 4.11609628 7.17392151 7.17372685 7 11 C6.34 11 5.68 11 5 11 C4.855625 10.2575 4.71125 9.515 4.5625 8.75 C4.09812508 6.47972261 3.58136431 4.24240521 3 2 C1.68 1.67 0.36 1.34 -1 1 C-0.67 0.67 -0.34 0.34 0 0 Z " fill="#B83E3E" transform="translate(137,88)"/>
<path d="M0 0 C2.31 0 4.62 0 7 0 C7.33 0.66 7.66 1.32 8 2 C7.0625 4.125 7.0625 4.125 6 6 C2.26360784 4.75453595 1.81243487 3.36595047 0 0 Z " fill="#9B0910" transform="translate(102,80)"/>
<path d="M0 0 C0.66 1.32 1.32 2.64 2 4 C-1.375 4.625 -1.375 4.625 -5 5 C-5.66 4.34 -6.32 3.68 -7 3 C-3.375 0 -3.375 0 0 0 Z " fill="#914C2B" transform="translate(52,124)"/>
<path d="M0 0 C0.33 0.99 0.66 1.98 1 3 C3.01508358 3.73323796 3.01508358 3.73323796 5 4 C3.75579353 4.5345256 2.50429064 5.05208611 1.25 5.5625 C0.55390625 5.85253906 -0.1421875 6.14257812 -0.859375 6.44140625 C-3.30012784 7.07831803 -4.6403655 6.80248831 -7 6 C-6.21625 5.566875 -5.4325 5.13375 -4.625 4.6875 C-1.78301625 3.10779753 -1.78301625 3.10779753 0 0 Z " fill="#AC2635" transform="translate(151,92)"/>
<path d="M0 0 C1.32 0.33 2.64 0.66 4 1 C3.2884375 1.61875 3.2884375 1.61875 2.5625 2.25 C0.83733482 4.182185 0.43415125 5.48192275 0 8 C-0.66 8 -1.32 8 -2 8 C-2.33 7.34 -2.66 6.68 -3 6 C-3.99 5.34 -4.98 4.68 -6 4 C-4.35 3.67 -2.7 3.34 -1 3 C-0.67 2.01 -0.34 1.02 0 0 Z " fill="#BA4C4A" transform="translate(54,88)"/>
<path d="M0 0 C4.95 0 9.9 0 15 0 C14.67 0.99 14.34 1.98 14 3 C13.34 3 12.68 3 12 3 C12 2.34 12 1.68 12 1 C11.01 1 10.02 1 9 1 C9 1.66 9 2.32 9 3 C7.68 3 6.36 3 5 3 C5 2.34 5 1.68 5 1 C3.35 1 1.7 1 0 1 C0 0.67 0 0.34 0 0 Z " fill="#69412E" transform="translate(101,137)"/>
<path d="M0 0 C0.33 1.32 0.66 2.64 1 4 C-5.435 4.495 -5.435 4.495 -12 5 C-10.68 4.34 -9.36 3.68 -8 3 C-6.96875 2.46375 -5.9375 1.9275 -4.875 1.375 C-2 0 -2 0 0 0 Z " fill="#CCB5A8" transform="translate(132,129)"/>
<path d="M0 0 C-0.33 0.99 -0.66 1.98 -1 3 C-1.7425 3.12375 -2.485 3.2475 -3.25 3.375 C-5.80141485 3.95486701 -7.7267573 4.73708739 -10 6 C-10 5.01 -10 4.02 -10 3 C-11.32 2.34 -12.64 1.68 -14 1 C-12.04175306 0.83232136 -10.08339945 0.66588795 -8.125 0.5 C-6.48917969 0.36078125 -6.48917969 0.36078125 -4.8203125 0.21875 C-3.21670436 0.09437042 -1.60842449 0 0 0 Z " fill="#CA4446" transform="translate(116,105)"/>
<path d="M0 0 C-0.66 1.32 -1.32 2.64 -2 4 C-2.33 3.34 -2.66 2.68 -3 2 C-3.99 2.66 -4.98 3.32 -6 4 C-6.99 4 -7.98 4 -9 4 C-9 3.01 -9 2.02 -9 1 C-5.57367167 -0.61798838 -3.61944899 -1.34053666 0 0 Z " fill="#841526" transform="translate(122,70)"/>
<path d="M0 0 C0.33 0.66 0.66 1.32 1 2 C1.99 2.33 2.98 2.66 4 3 C4 3.99 4 4.98 4 6 C2.68 6 1.36 6 0 6 C0 5.34 0 4.68 0 4 C-1.32 4 -2.64 4 -4 4 C-4 3.34 -4 2.68 -4 2 C-2.68 1.34 -1.36 0.68 0 0 Z " fill="#C83B3E" transform="translate(82,104)"/>
<path d="M0 0 C6.625 -0.125 6.625 -0.125 10 1 C10 1.66 10 2.32 10 3 C6.7 3 3.4 3 0 3 C0 2.01 0 1.02 0 0 Z " fill="#4D2E15" transform="translate(94,137)"/>
<path d="M0 0 C4.29 0.33 8.58 0.66 13 1 C12.67 1.66 12.34 2.32 12 3 C8.7 3 5.4 3 2 3 C2 2.34 2 1.68 2 1 C1.34 0.67 0.68 0.34 0 0 Z " fill="#7C3A1C" transform="translate(72,125)"/>
<path d="M0 0 C0.8125 1.6875 0.8125 1.6875 1 4 C-1.4375 6.75 -1.4375 6.75 -4 9 C-4.125 3.25 -4.125 3.25 -3 1 C-2.01 0.67 -1.02 0.34 0 0 Z " fill="#B41F2A" transform="translate(89,89)"/>
<path d="M0 0 C0.99 0 1.98 0 3 0 C3 2.64 3 5.28 3 8 C0.69 7.67 -1.62 7.34 -4 7 C-4 6.67 -4 6.34 -4 6 C-2.35 6 -0.7 6 1 6 C0.67 4.02 0.34 2.04 0 0 Z " fill="#6E050B" transform="translate(162,76)"/>
<path d="M0 0 C1.98 0.99 3.96 1.98 6 3 C5.67 3.99 5.34 4.98 5 6 C4.67 5.34 4.34 4.68 4 4 C0.59687262 5.05875074 -2.01353231 6.00902154 -5 8 C-3.62845496 5.04590299 -2.01136276 2.55991624 0 0 Z " fill="#BB9DA3" transform="translate(124,68)"/>
<path d="M0 0 C3.3 0 6.6 0 10 0 C9.01 0.495 9.01 0.495 8 1 C8 1.66 8 2.32 8 3 C2.25 3.125 2.25 3.125 0 2 C0 1.34 0 0.68 0 0 Z " fill="#CDBBA3" transform="translate(100,133)"/>
<path d="M0 0 C-0.1875 2.3125 -0.1875 2.3125 -1 5 C-3.5625 6.8125 -3.5625 6.8125 -6 8 C-5.67 5.69 -5.34 3.38 -5 1 C-2 0 -2 0 0 0 Z " fill="#DEDFD8" transform="translate(135,107)"/>
<path d="M0 0 C2.0625 0.1875 2.0625 0.1875 4 1 C4.33 1.99 4.66 2.98 5 4 C5.99 4.33 6.98 4.66 8 5 C6.02 5 4.04 5 2 5 C1.67 5.66 1.34 6.32 1 7 C1.33 5.68 1.66 4.36 2 3 C0.68 2.67 -0.64 2.34 -2 2 C-1.34 1.34 -0.68 0.68 0 0 Z " fill="#B0282A" transform="translate(56,89)"/>
<path d="M0 0 C0 1.32 0 2.64 0 4 C1.65 4 3.3 4 5 4 C4.01 5.485 4.01 5.485 3 7 C2.34 7 1.68 7 1 7 C1 6.34 1 5.68 1 5 C0.01 4.67 -0.98 4.34 -2 4 C-2 3.34 -2 2.68 -2 2 C-2.99 1.67 -3.98 1.34 -5 1 C-3 0 -3 0 0 0 Z " fill="#63483B" transform="translate(30,128)"/>
<path d="M0 0 C1.875 0.1875 1.875 0.1875 4 1 C5.25 3.5625 5.25 3.5625 6 6 C5.01 6.33 4.02 6.66 3 7 C0 2.25 0 2.25 0 0 Z " fill="#9A7366" transform="translate(21,123)"/>
<path d="M0 0 C2.475 0.99 2.475 0.99 5 2 C4.67 3.32 4.34 4.64 4 6 C2.68 6 1.36 6 0 6 C0 4.02 0 2.04 0 0 Z " fill="#871D2A" transform="translate(128,123)"/>
<path d="M0 0 C0.66 0 1.32 0 2 0 C2 0.99 2 1.98 2 3 C0 5 0 5 -3 6 C-3.33 6.99 -3.66 7.98 -4 9 C-4 4.32409833 -3.11997802 3.30350614 0 0 Z " fill="#B8313C" transform="translate(68,111)"/>
<path d="M0 0 C0.66 0.33 1.32 0.66 2 1 C1.690625 1.598125 1.38125 2.19625 1.0625 2.8125 C-0.10209704 5.08956772 -0.10209704 5.08956772 -1 8 C-1.66 8 -2.32 8 -3 8 C-3.33 7.01 -3.66 6.02 -4 5 C-4.66 4.34 -5.32 3.68 -6 3 C-4.03533587 1.93224776 -2.03144641 0.93446535 0 0 Z " fill="#AA232A" transform="translate(137,84)"/>
<path d="M0 0 C2.91517292 1.07401108 4.77810176 1.77810176 7 4 C5.02 4.66 3.04 5.32 1 6 C1 5.34 1 4.68 1 4 C0.01 4 -0.98 4 -2 4 C-1.34 2.68 -0.68 1.36 0 0 Z " fill="#A92628" transform="translate(72,74)"/>
<path d="M0 0 C1.3921875 0.0928125 1.3921875 0.0928125 2.8125 0.1875 C2.8125 1.1775 2.8125 2.1675 2.8125 3.1875 C-0.1575 3.1875 -3.1275 3.1875 -6.1875 3.1875 C-3.1875 0.1875 -3.1875 0.1875 0 0 Z " fill="#BF777D" transform="translate(138.1875,60.8125)"/>
<path d="M0 0 C-3.3 0.33 -6.6 0.66 -10 1 C-10.33 0.01 -10.66 -0.98 -11 -2 C-6.41425649 -3.42316178 -4.32850924 -2.16425462 0 0 Z " fill="#D1C9BB" transform="translate(157,129)"/>
<path d="M0 0 C-0.33 1.65 -0.66 3.3 -1 5 C-1.99 5.33 -2.98 5.66 -4 6 C-4.66 5.34 -5.32 4.68 -6 4 C-5.67 3.01 -5.34 2.02 -5 1 C-3 0 -3 0 0 0 Z " fill="#C94250" transform="translate(171,80)"/>
<path d="M0 0 C2.97 0.495 2.97 0.495 6 1 C5.34 2.32 4.68 3.64 4 5 C3.01 5 2.02 5 1 5 C1 4.34 1 3.68 1 3 C0.01 2.67 -0.98 2.34 -2 2 C-1.34 2 -0.68 2 0 2 C0 1.34 0 0.68 0 0 Z " fill="#DC4C50" transform="translate(112,80)"/>
<path d="M0 0 C1.32 0 2.64 0 4 0 C4 1.32 4 2.64 4 4 C1.69 4 -0.62 4 -3 4 C-1.75 2 -1.75 2 0 0 Z " fill="#2D221F" transform="translate(123,72)"/>
<path d="M0 0 C0 0.99 0 1.98 0 3 C-3.68754757 2.50168276 -5.60490662 1.89932357 -8 -1 C-4.59745511 -2.2151946 -3.06748874 -1.86240388 0 0 Z " fill="#BE5455" transform="translate(80,74)"/>
<path d="M0 0 C1.32 0.66 2.64 1.32 4 2 C3.34 2 2.68 2 2 2 C2 2.66 2 3.32 2 4 C-1 6 -1 6 -4 6 C-2.84826645 3.53199953 -1.95216435 1.95216435 0 0 Z " fill="#A92E39" transform="translate(91,69)"/>
<path d="M0 0 C0.91007812 0.00902344 1.82015625 0.01804688 2.7578125 0.02734375 C3.45648438 0.03894531 4.15515625 0.05054688 4.875 0.0625 C4.875 0.3925 4.875 0.7225 4.875 1.0625 C0.7553623 2.35493536 -2.79331683 3.32502625 -7.125 3.0625 C-7.125 2.4025 -7.125 1.7425 -7.125 1.0625 C-4.60024538 -0.19987731 -2.81299534 -0.03606404 0 0 Z " fill="#CDC5B2" transform="translate(115.125,132.9375)"/>
<path d="M0 0 C1.65 0 3.3 0 5 0 C5.33 1.32 5.66 2.64 6 4 C3.69 3.67 1.38 3.34 -1 3 C-0.67 2.01 -0.34 1.02 0 0 Z " fill="#834024" transform="translate(88,130)"/>
<path d="M0 0 C-0.639375 0.309375 -1.27875 0.61875 -1.9375 0.9375 C-3.93610821 1.8345163 -3.93610821 1.8345163 -5 3 C-6.66617115 3.04063832 -8.33388095 3.042721 -10 3 C-10 2.34 -10 1.68 -10 1 C-6.21812119 -0.83691257 -4.05431692 -1.15837626 0 0 Z " fill="#BF2E38" transform="translate(81,108)"/>
<path d="M0 0 C1.3921875 0.3403125 1.3921875 0.3403125 2.8125 0.6875 C-0.10153262 2.63018841 -3.04558576 4.15145304 -6.1875 5.6875 C-6.1875 2.6875 -6.1875 2.6875 -5.0625 0.9375 C-3.1875 -0.3125 -3.1875 -0.3125 0 0 Z " fill="#FAE6E1" transform="translate(35.1875,100.3125)"/>
<path d="M0 0 C0.99 0.33 1.98 0.66 3 1 C2.01 1.495 2.01 1.495 1 2 C1 2.99 1 3.98 1 5 C2.65 4.67 4.3 4.34 6 4 C5.01 5.485 5.01 5.485 4 7 C2.35 6.67 0.7 6.34 -1 6 C-0.67 4.02 -0.34 2.04 0 0 Z " fill="#C94141" transform="translate(56,91)"/>
<path d="M0 0 C4.05606165 0.46800711 7.46588679 0.87953208 11 3 C10.67 3.66 10.34 4.32 10 5 C5.59885603 4.49701212 3.28804981 2.91227269 0 0 Z " fill="#A91420" transform="translate(150,84)"/>
<path d="M0 0 C0.33 0.66 0.66 1.32 1 2 C-1.97 2 -4.94 2 -8 2 C-8 1.34 -8 0.68 -8 0 C-5.09660535 -1.45169732 -3.09125158 -0.72348441 0 0 Z " fill="#CD3942" transform="translate(150,85)"/>
<path d="M0 0 C1.65 0 3.3 0 5 0 C5.33 0.99 5.66 1.98 6 3 C3.36 3.33 0.72 3.66 -2 4 C-2 3.34 -2 2.68 -2 2 C-1.34 2 -0.68 2 0 2 C0 1.34 0 0.68 0 0 Z " fill="#C8424B" transform="translate(150,79)"/>
<path d="M0 0 C-0.99 0.495 -0.99 0.495 -2 1 C-3.13350534 3.01669827 -3.13350534 3.01669827 -4 5 C-4.99 4.67 -5.98 4.34 -7 4 C-6.67 3.34 -6.34 2.68 -6 2 C-6.66 1.67 -7.32 1.34 -8 1 C-5.29120665 -0.35439668 -2.99066732 -0.06501451 0 0 Z " fill="#D45755" transform="translate(75,77)"/>
<path d="M0 0 C0.8971875 0.5259375 0.8971875 0.5259375 1.8125 1.0625 C0.53375 1.31 -0.745 1.5575 -2.0625 1.8125 C-5.45497318 2.58240586 -5.45497318 2.58240586 -7.6875 5.1875 C-7.8525 5.80625 -8.0175 6.425 -8.1875 7.0625 C-8.5175 6.0725 -8.8475 5.0825 -9.1875 4.0625 C-3.84539474 -1.64802632 -3.84539474 -1.64802632 0 0 Z " fill="#9E1B27" transform="translate(162.1875,71.9375)"/>
<path d="M0 0 C-3.6441774 2.4294516 -5.71241272 2.16179575 -10 2 C-9 0 -9 0 -7.25 -0.6875 C-4.60760177 -1.05449975 -2.57327078 -0.64331769 0 0 Z " fill="#050304" transform="translate(65,135)"/>
<path d="M0 0 C1.22589844 0.01353516 1.22589844 0.01353516 2.4765625 0.02734375 C3.41628906 0.04474609 3.41628906 0.04474609 4.375 0.0625 C4.375 0.3925 4.375 0.7225 4.375 1.0625 C1.735 1.0625 -0.905 1.0625 -3.625 1.0625 C-3.625 1.7225 -3.625 2.3825 -3.625 3.0625 C-5.275 3.7225 -6.925 4.3825 -8.625 5.0625 C-6.51899199 0.39919656 -5.01778996 -0.07168271 0 0 Z " fill="#991720" transform="translate(35.625,110.9375)"/>
<path d="M0 0 C0.99 0.33 1.98 0.66 3 1 C3 1.66 3 2.32 3 3 C2.34 3 1.68 3 1 3 C1 3.99 1 4.98 1 6 C-0.65 6 -2.3 6 -4 6 C-4.33 5.34 -4.66 4.68 -5 4 C-3.35 4 -1.7 4 0 4 C0 2.68 0 1.36 0 0 Z " fill="#C5313C" transform="translate(80,94)"/>
<path d="M0 0 C1.2077558 3.62326739 0.54311128 4.64146369 -1 8 C-1.33 7.34 -1.66 6.68 -2 6 C-3.32 6 -4.64 6 -6 6 C-5.67 5.01 -5.34 4.02 -5 3 C-5 3.66 -5 4.32 -5 5 C-4.34 5 -3.68 5 -3 5 C-2.5359375 4.0409375 -2.5359375 4.0409375 -2.0625 3.0625 C-1 1 -1 1 0 0 Z " fill="#AC4A54" transform="translate(112,71)"/>
<path d="M0 0 C1.76462683 3.08809695 2 4.23312136 2 8 C0 7 0 7 -1 5 C-1.99 4.67 -2.98 4.34 -4 4 C-4 3.34 -4 2.68 -4 2 C-2.68 1.34 -1.36 0.68 0 0 Z " fill="#AA2030" transform="translate(104,68)"/>
<path d="M0 0 C0.33 0 0.66 0 1 0 C1 1.98 1 3.96 1 6 C-0.65 6.33 -2.3 6.66 -4 7 C-3.34 5.68 -2.68 4.36 -2 3 C-1.34 3 -0.68 3 0 3 C0 2.01 0 1.02 0 0 Z " fill="#9F2F35" transform="translate(27,109)"/>
<path d="M0 0 C0 1.66666667 0 3.33333333 0 5 C-1.98 5 -3.96 5 -6 5 C-6 4.34 -6 3.68 -6 3 C-4.02 2.01 -2.04 1.02 0 0 Z " fill="#AB1F34" transform="translate(157,106)"/>
<path d="M0 0 C0.99 0.33 1.98 0.66 3 1 C2.360625 1.268125 1.72125 1.53625 1.0625 1.8125 C-1.33131686 2.88667752 -1.33131686 2.88667752 -2 6 C-3.65 5.67 -5.3 5.34 -7 5 C-2.25 1.125 -2.25 1.125 0 0 Z " fill="#B65154" transform="translate(35,102)"/>
<path d="M0 0 C0.33 1.32 0.66 2.64 1 4 C-2.3 3.67 -5.6 3.34 -9 3 C-9 2.67 -9 2.34 -9 2 C-6.03 1.34 -3.06 0.68 0 0 Z " fill="#C63D41" transform="translate(119,90)"/>
<path d="M0 0 C2.31 0.33 4.62 0.66 7 1 C7.33 2.32 7.66 3.64 8 5 C5.03 4.505 5.03 4.505 2 4 C2 3.34 2 2.68 2 2 C1.34 1.34 0.68 0.68 0 0 Z " fill="#D4454A" transform="translate(124,80)"/>
<path d="M0 0 C1.32 1.32 2.64 2.64 4 4 C3.34 4.66 2.68 5.32 2 6 C1.01 6 0.02 6 -1 6 C-1 5.01 -1 4.02 -1 3 C-1.66 2.67 -2.32 2.34 -3 2 C-2.01 2 -1.02 2 0 2 C0 1.34 0 0.68 0 0 Z " fill="#9B1B24" transform="translate(99,73)"/>
<path d="M0 0 C2.31 0 4.62 0 7 0 C7 0.99 7 1.98 7 3 C6.01 3.495 6.01 3.495 5 4 C2.375 2.625 2.375 2.625 0 1 C0 0.67 0 0.34 0 0 Z " fill="#4F5450" transform="translate(82,67)"/>
<path d="M0 0 C-0.33 0.99 -0.66 1.98 -1 3 C-3.31 3 -5.62 3 -8 3 C-8 2.34 -8 1.68 -8 1 C-5.23735711 0.40267181 -2.83967231 0 0 0 Z " fill="#3D2413" transform="translate(134,136)"/>
<path d="M0 0 C0.99 0 1.98 0 3 0 C4.6875 2 4.6875 2 6 4 C3.69 4.66 1.38 5.32 -1 6 C-1 5.34 -1 4.68 -1 4 C-0.34 4 0.32 4 1 4 C0.67 2.68 0.34 1.36 0 0 Z " fill="#CAC1B9" transform="translate(25,130)"/>
<path d="M0 0 C0.66 0.33 1.32 0.66 2 1 C2 1.99 2 2.98 2 4 C1.34 4 0.68 4 0 4 C0 4.66 0 5.32 0 6 C1.65 6.33 3.3 6.66 5 7 C2 8 2 8 -1 7 C-0.67 4.69 -0.34 2.38 0 0 Z " fill="#976445" transform="translate(22,116)"/>
<path d="M0 0 C1.32 0 2.64 0 4 0 C4.66 1.98 5.32 3.96 6 6 C4.35 5.67 2.7 5.34 1 5 C1.33 3.68 1.66 2.36 2 1 C1.34 0.67 0.68 0.34 0 0 Z " fill="#770710" transform="translate(90,122)"/>
<path d="M0 0 C0.66 0.66 1.32 1.32 2 2 C0.71937515 3.7074998 -0.61767557 5.37373596 -2 7 C-2.66 7 -3.32 7 -4 7 C-3.39816251 4.97954558 -2.72693904 2.97888961 -2 1 C-1.34 0.67 -0.68 0.34 0 0 Z " fill="#FCF4EF" transform="translate(27,104)"/>
<path d="M0 0 C1.32 0 2.64 0 4 0 C4 0.66 4 1.32 4 2 C4.66 2.33 5.32 2.66 6 3 C3.69 3.66 1.38 4.32 -1 5 C-0.67 3.35 -0.34 1.7 0 0 Z " fill="#AA1C28" transform="translate(66,96)"/>
<path d="M0 0 C2.475 0.99 2.475 0.99 5 2 C4.34 2.66 3.68 3.32 3 4 C-0.125 3.625 -0.125 3.625 -3 3 C-2.01 2.01 -1.02 1.02 0 0 Z " fill="#CD3A3F" transform="translate(123,80)"/>
<path d="M0 0 C2.31 0.33 4.62 0.66 7 1 C5.71034824 2.37562854 4.37310707 3.70766393 3 5 C2.34 5 1.68 5 1 5 C0.67 3.35 0.34 1.7 0 0 Z " fill="#FDEBE3" transform="translate(152,68)"/>
<path d="M0 0 C2.31 0 4.62 0 7 0 C7 0.99 7 1.98 7 3 C4.69 3 2.38 3 0 3 C0 2.01 0 1.02 0 0 Z " fill="#392217" transform="translate(68,134)"/>
<path d="M0 0 C2.56269497 1.04109483 4.02610343 2.02610343 6 4 C3.36 3.67 0.72 3.34 -2 3 C-2 2.34 -2 1.68 -2 1 C-1.34 0.67 -0.68 0.34 0 0 Z " fill="#8E4835" transform="translate(88,125)"/>
<path d="M0 0 C1.65 0 3.3 0 5 0 C5.33 0.99 5.66 1.98 6 3 C4.02 3 2.04 3 0 3 C0 2.01 0 1.02 0 0 Z " fill="#A11525" transform="translate(160,112)"/>
<path d="M0 0 C2.97 0.495 2.97 0.495 6 1 C6 1.66 6 2.32 6 3 C3.69 3 1.38 3 -1 3 C-0.67 2.01 -0.34 1.02 0 0 Z " fill="#D9504D" transform="translate(56,102)"/>
<path d="M0 0 C0.66 0 1.32 0 2 0 C2.33 1.98 2.66 3.96 3 6 C1.68 6 0.36 6 -1 6 C-1.33 5.01 -1.66 4.02 -2 3 C-1.34 2.01 -0.68 1.02 0 0 Z " fill="#A55B5B" transform="translate(173,89)"/>
<path d="M0 0 C-1.32 1.32 -2.64 2.64 -4 4 C-4.33 3.01 -4.66 2.02 -5 1 C-5.99 0.67 -6.98 0.34 -8 0 C-4.94736336 -0.98120464 -3.05263664 -0.98120464 0 0 Z " fill="#B02429" transform="translate(130,85)"/>
<path d="M0 0 C0.66 0.66 1.32 1.32 2 2 C4.57061311 2.64767793 4.57061311 2.64767793 7 3 C7 3.33 7 3.66 7 4 C3.7 4 0.4 4 -3 4 C-2.01 2.68 -1.02 1.36 0 0 Z " fill="#BC5154" transform="translate(118,74)"/>
<path d="M0 0 C3 0 3 0 6 1 C4.71034824 2.37562854 3.37310707 3.70766393 2 5 C1.34 5 0.68 5 0 5 C0 3.35 0 1.7 0 0 Z " fill="#584644" transform="translate(127,72)"/>
</svg>
