<?xml version="1.0" encoding="UTF-8"?>
<svg version="1.1" xmlns="http://www.w3.org/2000/svg" width="200" height="200">
<path d="M0 0 C66 0 132 0 200 0 C200 66 200 132 200 200 C134 200 68 200 0 200 C0 134 0 68 0 0 Z " fill="#FEFEFE" transform="translate(0,0)"/>
<path d="M0 0 C0.74056641 0.02255859 1.48113281 0.04511719 2.24414062 0.06835938 C4.05947357 0.1269185 5.87375681 0.21659114 7.6875 0.3125 C7.6875 0.9725 7.6875 1.6325 7.6875 2.3125 C8.3475 2.3125 9.0075 2.3125 9.6875 2.3125 C9.6875 3.3025 9.6875 4.2925 9.6875 5.3125 C10.3475 5.3125 11.0075 5.3125 11.6875 5.3125 C11.6875 4.6525 11.6875 3.9925 11.6875 3.3125 C16.13271632 1.51324577 19.04970682 0.93102969 23.6875 2.3125 C26.375 4.3125 26.375 4.3125 28.6875 6.3125 C29.6775 6.6425 30.6675 6.9725 31.6875 7.3125 C31.955625 6.69375 32.22375 6.075 32.5 5.4375 C33.6875 3.3125 33.6875 3.3125 36.6875 1.3125 C38.6771995 0.92236284 40.67769869 0.58047351 42.6875 0.3125 C42.6875 0.9725 42.6875 1.6325 42.6875 2.3125 C46.1525 1.8175 46.1525 1.8175 49.6875 1.3125 C52.6787801 6.78129071 55.14721127 11.82166227 56.1328125 18.01171875 C56.66502334 20.53839653 56.66502334 20.53839653 58.18359375 23.59765625 C59.85675502 27.37489866 60.26244335 30.93994573 60.625 35.0625 C61.12957239 40.14045562 61.91382145 44.48809729 63.875 49.25 C65.60631896 53.56527996 66.00102511 56.82963349 65.53515625 61.4375 C64.23897749 64.30462353 62.50759061 65.03028307 59.6875 66.3125 C56.8828125 66.6484375 56.8828125 66.6484375 53.8125 66.6875 C45.07595797 67.16295807 37.47327017 70.0879543 29.37109375 73.203125 C13.91733012 78.88865839 -2.5495037 78.73880332 -18.77734375 78.59375 C-22.36208304 78.5620617 -25.94638328 78.55271355 -29.53125 78.546875 C-31.81250543 78.53772344 -34.09375637 78.52735365 -36.375 78.515625 C-37.44564697 78.51137512 -38.51629395 78.50712524 -39.61938477 78.50274658 C-40.60221436 78.49313904 -41.58504395 78.48353149 -42.59765625 78.47363281 C-43.46269775 78.46680481 -44.32773926 78.45997681 -45.21899414 78.45294189 C-47.3125 78.3125 -47.3125 78.3125 -49.3125 77.3125 C-48.5625 75.375 -48.5625 75.375 -47.3125 73.3125 C-45.234375 72.68359375 -45.234375 72.68359375 -43.3125 72.3125 C-43.89687836 72.31472061 -44.48125671 72.31694122 -45.08334351 72.31922913 C-51.14995718 72.34130388 -57.21655949 72.3564158 -63.28320312 72.36743164 C-65.54915836 72.37246926 -67.81511033 72.37929952 -70.08105469 72.38793945 C-73.33269047 72.40002996 -76.58428339 72.40573392 -79.8359375 72.41015625 C-81.36255508 72.41789818 -81.36255508 72.41789818 -82.92001343 72.42579651 C-84.33124985 72.42590981 -84.33124985 72.42590981 -85.77099609 72.42602539 C-86.60150482 72.428246 -87.43201355 72.43046661 -88.28768921 72.43275452 C-90.3125 72.3125 -90.3125 72.3125 -92.3125 71.3125 C-91.9825 69.3325 -91.6525 67.3525 -91.3125 65.3125 C-92.3025 65.3125 -93.2925 65.3125 -94.3125 65.3125 C-94.3125 59.3725 -94.3125 53.4325 -94.3125 47.3125 C-92.8275 46.8175 -92.8275 46.8175 -91.3125 46.3125 C-90.61934919 44.99274086 -89.95550219 43.65740535 -89.3125 42.3125 C-87.7265625 40.609375 -87.7265625 40.609375 -85.9375 39.0625 C-85.35226563 38.54171875 -84.76703125 38.0209375 -84.1640625 37.484375 C-82.3125 36.3125 -82.3125 36.3125 -78.3125 36.3125 C-78.3125 35.6525 -78.3125 34.9925 -78.3125 34.3125 C-77.3534375 33.879375 -77.3534375 33.879375 -76.375 33.4375 C-74.16043921 32.48426549 -74.16043921 32.48426549 -73.3125 30.3125 C-71.9925 30.3125 -70.6725 30.3125 -69.3125 30.3125 C-68.8484375 29.384375 -68.8484375 29.384375 -68.375 28.4375 C-66.65458655 24.99667309 -65.96163567 23.77215427 -62.3125 22.3125 C-60.9925 22.3125 -59.6725 22.3125 -58.3125 22.3125 C-57.6525 20.9925 -56.9925 19.6725 -56.3125 18.3125 C-54.9925 18.3125 -53.6725 18.3125 -52.3125 18.3125 C-52.23 17.69503906 -52.1475 17.07757813 -52.0625 16.44140625 C-51.3125 14.3125 -51.3125 14.3125 -49.5 13.15234375 C-48.778125 12.85457031 -48.05625 12.55679688 -47.3125 12.25 C-45.1479427 11.40117362 -45.1479427 11.40117362 -43.3125 10.3125 C-42.9825 9.3225 -42.6525 8.3325 -42.3125 7.3125 C-39.5093574 4.5093574 -38.1447495 3.34513724 -34.125 3.1875 C-33.196875 3.22875 -32.26875 3.27 -31.3125 3.3125 C-30.6525 2.6525 -29.9925 1.9925 -29.3125 1.3125 C-23.81626017 0.86198854 -20.89683399 1.03797572 -16.3125 4.3125 C-15.3225 4.6425 -14.3325 4.9725 -13.3125 5.3125 C-12.65894531 4.49394531 -12.00539063 3.67539063 -11.33203125 2.83203125 C-7.37480657 -0.46992207 -4.95765571 -0.28797821 0 0 Z " fill="#DBDCDF" transform="translate(114.3125,61.6875)"/>
<path d="M0 0 C0.74056641 0.02255859 1.48113281 0.04511719 2.24414062 0.06835938 C4.05947357 0.1269185 5.87375681 0.21659114 7.6875 0.3125 C7.6875 0.9725 7.6875 1.6325 7.6875 2.3125 C8.3475 2.3125 9.0075 2.3125 9.6875 2.3125 C9.6875 3.3025 9.6875 4.2925 9.6875 5.3125 C10.3475 5.3125 11.0075 5.3125 11.6875 5.3125 C11.6875 4.6525 11.6875 3.9925 11.6875 3.3125 C16.13271632 1.51324577 19.04970682 0.93102969 23.6875 2.3125 C26.375 4.3125 26.375 4.3125 28.6875 6.3125 C29.6775 6.6425 30.6675 6.9725 31.6875 7.3125 C31.955625 6.69375 32.22375 6.075 32.5 5.4375 C33.6875 3.3125 33.6875 3.3125 36.6875 1.3125 C38.6771995 0.92236284 40.67769869 0.58047351 42.6875 0.3125 C42.6875 0.9725 42.6875 1.6325 42.6875 2.3125 C46.1525 1.8175 46.1525 1.8175 49.6875 1.3125 C50.53074672 2.890576 51.36173918 4.4752042 52.1875 6.0625 C52.88359375 7.38507813 52.88359375 7.38507813 53.59375 8.734375 C54.6875 11.3125 54.6875 11.3125 54.6875 15.3125 C52.3775 15.9725 50.0675 16.6325 47.6875 17.3125 C46.6975 11.3725 46.6975 11.3725 45.6875 5.3125 C42.3875 5.3125 39.0875 5.3125 35.6875 5.3125 C35.3575 6.6325 35.0275 7.9525 34.6875 9.3125 C34.0275 9.3125 33.3675 9.3125 32.6875 9.3125 C33.87072911 12.86218734 34.60502387 13.10560426 37.75 14.875 C39.97265625 16.12890625 39.97265625 16.12890625 41.6875 17.3125 C41.6875 17.9725 41.6875 18.6325 41.6875 19.3125 C38.81935137 21.8984106 35.55146743 24.34714623 31.5859375 24.2734375 C30.91820312 24.14195313 30.25046875 24.01046875 29.5625 23.875 C25.41113245 23.24720175 25.41113245 23.24720175 22.1875 25.25 C20.95 26.2709375 20.95 26.2709375 19.6875 27.3125 C20.1825 28.3025 20.1825 28.3025 20.6875 29.3125 C17.02277184 33.5204055 14.47417102 35.05716512 9 36.0625 C7.15921875 36.41054687 7.15921875 36.41054687 5.28125 36.765625 C1.4131158 37.35425412 -2.41534398 37.7485811 -6.32421875 37.90625 C-8.42319745 38.12920094 -8.42319745 38.12920094 -9.68603516 39.84692383 C-11.3125 41.3125 -11.3125 41.3125 -13.21362305 41.46948242 C-13.91011963 41.36998291 -14.60661621 41.2704834 -15.32421875 41.16796875 C-16.08154297 41.06806641 -16.83886719 40.96816406 -17.61914062 40.86523438 C-18.40482422 40.74470703 -19.19050781 40.62417969 -20 40.5 C-21.19592773 40.33661133 -21.19592773 40.33661133 -22.41601562 40.16992188 C-24.38360863 39.89893601 -26.34838613 39.60764792 -28.3125 39.3125 C-28.3125 38.6525 -28.3125 37.9925 -28.3125 37.3125 C-26.3325 36.8175 -26.3325 36.8175 -24.3125 36.3125 C-24.6425 35.6525 -24.9725 34.9925 -25.3125 34.3125 C-19.72609596 32.28108035 -14.81389789 32.16879592 -8.88671875 32.33984375 C-6.32360655 32.50042334 -6.32360655 32.50042334 -4.3125 31.3125 C-9.9225 30.9825 -15.5325 30.6525 -21.3125 30.3125 C-19.39839894 26.48429787 -14.19697755 25.60732585 -10.3125 24.3125 C-10.3125 24.9725 -10.3125 25.6325 -10.3125 26.3125 C-6.68456002 24.44683512 -6.68456002 24.44683512 -4.3125 21.3125 C-3.6525 21.3125 -2.9925 21.3125 -2.3125 21.3125 C-2.3125 20.6525 -2.3125 19.9925 -2.3125 19.3125 C-6.43213944 19.81424719 -6.43213944 19.81424719 -10.1875 21.4375 C-13.07602257 22.62689165 -15.35126167 21.89840021 -18.35546875 21.40234375 C-21.2667809 21.2686907 -22.949658 22.737272 -25.3125 24.3125 C-27.625 24 -27.625 24 -29.3125 23.3125 C-29.3125 22.6525 -29.3125 21.9925 -29.3125 21.3125 C-29.9725 21.3125 -30.6325 21.3125 -31.3125 21.3125 C-30.6525 22.9625 -29.9925 24.6125 -29.3125 26.3125 C-30.09625 26.745625 -30.88 27.17875 -31.6875 27.625 C-34.52948375 29.20470247 -34.52948375 29.20470247 -36.3125 32.3125 C-41.93853343 34.03457712 -48.08879363 33.53567363 -53.91503906 33.55273438 C-55.93855923 33.56250511 -57.96108984 33.59360081 -59.984375 33.625 C-61.26054688 33.63015625 -62.53671875 33.6353125 -63.8515625 33.640625 C-65.60267334 33.65464355 -65.60267334 33.65464355 -67.38916016 33.66894531 C-70.3125 33.3125 -70.3125 33.3125 -72.21630859 31.79199219 C-72.75892334 31.05964355 -72.75892334 31.05964355 -73.3125 30.3125 C-71.9925 30.3125 -70.6725 30.3125 -69.3125 30.3125 C-69.003125 29.69375 -68.69375 29.075 -68.375 28.4375 C-66.65458655 24.99667309 -65.96163567 23.77215427 -62.3125 22.3125 C-60.9925 22.3125 -59.6725 22.3125 -58.3125 22.3125 C-57.6525 20.9925 -56.9925 19.6725 -56.3125 18.3125 C-54.9925 18.3125 -53.6725 18.3125 -52.3125 18.3125 C-52.23 17.69503906 -52.1475 17.07757813 -52.0625 16.44140625 C-51.3125 14.3125 -51.3125 14.3125 -49.5 13.15234375 C-48.4171875 12.70568359 -48.4171875 12.70568359 -47.3125 12.25 C-45.1479427 11.40117362 -45.1479427 11.40117362 -43.3125 10.3125 C-42.9825 9.3225 -42.6525 8.3325 -42.3125 7.3125 C-39.5093574 4.5093574 -38.1447495 3.34513724 -34.125 3.1875 C-33.196875 3.22875 -32.26875 3.27 -31.3125 3.3125 C-30.6525 2.6525 -29.9925 1.9925 -29.3125 1.3125 C-23.81626017 0.86198854 -20.89683399 1.03797572 -16.3125 4.3125 C-15.3225 4.6425 -14.3325 4.9725 -13.3125 5.3125 C-12.65894531 4.49394531 -12.00539062 3.67539063 -11.33203125 2.83203125 C-7.37480657 -0.46992207 -4.95765571 -0.28797821 0 0 Z " fill="#E2E4E8" transform="translate(114.3125,61.6875)"/>
<path d="M0 0 C1.97265625 0.265625 1.97265625 0.265625 4.97265625 2.265625 C3.98265625 3.915625 2.99265625 5.565625 1.97265625 7.265625 C2.51792969 7.36359375 3.06320313 7.4615625 3.625 7.5625 C10.68124965 8.96168797 16.96866739 11.26296576 22.97265625 15.265625 C24.62815156 15.65062391 26.29489955 15.99355635 27.97265625 16.265625 C27.64265625 17.585625 27.31265625 18.905625 26.97265625 20.265625 C28.29265625 19.935625 29.61265625 19.605625 30.97265625 19.265625 C29.48765625 18.770625 29.48765625 18.770625 27.97265625 18.265625 C29.70978843 16.09420978 30.54362431 15.32489915 33.34765625 14.9375 C34.21390625 14.96328125 35.08015625 14.9890625 35.97265625 15.015625 C36.83890625 15.03109375 37.70515625 15.0465625 38.59765625 15.0625 C40.97265625 15.265625 40.97265625 15.265625 43.97265625 16.265625 C43.97265625 16.925625 43.97265625 17.585625 43.97265625 18.265625 C41.33265625 18.265625 38.69265625 18.265625 35.97265625 18.265625 C35.97265625 18.925625 35.97265625 19.585625 35.97265625 20.265625 C34.91015625 21.828125 34.91015625 21.828125 32.97265625 23.265625 C29.28515625 23.953125 29.28515625 23.953125 25.97265625 24.265625 C26.61203125 24.389375 27.25140625 24.513125 27.91015625 24.640625 C28.59078125 24.846875 29.27140625 25.053125 29.97265625 25.265625 C30.46765625 26.255625 30.46765625 26.255625 30.97265625 27.265625 C29.83828125 27.389375 28.70390625 27.513125 27.53515625 27.640625 C26.35953125 27.846875 25.18390625 28.053125 23.97265625 28.265625 C23.64265625 28.925625 23.31265625 29.585625 22.97265625 30.265625 C15.90657434 30.40357454 8.9990504 30.01368217 1.97265625 29.265625 C3.88675731 25.43742287 9.0881787 24.56045085 12.97265625 23.265625 C12.97265625 23.925625 12.97265625 24.585625 12.97265625 25.265625 C16.60059623 23.39996012 16.60059623 23.39996012 18.97265625 20.265625 C19.63265625 20.265625 20.29265625 20.265625 20.97265625 20.265625 C20.97265625 19.605625 20.97265625 18.945625 20.97265625 18.265625 C16.85301681 18.76737219 16.85301681 18.76737219 13.09765625 20.390625 C10.20913368 21.58001665 7.93389458 20.85152521 4.9296875 20.35546875 C2.01837535 20.2218157 0.33549825 21.690397 -2.02734375 23.265625 C-4.33984375 22.953125 -4.33984375 22.953125 -6.02734375 22.265625 C-6.02734375 21.605625 -6.02734375 20.945625 -6.02734375 20.265625 C-6.68734375 20.265625 -7.34734375 20.265625 -8.02734375 20.265625 C-7.36734375 21.915625 -6.70734375 23.565625 -6.02734375 25.265625 C-6.81109375 25.69875 -7.59484375 26.131875 -8.40234375 26.578125 C-11.2443275 28.15782747 -11.2443275 28.15782747 -13.02734375 31.265625 C-18.65337718 32.98770212 -24.80363738 32.48879863 -30.62988281 32.50585938 C-32.65340298 32.51563011 -34.67593359 32.54672581 -36.69921875 32.578125 C-37.97539063 32.58328125 -39.2515625 32.5884375 -40.56640625 32.59375 C-42.31751709 32.60776855 -42.31751709 32.60776855 -44.10400391 32.62207031 C-47.02734375 32.265625 -47.02734375 32.265625 -48.93115234 30.74511719 C-49.47376709 30.01276855 -49.47376709 30.01276855 -50.02734375 29.265625 C-48.70734375 29.265625 -47.38734375 29.265625 -46.02734375 29.265625 C-45.71796875 28.646875 -45.40859375 28.028125 -45.08984375 27.390625 C-43.3694303 23.94979809 -42.67647942 22.72527927 -39.02734375 21.265625 C-37.70734375 21.265625 -36.38734375 21.265625 -35.02734375 21.265625 C-34.36734375 19.945625 -33.70734375 18.625625 -33.02734375 17.265625 C-31.70734375 17.265625 -30.38734375 17.265625 -29.02734375 17.265625 C-28.94484375 16.64816406 -28.86234375 16.03070313 -28.77734375 15.39453125 C-28.02734375 13.265625 -28.02734375 13.265625 -26.21484375 12.10546875 C-25.13203125 11.65880859 -25.13203125 11.65880859 -24.02734375 11.203125 C-21.86278645 10.35429862 -21.86278645 10.35429862 -20.02734375 9.265625 C-19.69734375 8.275625 -19.36734375 7.285625 -19.02734375 6.265625 C-16.22420115 3.4624824 -14.85959325 2.29826224 -10.83984375 2.140625 C-9.91171875 2.181875 -8.98359375 2.223125 -8.02734375 2.265625 C-5.42029477 -0.34142398 -3.55396134 0.02657167 0 0 Z " fill="#E7E9ED" transform="translate(91.02734375,62.734375)"/>
<path d="M0 0 C-0.375 2.4375 -0.375 2.4375 -1 5 C-3.63118651 6.31559326 -5.74325649 6.14859924 -8.6875 6.25 C-17.46993257 6.85300201 -25.15983576 9.75454056 -33.31640625 12.890625 C-48.77016988 18.57615839 -65.2370037 18.42630332 -81.46484375 18.28125 C-85.04958304 18.2495617 -88.63388328 18.24021355 -92.21875 18.234375 C-94.50000543 18.22522344 -96.78125637 18.21485365 -99.0625 18.203125 C-100.13314697 18.19887512 -101.20379395 18.19462524 -102.30688477 18.19024658 C-103.28971436 18.18063904 -104.27254395 18.17103149 -105.28515625 18.16113281 C-106.15019775 18.15430481 -107.01523926 18.14747681 -107.90649414 18.14044189 C-110 18 -110 18 -112 17 C-111.25 15.0625 -111.25 15.0625 -110 13 C-108.68 12.67 -107.36 12.34 -106 12 C-120.85 12 -135.7 12 -151 12 C-152 8 -152 8 -151 6 C-151.66 6 -152.32 6 -153 6 C-152.67 5.01 -152.34 4.02 -152 3 C-142.77449947 3.84193888 -142.77449947 3.84193888 -138.9375 4.625 C-138.298125 4.74875 -137.65875 4.8725 -137 5 C-136.67 4.67 -136.34 4.34 -136 4 C-130.47058824 3.76470588 -130.47058824 3.76470588 -128 5 C-126.62657169 5.0689472 -125.24997898 5.08467708 -123.875 5.0625 C-121.956875 5.0315625 -121.956875 5.0315625 -120 5 C-119.67 4.34 -119.34 3.68 -119 3 C-118.34 3 -117.68 3 -117 3 C-117 3.66 -117 4.32 -117 5 C-116.34 5 -115.68 5 -115 5 C-115 4.34 -115 3.68 -115 3 C-114.34 3.33 -113.68 3.66 -113 4 C-113 4.66 -113 5.32 -113 6 C-112.01 6 -111.02 6 -110 6 C-110 6.66 -110 7.32 -110 8 C-109.030625 7.95875 -108.06125 7.9175 -107.0625 7.875 C-104.20505401 7.86966828 -101.73121726 8.23247519 -98.96484375 8.93359375 C-93.51364886 10.19023116 -88.06670662 10.71568321 -82.5 11.1875 C-81.02853516 11.32961914 -81.02853516 11.32961914 -79.52734375 11.47460938 C-70.69917293 12.30558871 -70.69917293 12.30558871 -62 11 C-60.26623578 9.53673648 -60.26623578 9.53673648 -59 8 C-59 8.66 -59 9.32 -59 10 C-58.01 10 -57.02 10 -56 10 C-56 9.34 -56 8.68 -56 8 C-53.525 7.505 -53.525 7.505 -51 7 C-51 6.34 -51 5.68 -51 5 C-53.64 5.33 -56.28 5.66 -59 6 C-59 5.01 -59 4.02 -59 3 C-56.375 1.8125 -56.375 1.8125 -53 1 C-51 2 -49 3 -47 4 C-43.68529342 3.31357916 -43.68529342 3.31357916 -41 2 C-40.505 3.485 -40.505 3.485 -40 5 C-39.34 5 -38.68 5 -38 5 C-37.505 5.99 -37.505 5.99 -37 7 C-36.38125 6.835 -35.7625 6.67 -35.125 6.5 C-33 6 -33 6 -31 6 C-30.34 5.34 -29.68 4.68 -29 4 C-27.09228516 3.51342773 -27.09228516 3.51342773 -24.7890625 3.18359375 C-23.95632812 3.05919922 -23.12359375 2.93480469 -22.265625 2.80664062 C-21.39421875 2.68482422 -20.5228125 2.56300781 -19.625 2.4375 C-17.90863054 2.18772982 -16.19247574 1.93647911 -14.4765625 1.68359375 C-13.71424316 1.57587646 -12.95192383 1.46815918 -12.16650391 1.35717773 C-10.00142072 1.03374436 -10.00142072 1.03374436 -7.92333984 0.46118164 C-5.26840029 -0.1754242 -2.71782709 -0.0617688 0 0 Z " fill="#D0D0D2" transform="translate(177,122)"/>
<path d="M0 0 C2.31 0.33 4.62 0.66 7 1 C3.51420972 2.96834426 -0.00198374 3.85038708 -3.875 4.8125 C-8.99784074 6.11078399 -13.87575418 7.65001504 -18.8125 9.5625 C-34.72598947 15.32784813 -50.89646955 15.40103856 -67.625 15.1875 C-69.71092769 15.17240575 -71.79686612 15.15872584 -73.8828125 15.14648438 C-78.92214711 15.11390082 -83.9609499 15.06238824 -89 15 C-89 14.34 -89 13.68 -89 13 C-90.32 12.67 -91.64 12.34 -93 12 C-92.34 12 -91.68 12 -91 12 C-91 11.34 -91 10.68 -91 10 C-84.1076508 7.79444826 -76.05886908 9.01078132 -69 10 C-68.67 10.33 -68.34 10.66 -68 11 C-64.62895369 11.06033192 -61.27270523 11.02017057 -57.90234375 10.9609375 C-54.65695475 10.92546877 -52.10355696 10.96548101 -49 12 C-48.05125 11.835 -47.1025 11.67 -46.125 11.5 C-43 11 -43 11 -40.4375 11.5625 C-37.37350938 12.11244703 -35.80590697 11.21336518 -33 10 C-32.34 10.33 -31.68 10.66 -31 11 C-31 10.34 -31 9.68 -31 9 C-30.443125 9.20625 -29.88625 9.4125 -29.3125 9.625 C-26.30564828 10.11259758 -24.74755537 9.23639992 -22 8 C-19.87410972 7.39260278 -18.20875717 7 -16 7 C-16 6.34 -16 5.68 -16 5 C-15.01 5 -14.02 5 -13 5 C-13 4.34 -13 3.68 -13 3 C-11.02 3 -9.04 3 -7 3 C-7 2.34 -7 1.68 -7 1 C-4.69 1.33 -2.38 1.66 0 2 C0 1.34 0 0.68 0 0 Z " fill="#777679" transform="translate(163,125)"/>
<path d="M0 0 C2.48476593 1.52599766 4.69303101 3.20056419 7 5 C6.34 6.32 5.68 7.64 5 9 C4.34 9 3.68 9 3 9 C3 10.65 3 12.3 3 14 C0.27068288 15.36465856 -0.99205082 14.60794746 -4 14 C-7.1000707 13.73303942 -10.20481422 13.58712023 -13.3125 13.4375 C-14.14845703 13.39431641 -14.98441406 13.35113281 -15.84570312 13.30664062 C-17.89696935 13.20114693 -19.9484648 13.10012685 -22 13 C-22.33 12.01 -22.66 11.02 -23 10 C-22.401875 9.566875 -21.80375 9.13375 -21.1875 8.6875 C-17.81521749 6.08602492 -15.75420593 3.91322861 -14 0 C-14 0.99 -14 1.98 -14 3 C-13.34 3 -12.68 3 -12 3 C-12 2.34 -12 1.68 -12 1 C-7.53395752 -0.80768386 -4.64761588 -1.42273955 0 0 Z " fill="#E8EAED" transform="translate(138,64)"/>
<path d="M0 0 C1.72945653 0.14235457 3.45855654 0.28904382 5.1875 0.4375 C6.63189453 0.55931641 6.63189453 0.55931641 8.10546875 0.68359375 C11 1 11 1 13.80078125 1.59765625 C14.52652344 1.73042969 15.25226562 1.86320312 16 2 C16.33 1.67 16.66 1.34 17 1 C22.52941176 0.76470588 22.52941176 0.76470588 25 2 C26.37342831 2.0689472 27.75002102 2.08467708 29.125 2.0625 C31.043125 2.0315625 31.043125 2.0315625 33 2 C33.33 1.34 33.66 0.68 34 0 C34.66 0 35.32 0 36 0 C36 0.66 36 1.32 36 2 C36.66 2 37.32 2 38 2 C38 1.34 38 0.68 38 0 C38.66 0.33 39.32 0.66 40 1 C39.67 2.65 39.34 4.3 39 6 C40.32 6.66 41.64 7.32 43 8 C42 9 42 9 38.21459961 9.11352539 C36.52717271 9.11336622 34.83974095 9.10766917 33.15234375 9.09765625 C31.82270348 9.09553383 31.82270348 9.09553383 30.46620178 9.09336853 C27.62326746 9.08775215 24.78041069 9.07519691 21.9375 9.0625 C20.01497509 9.05748711 18.09244896 9.05292384 16.16992188 9.04882812 C11.44658451 9.03777741 6.72330542 9.02050183 2 9 C0.875 5.25 0.875 5.25 2 3 C1.34 3 0.68 3 0 3 C0 2.01 0 1.02 0 0 Z " fill="#BEBEC1" transform="translate(24,125)"/>
<path d="M0 0 C0.74056641 0.02255859 1.48113281 0.04511719 2.24414062 0.06835938 C4.05947357 0.1269185 5.87375681 0.21659114 7.6875 0.3125 C8.09030546 2.29967359 8.41985727 4.30265461 8.6875 6.3125 C7.3125 8.0625 7.3125 8.0625 5.6875 9.3125 C5.3575 9.9725 5.0275 10.6325 4.6875 11.3125 C0.40978771 14.12953004 -2.53657245 14.67669869 -7.4375 13.83203125 C-10.0382676 13.11140189 -12.04953928 11.76311585 -14.3125 10.3125 C-16.62941454 9.59083809 -18.96098923 8.91190471 -21.3125 8.3125 C-20.9825 6.6625 -20.6525 5.0125 -20.3125 3.3125 C-17.92685923 3.88834432 -15.64567216 4.53477595 -13.3125 5.3125 C-12.65894531 4.49394531 -12.00539063 3.67539063 -11.33203125 2.83203125 C-7.37480657 -0.46992207 -4.95765571 -0.28797821 0 0 Z " fill="#DEDFE4" transform="translate(114.3125,61.6875)"/>
<path d="M0 0 C0.66 0 1.32 0 2 0 C1.75 1.875 1.75 1.875 1 4 C-2.68317331 6.61599745 -7.01566733 6.55408595 -11.375 6.8125 C-12.1175 6.87630859 -12.86 6.94011719 -13.625 7.00585938 C-18.58238725 7.31679091 -21.64572366 6.67476975 -26 4 C-26 3.34 -26 2.68 -26 2 C-17.42 2 -8.84 2 0 2 C0 1.34 0 0.68 0 0 Z M-20 7 C-20 7.66 -20 8.32 -20 9 C-19.01 9.33 -18.02 9.66 -17 10 C-25.03501094 12.27571116 -25.03501094 12.27571116 -29.0625 11.125 C-29.701875 10.75375 -30.34125 10.3825 -31 10 C-30.34 9.67 -29.68 9.34 -29 9 C-29 8.34 -29 7.68 -29 7 C-25.93109813 5.46554906 -23.29905734 6.45015711 -20 7 Z " fill="#C6C6C9" transform="translate(63,116)"/>
<path d="M0 0 C0 0.66 0 1.32 0 2 C-0.55429688 2.19335938 -1.10859375 2.38671875 -1.6796875 2.5859375 C-2.40414062 2.84632812 -3.12859375 3.10671875 -3.875 3.375 C-4.59429687 3.63023438 -5.31359375 3.88546875 -6.0546875 4.1484375 C-8.18157994 4.93877783 -8.18157994 4.93877783 -10 7 C-12.92991019 6.81870815 -15.72692113 6.53430659 -18.625 6.125 C-19.42679687 6.02058594 -20.22859375 5.91617188 -21.0546875 5.80859375 C-23.03777197 5.54890412 -25.01908028 5.27571688 -27 5 C-27 4.34 -27 3.68 -27 3 C-25.68 2.67 -24.36 2.34 -23 2 C-23.33 1.34 -23.66 0.68 -24 0 C-16.78610411 -2.68424033 -6.82879594 -4.18699897 0 0 Z " fill="#EBEDF1" transform="translate(113,96)"/>
<path d="M0 0 C1.32 0 2.64 0 4 0 C4 0.66 4 1.32 4 2 C4.969375 1.95875 5.93875 1.9175 6.9375 1.875 C9.79280375 1.87215607 12.29280686 2.2242001 15.0625 2.90625 C20.35651517 4.1299922 25.68189527 4.89111098 31.0625 5.625 C32.02349609 5.7590625 32.98449219 5.893125 33.97460938 6.03125 C36.31597687 6.35741065 38.65774764 6.68026702 41 7 C39 9 39 9 35.5625 9.1875 C32 9 32 9 29 8 C26.35013902 7.77043985 23.71683131 7.58245453 21.0625 7.4375 C19.98838867 7.37272461 19.98838867 7.37272461 18.89257812 7.30664062 C15.58657755 7.11361186 12.31288896 7 9 7 C9 7.66 9 8.32 9 9 C9.66 9.33 10.32 9.66 11 10 C11 10.66 11 11.32 11 12 C4.25 12.125 4.25 12.125 2 11 C2.75 9.0625 2.75 9.0625 4 7 C5.32 6.67 6.64 6.34 8 6 C4.7 5.01 1.4 4.02 -2 3 C-1.34 2.67 -0.68 2.34 0 2 C0 1.34 0 0.68 0 0 Z " fill="#B5B5B5" transform="translate(63,128)"/>
<path d="M0 0 C6.02428195 -0.13387293 12.02782246 0.16306855 18 1 C18.33 1.33 18.66 1.66 19 2 C21.34987262 2.23527773 23.70556039 2.41386417 26.0625 2.5625 C27.35285156 2.64628906 28.64320312 2.73007813 29.97265625 2.81640625 C31.47119141 2.90728516 31.47119141 2.90728516 33 3 C33 3.66 33 4.32 33 5 C28.6250563 5.05826088 24.25021302 5.09368457 19.875 5.125 C18.01875 5.15013672 18.01875 5.15013672 16.125 5.17578125 C14.92617187 5.18222656 13.72734375 5.18867188 12.4921875 5.1953125 C11.39245605 5.20578613 10.29272461 5.21625977 9.15966797 5.22705078 C5.81543058 4.98673701 3.12291305 4.18909337 0 3 C0 2.01 0 1.02 0 0 Z " fill="#3D3D3E" transform="translate(76,134)"/>
<path d="M0 0 C8.55439556 0.11096504 16.93039342 0.41812138 25.3125 2.23046875 C27.64427975 2.57450183 29.97737041 2.90996077 32.3125 3.23046875 C32.3125 3.56046875 32.3125 3.89046875 32.3125 4.23046875 C27.84677636 4.28005823 23.38120039 4.31627775 18.9152832 4.34033203 C17.39735114 4.3503642 15.87943827 4.36399313 14.36157227 4.38134766 C12.1745936 4.4057191 9.98787136 4.4169797 7.80078125 4.42578125 C6.48634033 4.43625488 5.17189941 4.44672852 3.81762695 4.45751953 C0.49867411 4.24252851 -1.72064007 3.67272698 -4.6875 2.23046875 C-2.6875 0.23046875 -2.6875 0.23046875 0 0 Z " fill="#323133" transform="translate(34.6875,128.76953125)"/>
<path d="M0 0 C0.66 0.66 1.32 1.32 2 2 C5.58343976 2.16677282 5.58343976 2.16677282 9 2 C9 3.65 9 5.3 9 7 C8.01 7.495 8.01 7.495 7 8 C7 7.34 7 6.68 7 6 C6.44441406 6.15210938 5.88882813 6.30421875 5.31640625 6.4609375 C2.85328962 7.03414171 0.4520429 7.35951282 -2.0625 7.625 C-2.91972656 7.72039062 -3.77695313 7.81578125 -4.66015625 7.9140625 C-7 8 -7 8 -10 7 C-11.66621616 6.96125079 -13.33394172 6.9549714 -15 7 C-15 6.67 -15 6.34 -15 6 C-17.97 5.505 -17.97 5.505 -21 5 C-21 4.67 -21 4.34 -21 4 C-20.38253906 4.01160156 -19.76507813 4.02320313 -19.12890625 4.03515625 C-14.73994238 4.08191842 -10.37654782 4.0433169 -6 3.6875 C-4.9171875 3.60048828 -4.9171875 3.60048828 -3.8125 3.51171875 C-1.59579739 3.09789857 -1.59579739 3.09789857 0 0 Z " fill="#C8C7CA" transform="translate(117,130)"/>
<path d="M0 0 C0.53625 0.226875 1.0725 0.45375 1.625 0.6875 C1.625 1.3475 1.625 2.0075 1.625 2.6875 C0.965 2.6875 0.305 2.6875 -0.375 2.6875 C-0.6225 3.326875 -0.87 3.96625 -1.125 4.625 C-2.375 6.6875 -2.375 6.6875 -4.5 7.4375 C-5.428125 7.56125 -5.428125 7.56125 -6.375 7.6875 C-6.375 7.0275 -6.375 6.3675 -6.375 5.6875 C-7.365 6.3475 -8.355 7.0075 -9.375 7.6875 C-11.5625 7.3125 -11.5625 7.3125 -13.375 6.6875 C-13.045 6.3575 -12.715 6.0275 -12.375 5.6875 C-14.06473726 4.80193256 -14.06473726 4.80193256 -16.375 4.6875 C-18.41791182 5.95410533 -20.42190112 7.28636384 -22.375 8.6875 C-23.035 8.6875 -23.695 8.6875 -24.375 8.6875 C-24.375 7.6975 -24.375 6.7075 -24.375 5.6875 C-20.30638481 3.16625708 -17.11342937 1.22366946 -12.25 2.125 C-7.1401906 2.86674653 -4.66482564 -0.61379285 0 0 Z " fill="#CFD1D6" transform="translate(110.375,80.3125)"/>
<path d="M0 0 C0.66 0 1.32 0 2 0 C1.67 0.99 1.34 1.98 1 3 C0.34 2.34 -0.32 1.68 -1 1 C-0.67 0.67 -0.34 0.34 0 0 Z M1 3 C1 3.99 1 4.98 1 6 C-0.65 6.66 -2.3 7.32 -4 8 C-2.68 8.33 -1.36 8.66 0 9 C0 9.66 0 10.32 0 11 C-2.64 11 -5.28 11 -8 11 C-8 11.66 -8 12.32 -8 13 C-7.34 13 -6.68 13 -6 13 C-6 13.66 -6 14.32 -6 15 C-8.64 14.67 -11.28 14.34 -14 14 C-14 12.68 -14 11.36 -14 10 C-12.68 10 -11.36 10 -10 10 C-9.938125 9.401875 -9.87625 8.80375 -9.8125 8.1875 C-9 6 -9 6 -6.75 4.25 C-3.87860126 2.94481875 -2.10902534 2.73351211 1 3 Z " fill="#DFDEE1" transform="translate(72,70)"/>
<path d="M0 0 C-0.375 2.4375 -0.375 2.4375 -1 5 C-4.21451269 6.60725635 -7.43612536 6.05748185 -11 6 C-11 5.34 -11 4.68 -11 4 C-11.99 3.67 -12.98 3.34 -14 3 C-14 3.66 -14 4.32 -14 5 C-16.31 4.67 -18.62 4.34 -21 4 C-21 4.66 -21 5.32 -21 6 C-22.32 5.67 -23.64 5.34 -25 5 C-24.67 4.34 -24.34 3.68 -24 3 C-21.74545231 2.55375705 -19.46871836 2.21707259 -17.1875 1.9375 C-1.46923199 -0.03339164 -1.46923199 -0.03339164 0 0 Z " fill="#B9B8BB" transform="translate(177,122)"/>
<path d="M0 0 C2.64 0 5.28 0 8 0 C9.1577506 3.47325181 9.06866652 6.36067448 9 10 C5.51329166 8.8905928 2.22515763 7.73662334 -1 6 C-0.67 4.02 -0.34 2.04 0 0 Z " fill="#9EA4AA" transform="translate(151,69)"/>
<path d="M0 0 C0.36554789 3.28993102 0.26218503 4.63099885 -1.6875 7.375 C-4 9 -4 9 -6.75 8.75 C-7.4925 8.5025 -8.235 8.255 -9 8 C-9.6875 5.6875 -9.6875 5.6875 -10 3 C-7.7638263 -1.05306482 -4.16821004 -0.23593642 0 0 Z " fill="#9799A1" transform="translate(117,67)"/>
<path d="M0 0 C2.31 0 4.62 0 7 0 C5.68 0.99 4.36 1.98 3 3 C6.49208181 4.16402727 9.39147772 4.21118508 13.07421875 4.31640625 C13.7580513 4.33718735 14.44188385 4.35796844 15.1464386 4.37937927 C17.3266921 4.44466154 19.50706405 4.50366017 21.6875 4.5625 C23.16732986 4.60570553 24.64714783 4.64932047 26.12695312 4.69335938 C29.75117622 4.80032083 33.37553189 4.90164823 37 5 C37 5.33 37 5.66 37 6 C23.8 6 10.6 6 -3 6 C-2.67 4.68 -2.34 3.36 -2 2 C-1.34 2 -0.68 2 0 2 C0 1.34 0 0.68 0 0 Z " fill="#757576" transform="translate(29,128)"/>
<path d="M0 0 C6.6 0 13.2 0 20 0 C20 0.33 20 0.66 20 1 C17.22964291 1.22162857 14.45961005 1.42779249 11.6875 1.625 C10.90181641 1.68945312 10.11613281 1.75390625 9.30664062 1.8203125 C8.54931641 1.871875 7.79199219 1.9234375 7.01171875 1.9765625 C6.31522217 2.02893066 5.61872559 2.08129883 4.90112305 2.13525391 C3 2 3 2 0 0 Z M3 2 C3 2.66 3 3.32 3 4 C3.99 4.33 4.98 4.66 6 5 C-2.03501094 7.27571116 -2.03501094 7.27571116 -6.0625 6.125 C-6.701875 5.75375 -7.34125 5.3825 -8 5 C-7.34 4.67 -6.68 4.34 -6 4 C-6 3.34 -6 2.68 -6 2 C-2.93109813 0.46554906 -0.29905734 1.45015711 3 2 Z " fill="#CCCCCE" transform="translate(40,121)"/>
<path d="M0 0 C10.03571429 0.83928571 10.03571429 0.83928571 14.375 1.5625 C16.96795893 1.99465982 19.37681126 2.07715261 22 2 C22 2.66 22 3.32 22 4 C23.32 4.33 24.64 4.66 26 5 C11.21867882 4.03644647 11.21867882 4.03644647 5 3 C5 3.66 5 4.32 5 5 C3 6.625 3 6.625 1 8 C1.33 6.35 1.66 4.7 2 3 C1.34 3 0.68 3 0 3 C0 2.01 0 1.02 0 0 Z " fill="#AAAAAB" transform="translate(24,125)"/>
<path d="M0 0 C0.33 0 0.66 0 1 0 C1 3.96 1 7.92 1 12 C-2.96 13.32 -6.92 14.64 -11 16 C-11 14.68 -11 13.36 -11 12 C-8.03 11.34 -5.06 10.68 -2 10 C-2.04125 9.278125 -2.0825 8.55625 -2.125 7.8125 C-1.99078695 4.79270631 -1.24829381 2.73064271 0 0 Z " fill="#C3C5C7" transform="translate(174,97)"/>
<path d="M0 0 C0.66 0.66 1.32 1.32 2 2 C5.12196336 2.46486718 5.12196336 2.46486718 8.625 2.625 C9.81351563 2.69976562 11.00203125 2.77453125 12.2265625 2.8515625 C13.14179687 2.90054688 14.05703125 2.94953125 15 3 C15 3.66 15 4.32 15 5 C12.69 4.67 10.38 4.34 8 4 C8 4.99 8 5.98 8 7 C8.66 7.33 9.32 7.66 10 8 C7.69 8.66 5.38 9.32 3 10 C3.33 8.68 3.66 7.36 4 6 C3.21625 5.896875 2.4325 5.79375 1.625 5.6875 C-1 5 -1 5 -3 2 C-2.01 1.34 -1.02 0.68 0 0 Z " fill="#CED0D5" transform="translate(114,74)"/>
<path d="M0 0 C3.3 0 6.6 0 10 0 C11.00496852 3.01490557 11.10335303 5.04181692 11.0625 8.1875 C11.05347656 9.08855469 11.04445312 9.98960938 11.03515625 10.91796875 C11.02355469 11.60503906 11.01195312 12.29210937 11 13 C10.34 12.67 9.68 12.34 9 12 C9 8.7 9 5.4 9 2 C6.36 2 3.72 2 1 2 C0.67 3.98 0.34 5.96 0 8 C-0.99 7.67 -1.98 7.34 -3 7 C-3 6.01 -3 5.02 -3 4 C-2.34 4 -1.68 4 -1 4 C-0.67 2.68 -0.34 1.36 0 0 Z " fill="#C0C2C7" transform="translate(150,67)"/>
<path d="M0 0 C0.33 1.65 0.66 3.3 1 5 C0.01 5.33 -0.98 5.66 -2 6 C-2 5.01 -2 4.02 -2 3 C-7.01535052 3.32960216 -7.01535052 3.32960216 -11 6 C-11 7.32 -11 8.64 -11 10 C-11.99 9.67 -12.98 9.34 -14 9 C-13.71202981 7.65613912 -13.36784131 6.3242287 -13 5 C-12.814375 4.278125 -12.62875 3.55625 -12.4375 2.8125 C-10.64548687 0.55300518 -9.85682836 0.61336504 -7.0625 0.25 C-4.69038702 0.05491033 -2.38333267 0 0 0 Z " fill="#C4C7CE" transform="translate(119,64)"/>
<path d="M0 0 C6.6 0 13.2 0 20 0 C19.34 1.32 18.68 2.64 18 4 C12.06 3.34 6.12 2.68 0 2 C0 1.34 0 0.68 0 0 Z " fill="#E3E5E9" transform="translate(86,99)"/>
<path d="M0 0 C-1.28913487 0.67154933 -2.58140204 1.33708859 -3.875 2 C-4.59429687 2.37125 -5.31359375 2.7425 -6.0546875 3.125 C-8 4 -8 4 -10 4 C-10 4.66 -10 5.32 -10 6 C-11.65 6 -13.3 6 -15 6 C-15 4.35 -15 2.7 -15 1 C-12.87630763 0.63807496 -10.7509887 0.28568253 -8.625 -0.0625 C-6.84996094 -0.35833984 -6.84996094 -0.35833984 -5.0390625 -0.66015625 C-2 -1 -2 -1 0 0 Z " fill="#C9C9CB" transform="translate(142,130)"/>
<path d="M0 0 C2.31 0.33 4.62 0.66 7 1 C1.08598549 4.18446935 -5.3048892 5.34333902 -12 5 C-12 4.34 -12 3.68 -12 3 C-10.35 3 -8.7 3 -7 3 C-7 2.34 -7 1.68 -7 1 C-4.69 1.33 -2.38 1.66 0 2 C0 1.34 0 0.68 0 0 Z " fill="#5F5F61" transform="translate(163,125)"/>
<path d="M0 0 C-0.33 0.99 -0.66 1.98 -1 3 C1.64 3.33 4.28 3.66 7 4 C7 4.33 7 4.66 7 5 C2.05 5 -2.9 5 -8 5 C-8.33 4.34 -8.66 3.68 -9 3 C-5.92807025 0.26939578 -4.09590633 -0.34132553 0 0 Z " fill="#D2D2D0" transform="translate(88,124)"/>
<path d="M0 0 C1.32 0.33 2.64 0.66 4 1 C2.68 1.33 1.36 1.66 0 2 C-0.0825 2.61875 -0.165 3.2375 -0.25 3.875 C-1 6 -1 6 -2.6875 7.15625 C-5.6092918 8.22230917 -7.67438486 7.99114466 -10.75 7.625 C-12.22726563 7.45871094 -12.22726563 7.45871094 -13.734375 7.2890625 C-14.85585937 7.14597656 -14.85585937 7.14597656 -16 7 C-16 6.67 -16 6.34 -16 6 C-15.09636719 5.90203125 -14.19273438 5.8040625 -13.26171875 5.703125 C-12.08222656 5.55359375 -10.90273437 5.4040625 -9.6875 5.25 C-8.51574219 5.11078125 -7.34398438 4.9715625 -6.13671875 4.828125 C-2.91100634 4.27702468 -2.91100634 4.27702468 -1.08203125 1.921875 C-0.72496094 1.28765625 -0.36789063 0.6534375 0 0 Z " fill="#D2D3D8" transform="translate(81,89)"/>
<path d="M0 0 C2.31 0 4.62 0 7 0 C6.01 0.495 6.01 0.495 5 1 C5 1.66 5 2.32 5 3 C6.98 2.67 8.96 2.34 11 2 C11 2.99 11 3.98 11 5 C7.37 5 3.74 5 0 5 C0 4.34 0 3.68 0 3 C0.66 3 1.32 3 2 3 C2 2.34 2 1.68 2 1 C1.34 0.67 0.68 0.34 0 0 Z " fill="#EEF1F8" transform="translate(75,74)"/>
<path d="M0 0 C0.33 0.66 0.66 1.32 1 2 C-2.63 2.33 -6.26 2.66 -10 3 C-10 2.01 -10 1.02 -10 0 C-6.24527715 -2.59942351 -4.03404839 -1.7929104 0 0 Z " fill="#CACACC" transform="translate(128,125)"/>
<path d="M0 0 C0.66 0.33 1.32 0.66 2 1 C1.2575 2.1446875 1.2575 2.1446875 0.5 3.3125 C-1.24368308 5.92363751 -1.24368308 5.92363751 -1 9 C-0.34 9.66 0.32 10.32 1 11 C-1.96175123 10.38722388 -3.38058783 9.74627478 -6 8 C-4.55746343 4.63408134 -2.66735273 2.48952921 0 0 Z " fill="#D2D6DB" transform="translate(107,64)"/>
<path d="M0 0 C1.32 0 2.64 0 4 0 C4 0.66 4 1.32 4 2 C6.97 2.495 6.97 2.495 10 3 C10 3.66 10 4.32 10 5 C7.36 5 4.72 5 2 5 C2 4.34 2 3.68 2 3 C0.68 2.67 -0.64 2.34 -2 2 C-1.34 2 -0.68 2 0 2 C0 1.34 0 0.68 0 0 Z " fill="#7B7B7C" transform="translate(72,135)"/>
<path d="M0 0 C2.49609375 0.20703125 2.49609375 0.20703125 5.4375 0.8125 C6.40558594 1.00457031 7.37367187 1.19664062 8.37109375 1.39453125 C11 2 11 2 14 3 C14 3.33 14 3.66 14 4 C12.27119018 4.05449838 10.54187288 4.09301688 8.8125 4.125 C7.84957031 4.14820313 6.88664062 4.17140625 5.89453125 4.1953125 C2.87187222 3.9913544 0.73230015 3.26874632 -2 2 C-1.34 1.34 -0.68 0.68 0 0 Z " fill="#404040" transform="translate(32,129)"/>
<path d="M0 0 C1.65 0 3.3 0 5 0 C5.33 0.66 5.66 1.32 6 2 C5.34 2 4.68 2 4 2 C3.67 2.66 3.34 3.32 3 4 C3.66 4 4.32 4 5 4 C5 5.98 5 7.96 5 10 C3.68 9.67 2.36 9.34 1 9 C1.020625 8.071875 1.04125 7.14375 1.0625 6.1875 C1.15769604 2.97713989 1.15769604 2.97713989 0 0 Z " fill="#CECECE" transform="translate(21,124)"/>
<path d="M0 0 C1.32 0 2.64 0 4 0 C4 0.66 4 1.32 4 2 C6.97 2.495 6.97 2.495 10 3 C10 3.66 10 4.32 10 5 C8.37419034 4.88601335 6.74932843 4.75844341 5.125 4.625 C4.22007813 4.55539063 3.31515625 4.48578125 2.3828125 4.4140625 C0 4 0 4 -2 2 C-1.34 2 -0.68 2 0 2 C0 1.34 0 0.68 0 0 Z " fill="#AEAEB0" transform="translate(63,128)"/>
<path d="M0 0 C1.32 0.33 2.64 0.66 4 1 C4 1.66 4 2.32 4 3 C3.34 3 2.68 3 2 3 C1.7525 3.639375 1.505 4.27875 1.25 4.9375 C0 7 0 7 -2.125 7.75 C-3.053125 7.87375 -3.053125 7.87375 -4 8 C-4 6.68 -4 5.36 -4 4 C-3.01 3.67 -2.02 3.34 -1 3 C-0.67 2.01 -0.34 1.02 0 0 Z " fill="#D1D2D8" transform="translate(108,80)"/>
<path d="M0 0 C0.33 0.66 0.66 1.32 1 2 C1.99 2.33 2.98 2.66 4 3 C3.34 3 2.68 3 2 3 C2 3.66 2 4.32 2 5 C2.66 5 3.32 5 4 5 C4 5.66 4 6.32 4 7 C1.36 6.67 -1.28 6.34 -4 6 C-4 4.68 -4 3.36 -4 2 C-2.68 2 -1.36 2 0 2 C0 1.34 0 0.68 0 0 Z " fill="#DFDFE3" transform="translate(62,78)"/>
<path d="M0 0 C0.33 0.66 0.66 1.32 1 2 C1.99 2.33 2.98 2.66 4 3 C1.73452304 3.8918258 -0.53549778 4.76355285 -2.8125 5.625 C-3.45509766 5.88023437 -4.09769531 6.13546875 -4.75976562 6.3984375 C-6.64453125 7.1015625 -6.64453125 7.1015625 -10 8 C-10.99 7.34 -11.98 6.68 -13 6 C-9.38026598 4.68373308 -6.90432869 4 -3 4 C-3 3.34 -3 2.68 -3 2 C-2.01 2 -1.02 2 0 2 C0 1.34 0 0.68 0 0 Z " fill="#868686" transform="translate(150,128)"/>
<path d="M0 0 C0.99 0.33 1.98 0.66 3 1 C1.80859375 2.4921875 1.80859375 2.4921875 0 4 C-2.33984375 4.2578125 -2.33984375 4.2578125 -4.9375 4.125 C-8.20212153 3.97727957 -10.86051145 4.0530545 -14 5 C-12.5 2.9375 -12.5 2.9375 -10 1 C-8.0234375 1.02734375 -8.0234375 1.02734375 -5.875 1.375 C-3.956875 1.684375 -3.956875 1.684375 -2 2 C-1.34 1.34 -0.68 0.68 0 0 Z " fill="#CED0D4" transform="translate(150,83)"/>
<path d="M0 0 C2.31 0 4.62 0 7 0 C3.25 2 3.25 2 1 2 C1 2.99 1 3.98 1 5 C2.32 5.33 3.64 5.66 5 6 C2.36 6 -0.28 6 -3 6 C-2.67 4.68 -2.34 3.36 -2 2 C-1.34 2 -0.68 2 0 2 C0 1.34 0 0.68 0 0 Z " fill="#818181" transform="translate(29,128)"/>
<path d="M0 0 C3.96 0.33 7.92 0.66 12 1 C12 1.66 12 2.32 12 3 C10.35 3 8.7 3 7 3 C7 3.66 7 4.32 7 5 C6.34 5 5.68 5 5 5 C5 4.01 5 3.02 5 2 C3.02 2.33 1.04 2.66 -1 3 C-0.67 2.01 -0.34 1.02 0 0 Z " fill="#D6D8DF" transform="translate(76,78)"/>
<path d="M0 0 C1.670625 0.061875 1.670625 0.061875 3.375 0.125 C2.385 0.455 1.395 0.785 0.375 1.125 C0.375 1.785 0.375 2.445 0.375 3.125 C-0.285 3.125 -0.945 3.125 -1.625 3.125 C-1.625 3.785 -1.625 4.445 -1.625 5.125 C-3.275 5.455 -4.925 5.785 -6.625 6.125 C-5.71577947 1.57889733 -4.95184304 0.17075321 0 0 Z " fill="#A1A4AD" transform="translate(113.625,66.875)"/>
<path d="M0 0 C1.670625 0.061875 1.670625 0.061875 3.375 0.125 C1.375 2.125 1.375 2.125 -1.1875 3.125 C-3.77341441 3.87370114 -3.77341441 3.87370114 -4.625 6.125 C-3.965 6.455 -3.305 6.785 -2.625 7.125 C-3.945 6.795 -5.265 6.465 -6.625 6.125 C-5.71577947 1.57889733 -4.95184304 0.17075321 0 0 Z " fill="#EBEBEB" transform="translate(69.625,132.875)"/>
<path d="M0 0 C8.57142857 -0.14285714 8.57142857 -0.14285714 12 1 C12 1.66 12 2.32 12 3 C4.61538462 3.36923077 4.61538462 3.36923077 1.5 1.5 C1.005 1.005 0.51 0.51 0 0 Z " fill="#E3E4EA" transform="translate(96,94)"/>
<path d="M0 0 C0.66 0 1.32 0 2 0 C2 2.31 2 4.62 2 7 C0.02 6.34 -1.96 5.68 -4 5 C-4 4.34 -4 3.68 -4 3 C-3.01 3 -2.02 3 -1 3 C-0.67 2.01 -0.34 1.02 0 0 Z " fill="#898E94" transform="translate(158,72)"/>
<path d="M0 0 C-3.83542457 2.55694972 -5.65902533 2.04045639 -10.1875 1.625 C-12.09595703 1.45871094 -12.09595703 1.45871094 -14.04296875 1.2890625 C-15.01878906 1.19367188 -15.99460937 1.09828125 -17 1 C-17 0.67 -17 0.34 -17 0 C-14.9174133 -0.19561869 -12.83388144 -0.38119313 -10.75 -0.5625 C-9.58984375 -0.66691406 -8.4296875 -0.77132812 -7.234375 -0.87890625 C-4.48128523 -0.98198087 -2.580018 -0.86213473 0 0 Z " fill="#BEBFC6" transform="translate(111,93)"/>
<path d="M0 0 C1.77049689 -0.05410687 3.54146849 -0.09284119 5.3125 -0.125 C6.29863281 -0.14820313 7.28476562 -0.17140625 8.30078125 -0.1953125 C11 0 11 0 14 2 C8.51053913 3.12029814 5.16569441 2.79217969 0 1 C0 0.67 0 0.34 0 0 Z " fill="#232323" transform="translate(34,129)"/>
<path d="M0 0 C1.98 0 3.96 0 6 0 C6 0.99 6 1.98 6 3 C4.02 3 2.04 3 0 3 C0.33 3.99 0.66 4.98 1 6 C0.34 6 -0.32 6 -1 6 C-0.67 4.02 -0.34 2.04 0 0 Z " fill="#B2B6BB" transform="translate(151,69)"/>
<path d="M0 0 C2.31 0 4.62 0 7 0 C7 0.33 7 0.66 7 1 C5.02 1 3.04 1 1 1 C0.67 3.31 0.34 5.62 0 8 C-0.99 7.67 -1.98 7.34 -3 7 C-3 6.01 -3 5.02 -3 4 C-2.34 4 -1.68 4 -1 4 C-0.67 2.68 -0.34 1.36 0 0 Z " fill="#CDCFD3" transform="translate(150,67)"/>
<path d="M0 0 C5.28 0 10.56 0 16 0 C16 0.33 16 0.66 16 1 C14.02 1 12.04 1 10 1 C10 1.66 10 2.32 10 3 C8.5199159 2.88637738 7.04089926 2.75877092 5.5625 2.625 C4.73878906 2.55539063 3.91507812 2.48578125 3.06640625 2.4140625 C2.38449219 2.27742188 1.70257813 2.14078125 1 2 C0.67 1.34 0.34 0.68 0 0 Z " fill="#E6E7EB" transform="translate(106,62)"/>
<path d="M0 0 C0 0.66 0 1.32 0 2 C-2.97 2 -5.94 2 -9 2 C-9.33 1.34 -9.66 0.68 -10 0 C-3.375 -1.125 -3.375 -1.125 0 0 Z " fill="#2B2B2B" transform="translate(95,136)"/>
<path d="M0 0 C3.96 0.33 7.92 0.66 12 1 C10 3 10 3 6.5625 3.3125 C3 3 3 3 0 0 Z " fill="#AEAEAF" transform="translate(92,134)"/>
<path d="M0 0 C0.33 0.99 0.66 1.98 1 3 C-0.32 4.32 -1.64 5.64 -3 7 C-3.99 6.67 -4.98 6.34 -6 6 C-6 5.34 -6 4.68 -6 4 C-4.36368108 2.95107762 -2.69514137 1.95093297 -1 1 C-0.67 0.67 -0.34 0.34 0 0 Z " fill="#888991" transform="translate(116,69)"/>
<path d="M0 0 C2.31 0 4.62 0 7 0 C6.34 0.66 5.68 1.32 5 2 C5.33 2.66 5.66 3.32 6 4 C3.03 3.505 3.03 3.505 0 3 C0 2.01 0 1.02 0 0 Z " fill="#565658" transform="translate(76,134)"/>
<path d="M0 0 C2.31 0.33 4.62 0.66 7 1 C3.93753253 2.78409802 1.77920727 3.22880021 -1.75 3.125 C-2.54921875 3.10695312 -3.3484375 3.08890625 -4.171875 3.0703125 C-4.77515625 3.04710937 -5.3784375 3.02390625 -6 3 C-6 2.67 -6 2.34 -6 2 C-4.02 2 -2.04 2 0 2 C0 1.34 0 0.68 0 0 Z " fill="#565657" transform="translate(163,125)"/>
<path d="M0 0 C-0.33 0.99 -0.66 1.98 -1 3 C-1.99 3 -2.98 3 -4 3 C-4 3.66 -4 4.32 -4 5 C-5.65 4.67 -7.3 4.34 -9 4 C-3 0 -3 0 0 0 Z " fill="#BDBFC5" transform="translate(108,81)"/>
<path d="M0 0 C0.66 0 1.32 0 2 0 C1.67 0.99 1.34 1.98 1 3 C0.34 2.34 -0.32 1.68 -1 1 C-0.67 0.67 -0.34 0.34 0 0 Z M-3 3 C-0.525 3.495 -0.525 3.495 2 4 C1.67 4.66 1.34 5.32 1 6 C0.01 6 -0.98 6 -2 6 C-2.33 5.01 -2.66 4.02 -3 3 Z " fill="#CCCBCE" transform="translate(72,70)"/>
</svg>
